<?xml version="1.0" encoding="UTF-8" standalone="no"?>
<!-- Created with Inkscape (http://www.inkscape.org/) -->

<svg
   xmlns:dc="http://purl.org/dc/elements/1.1/"
   xmlns:cc="http://creativecommons.org/ns#"
   xmlns:rdf="http://www.w3.org/1999/02/22-rdf-syntax-ns#"
   xmlns:svg="http://www.w3.org/2000/svg"
   xmlns="http://www.w3.org/2000/svg"
   xmlns:sodipodi="http://sodipodi.sourceforge.net/DTD/sodipodi-0.dtd"
   xmlns:inkscape="http://www.inkscape.org/namespaces/inkscape"
   width="108.00947mm"
   height="125.984mm"
   viewBox="0 0 382.71072 446.4"
   id="svg13041"
   version="1.1"
   inkscape:version="0.91 r13725">
  <defs
     id="defs13043" />
  <sodipodi:namedview
     id="base"
     pagecolor="#ffffff"
     bordercolor="#666666"
     borderopacity="1.0"
     inkscape:pageopacity="0.0"
     inkscape:pageshadow="2"
     inkscape:zoom="0.98994949"
     inkscape:cx="72.290724"
     inkscape:cy="311.99243"
     inkscape:document-units="px"
     inkscape:current-layer="layer1"
     showgrid="false"
     inkscape:window-width="1440"
     inkscape:window-height="855"
     inkscape:window-x="121"
     inkscape:window-y="94"
     inkscape:window-maximized="0"
     fit-margin-top="0"
     fit-margin-left="0"
     fit-margin-right="0"
     fit-margin-bottom="0" />
  <metadata
     id="metadata13046">
    <rdf:RDF>
      <cc:Work
         rdf:about="">
        <dc:format>image/svg+xml</dc:format>
        <dc:type
           rdf:resource="http://purl.org/dc/dcmitype/StillImage" />
        <dc:title></dc:title>
      </cc:Work>
    </rdf:RDF>
  </metadata>
  <g
     inkscape:label="Layer 1"
     inkscape:groupmode="layer"
     id="layer1"
     transform="translate(-194.59639,-193.4958)">
    <g
       transform="translate(5918.7071,2685.8958)"
       id="g6368">
      <path
         inkscape:connector-curvature="0"
         class="st1"
         d="m -5645.7,-2311.8 c -0.6,0 -1.2,-0.4 -1.4,-1.1 -5,-20.8 -7.6,-42.1 -7.8,-63.4 0,-0.8 0.6,-1.4 1.4,-1.4 0,0 0,0 0,0 0.8,0 1.4,0.6 1.4,1.4 0.1,21.1 2.7,42.3 7.7,62.8 0.2,0.7 -0.3,1.5 -1,1.7 -0.1,0 -0.2,0 -0.3,0 z"
         id="path6370" />
    </g>
    <g
       transform="translate(5918.7071,2685.8958)"
       id="g6372">
      <path
         inkscape:connector-curvature="0"
         class="st1"
         d="m -5633.2,-2314.8 c -0.6,0 -1.2,-0.4 -1.4,-1.1 -4.2,-18.1 -5.7,-36.8 -4.5,-55.3 0,-0.8 0.7,-1.4 1.5,-1.3 0.8,0 1.4,0.7 1.3,1.5 -1.2,18.3 0.3,36.7 4.5,54.5 0.2,0.7 -0.3,1.5 -1,1.7 -0.2,0 -0.3,0 -0.4,0 z"
         id="path6374" />
    </g>
    <g
       transform="translate(5918.7071,2685.8958)"
       id="g6376">
      <path
         inkscape:connector-curvature="0"
         class="st1"
         d="m -5603.7,-2304 c -0.7,0 -1.3,-0.6 -1.4,-1.3 l -3.5,-46.6 c -0.1,-0.8 0.5,-1.4 1.3,-1.5 0.8,-0.1 1.4,0.5 1.5,1.3 l 3.5,46.6 c 0.1,0.8 -0.5,1.4 -1.3,1.5 0,0 -0.1,0 -0.1,0 z"
         id="path6378" />
    </g>
    <g
       transform="translate(5918.7071,2685.8958)"
       id="g6380">
      <path
         inkscape:connector-curvature="0"
         class="st1"
         d="m -5596.7,-2366.9 c -0.7,0 -1.3,-0.5 -1.4,-1.3 l -3.6,-35.6 c -0.1,-0.8 0.5,-1.4 1.2,-1.5 0.8,-0.1 1.4,0.5 1.5,1.2 l 3.6,35.6 c 0.1,0.8 -0.5,1.4 -1.2,1.5 0,0.1 0,0.1 -0.1,0.1 z"
         id="path6382" />
    </g>
    <g
       transform="translate(5918.7071,2685.8958)"
       id="g6384">
      <path
         inkscape:connector-curvature="0"
         class="st1"
         d="m -5574,-2328.6 c -0.7,0 -1.3,-0.5 -1.4,-1.2 -2.3,-14.6 -2.8,-29.5 -1.5,-44.3 0.1,-0.8 0.7,-1.3 1.5,-1.3 0.8,0.1 1.3,0.7 1.3,1.5 -1.3,14.5 -0.8,29.2 1.5,43.6 0.1,0.8 -0.4,1.5 -1.2,1.6 0,0.1 -0.1,0.1 -0.2,0.1 z"
         id="path6386" />
    </g>
    <g
       transform="translate(5918.7071,2685.8958)"
       id="g6388">
      <path
         inkscape:connector-curvature="0"
         class="st1"
         d="m -5580.3,-2273.9 c -0.7,0 -1.3,-0.5 -1.4,-1.2 -1.5,-10.9 -2,-22.1 -1.3,-33.1 0,-0.8 0.7,-1.4 1.5,-1.3 0.8,0 1.4,0.7 1.3,1.5 -0.7,10.9 -0.2,21.8 1.3,32.6 0.1,0.8 -0.4,1.5 -1.2,1.6 -0.1,-0.1 -0.2,-0.1 -0.2,-0.1 z"
         id="path6390" />
    </g>
    <g
       transform="translate(5918.7071,2685.8958)"
       id="g6392">
      <path
         inkscape:connector-curvature="0"
         class="st1"
         d="m -5555.8,-2279.4 c 0,0 -0.1,0 -0.1,0 -0.8,-0.1 -1.3,-0.7 -1.3,-1.5 0.7,-8.1 0.4,-16.3 -0.7,-24.4 -0.1,-0.8 0.4,-1.5 1.2,-1.6 0.8,-0.1 1.5,0.4 1.6,1.2 1.2,8.3 1.4,16.7 0.7,25 -0.1,0.8 -0.7,1.3 -1.4,1.3 z"
         id="path6394" />
    </g>
    <g
       transform="translate(5918.7071,2685.8958)"
       id="g6396">
      <path
         inkscape:connector-curvature="0"
         class="st1"
         d="m -5541.8,-2316.3 c -0.7,0 -1.4,-0.6 -1.4,-1.3 l -1.6,-47.9 c 0,-0.8 0.6,-1.4 1.3,-1.4 0.8,0 1.4,0.6 1.4,1.3 l 1.6,47.9 c 0.1,0.7 -0.5,1.3 -1.3,1.4 0,-0.1 0,0 0,0 z"
         id="path6398" />
    </g>
    <g
       transform="translate(5918.7071,2685.8958)"
       id="g6400">
      <path
         inkscape:connector-curvature="0"
         class="st1"
         d="m -5620.3,-2227.1 c 0,0 0,0 0,0 -0.8,0 -1.4,-0.7 -1.4,-1.4 l 0.8,-26.7 c 0,-0.8 0.7,-1.4 1.4,-1.3 0.8,0 1.4,0.7 1.3,1.4 l -0.8,26.7 c 0.1,0.7 -0.6,1.3 -1.3,1.3 z"
         id="path6402" />
    </g>
    <g
       transform="translate(5918.7071,2685.8958)"
       id="g6404">
      <path
         inkscape:connector-curvature="0"
         class="st1"
         d="m -5600.5,-2210.4 c -0.7,0 -1.3,-0.5 -1.4,-1.3 -1,-9.5 -0.8,-19.2 0.4,-28.7 0.1,-0.8 0.8,-1.3 1.6,-1.2 0.8,0.1 1.3,0.8 1.2,1.6 -1.2,9.3 -1.4,18.7 -0.4,28 0.1,0.8 -0.5,1.4 -1.2,1.5 -0.1,0.1 -0.2,0.1 -0.2,0.1 z"
         id="path6406" />
    </g>
    <g
       transform="translate(5918.7071,2685.8958)"
       id="g6408">
      <path
         inkscape:connector-curvature="0"
         class="st1"
         d="m -5570.2,-2173.7 c -0.8,0 -1.4,-0.6 -1.4,-1.4 l -1,-50.9 c 0,-0.8 0.6,-1.4 1.4,-1.4 0.8,0 1.4,0.6 1.4,1.4 l 1,50.9 c 0.1,0.8 -0.6,1.4 -1.4,1.4 0.1,0 0.1,0 0,0 z"
         id="path6410" />
    </g>
    <g
       transform="translate(5918.7071,2685.8958)"
       id="g6412">
      <path
         inkscape:connector-curvature="0"
         class="st1"
         d="m -5545.3,-2186.2 c -0.1,0 -0.1,0 0,0 -0.8,0 -1.4,-0.7 -1.4,-1.5 0.7,-13.3 0,-26.7 -2,-39.8 -0.1,-0.8 0.4,-1.5 1.2,-1.6 0.8,-0.1 1.5,0.4 1.6,1.2 2,13.3 2.7,26.9 2,40.4 -0.1,0.7 -0.7,1.3 -1.4,1.3 z"
         id="path6414" />
    </g>
    <g
       transform="translate(5918.7071,2685.8958)"
       id="g6416">
      <path
         inkscape:connector-curvature="0"
         class="st1"
         d="m -5518.6,-2212.9 c -0.1,0 -0.1,0 0,0 -0.9,-0.1 -1.4,-0.7 -1.4,-1.5 0.7,-10.5 0.1,-21.1 -2,-31.4 -0.1,-0.8 0.3,-1.5 1.1,-1.6 0.8,-0.1 1.5,0.3 1.6,1.1 2.1,10.6 2.8,21.4 2,32.1 0,0.7 -0.6,1.3 -1.3,1.3 z"
         id="path6418" />
    </g>
    <g
       transform="translate(5918.7071,2685.8958)"
       id="g6420">
      <path
         inkscape:connector-curvature="0"
         class="st1"
         d="m -5510,-2252.9 c -0.1,0 -0.2,0 -0.3,0 -0.7,-0.2 -1.2,-0.9 -1,-1.7 1.9,-7.7 2.2,-15.9 0.8,-23.7 -0.1,-0.8 0.4,-1.5 1.1,-1.6 0.8,-0.1 1.5,0.4 1.6,1.1 1.4,8.2 1.1,16.8 -0.9,24.8 -0.1,0.7 -0.6,1.1 -1.3,1.1 z"
         id="path6422" />
    </g>
    <g
       transform="translate(5918.7071,2685.8958)"
       id="g6424">
      <path
         inkscape:connector-curvature="0"
         class="st1"
         d="m -5486.4,-2267.5 c 0,0 0,-0.1 0,0 -0.8,0 -1.4,-0.7 -1.4,-1.4 l 1,-49.2 c 0,-0.8 0.6,-1.4 1.4,-1.4 0,0 0,0 0,0 0.8,0 1.4,0.7 1.4,1.4 l -1,49.2 c 0,0.7 -0.6,1.4 -1.4,1.4 z"
         id="path6426" />
    </g>
    <g
       transform="translate(5918.7071,2685.8958)"
       id="g6428">
      <path
         inkscape:connector-curvature="0"
         class="st1"
         d="m -5467.7,-2262.9 c 0,0 -0.1,0 -0.1,0 -0.8,-0.1 -1.3,-0.8 -1.3,-1.5 1.5,-16 2.1,-32.2 1.8,-48.2 0,-0.8 0.6,-1.4 1.4,-1.4 0.8,0 1.4,0.6 1.4,1.4 0.3,16.1 -0.3,32.5 -1.8,48.5 -0.1,0.6 -0.7,1.2 -1.4,1.2 z"
         id="path6430" />
    </g>
    <g
       transform="translate(5918.7071,2685.8958)"
       id="g6432">
      <path
         inkscape:connector-curvature="0"
         class="st1"
         d="m -5442.6,-2212.9 c -0.7,0 -1.3,-0.5 -1.4,-1.2 -1.4,-12.2 -2.3,-24.6 -2.6,-36.8 0,-0.8 0.6,-1.4 1.4,-1.4 0.8,0 1.4,0.6 1.4,1.4 0.3,12.2 1.1,24.5 2.5,36.6 0.1,0.8 -0.5,1.5 -1.2,1.5 0,-0.1 -0.1,-0.1 -0.1,-0.1 z"
         id="path6434" />
    </g>
    <g
       transform="translate(5918.7071,2685.8958)"
       id="g6436">
      <path
         inkscape:connector-curvature="0"
         class="st1"
         d="m -5472.7,-2180.4 c -0.8,0 -1.4,-0.6 -1.4,-1.4 -0.1,-14.2 0.5,-28.5 1.8,-42.7 0.1,-0.8 0.7,-1.3 1.5,-1.3 0.8,0.1 1.3,0.7 1.3,1.5 -1.3,14 -1.9,28.3 -1.8,42.4 0,0.9 -0.7,1.5 -1.4,1.5 0,0 0,0 0,0 z"
         id="path6438" />
    </g>
    <g
       transform="translate(5918.7071,2685.8958)"
       id="g6440">
      <path
         inkscape:connector-curvature="0"
         class="st1"
         d="m -5493.5,-2171.2 c -0.8,0 -1.4,-0.6 -1.4,-1.4 l 0,-33.4 c 0,-0.8 0.6,-1.4 1.4,-1.4 0.8,0 1.4,0.6 1.4,1.4 l 0,33.4 c 0,0.8 -0.7,1.4 -1.4,1.4 z"
         id="path6442" />
    </g>
    <g
       transform="translate(5918.7071,2685.8958)"
       id="g6444">
      <path
         inkscape:connector-curvature="0"
         class="st1"
         d="m -5539.5,-2243.7 c 0,0 0,0 0,0 -0.9,-0.1 -1.4,-0.7 -1.4,-1.5 0.5,-7.9 1.5,-15.8 3,-23.6 0.1,-0.8 0.9,-1.3 1.6,-1.1 0.8,0.1 1.3,0.9 1.1,1.6 -1.5,7.7 -2.5,15.5 -3,23.3 0.1,0.7 -0.5,1.3 -1.3,1.3 z"
         id="path6446" />
    </g>
    <g
       transform="translate(5918.7071,2685.8958)"
       id="g6448">
      <path
         inkscape:connector-curvature="0"
         class="st1"
         d="m -5562.6,-2234.5 c -0.1,0 -0.2,0 -0.2,0 -0.8,-0.1 -1.3,-0.9 -1.1,-1.6 1.4,-7.9 2.2,-16 2.3,-24 0,-0.8 0.6,-1.4 1.4,-1.4 0,0 0,0 0,0 0.8,0 1.4,0.6 1.4,1.4 -0.1,8.2 -0.9,16.4 -2.3,24.5 -0.2,0.6 -0.8,1.1 -1.5,1.1 z"
         id="path6450" />
    </g>
    <g
       transform="translate(5918.7071,2685.8958)"
       id="g6452">
      <path
         inkscape:connector-curvature="0"
         class="st1"
         d="m -5649.4,-2262.4 c -0.1,0 -0.1,0 0,0 -0.8,0 -1.4,-0.7 -1.4,-1.4 0.4,-13.8 0.3,-27.8 -0.5,-41.6 0,-0.8 0.5,-1.4 1.3,-1.5 0.8,0 1.4,0.5 1.5,1.3 0.7,13.9 0.9,27.9 0.5,41.8 -0.1,0.8 -0.7,1.4 -1.4,1.4 z"
         id="path6454" />
    </g>
    <g
       transform="translate(5918.7071,2685.8958)"
       id="g6456">
      <path
         inkscape:connector-curvature="0"
         class="st1"
         d="m -5637,-2268.2 c -0.1,0 -0.1,0 -0.2,0 -0.8,-0.1 -1.3,-0.8 -1.2,-1.6 1.2,-9.9 1.7,-19.9 1.6,-29.8 0,-0.8 0.6,-1.4 1.4,-1.4 0.8,0 1.4,0.6 1.4,1.4 0.2,10.1 -0.4,20.2 -1.6,30.2 -0.1,0.7 -0.7,1.2 -1.4,1.2 z"
         id="path6458" />
    </g>
    <g
       transform="translate(5918.7071,2685.8958)"
       id="g6460">
      <path
         inkscape:connector-curvature="0"
         class="st1"
         d="m -5612.1,-2266.2 c -0.7,0 -1.3,-0.5 -1.4,-1.3 l -2.3,-26.7 c -0.1,-0.8 0.5,-1.4 1.3,-1.5 0.8,-0.1 1.4,0.5 1.5,1.3 l 2.3,26.7 c 0.1,0.8 -0.5,1.4 -1.3,1.5 0,-0.1 -0.1,0 -0.1,0 z"
         id="path6462" />
    </g>
    <g
       transform="translate(5918.7071,2685.8958)"
       id="g6464">
      <path
         inkscape:connector-curvature="0"
         class="st1"
         d="m -5585.3,-2240.4 c -0.7,0 -1.2,-0.5 -1.4,-1.1 -1.6,-8.3 -2.2,-16.9 -1.7,-25.4 0,-0.8 0.7,-1.4 1.5,-1.3 0.8,0 1.4,0.7 1.3,1.5 -0.5,8.3 0.1,16.6 1.6,24.7 0.1,0.8 -0.3,1.5 -1.1,1.6 0,0 -0.1,0 -0.2,0 z"
         id="path6466" />
    </g>
    <g
       transform="translate(5918.7071,2685.8958)"
       id="g6468">
      <path
         inkscape:connector-curvature="0"
         class="st1"
         d="m -5644.3,-2213.5 c 0,0 0,0 0,0 -0.8,0 -1.4,-0.7 -1.4,-1.5 0.4,-9.4 0.3,-18.9 -0.3,-28.2 0,-0.8 0.5,-1.4 1.3,-1.5 0.8,-0.1 1.4,0.5 1.5,1.3 0.6,9.5 0.7,19.1 0.3,28.5 0,0.8 -0.6,1.4 -1.4,1.4 z"
         id="path6470" />
    </g>
    <g
       transform="translate(5918.7071,2685.8958)"
       id="g6472">
      <path
         inkscape:connector-curvature="0"
         class="st1"
         d="m -5630.4,-2165.3 c -0.7,0 -1.3,-0.5 -1.4,-1.2 -1.6,-14.4 -2.5,-29 -2.5,-43.5 0,-0.8 0.6,-1.4 1.4,-1.4 0.8,0 1.4,0.6 1.4,1.4 0,14.4 0.8,28.9 2.5,43.2 0.1,0.8 -0.5,1.5 -1.2,1.5 -0.1,0 -0.1,0 -0.2,0 z"
         id="path6474" />
    </g>
    <g
       transform="translate(5918.7071,2685.8958)"
       id="g6476">
      <path
         inkscape:connector-curvature="0"
         class="st1"
         d="m -5609.7,-2164.7 c -0.8,0 -1.4,-0.6 -1.4,-1.4 l 0,-33.4 c 0,-0.8 0.6,-1.4 1.4,-1.4 0.8,0 1.4,0.6 1.4,1.4 l 0,33.4 c -0.1,0.8 -0.7,1.4 -1.4,1.4 z"
         id="path6478" />
    </g>
    <g
       transform="translate(5918.7071,2685.8958)"
       id="g6480">
      <path
         inkscape:connector-curvature="0"
         class="st1"
         d="m -5592.8,-2154.9 c -0.8,0 -1.4,-0.6 -1.4,-1.4 l 0,-28.4 c 0,-0.8 0.6,-1.4 1.4,-1.4 0.8,0 1.4,0.6 1.4,1.4 l 0,28.4 c 0,0.8 -0.6,1.4 -1.4,1.4 z"
         id="path6482" />
    </g>
    <g
       transform="translate(5918.7071,2685.8958)"
       id="g6484">
      <path
         inkscape:connector-curvature="0"
         class="st1"
         d="m -5553.7,-2158.6 c -0.7,0 -1.3,-0.5 -1.4,-1.3 -0.7,-7 -0.8,-14.1 -0.4,-21.1 0,-0.8 0.7,-1.4 1.5,-1.3 0.8,0 1.4,0.7 1.3,1.5 -0.4,6.9 -0.3,13.8 0.4,20.7 0.1,0.8 -0.5,1.4 -1.3,1.5 -0.1,0 -0.1,0 -0.1,0 z"
         id="path6486" />
    </g>
    <g
       transform="translate(5918.7071,2685.8958)"
       id="g6488">
      <path
         inkscape:connector-curvature="0"
         class="st1"
         d="m -5528.8,-2139.8 c -0.6,0 -1.1,-0.4 -1.3,-0.9 -1.6,-4.4 -2.2,-9.3 -1.7,-14 0.1,-0.8 0.8,-1.3 1.5,-1.2 0.8,0.1 1.3,0.8 1.2,1.5 -0.4,4.3 0.1,8.7 1.6,12.7 0.3,0.7 -0.1,1.5 -0.8,1.8 -0.2,0.1 -0.3,0.1 -0.5,0.1 z"
         id="path6490" />
    </g>
    <g
       transform="translate(5918.7071,2685.8958)"
       id="g6492">
      <path
         inkscape:connector-curvature="0"
         class="st1"
         d="m -5655,-2136.1 c -0.1,0 -0.2,0 -0.3,0 -0.8,-0.2 -1.2,-0.9 -1.1,-1.6 3.2,-16.1 4.5,-32.5 3.8,-48.9 0,-0.8 0.6,-1.4 1.3,-1.5 0.8,0 1.4,0.6 1.5,1.3 0.7,16.6 -0.6,33.3 -3.9,49.5 -0.1,0.7 -0.7,1.2 -1.3,1.2 z"
         id="path6494" />
    </g>
    <g
       transform="translate(5918.7071,2685.8958)"
       id="g6496">
      <path
         inkscape:connector-curvature="0"
         class="st1"
         d="m -5577.6,-2133.6 c -0.8,0 -1.4,-0.6 -1.4,-1.4 l 0,-20.9 c 0,-0.8 0.6,-1.4 1.4,-1.4 0.8,0 1.4,0.6 1.4,1.4 l 0,20.9 c 0,0.8 -0.6,1.4 -1.4,1.4 z"
         id="path6498" />
    </g>
    <g
       transform="translate(5918.7071,2685.8958)"
       id="g6500">
      <path
         inkscape:connector-curvature="0"
         class="st1"
         d="m -5621.6,-2139.8 c 0,0 -0.1,0 0,0 -0.8,0 -1.4,-0.7 -1.4,-1.4 l 0.9,-34.2 c 0,-0.8 0.6,-1.4 1.4,-1.4 0.8,0 1.4,0.7 1.4,1.4 l -0.9,34.2 c -0.1,0.7 -0.7,1.4 -1.4,1.4 z"
         id="path6502" />
    </g>
    <g
       transform="translate(5918.7071,2685.8958)"
       id="g6504">
      <path
         inkscape:connector-curvature="0"
         class="st1"
         d="m -5512,-2152 c 0,0 -0.1,0 -0.1,0 -0.8,-0.1 -1.3,-0.7 -1.3,-1.5 1.5,-17.4 2,-35 1.6,-52.4 0,-0.8 0.6,-1.4 1.4,-1.4 0.8,0 1.4,0.6 1.4,1.4 0.4,17.5 -0.1,35.2 -1.6,52.7 -0.1,0.7 -0.7,1.2 -1.4,1.2 z"
         id="path6506" />
    </g>
    <g
       transform="translate(5918.7071,2685.8958)"
       id="g6508">
      <path
         inkscape:connector-curvature="0"
         class="st1"
         d="m -5448.7,-2167 c -0.7,0 -1.3,-0.6 -1.4,-1.3 -0.8,-10.3 -1,-20.7 -0.5,-31 0,-0.8 0.7,-1.4 1.5,-1.3 0.8,0 1.4,0.7 1.3,1.5 -0.4,10.2 -0.3,20.5 0.5,30.7 0.1,0.8 -0.5,1.4 -1.3,1.5 -0.1,-0.1 -0.1,-0.1 -0.1,-0.1 z"
         id="path6510" />
    </g>
    <g
       transform="translate(5918.7071,2685.8958)"
       id="g6512">
      <path
         inkscape:connector-curvature="0"
         class="st1"
         d="m -5491.9,-2220.4 c -0.8,0 -1.4,-0.6 -1.4,-1.4 l 0,-24.2 c 0,-0.8 0.6,-1.4 1.4,-1.4 0.8,0 1.4,0.6 1.4,1.4 l 0,24.2 c 0,0.8 -0.6,1.4 -1.4,1.4 z"
         id="path6514" />
    </g>
    <g
       transform="translate(5918.7071,2685.8958)"
       id="g6516">
      <path
         inkscape:connector-curvature="0"
         class="st1"
         d="m -5425.1,-2178.7 c -0.8,0 -1.4,-0.6 -1.4,-1.4 -0.4,-20.3 0.1,-40.8 1.7,-61 0.1,-0.8 0.7,-1.3 1.5,-1.3 0.8,0.1 1.3,0.7 1.3,1.5 -1.6,20.1 -2.1,40.6 -1.7,60.7 0,0.9 -0.6,1.5 -1.4,1.5 0,0 0,0 0,0 z"
         id="path6518" />
    </g>
    <g
       transform="translate(5918.7071,2685.8958)"
       id="g6520">
      <path
         inkscape:connector-curvature="0"
         class="st1"
         d="m -5406.6,-2212.1 c 0,0 0,0 0,0 -0.9,0 -1.4,-0.7 -1.4,-1.5 0.8,-14.1 0.6,-28.3 -0.9,-42.4 -0.1,-0.8 0.5,-1.4 1.2,-1.5 0.8,-0.1 1.4,0.5 1.5,1.2 1.4,14.2 1.7,28.6 0.9,42.8 0.1,0.9 -0.5,1.4 -1.3,1.4 z"
         id="path6522" />
    </g>
    <g
       transform="translate(5918.7071,2685.8958)"
       id="g6524">
      <path
         inkscape:connector-curvature="0"
         class="st1"
         d="m -5488.4,-2147.7 c -0.8,0 -1.4,-0.6 -1.4,-1.4 l 0,-11.7 c 0,-0.8 0.6,-1.4 1.4,-1.4 0.8,0 1.4,0.6 1.4,1.4 l 0,11.7 c 0,0.8 -0.6,1.4 -1.4,1.4 z"
         id="path6526" />
    </g>
    <g
       transform="translate(5918.7071,2685.8958)"
       id="g6528">
      <path
         inkscape:connector-curvature="0"
         class="st1"
         d="m -5428.1,-2320.8 c 0,0 0,0 0,0 -0.8,0 -1.4,-0.7 -1.4,-1.4 0.6,-16.6 0.9,-33.4 0.8,-50 0,-0.8 0.6,-1.4 1.4,-1.4 0.7,0 1.4,0.6 1.4,1.4 0,16.6 -0.2,33.5 -0.8,50.1 0,0.7 -0.7,1.3 -1.4,1.3 z"
         id="path6530" />
    </g>
    <g
       transform="translate(5918.7071,2685.8958)"
       id="g6532">
      <path
         inkscape:connector-curvature="0"
         class="st1"
         d="m -5445.2,-2340 c -0.1,0 -0.1,0 0,0 -0.8,0 -1.4,-0.6 -1.4,-1.4 0.2,-15.3 1.1,-30.8 2.7,-46 0.1,-0.8 0.8,-1.3 1.5,-1.2 0.8,0.1 1.3,0.8 1.2,1.5 -1.6,15.2 -2.5,30.6 -2.7,45.8 0,0.7 -0.6,1.3 -1.3,1.3 z"
         id="path6534" />
    </g>
    <g
       transform="translate(5918.7071,2685.8958)"
       id="g6536">
      <path
         inkscape:connector-curvature="0"
         class="st1"
         d="m -5462.6,-2335 c 0,0 0,0 0,0 -0.8,0 -1.4,-0.7 -1.4,-1.4 0.5,-18.6 1.5,-37.4 3.2,-56 0.1,-0.8 0.7,-1.3 1.5,-1.3 0.8,0.1 1.3,0.7 1.3,1.5 -1.6,18.5 -2.7,37.3 -3.1,55.8 -0.1,0.8 -0.7,1.4 -1.5,1.4 z"
         id="path6538" />
    </g>
    <g
       transform="translate(5918.7071,2685.8958)"
       id="g6540">
      <path
         inkscape:connector-curvature="0"
         class="st1"
         d="m -5446,-2291.3 c -0.8,0 -1.4,-0.6 -1.4,-1.4 l 0,-27.5 c 0,-0.8 0.6,-1.4 1.4,-1.4 0.8,0 1.4,0.6 1.4,1.4 l 0,27.5 c 0,0.8 -0.6,1.4 -1.4,1.4 z"
         id="path6542" />
    </g>
    <g
       transform="translate(5918.7071,2685.8958)"
       id="g6544">
      <path
         inkscape:connector-curvature="0"
         class="st1"
         d="m -5428.6,-2279.6 c -0.1,0 -0.1,0 -0.2,0 -0.8,-0.1 -1.3,-0.8 -1.2,-1.6 1.4,-10.4 2,-21 1.8,-31.5 0,-0.8 0.6,-1.4 1.4,-1.4 0.8,0 1.4,0.6 1.4,1.4 0.1,10.6 -0.5,21.3 -1.9,31.9 0,0.7 -0.6,1.2 -1.3,1.2 z"
         id="path6546" />
    </g>
    <g
       transform="translate(5918.7071,2685.8958)"
       id="g6548">
      <path
         inkscape:connector-curvature="0"
         class="st1"
         d="m -5414.9,-2269.6 c 0,0 -0.1,0 0,0 -0.9,0 -1.4,-0.7 -1.4,-1.5 0.9,-14.9 0.6,-30 -0.9,-44.9 -0.1,-0.8 0.5,-1.4 1.2,-1.5 0.8,-0.1 1.4,0.5 1.5,1.2 1.5,15 1.8,30.3 0.9,45.3 0.1,0.8 -0.6,1.4 -1.3,1.4 z"
         id="path6550" />
    </g>
    <g
       transform="translate(5918.7071,2685.8958)"
       id="g6552">
      <path
         inkscape:connector-curvature="0"
         class="st1"
         d="m -5521,-2298 c -0.8,0 -1.4,-0.6 -1.4,-1.4 -0.3,-13.6 -0.2,-27.4 0.2,-41 0,-0.8 0.7,-1.4 1.4,-1.3 0.8,0 1.4,0.7 1.3,1.4 -0.5,13.5 -0.6,27.3 -0.2,40.8 0.1,0.9 -0.5,1.5 -1.3,1.5 0,0 0,0 0,0 z"
         id="path6554" />
    </g>
    <g
       transform="translate(5918.7071,2685.8958)"
       id="g6556">
      <path
         inkscape:connector-curvature="0"
         class="st1"
         d="m -5503.9,-2296 c -0.8,0 -1.4,-0.6 -1.4,-1.4 l 0,-48.4 c 0,-0.8 0.6,-1.4 1.4,-1.4 0.8,0 1.4,0.6 1.4,1.4 l 0,48.4 c 0,0.8 -0.6,1.4 -1.4,1.4 z"
         id="path6558" />
    </g>
    <g
       transform="translate(5918.7071,2685.8958)"
       id="g6560">
      <path
         inkscape:connector-curvature="0"
         class="st1"
         d="m -5485.4,-2347.2 c 0,0 -0.1,0 -0.1,0 -0.8,-0.1 -1.3,-0.7 -1.3,-1.5 1.2,-13.3 0.6,-26.6 -1.6,-39.8 -0.1,-0.8 0.4,-1.5 1.1,-1.6 0.8,-0.1 1.5,0.4 1.6,1.1 2.3,13.4 2.8,27 1.6,40.5 0,0.8 -0.6,1.3 -1.3,1.3 z"
         id="path6562" />
    </g>
    <g
       transform="translate(5918.7071,2685.8958)"
       id="g6564">
      <path
         inkscape:connector-curvature="0"
         class="st1"
         d="m -5486.4,-2267.5 c 0,0 0,-0.1 0,0 -0.8,0 -1.4,-0.7 -1.4,-1.4 l 1,-49.2 c 0,-0.8 0.6,-1.4 1.4,-1.4 0,0 0,0 0,0 0.8,0 1.4,0.7 1.4,1.4 l -1,49.2 c 0,0.7 -0.6,1.4 -1.4,1.4 z"
         id="path6566" />
    </g>
    <g
       transform="translate(5918.7071,2685.8958)"
       id="g6568">
      <path
         inkscape:connector-curvature="0"
         class="st1"
         d="m -5472.7,-2180.4 c -0.8,0 -1.4,-0.6 -1.4,-1.4 -0.1,-14.2 0.5,-28.5 1.8,-42.7 0.1,-0.8 0.7,-1.3 1.5,-1.3 0.8,0.1 1.3,0.7 1.3,1.5 -1.3,14 -1.9,28.3 -1.8,42.4 0,0.9 -0.7,1.5 -1.4,1.5 0,0 0,0 0,0 z"
         id="path6570" />
    </g>
    <g
       transform="translate(5918.7071,2685.8958)"
       id="g6572">
      <path
         inkscape:connector-curvature="0"
         class="st1"
         d="m -5493.5,-2171.2 c -0.8,0 -1.4,-0.6 -1.4,-1.4 l 0,-33.4 c 0,-0.8 0.6,-1.4 1.4,-1.4 0.8,0 1.4,0.6 1.4,1.4 l 0,33.4 c 0,0.8 -0.7,1.4 -1.4,1.4 z"
         id="path6574" />
    </g>
    <g
       transform="translate(5918.7071,2685.8958)"
       id="g6576">
      <path
         inkscape:connector-curvature="0"
         class="st1"
         d="m -5448.7,-2167 c -0.7,0 -1.3,-0.6 -1.4,-1.3 -0.8,-10.3 -1,-20.7 -0.5,-31 0,-0.8 0.7,-1.4 1.5,-1.3 0.8,0 1.4,0.7 1.3,1.5 -0.4,10.2 -0.3,20.5 0.5,30.7 0.1,0.8 -0.5,1.4 -1.3,1.5 -0.1,-0.1 -0.1,-0.1 -0.1,-0.1 z"
         id="path6578" />
    </g>
    <g
       transform="translate(5918.7071,2685.8958)"
       id="g6580">
      <path
         inkscape:connector-curvature="0"
         class="st1"
         d="m -5491.9,-2220.4 c -0.8,0 -1.4,-0.6 -1.4,-1.4 l 0,-24.2 c 0,-0.8 0.6,-1.4 1.4,-1.4 0.8,0 1.4,0.6 1.4,1.4 l 0,24.2 c 0,0.8 -0.6,1.4 -1.4,1.4 z"
         id="path6582" />
    </g>
    <g
       transform="translate(5918.7071,2685.8958)"
       id="g6584">
      <path
         inkscape:connector-curvature="0"
         class="st1"
         d="m -5425.1,-2178.7 c -0.8,0 -1.4,-0.6 -1.4,-1.4 -0.4,-20.3 0.1,-40.8 1.7,-61 0.1,-0.8 0.7,-1.3 1.5,-1.3 0.8,0.1 1.3,0.7 1.3,1.5 -1.6,20.1 -2.1,40.6 -1.7,60.7 0,0.9 -0.6,1.5 -1.4,1.5 0,0 0,0 0,0 z"
         id="path6586" />
    </g>
    <g
       transform="translate(5918.7071,2685.8958)"
       id="g6588">
      <path
         inkscape:connector-curvature="0"
         class="st1"
         d="m -5414.6,-2151.4 c -0.7,0 -1.4,-0.6 -1.4,-1.3 l -0.9,-25 c 0,-0.8 0.6,-1.4 1.3,-1.4 0.8,0 1.4,0.6 1.4,1.3 l 0.9,25 c 0.1,0.7 -0.5,1.4 -1.3,1.4 0,0 0,0 0,0 z"
         id="path6590" />
    </g>
    <g
       transform="translate(5918.7071,2685.8958)"
       id="g6592">
      <path
         inkscape:connector-curvature="0"
         class="st1"
         d="m -5430.3,-2145.4 c -0.7,0 -1.3,-0.5 -1.4,-1.3 l -2.4,-25.9 c -0.1,-0.8 0.5,-1.4 1.3,-1.5 0.8,-0.1 1.4,0.5 1.5,1.3 l 2.4,25.9 c 0.1,0.8 -0.5,1.4 -1.3,1.5 0,0 -0.1,0 -0.1,0 z"
         id="path6594" />
    </g>
    <g
       transform="translate(5918.7071,2685.8958)"
       id="g6596">
      <path
         inkscape:connector-curvature="0"
         class="st1"
         d="m -5467.3,-2152.8 c 0,0 0,0 0,0 -0.8,0 -1.4,-0.7 -1.4,-1.5 l 1,-20.8 c 0,-0.8 0.7,-1.4 1.5,-1.3 0.8,0 1.4,0.7 1.3,1.5 l -1,20.8 c 0,0.7 -0.7,1.3 -1.4,1.3 z"
         id="path6598" />
    </g>
    <g
       transform="translate(5918.7071,2685.8958)"
       id="g6600">
      <path
         inkscape:connector-curvature="0"
         class="st1"
         d="m -5545.3,-2186.2 c -0.1,0 -0.1,0 0,0 -0.8,0 -1.4,-0.7 -1.4,-1.5 0.7,-13.3 0,-26.7 -2,-39.8 -0.1,-0.8 0.4,-1.5 1.2,-1.6 0.8,-0.1 1.5,0.4 1.6,1.2 2,13.3 2.7,26.9 2,40.4 -0.1,0.7 -0.7,1.3 -1.4,1.3 z"
         id="path6602" />
    </g>
    <g
       transform="translate(5918.7071,2685.8958)"
       id="g6604">
      <path
         inkscape:connector-curvature="0"
         class="st1"
         d="m -5493.5,-2171.2 c -0.8,0 -1.4,-0.6 -1.4,-1.4 l 0,-33.4 c 0,-0.8 0.6,-1.4 1.4,-1.4 0.8,0 1.4,0.6 1.4,1.4 l 0,33.4 c 0,0.8 -0.7,1.4 -1.4,1.4 z"
         id="path6606" />
    </g>
    <g
       transform="translate(5918.7071,2685.8958)"
       id="g6608">
      <path
         inkscape:connector-curvature="0"
         class="st1"
         d="m -5630.4,-2165.3 c -0.7,0 -1.3,-0.5 -1.4,-1.2 -1.6,-14.4 -2.5,-29 -2.5,-43.5 0,-0.8 0.6,-1.4 1.4,-1.4 0.8,0 1.4,0.6 1.4,1.4 0,14.4 0.8,28.9 2.5,43.2 0.1,0.8 -0.5,1.5 -1.2,1.5 -0.1,0 -0.1,0 -0.2,0 z"
         id="path6610" />
    </g>
    <g
       transform="translate(5918.7071,2685.8958)"
       id="g6612">
      <path
         inkscape:connector-curvature="0"
         class="st1"
         d="m -5609.7,-2164.7 c -0.8,0 -1.4,-0.6 -1.4,-1.4 l 0,-33.4 c 0,-0.8 0.6,-1.4 1.4,-1.4 0.8,0 1.4,0.6 1.4,1.4 l 0,33.4 c -0.1,0.8 -0.7,1.4 -1.4,1.4 z"
         id="path6614" />
    </g>
    <g
       transform="translate(5918.7071,2685.8958)"
       id="g6616">
      <path
         inkscape:connector-curvature="0"
         class="st1"
         d="m -5609.7,-2414.7 c -0.8,0 -1.4,-0.6 -1.4,-1.4 l 0,-33.4 c 0,-0.8 0.6,-1.4 1.4,-1.4 0.8,0 1.4,0.6 1.4,1.4 l 0,33.4 c -0.1,0.8 -0.7,1.4 -1.4,1.4 z"
         id="path6618" />
    </g>
    <g
       transform="translate(5918.7071,2685.8958)"
       id="g6620">
      <path
         inkscape:connector-curvature="0"
         class="st1"
         d="m -5592.8,-2404.9 c -0.8,0 -1.4,-0.6 -1.4,-1.4 l 0,-28.4 c 0,-0.8 0.6,-1.4 1.4,-1.4 0.8,0 1.4,0.6 1.4,1.4 l 0,28.4 c 0,0.8 -0.6,1.4 -1.4,1.4 z"
         id="path6622" />
    </g>
    <g
       transform="translate(5918.7071,2685.8958)"
       id="g6624">
      <path
         inkscape:connector-curvature="0"
         class="st1"
         d="m -5609.7,-2414.7 c -0.8,0 -1.4,-0.6 -1.4,-1.4 l 0,-33.4 c 0,-0.8 0.6,-1.4 1.4,-1.4 0.8,0 1.4,0.6 1.4,1.4 l 0,33.4 c -0.1,0.8 -0.7,1.4 -1.4,1.4 z"
         id="path6626" />
    </g>
    <g
       transform="translate(5918.7071,2685.8958)"
       id="g6628">
      <path
         inkscape:connector-curvature="0"
         class="st1"
         d="m -5592.8,-2404.9 c -0.8,0 -1.4,-0.6 -1.4,-1.4 l 0,-28.4 c 0,-0.8 0.6,-1.4 1.4,-1.4 0.8,0 1.4,0.6 1.4,1.4 l 0,28.4 c 0,0.8 -0.6,1.4 -1.4,1.4 z"
         id="path6630" />
    </g>
    <g
       transform="translate(5918.7071,2685.8958)"
       id="g6632">
      <path
         inkscape:connector-curvature="0"
         class="st1"
         d="m -5528.8,-2139.8 c -0.6,0 -1.1,-0.4 -1.3,-0.9 -1.6,-4.4 -2.2,-9.3 -1.7,-14 0.1,-0.8 0.8,-1.3 1.5,-1.2 0.8,0.1 1.3,0.8 1.2,1.5 -0.4,4.3 0.1,8.7 1.6,12.7 0.3,0.7 -0.1,1.5 -0.8,1.8 -0.2,0.1 -0.3,0.1 -0.5,0.1 z"
         id="path6634" />
    </g>
    <g
       transform="translate(5918.7071,2685.8958)"
       id="g6636">
      <path
         inkscape:connector-curvature="0"
         class="st1"
         d="m -5570.2,-2423.7 c -0.8,0 -1.4,-0.6 -1.4,-1.4 l -1,-50.9 c 0,-0.8 0.6,-1.4 1.4,-1.4 0.8,0 1.4,0.6 1.4,1.4 l 1,50.9 c 0.1,0.8 -0.6,1.4 -1.4,1.4 0.1,0 0.1,0 0,0 z"
         id="path6638" />
    </g>
    <g
       transform="translate(5918.7071,2685.8958)"
       id="g6640">
      <path
         inkscape:connector-curvature="0"
         class="st1"
         d="m -5553.7,-2408.6 c -0.7,0 -1.3,-0.5 -1.4,-1.3 -0.7,-7 -0.8,-14.1 -0.4,-21.1 0,-0.8 0.7,-1.4 1.5,-1.3 0.8,0 1.4,0.7 1.3,1.5 -0.4,6.9 -0.3,13.8 0.4,20.7 0.1,0.8 -0.5,1.4 -1.3,1.5 -0.1,0 -0.1,0 -0.1,0 z"
         id="path6642" />
    </g>
    <g
       transform="translate(5918.7071,2685.8958)"
       id="g6644">
      <path
         inkscape:connector-curvature="0"
         class="st1"
         d="m -5528.8,-2389.8 c -0.6,0 -1.1,-0.4 -1.3,-0.9 -1.6,-4.4 -2.2,-9.3 -1.7,-14 0.1,-0.8 0.8,-1.3 1.5,-1.2 0.8,0.1 1.3,0.8 1.2,1.5 -0.4,4.3 0.1,8.7 1.6,12.7 0.3,0.7 -0.1,1.5 -0.8,1.8 -0.2,0.1 -0.3,0.1 -0.5,0.1 z"
         id="path6646" />
    </g>
    <g
       transform="translate(5918.7071,2685.8958)"
       id="g6648">
      <path
         inkscape:connector-curvature="0"
         class="st1"
         d="m -5577.6,-2383.6 c -0.8,0 -1.4,-0.6 -1.4,-1.4 l 0,-20.9 c 0,-0.8 0.6,-1.4 1.4,-1.4 0.8,0 1.4,0.6 1.4,1.4 l 0,20.9 c 0,0.8 -0.6,1.4 -1.4,1.4 z"
         id="path6650" />
    </g>
    <g
       transform="translate(5918.7071,2685.8958)"
       id="g6652">
      <path
         inkscape:connector-curvature="0"
         class="st1"
         d="m -5528.8,-2389.8 c -0.6,0 -1.1,-0.4 -1.3,-0.9 -1.6,-4.4 -2.2,-9.3 -1.7,-14 0.1,-0.8 0.8,-1.3 1.5,-1.2 0.8,0.1 1.3,0.8 1.2,1.5 -0.4,4.3 0.1,8.7 1.6,12.7 0.3,0.7 -0.1,1.5 -0.8,1.8 -0.2,0.1 -0.3,0.1 -0.5,0.1 z"
         id="path6654" />
    </g>
    <g
       transform="translate(5918.7071,2685.8958)"
       id="g6656">
      <path
         inkscape:connector-curvature="0"
         class="st1"
         d="m -5655,-2136.1 c -0.1,0 -0.2,0 -0.3,0 -0.8,-0.2 -1.2,-0.9 -1.1,-1.6 3.2,-16.1 4.5,-32.5 3.8,-48.9 0,-0.8 0.6,-1.4 1.3,-1.5 0.8,0 1.4,0.6 1.5,1.3 0.7,16.6 -0.6,33.3 -3.9,49.5 -0.1,0.7 -0.7,1.2 -1.3,1.2 z"
         id="path6658" />
    </g>
    <g
       transform="translate(5918.7071,2685.8958)"
       id="g6660">
      <path
         inkscape:connector-curvature="0"
         class="st1"
         d="m -5630.4,-2415.3 c -0.7,0 -1.3,-0.5 -1.4,-1.2 -1.6,-14.4 -2.5,-29 -2.5,-43.5 0,-0.8 0.6,-1.4 1.4,-1.4 0.8,0 1.4,0.6 1.4,1.4 0,14.4 0.8,28.9 2.5,43.2 0.1,0.8 -0.5,1.5 -1.2,1.5 -0.1,0 -0.1,0 -0.2,0 z"
         id="path6662" />
    </g>
    <g
       transform="translate(5918.7071,2685.8958)"
       id="g6664">
      <path
         inkscape:connector-curvature="0"
         class="st1"
         d="m -5655,-2386.1 c -0.1,0 -0.2,0 -0.3,0 -0.8,-0.2 -1.2,-0.9 -1.1,-1.6 3.2,-16.1 4.5,-32.5 3.8,-48.9 0,-0.8 0.6,-1.4 1.3,-1.5 0.8,0 1.4,0.6 1.5,1.3 0.7,16.6 -0.6,33.3 -3.9,49.5 -0.1,0.7 -0.7,1.2 -1.3,1.2 z"
         id="path6666" />
    </g>
    <g
       transform="translate(5918.7071,2685.8958)"
       id="g6668">
      <path
         inkscape:connector-curvature="0"
         class="st1"
         d="m -5630.4,-2415.3 c -0.7,0 -1.3,-0.5 -1.4,-1.2 -1.6,-14.4 -2.5,-29 -2.5,-43.5 0,-0.8 0.6,-1.4 1.4,-1.4 0.8,0 1.4,0.6 1.4,1.4 0,14.4 0.8,28.9 2.5,43.2 0.1,0.8 -0.5,1.5 -1.2,1.5 -0.1,0 -0.1,0 -0.2,0 z"
         id="path6670" />
    </g>
    <g
       transform="translate(5918.7071,2685.8958)"
       id="g6672">
      <path
         inkscape:connector-curvature="0"
         class="st1"
         d="m -5655,-2386.1 c -0.1,0 -0.2,0 -0.3,0 -0.8,-0.2 -1.2,-0.9 -1.1,-1.6 3.2,-16.1 4.5,-32.5 3.8,-48.9 0,-0.8 0.6,-1.4 1.3,-1.5 0.8,0 1.4,0.6 1.5,1.3 0.7,16.6 -0.6,33.3 -3.9,49.5 -0.1,0.7 -0.7,1.2 -1.3,1.2 z"
         id="path6674" />
    </g>
    <g
       transform="translate(5918.7071,2685.8958)"
       id="g6676">
      <path
         inkscape:connector-curvature="0"
         class="st1"
         d="m -5621.6,-2139.8 c 0,0 -0.1,0 0,0 -0.8,0 -1.4,-0.7 -1.4,-1.4 l 0.9,-34.2 c 0,-0.8 0.6,-1.4 1.4,-1.4 0.8,0 1.4,0.7 1.4,1.4 l -0.9,34.2 c -0.1,0.7 -0.7,1.4 -1.4,1.4 z"
         id="path6678" />
    </g>
    <g
       transform="translate(5918.7071,2685.8958)"
       id="g6680">
      <path
         inkscape:connector-curvature="0"
         class="st1"
         d="m -5621.6,-2389.8 c 0,0 -0.1,-0.1 0,0 -0.8,0 -1.4,-0.7 -1.4,-1.4 l 0.9,-34.2 c 0,-0.8 0.6,-1.4 1.4,-1.4 0.8,0 1.4,0.7 1.4,1.4 l -0.9,34.2 c -0.1,0.7 -0.7,1.4 -1.4,1.4 z"
         id="path6682" />
    </g>
    <g
       transform="translate(5918.7071,2685.8958)"
       id="g6684">
      <path
         inkscape:connector-curvature="0"
         class="st1"
         d="m -5621.6,-2389.8 c 0,0 -0.1,-0.1 0,0 -0.8,0 -1.4,-0.7 -1.4,-1.4 l 0.9,-34.2 c 0,-0.8 0.6,-1.4 1.4,-1.4 0.8,0 1.4,0.7 1.4,1.4 l -0.9,34.2 c -0.1,0.7 -0.7,1.4 -1.4,1.4 z"
         id="path6686" />
    </g>
    <g
       transform="translate(5918.7071,2685.8958)"
       id="g6688">
      <path
         inkscape:connector-curvature="0"
         class="st1"
         d="m -5448.7,-2167 c -0.7,0 -1.3,-0.6 -1.4,-1.3 -0.8,-10.3 -1,-20.7 -0.5,-31 0,-0.8 0.7,-1.4 1.5,-1.3 0.8,0 1.4,0.7 1.3,1.5 -0.4,10.2 -0.3,20.5 0.5,30.7 0.1,0.8 -0.5,1.4 -1.3,1.5 -0.1,-0.1 -0.1,-0.1 -0.1,-0.1 z"
         id="path6690" />
    </g>
    <g
       transform="translate(5918.7071,2685.8958)"
       id="g6692">
      <path
         inkscape:connector-curvature="0"
         class="st1"
         d="m -5493.5,-2421.2 c -0.8,0 -1.4,-0.6 -1.4,-1.4 l 0,-33.4 c 0,-0.8 0.6,-1.4 1.4,-1.4 0.8,0 1.4,0.6 1.4,1.4 l 0,33.4 c 0,0.8 -0.7,1.4 -1.4,1.4 z"
         id="path6694" />
    </g>
    <g
       transform="translate(5918.7071,2685.8958)"
       id="g6696">
      <path
         inkscape:connector-curvature="0"
         class="st1"
         d="m -5512,-2402 c 0,0 -0.1,0 -0.1,0 -0.8,-0.1 -1.3,-0.7 -1.3,-1.5 1.5,-17.4 2,-35 1.6,-52.4 0,-0.8 0.6,-1.4 1.4,-1.4 0.8,0 1.4,0.6 1.4,1.4 0.4,17.5 -0.1,35.2 -1.6,52.7 -0.1,0.7 -0.7,1.2 -1.4,1.2 z"
         id="path6698" />
    </g>
    <g
       transform="translate(5918.7071,2685.8958)"
       id="g6700">
      <path
         inkscape:connector-curvature="0"
         class="st1"
         d="m -5488.4,-2397.7 c -0.8,0 -1.4,-0.6 -1.4,-1.4 l 0,-11.7 c 0,-0.8 0.6,-1.4 1.4,-1.4 0.8,0 1.4,0.6 1.4,1.4 l 0,11.7 c 0,0.8 -0.6,1.4 -1.4,1.4 z"
         id="path6702" />
    </g>
    <g
       transform="translate(5918.7071,2685.8958)"
       id="g6704">
      <path
         inkscape:connector-curvature="0"
         class="st1"
         d="m -5493.5,-2421.2 c -0.8,0 -1.4,-0.6 -1.4,-1.4 l 0,-33.4 c 0,-0.8 0.6,-1.4 1.4,-1.4 0.8,0 1.4,0.6 1.4,1.4 l 0,33.4 c 0,0.8 -0.7,1.4 -1.4,1.4 z"
         id="path6706" />
    </g>
    <g
       transform="translate(5918.7071,2685.8958)"
       id="g6708">
      <path
         inkscape:connector-curvature="0"
         class="st1"
         d="m -5493.5,-2421.2 c -0.8,0 -1.4,-0.6 -1.4,-1.4 l 0,-33.4 c 0,-0.8 0.6,-1.4 1.4,-1.4 0.8,0 1.4,0.6 1.4,1.4 l 0,33.4 c 0,0.8 -0.7,1.4 -1.4,1.4 z"
         id="path6710" />
    </g>
    <g
       transform="translate(5918.7071,2685.8958)"
       id="g6712">
      <path
         inkscape:connector-curvature="0"
         class="st1"
         d="m -5512,-2402 c 0,0 -0.1,0 -0.1,0 -0.8,-0.1 -1.3,-0.7 -1.3,-1.5 1.5,-17.4 2,-35 1.6,-52.4 0,-0.8 0.6,-1.4 1.4,-1.4 0.8,0 1.4,0.6 1.4,1.4 0.4,17.5 -0.1,35.2 -1.6,52.7 -0.1,0.7 -0.7,1.2 -1.4,1.2 z"
         id="path6714" />
    </g>
    <g
       transform="translate(5918.7071,2685.8958)"
       id="g6716">
      <path
         inkscape:connector-curvature="0"
         class="st1"
         d="m -5488.4,-2397.7 c -0.8,0 -1.4,-0.6 -1.4,-1.4 l 0,-11.7 c 0,-0.8 0.6,-1.4 1.4,-1.4 0.8,0 1.4,0.6 1.4,1.4 l 0,11.7 c 0,0.8 -0.6,1.4 -1.4,1.4 z"
         id="path6718" />
    </g>
    <g
       transform="translate(5918.7071,2685.8958)"
       id="g6720">
      <path
         inkscape:connector-curvature="0"
         class="st1"
         d="m -5493.5,-2421.2 c -0.8,0 -1.4,-0.6 -1.4,-1.4 l 0,-33.4 c 0,-0.8 0.6,-1.4 1.4,-1.4 0.8,0 1.4,0.6 1.4,1.4 l 0,33.4 c 0,0.8 -0.7,1.4 -1.4,1.4 z"
         id="path6722" />
    </g>
    <g
       transform="translate(5918.7071,2685.8958)"
       id="g6724">
      <path
         inkscape:connector-curvature="0"
         class="st1"
         d="m -5448.7,-2167 c -0.7,0 -1.3,-0.6 -1.4,-1.3 -0.8,-10.3 -1,-20.7 -0.5,-31 0,-0.8 0.7,-1.4 1.5,-1.3 0.8,0 1.4,0.7 1.3,1.5 -0.4,10.2 -0.3,20.5 0.5,30.7 0.1,0.8 -0.5,1.4 -1.3,1.5 -0.1,-0.1 -0.1,-0.1 -0.1,-0.1 z"
         id="path6726" />
    </g>
    <g
       transform="translate(5918.7071,2685.8958)"
       id="g6728">
      <path
         inkscape:connector-curvature="0"
         class="st1"
         d="m -5717.7,-2262.9 c 0,0 -0.1,0 -0.1,0 -0.8,-0.1 -1.3,-0.8 -1.3,-1.5 1.5,-16 2.1,-32.2 1.8,-48.2 0,-0.8 0.6,-1.4 1.4,-1.4 0.8,0 1.4,0.6 1.4,1.4 0.3,16.1 -0.3,32.5 -1.8,48.5 -0.1,0.6 -0.7,1.2 -1.4,1.2 z"
         id="path6730" />
    </g>
    <g
       transform="translate(5918.7071,2685.8958)"
       id="g6732">
      <path
         inkscape:connector-curvature="0"
         class="st1"
         d="m -5692.6,-2212.9 c -0.7,0 -1.3,-0.5 -1.4,-1.2 -1.4,-12.2 -2.3,-24.6 -2.6,-36.8 0,-0.8 0.6,-1.4 1.4,-1.4 0.8,0 1.4,0.6 1.4,1.4 0.3,12.2 1.1,24.5 2.5,36.6 0.1,0.8 -0.5,1.5 -1.2,1.5 0,-0.1 -0.1,-0.1 -0.1,-0.1 z"
         id="path6734" />
    </g>
    <g
       transform="translate(5918.7071,2685.8958)"
       id="g6736">
      <path
         inkscape:connector-curvature="0"
         class="st1"
         d="m -5722.7,-2180.4 c -0.8,0 -1.4,-0.6 -1.4,-1.4 -0.1,-14.2 0.5,-28.5 1.8,-42.7 0.1,-0.8 0.7,-1.3 1.5,-1.3 0.8,0.1 1.3,0.7 1.3,1.5 -1.3,14 -1.9,28.3 -1.8,42.4 0,0.9 -0.7,1.5 -1.4,1.5 0,0 0,0 0,0 z"
         id="path6738" />
    </g>
    <g
       transform="translate(5918.7071,2685.8958)"
       id="g6740">
      <path
         inkscape:connector-curvature="0"
         class="st1"
         d="m -5698.7,-2167 c -0.7,0 -1.3,-0.6 -1.4,-1.3 -0.8,-10.3 -1,-20.7 -0.5,-31 0,-0.8 0.7,-1.4 1.5,-1.3 0.8,0 1.4,0.7 1.3,1.5 -0.4,10.2 -0.3,20.5 0.5,30.7 0.1,0.8 -0.5,1.4 -1.3,1.5 -0.1,-0.1 -0.1,-0.1 -0.1,-0.1 z"
         id="path6742" />
    </g>
    <g
       transform="translate(5918.7071,2685.8958)"
       id="g6744">
      <path
         inkscape:connector-curvature="0"
         class="st1"
         d="m -5675.1,-2178.7 c -0.8,0 -1.4,-0.6 -1.4,-1.4 -0.4,-20.3 0.1,-40.8 1.7,-61 0.1,-0.8 0.7,-1.3 1.5,-1.3 0.8,0.1 1.3,0.7 1.3,1.5 -1.6,20.1 -2.1,40.6 -1.7,60.7 0,0.9 -0.6,1.5 -1.4,1.5 0,0 0,0 0,0 z"
         id="path6746" />
    </g>
    <g
       transform="translate(5918.7071,2685.8958)"
       id="g6748">
      <path
         inkscape:connector-curvature="0"
         class="st1"
         d="m -5656.6,-2212.1 c 0,0 0,0 0,0 -0.9,0 -1.4,-0.7 -1.4,-1.5 0.8,-14.1 0.6,-28.3 -0.9,-42.4 -0.1,-0.8 0.5,-1.4 1.2,-1.5 0.8,-0.1 1.4,0.5 1.5,1.2 1.4,14.2 1.7,28.6 0.9,42.8 0.1,0.9 -0.5,1.4 -1.3,1.4 z"
         id="path6750" />
    </g>
    <g
       transform="translate(5918.7071,2685.8958)"
       id="g6752">
      <path
         inkscape:connector-curvature="0"
         class="st1"
         d="m -5678.1,-2320.8 c 0,0 0,0 0,0 -0.8,0 -1.4,-0.7 -1.4,-1.4 0.6,-16.6 0.9,-33.4 0.8,-50 0,-0.8 0.6,-1.4 1.4,-1.4 0.7,0 1.4,0.6 1.4,1.4 0,16.6 -0.2,33.5 -0.8,50.1 0,0.7 -0.7,1.3 -1.4,1.3 z"
         id="path6754" />
    </g>
    <g
       transform="translate(5918.7071,2685.8958)"
       id="g6756">
      <path
         inkscape:connector-curvature="0"
         class="st1"
         d="m -5695.2,-2340 c -0.1,0 -0.1,0 0,0 -0.8,0 -1.4,-0.6 -1.4,-1.4 0.2,-15.3 1.1,-30.8 2.7,-46 0.1,-0.8 0.8,-1.3 1.5,-1.2 0.8,0.1 1.3,0.8 1.2,1.5 -1.6,15.2 -2.5,30.6 -2.7,45.8 0,0.7 -0.6,1.3 -1.3,1.3 z"
         id="path6758" />
    </g>
    <g
       transform="translate(5918.7071,2685.8958)"
       id="g6760">
      <path
         inkscape:connector-curvature="0"
         class="st1"
         d="m -5712.6,-2335 c 0,0 0,0 0,0 -0.8,0 -1.4,-0.7 -1.4,-1.4 0.5,-18.6 1.5,-37.4 3.2,-56 0.1,-0.8 0.7,-1.3 1.5,-1.3 0.8,0.1 1.3,0.7 1.3,1.5 -1.6,18.5 -2.7,37.3 -3.1,55.8 -0.1,0.8 -0.7,1.4 -1.5,1.4 z"
         id="path6762" />
    </g>
    <g
       transform="translate(5918.7071,2685.8958)"
       id="g6764">
      <path
         inkscape:connector-curvature="0"
         class="st1"
         d="m -5696,-2291.3 c -0.8,0 -1.4,-0.6 -1.4,-1.4 l 0,-27.5 c 0,-0.8 0.6,-1.4 1.4,-1.4 0.8,0 1.4,0.6 1.4,1.4 l 0,27.5 c 0,0.8 -0.6,1.4 -1.4,1.4 z"
         id="path6766" />
    </g>
    <g
       transform="translate(5918.7071,2685.8958)"
       id="g6768">
      <path
         inkscape:connector-curvature="0"
         class="st1"
         d="m -5678.6,-2279.6 c -0.1,0 -0.1,0 -0.2,0 -0.8,-0.1 -1.3,-0.8 -1.2,-1.6 1.4,-10.4 2,-21 1.8,-31.5 0,-0.8 0.6,-1.4 1.4,-1.4 0.8,0 1.4,0.6 1.4,1.4 0.1,10.6 -0.5,21.3 -1.9,31.9 0,0.7 -0.6,1.2 -1.3,1.2 z"
         id="path6770" />
    </g>
    <g
       transform="translate(5918.7071,2685.8958)"
       id="g6772">
      <path
         inkscape:connector-curvature="0"
         class="st1"
         d="m -5664.9,-2269.6 c 0,0 -0.1,0 0,0 -0.8,0 -1.4,-0.7 -1.4,-1.5 0.9,-14.9 0.6,-30 -0.9,-44.9 -0.1,-0.8 0.5,-1.4 1.2,-1.5 0.8,-0.1 1.4,0.5 1.5,1.2 1.5,15 1.8,30.3 0.9,45.3 0.1,0.8 -0.6,1.4 -1.3,1.4 z"
         id="path6774" />
    </g>
    <g
       transform="translate(5918.7071,2685.8958)"
       id="g6776">
      <path
         inkscape:connector-curvature="0"
         class="st1"
         d="m -5722.7,-2180.4 c -0.8,0 -1.4,-0.6 -1.4,-1.4 -0.1,-14.2 0.5,-28.5 1.8,-42.7 0.1,-0.8 0.7,-1.3 1.5,-1.3 0.8,0.1 1.3,0.7 1.3,1.5 -1.3,14 -1.9,28.3 -1.8,42.4 0,0.9 -0.7,1.5 -1.4,1.5 0,0 0,0 0,0 z"
         id="path6778" />
    </g>
    <g
       transform="translate(5918.7071,2685.8958)"
       id="g6780">
      <path
         inkscape:connector-curvature="0"
         class="st1"
         d="m -5698.7,-2167 c -0.7,0 -1.3,-0.6 -1.4,-1.3 -0.8,-10.3 -1,-20.7 -0.5,-31 0,-0.8 0.7,-1.4 1.5,-1.3 0.8,0 1.4,0.7 1.3,1.5 -0.4,10.2 -0.3,20.5 0.5,30.7 0.1,0.8 -0.5,1.4 -1.3,1.5 -0.1,-0.1 -0.1,-0.1 -0.1,-0.1 z"
         id="path6782" />
    </g>
    <g
       transform="translate(5918.7071,2685.8958)"
       id="g6784">
      <path
         inkscape:connector-curvature="0"
         class="st1"
         d="m -5675.1,-2178.7 c -0.8,0 -1.4,-0.6 -1.4,-1.4 -0.4,-20.3 0.1,-40.8 1.7,-61 0.1,-0.8 0.7,-1.3 1.5,-1.3 0.8,0.1 1.3,0.7 1.3,1.5 -1.6,20.1 -2.1,40.6 -1.7,60.7 0,0.9 -0.6,1.5 -1.4,1.5 0,0 0,0 0,0 z"
         id="path6786" />
    </g>
    <g
       transform="translate(5918.7071,2685.8958)"
       id="g6788">
      <path
         inkscape:connector-curvature="0"
         class="st1"
         d="m -5664.6,-2151.4 c -0.7,0 -1.4,-0.6 -1.4,-1.3 l -0.9,-25 c 0,-0.8 0.6,-1.4 1.3,-1.4 0.8,0 1.4,0.6 1.4,1.3 l 0.9,25 c 0.1,0.7 -0.5,1.4 -1.3,1.4 0,0 0,0 0,0 z"
         id="path6790" />
    </g>
    <g
       transform="translate(5918.7071,2685.8958)"
       id="g6792">
      <path
         inkscape:connector-curvature="0"
         class="st1"
         d="m -5680.3,-2145.4 c -0.7,0 -1.3,-0.5 -1.4,-1.3 l -2.4,-25.9 c -0.1,-0.8 0.5,-1.4 1.3,-1.5 0.8,-0.1 1.4,0.5 1.5,1.3 l 2.4,25.9 c 0.1,0.8 -0.5,1.4 -1.3,1.5 0,0 -0.1,0 -0.1,0 z"
         id="path6794" />
    </g>
    <g
       transform="translate(5918.7071,2685.8958)"
       id="g6796">
      <path
         inkscape:connector-curvature="0"
         class="st1"
         d="m -5717.3,-2152.8 c 0,0 0,0 0,0 -0.8,0 -1.4,-0.7 -1.4,-1.5 l 1,-20.8 c 0,-0.8 0.7,-1.4 1.5,-1.3 0.8,0 1.4,0.7 1.3,1.5 l -1,20.8 c 0,0.7 -0.7,1.3 -1.4,1.3 z"
         id="path6798" />
    </g>
    <g
       transform="translate(5918.7071,2685.8958)"
       id="g6800">
      <path
         inkscape:connector-curvature="0"
         class="st1"
         d="m -5698.7,-2167 c -0.7,0 -1.3,-0.6 -1.4,-1.3 -0.8,-10.3 -1,-20.7 -0.5,-31 0,-0.8 0.7,-1.4 1.5,-1.3 0.8,0 1.4,0.7 1.3,1.5 -0.4,10.2 -0.3,20.5 0.5,30.7 0.1,0.8 -0.5,1.4 -1.3,1.5 -0.1,-0.1 -0.1,-0.1 -0.1,-0.1 z"
         id="path6802" />
    </g>
    <g
       transform="translate(5918.7071,2685.8958)"
       id="g6804">
      <path
         inkscape:connector-curvature="0"
         class="st1"
         d="m -5698.7,-2167 c -0.7,0 -1.3,-0.6 -1.4,-1.3 -0.8,-10.3 -1,-20.7 -0.5,-31 0,-0.8 0.7,-1.4 1.5,-1.3 0.8,0 1.4,0.7 1.3,1.5 -0.4,10.2 -0.3,20.5 0.5,30.7 0.1,0.8 -0.5,1.4 -1.3,1.5 -0.1,-0.1 -0.1,-0.1 -0.1,-0.1 z"
         id="path6806" />
    </g>
    <g
       transform="translate(5918.7071,2685.8958)"
       id="g6808">
      <path
         inkscape:connector-curvature="0"
         class="st1"
         d="m -5472.7,-2430.4 c -0.8,0 -1.4,-0.6 -1.4,-1.4 -0.1,-14.2 0.5,-28.5 1.8,-42.7 0.1,-0.8 0.7,-1.3 1.5,-1.3 0.8,0.1 1.3,0.7 1.3,1.5 -1.3,14 -1.9,28.3 -1.8,42.4 0,0.9 -0.7,1.5 -1.4,1.5 0,0 0,0 0,0 z"
         id="path6810" />
    </g>
    <g
       transform="translate(5918.7071,2685.8958)"
       id="g6812">
      <path
         inkscape:connector-curvature="0"
         class="st1"
         d="m -5448.7,-2417 c -0.7,0 -1.3,-0.6 -1.4,-1.3 -0.8,-10.3 -1,-20.7 -0.5,-31 0,-0.8 0.7,-1.4 1.5,-1.3 0.8,0 1.4,0.7 1.3,1.5 -0.4,10.2 -0.3,20.5 0.5,30.7 0.1,0.8 -0.5,1.4 -1.3,1.5 -0.1,-0.1 -0.1,-0.1 -0.1,-0.1 z"
         id="path6814" />
    </g>
    <g
       transform="translate(5918.7071,2685.8958)"
       id="g6816">
      <path
         inkscape:connector-curvature="0"
         class="st1"
         d="m -5425.1,-2428.7 c -0.8,0 -1.4,-0.6 -1.4,-1.4 -0.4,-20.3 0.1,-40.8 1.7,-61 0.1,-0.8 0.7,-1.3 1.5,-1.3 0.8,0.1 1.3,0.7 1.3,1.5 -1.6,20.1 -2.1,40.6 -1.7,60.7 0,0.9 -0.6,1.5 -1.4,1.5 0,0 0,0 0,0 z"
         id="path6818" />
    </g>
    <g
       transform="translate(5918.7071,2685.8958)"
       id="g6820">
      <path
         inkscape:connector-curvature="0"
         class="st1"
         d="m -5472.7,-2430.4 c -0.8,0 -1.4,-0.6 -1.4,-1.4 -0.1,-14.2 0.5,-28.5 1.8,-42.7 0.1,-0.8 0.7,-1.3 1.5,-1.3 0.8,0.1 1.3,0.7 1.3,1.5 -1.3,14 -1.9,28.3 -1.8,42.4 0,0.9 -0.7,1.5 -1.4,1.5 0,0 0,0 0,0 z"
         id="path6822" />
    </g>
    <g
       transform="translate(5918.7071,2685.8958)"
       id="g6824">
      <path
         inkscape:connector-curvature="0"
         class="st1"
         d="m -5448.7,-2417 c -0.7,0 -1.3,-0.6 -1.4,-1.3 -0.8,-10.3 -1,-20.7 -0.5,-31 0,-0.8 0.7,-1.4 1.5,-1.3 0.8,0 1.4,0.7 1.3,1.5 -0.4,10.2 -0.3,20.5 0.5,30.7 0.1,0.8 -0.5,1.4 -1.3,1.5 -0.1,-0.1 -0.1,-0.1 -0.1,-0.1 z"
         id="path6826" />
    </g>
    <g
       transform="translate(5918.7071,2685.8958)"
       id="g6828">
      <path
         inkscape:connector-curvature="0"
         class="st1"
         d="m -5425.1,-2428.7 c -0.8,0 -1.4,-0.6 -1.4,-1.4 -0.4,-20.3 0.1,-40.8 1.7,-61 0.1,-0.8 0.7,-1.3 1.5,-1.3 0.8,0.1 1.3,0.7 1.3,1.5 -1.6,20.1 -2.1,40.6 -1.7,60.7 0,0.9 -0.6,1.5 -1.4,1.5 0,0 0,0 0,0 z"
         id="path6830" />
    </g>
    <g
       transform="translate(5918.7071,2685.8958)"
       id="g6832">
      <path
         inkscape:connector-curvature="0"
         class="st1"
         d="m -5414.6,-2401.4 c -0.7,0 -1.4,-0.6 -1.4,-1.3 l -0.9,-25 c 0,-0.8 0.6,-1.4 1.3,-1.4 0.8,0 1.4,0.6 1.4,1.3 l 0.9,25 c 0.1,0.7 -0.5,1.4 -1.3,1.4 0,0 0,0 0,0 z"
         id="path6834" />
    </g>
    <g
       transform="translate(5918.7071,2685.8958)"
       id="g6836">
      <path
         inkscape:connector-curvature="0"
         class="st1"
         d="m -5430.3,-2395.4 c -0.7,0 -1.3,-0.5 -1.4,-1.3 l -2.4,-25.9 c -0.1,-0.8 0.5,-1.4 1.3,-1.5 0.8,-0.1 1.4,0.5 1.5,1.3 l 2.4,25.9 c 0.1,0.8 -0.5,1.4 -1.3,1.5 0,0 -0.1,0 -0.1,0 z"
         id="path6838" />
    </g>
    <g
       transform="translate(5918.7071,2685.8958)"
       id="g6840">
      <path
         inkscape:connector-curvature="0"
         class="st1"
         d="m -5467.3,-2402.8 c 0,0 0,0 0,0 -0.8,0 -1.4,-0.7 -1.4,-1.5 l 1,-20.8 c 0,-0.8 0.7,-1.4 1.5,-1.3 0.8,0 1.4,0.7 1.3,1.5 l -1,20.8 c 0,0.7 -0.7,1.3 -1.4,1.3 z"
         id="path6842" />
    </g>
    <g
       transform="translate(5918.7071,2685.8958)"
       id="g6844">
      <path
         inkscape:connector-curvature="0"
         class="st1"
         d="m -5448.7,-2417 c -0.7,0 -1.3,-0.6 -1.4,-1.3 -0.8,-10.3 -1,-20.7 -0.5,-31 0,-0.8 0.7,-1.4 1.5,-1.3 0.8,0 1.4,0.7 1.3,1.5 -0.4,10.2 -0.3,20.5 0.5,30.7 0.1,0.8 -0.5,1.4 -1.3,1.5 -0.1,-0.1 -0.1,-0.1 -0.1,-0.1 z"
         id="path6846" />
    </g>
    <g
       transform="translate(5918.7071,2685.8958)"
       id="g6848">
      <path
         inkscape:connector-curvature="0"
         class="st1"
         d="m -5448.7,-2417 c -0.7,0 -1.3,-0.6 -1.4,-1.3 -0.8,-10.3 -1,-20.7 -0.5,-31 0,-0.8 0.7,-1.4 1.5,-1.3 0.8,0 1.4,0.7 1.3,1.5 -0.4,10.2 -0.3,20.5 0.5,30.7 0.1,0.8 -0.5,1.4 -1.3,1.5 -0.1,-0.1 -0.1,-0.1 -0.1,-0.1 z"
         id="path6850" />
    </g>
    <g
       transform="translate(5918.7071,2685.8958)"
       id="g6852">
      <path
         inkscape:connector-curvature="0"
         class="st1"
         d="m -5722.7,-2430.4 c -0.8,0 -1.4,-0.6 -1.4,-1.4 -0.1,-14.2 0.5,-28.5 1.8,-42.7 0.1,-0.8 0.7,-1.3 1.5,-1.3 0.8,0.1 1.3,0.7 1.3,1.5 -1.3,14 -1.9,28.3 -1.8,42.4 0,0.9 -0.7,1.5 -1.4,1.5 0,0 0,0 0,0 z"
         id="path6854" />
    </g>
    <g
       transform="translate(5918.7071,2685.8958)"
       id="g6856">
      <path
         inkscape:connector-curvature="0"
         class="st1"
         d="m -5698.7,-2417 c -0.7,0 -1.3,-0.6 -1.4,-1.3 -0.8,-10.3 -1,-20.7 -0.5,-31 0,-0.8 0.7,-1.4 1.5,-1.3 0.8,0 1.4,0.7 1.3,1.5 -0.4,10.2 -0.3,20.5 0.5,30.7 0.1,0.8 -0.5,1.4 -1.3,1.5 -0.1,-0.1 -0.1,-0.1 -0.1,-0.1 z"
         id="path6858" />
    </g>
    <g
       transform="translate(5918.7071,2685.8958)"
       id="g6860">
      <path
         inkscape:connector-curvature="0"
         class="st1"
         d="m -5675.1,-2428.7 c -0.8,0 -1.4,-0.6 -1.4,-1.4 -0.4,-20.3 0.1,-40.8 1.7,-61 0.1,-0.8 0.7,-1.3 1.5,-1.3 0.8,0.1 1.3,0.7 1.3,1.5 -1.6,20.1 -2.1,40.6 -1.7,60.7 0,0.9 -0.6,1.5 -1.4,1.5 0,0 0,0 0,0 z"
         id="path6862" />
    </g>
    <g
       transform="translate(5918.7071,2685.8958)"
       id="g6864">
      <path
         inkscape:connector-curvature="0"
         class="st1"
         d="m -5722.7,-2430.4 c -0.8,0 -1.4,-0.6 -1.4,-1.4 -0.1,-14.2 0.5,-28.5 1.8,-42.7 0.1,-0.8 0.7,-1.3 1.5,-1.3 0.8,0.1 1.3,0.7 1.3,1.5 -1.3,14 -1.9,28.3 -1.8,42.4 0,0.9 -0.7,1.5 -1.4,1.5 0,0 0,0 0,0 z"
         id="path6866" />
    </g>
    <g
       transform="translate(5918.7071,2685.8958)"
       id="g6868">
      <path
         inkscape:connector-curvature="0"
         class="st1"
         d="m -5698.7,-2417 c -0.7,0 -1.3,-0.6 -1.4,-1.3 -0.8,-10.3 -1,-20.7 -0.5,-31 0,-0.8 0.7,-1.4 1.5,-1.3 0.8,0 1.4,0.7 1.3,1.5 -0.4,10.2 -0.3,20.5 0.5,30.7 0.1,0.8 -0.5,1.4 -1.3,1.5 -0.1,-0.1 -0.1,-0.1 -0.1,-0.1 z"
         id="path6870" />
    </g>
    <g
       transform="translate(5918.7071,2685.8958)"
       id="g6872">
      <path
         inkscape:connector-curvature="0"
         class="st1"
         d="m -5675.1,-2428.7 c -0.8,0 -1.4,-0.6 -1.4,-1.4 -0.4,-20.3 0.1,-40.8 1.7,-61 0.1,-0.8 0.7,-1.3 1.5,-1.3 0.8,0.1 1.3,0.7 1.3,1.5 -1.6,20.1 -2.1,40.6 -1.7,60.7 0,0.9 -0.6,1.5 -1.4,1.5 0,0 0,0 0,0 z"
         id="path6874" />
    </g>
    <g
       transform="translate(5918.7071,2685.8958)"
       id="g6876">
      <path
         inkscape:connector-curvature="0"
         class="st1"
         d="m -5664.6,-2401.4 c -0.7,0 -1.4,-0.6 -1.4,-1.3 l -0.9,-25 c 0,-0.8 0.6,-1.4 1.3,-1.4 0.8,0 1.4,0.6 1.4,1.3 l 0.9,25 c 0.1,0.7 -0.5,1.4 -1.3,1.4 0,0 0,0 0,0 z"
         id="path6878" />
    </g>
    <g
       transform="translate(5918.7071,2685.8958)"
       id="g6880">
      <path
         inkscape:connector-curvature="0"
         class="st1"
         d="m -5680.3,-2395.4 c -0.7,0 -1.3,-0.5 -1.4,-1.3 l -2.4,-25.9 c -0.1,-0.8 0.5,-1.4 1.3,-1.5 0.8,-0.1 1.4,0.5 1.5,1.3 l 2.4,25.9 c 0.1,0.8 -0.5,1.4 -1.3,1.5 0,0 -0.1,0 -0.1,0 z"
         id="path6882" />
    </g>
    <g
       transform="translate(5918.7071,2685.8958)"
       id="g6884">
      <path
         inkscape:connector-curvature="0"
         class="st1"
         d="m -5717.3,-2402.8 c 0,0 0,0 0,0 -0.8,0 -1.4,-0.7 -1.4,-1.5 l 1,-20.8 c 0,-0.8 0.7,-1.4 1.5,-1.3 0.8,0 1.4,0.7 1.3,1.5 l -1,20.8 c 0,0.7 -0.7,1.3 -1.4,1.3 z"
         id="path6886" />
    </g>
    <g
       transform="translate(5918.7071,2685.8958)"
       id="g6888">
      <path
         inkscape:connector-curvature="0"
         class="st1"
         d="m -5698.7,-2417 c -0.7,0 -1.3,-0.6 -1.4,-1.3 -0.8,-10.3 -1,-20.7 -0.5,-31 0,-0.8 0.7,-1.4 1.5,-1.3 0.8,0 1.4,0.7 1.3,1.5 -0.4,10.2 -0.3,20.5 0.5,30.7 0.1,0.8 -0.5,1.4 -1.3,1.5 -0.1,-0.1 -0.1,-0.1 -0.1,-0.1 z"
         id="path6890" />
    </g>
    <g
       transform="translate(5918.7071,2685.8958)"
       id="g6892">
      <path
         inkscape:connector-curvature="0"
         class="st1"
         d="m -5698.7,-2417 c -0.7,0 -1.3,-0.6 -1.4,-1.3 -0.8,-10.3 -1,-20.7 -0.5,-31 0,-0.8 0.7,-1.4 1.5,-1.3 0.8,0 1.4,0.7 1.3,1.5 -0.4,10.2 -0.3,20.5 0.5,30.7 0.1,0.8 -0.5,1.4 -1.3,1.5 -0.1,-0.1 -0.1,-0.1 -0.1,-0.1 z"
         id="path6894" />
    </g>
    <g
       transform="translate(5918.7071,2685.8958)"
       id="g6896">
      <path
         inkscape:connector-curvature="0"
         class="st1"
         d="m -5529.9,-2340.5 c -0.8,0 -1.4,-0.6 -1.4,-1.4 l 0,-35.9 c 0,-0.8 0.6,-1.4 1.4,-1.4 0.8,0 1.4,0.6 1.4,1.4 l 0,35.9 c 0,0.8 -0.6,1.4 -1.4,1.4 z"
         id="path6898" />
    </g>
    <g
       transform="translate(5918.7071,2685.8958)"
       id="g6900">
      <path
         inkscape:connector-curvature="0"
         class="st1"
         d="m -5504.5,-2386.4 c 0,0 0,0 0,0 -0.8,0 -1.4,-0.7 -1.4,-1.4 0.3,-8 0.2,-16.1 -0.2,-24.1 0,-0.8 0.5,-1.4 1.3,-1.5 0.8,0 1.4,0.5 1.5,1.3 0.5,8.1 0.6,16.3 0.2,24.4 0,0.7 -0.7,1.3 -1.4,1.3 z"
         id="path6902" />
    </g>
    <g
       transform="translate(5918.7071,2685.8958)"
       id="g6904">
      <path
         inkscape:connector-curvature="0"
         class="st1"
         d="m -5557.2,-2356.9 c -0.7,0 -1.3,-0.5 -1.4,-1.2 -1.7,-11.9 -2.2,-24.1 -1.6,-36.1 0,-0.8 0.7,-1.4 1.5,-1.3 0.8,0 1.4,0.7 1.3,1.5 -0.6,11.9 0,23.8 1.6,35.6 0.1,0.8 -0.4,1.5 -1.2,1.6 -0.1,-0.1 -0.1,-0.1 -0.2,-0.1 z"
         id="path6906" />
    </g>
    <g
       transform="translate(5918.7071,2685.8958)"
       id="g6908">
      <path
         inkscape:connector-curvature="0"
         class="st1"
         d="m -5613.3,-2368.6 c -0.8,0 -1.4,-0.6 -1.4,-1.4 l 0,-16.7 c 0,-0.8 0.6,-1.4 1.4,-1.4 0.8,0 1.4,0.6 1.4,1.4 l 0,16.7 c 0,0.7 -0.6,1.4 -1.4,1.4 z"
         id="path6910" />
    </g>
    <g
       transform="translate(5918.7071,2685.8958)"
       id="g6912">
      <path
         inkscape:connector-curvature="0"
         class="st1"
         d="m -5395.7,-2311.8 c -0.6,0 -1.2,-0.4 -1.4,-1.1 -5,-20.8 -7.6,-42.1 -7.8,-63.4 0,-0.8 0.6,-1.4 1.4,-1.4 0,0 0,0 0,0 0.8,0 1.4,0.6 1.4,1.4 0.1,21.1 2.7,42.3 7.7,62.8 0.2,0.7 -0.3,1.5 -1,1.7 -0.1,0 -0.2,0 -0.3,0 z"
         id="path6914" />
    </g>
    <g
       transform="translate(5918.7071,2685.8958)"
       id="g6916">
      <path
         inkscape:connector-curvature="0"
         class="st1"
         d="m -5383.2,-2314.8 c -0.6,0 -1.2,-0.4 -1.4,-1.1 -4.2,-18.1 -5.7,-36.8 -4.5,-55.3 0,-0.8 0.7,-1.4 1.5,-1.3 0.8,0 1.4,0.7 1.3,1.5 -1.2,18.3 0.3,36.7 4.5,54.5 0.2,0.7 -0.3,1.5 -1,1.7 -0.2,0 -0.3,0 -0.4,0 z"
         id="path6918" />
    </g>
    <g
       transform="translate(5918.7071,2685.8958)"
       id="g6920">
      <path
         inkscape:connector-curvature="0"
         class="st1"
         d="m -5353.7,-2304 c -0.7,0 -1.3,-0.6 -1.4,-1.3 l -3.5,-46.6 c -0.1,-0.8 0.5,-1.4 1.3,-1.5 0.8,-0.1 1.4,0.5 1.5,1.3 l 3.5,46.6 c 0.1,0.8 -0.5,1.4 -1.3,1.5 0,0 -0.1,0 -0.1,0 z"
         id="path6922" />
    </g>
    <g
       transform="translate(5918.7071,2685.8958)"
       id="g6924">
      <path
         inkscape:connector-curvature="0"
         class="st1"
         d="m -5346.7,-2366.9 c -0.7,0 -1.3,-0.5 -1.4,-1.3 l -3.6,-35.6 c -0.1,-0.8 0.5,-1.4 1.2,-1.5 0.8,-0.1 1.4,0.5 1.5,1.2 l 3.6,35.6 c 0.1,0.8 -0.5,1.4 -1.2,1.5 0,0.1 0,0.1 -0.1,0.1 z"
         id="path6926" />
    </g>
    <g
       transform="translate(5918.7071,2685.8958)"
       id="g6928">
      <path
         inkscape:connector-curvature="0"
         class="st1"
         d="m -5370.3,-2227.1 c 0,0 0,0 0,0 -0.8,0 -1.4,-0.7 -1.4,-1.4 l 0.8,-26.7 c 0,-0.8 0.7,-1.4 1.4,-1.3 0.8,0 1.4,0.7 1.3,1.4 l -0.8,26.7 c 0.1,0.7 -0.6,1.3 -1.3,1.3 z"
         id="path6930" />
    </g>
    <g
       transform="translate(5918.7071,2685.8958)"
       id="g6932">
      <path
         inkscape:connector-curvature="0"
         class="st1"
         d="m -5350.5,-2210.4 c -0.7,0 -1.3,-0.5 -1.4,-1.3 -1,-9.5 -0.8,-19.2 0.4,-28.7 0.1,-0.8 0.8,-1.3 1.6,-1.2 0.8,0.1 1.3,0.8 1.2,1.6 -1.2,9.3 -1.4,18.7 -0.4,28 0.1,0.8 -0.5,1.4 -1.2,1.5 -0.1,0.1 -0.2,0.1 -0.2,0.1 z"
         id="path6934" />
    </g>
    <g
       transform="translate(5918.7071,2685.8958)"
       id="g6936">
      <path
         inkscape:connector-curvature="0"
         class="st1"
         d="m -5399.4,-2262.4 c -0.1,0 -0.1,0 0,0 -0.8,0 -1.4,-0.7 -1.4,-1.4 0.4,-13.8 0.3,-27.8 -0.5,-41.6 0,-0.8 0.5,-1.4 1.3,-1.5 0.8,0 1.4,0.5 1.5,1.3 0.7,13.9 0.9,27.9 0.5,41.8 -0.1,0.8 -0.7,1.4 -1.4,1.4 z"
         id="path6938" />
    </g>
    <g
       transform="translate(5918.7071,2685.8958)"
       id="g6940">
      <path
         inkscape:connector-curvature="0"
         class="st1"
         d="m -5387,-2268.2 c -0.1,0 -0.1,0 -0.2,0 -0.8,-0.1 -1.3,-0.8 -1.2,-1.6 1.2,-9.9 1.7,-19.9 1.6,-29.8 0,-0.8 0.6,-1.4 1.4,-1.4 0.8,0 1.4,0.6 1.4,1.4 0.2,10.1 -0.4,20.2 -1.6,30.2 -0.1,0.7 -0.7,1.2 -1.4,1.2 z"
         id="path6942" />
    </g>
    <g
       transform="translate(5918.7071,2685.8958)"
       id="g6944">
      <path
         inkscape:connector-curvature="0"
         class="st1"
         d="m -5362.1,-2266.2 c -0.7,0 -1.3,-0.5 -1.4,-1.3 l -2.3,-26.7 c -0.1,-0.8 0.5,-1.4 1.3,-1.5 0.8,-0.1 1.4,0.5 1.5,1.3 l 2.3,26.7 c 0.1,0.8 -0.5,1.4 -1.3,1.5 0,-0.1 -0.1,0 -0.1,0 z"
         id="path6946" />
    </g>
    <g
       transform="translate(5918.7071,2685.8958)"
       id="g6948">
      <path
         inkscape:connector-curvature="0"
         class="st1"
         d="m -5394.3,-2213.5 c 0,0 0,0 0,0 -0.8,0 -1.4,-0.7 -1.4,-1.5 0.4,-9.4 0.3,-18.9 -0.3,-28.2 0,-0.8 0.5,-1.4 1.3,-1.5 0.8,-0.1 1.4,0.5 1.5,1.3 0.6,9.5 0.7,19.1 0.3,28.5 0,0.8 -0.6,1.4 -1.4,1.4 z"
         id="path6950" />
    </g>
    <g
       transform="translate(5918.7071,2685.8958)"
       id="g6952">
      <path
         inkscape:connector-curvature="0"
         class="st1"
         d="m -5380.4,-2165.3 c -0.7,0 -1.3,-0.5 -1.4,-1.2 -1.6,-14.4 -2.5,-29 -2.5,-43.5 0,-0.8 0.6,-1.4 1.4,-1.4 0.8,0 1.4,0.6 1.4,1.4 0,14.4 0.8,28.9 2.5,43.2 0.1,0.8 -0.5,1.5 -1.2,1.5 -0.1,0 -0.1,0 -0.2,0 z"
         id="path6954" />
    </g>
    <g
       transform="translate(5918.7071,2685.8958)"
       id="g6956">
      <path
         inkscape:connector-curvature="0"
         class="st1"
         d="m -5359.7,-2164.7 c -0.8,0 -1.4,-0.6 -1.4,-1.4 l 0,-33.4 c 0,-0.8 0.6,-1.4 1.4,-1.4 0.8,0 1.4,0.6 1.4,1.4 l 0,33.4 c -0.1,0.8 -0.7,1.4 -1.4,1.4 z"
         id="path6958" />
    </g>
    <g
       transform="translate(5918.7071,2685.8958)"
       id="g6960">
      <path
         inkscape:connector-curvature="0"
         class="st1"
         d="m -5405,-2136.1 c -0.1,0 -0.2,0 -0.3,0 -0.8,-0.2 -1.2,-0.9 -1.1,-1.6 3.2,-16.1 4.5,-32.5 3.8,-48.9 0,-0.8 0.6,-1.4 1.3,-1.5 0.8,0 1.4,0.6 1.5,1.3 0.7,16.6 -0.6,33.3 -3.9,49.5 -0.1,0.7 -0.7,1.2 -1.3,1.2 z"
         id="path6962" />
    </g>
    <g
       transform="translate(5918.7071,2685.8958)"
       id="g6964">
      <path
         inkscape:connector-curvature="0"
         class="st1"
         d="m -5371.6,-2139.8 c 0,0 -0.1,0 0,0 -0.8,0 -1.4,-0.7 -1.4,-1.4 l 0.9,-34.2 c 0,-0.8 0.6,-1.4 1.4,-1.4 0.8,0 1.4,0.7 1.4,1.4 l -0.9,34.2 c -0.1,0.7 -0.7,1.4 -1.4,1.4 z"
         id="path6966" />
    </g>
    <g
       transform="translate(5918.7071,2685.8958)"
       id="g6968">
      <path
         inkscape:connector-curvature="0"
         class="st1"
         d="m -5380.4,-2165.3 c -0.7,0 -1.3,-0.5 -1.4,-1.2 -1.6,-14.4 -2.5,-29 -2.5,-43.5 0,-0.8 0.6,-1.4 1.4,-1.4 0.8,0 1.4,0.6 1.4,1.4 0,14.4 0.8,28.9 2.5,43.2 0.1,0.8 -0.5,1.5 -1.2,1.5 -0.1,0 -0.1,0 -0.2,0 z"
         id="path6970" />
    </g>
    <g
       transform="translate(5918.7071,2685.8958)"
       id="g6972">
      <path
         inkscape:connector-curvature="0"
         class="st1"
         d="m -5359.7,-2164.7 c -0.8,0 -1.4,-0.6 -1.4,-1.4 l 0,-33.4 c 0,-0.8 0.6,-1.4 1.4,-1.4 0.8,0 1.4,0.6 1.4,1.4 l 0,33.4 c -0.1,0.8 -0.7,1.4 -1.4,1.4 z"
         id="path6974" />
    </g>
    <g
       transform="translate(5918.7071,2685.8958)"
       id="g6976">
      <path
         inkscape:connector-curvature="0"
         class="st1"
         d="m -5359.7,-2414.7 c -0.8,0 -1.4,-0.6 -1.4,-1.4 l 0,-33.4 c 0,-0.8 0.6,-1.4 1.4,-1.4 0.8,0 1.4,0.6 1.4,1.4 l 0,33.4 c -0.1,0.8 -0.7,1.4 -1.4,1.4 z"
         id="path6978" />
    </g>
    <g
       transform="translate(5918.7071,2685.8958)"
       id="g6980">
      <path
         inkscape:connector-curvature="0"
         class="st1"
         d="m -5342.8,-2404.9 c -0.8,0 -1.4,-0.6 -1.4,-1.4 l 0,-28.4 c 0,-0.8 0.6,-1.4 1.4,-1.4 0.8,0 1.4,0.6 1.4,1.4 l 0,28.4 c 0,0.8 -0.6,1.4 -1.4,1.4 z"
         id="path6982" />
    </g>
    <g
       transform="translate(5918.7071,2685.8958)"
       id="g6984">
      <path
         inkscape:connector-curvature="0"
         class="st1"
         d="m -5359.7,-2414.7 c -0.8,0 -1.4,-0.6 -1.4,-1.4 l 0,-33.4 c 0,-0.8 0.6,-1.4 1.4,-1.4 0.8,0 1.4,0.6 1.4,1.4 l 0,33.4 c -0.1,0.8 -0.7,1.4 -1.4,1.4 z"
         id="path6986" />
    </g>
    <g
       transform="translate(5918.7071,2685.8958)"
       id="g6988">
      <path
         inkscape:connector-curvature="0"
         class="st1"
         d="m -5342.8,-2404.9 c -0.8,0 -1.4,-0.6 -1.4,-1.4 l 0,-28.4 c 0,-0.8 0.6,-1.4 1.4,-1.4 0.8,0 1.4,0.6 1.4,1.4 l 0,28.4 c 0,0.8 -0.6,1.4 -1.4,1.4 z"
         id="path6990" />
    </g>
    <g
       transform="translate(5918.7071,2685.8958)"
       id="g6992">
      <path
         inkscape:connector-curvature="0"
         class="st1"
         d="m -5405,-2136.1 c -0.1,0 -0.2,0 -0.3,0 -0.8,-0.2 -1.2,-0.9 -1.1,-1.6 3.2,-16.1 4.5,-32.5 3.8,-48.9 0,-0.8 0.6,-1.4 1.3,-1.5 0.8,0 1.4,0.6 1.5,1.3 0.7,16.6 -0.6,33.3 -3.9,49.5 -0.1,0.7 -0.7,1.2 -1.3,1.2 z"
         id="path6994" />
    </g>
    <g
       transform="translate(5918.7071,2685.8958)"
       id="g6996">
      <path
         inkscape:connector-curvature="0"
         class="st1"
         d="m -5380.4,-2415.3 c -0.7,0 -1.3,-0.5 -1.4,-1.2 -1.6,-14.4 -2.5,-29 -2.5,-43.5 0,-0.8 0.6,-1.4 1.4,-1.4 0.8,0 1.4,0.6 1.4,1.4 0,14.4 0.8,28.9 2.5,43.2 0.1,0.8 -0.5,1.5 -1.2,1.5 -0.1,0 -0.1,0 -0.2,0 z"
         id="path6998" />
    </g>
    <g
       transform="translate(5918.7071,2685.8958)"
       id="g7000">
      <path
         inkscape:connector-curvature="0"
         class="st1"
         d="m -5405,-2386.1 c -0.1,0 -0.2,0 -0.3,0 -0.8,-0.2 -1.2,-0.9 -1.1,-1.6 3.2,-16.1 4.5,-32.5 3.8,-48.9 0,-0.8 0.6,-1.4 1.3,-1.5 0.8,0 1.4,0.6 1.5,1.3 0.7,16.6 -0.6,33.3 -3.9,49.5 -0.1,0.7 -0.7,1.2 -1.3,1.2 z"
         id="path7002" />
    </g>
    <g
       transform="translate(5918.7071,2685.8958)"
       id="g7004">
      <path
         inkscape:connector-curvature="0"
         class="st1"
         d="m -5380.4,-2415.3 c -0.7,0 -1.3,-0.5 -1.4,-1.2 -1.6,-14.4 -2.5,-29 -2.5,-43.5 0,-0.8 0.6,-1.4 1.4,-1.4 0.8,0 1.4,0.6 1.4,1.4 0,14.4 0.8,28.9 2.5,43.2 0.1,0.8 -0.5,1.5 -1.2,1.5 -0.1,0 -0.1,0 -0.2,0 z"
         id="path7006" />
    </g>
    <g
       transform="translate(5918.7071,2685.8958)"
       id="g7008">
      <path
         inkscape:connector-curvature="0"
         class="st1"
         d="m -5405,-2386.1 c -0.1,0 -0.2,0 -0.3,0 -0.8,-0.2 -1.2,-0.9 -1.1,-1.6 3.2,-16.1 4.5,-32.5 3.8,-48.9 0,-0.8 0.6,-1.4 1.3,-1.5 0.8,0 1.4,0.6 1.5,1.3 0.7,16.6 -0.6,33.3 -3.9,49.5 -0.1,0.7 -0.7,1.2 -1.3,1.2 z"
         id="path7010" />
    </g>
    <g
       transform="translate(5918.7071,2685.8958)"
       id="g7012">
      <path
         inkscape:connector-curvature="0"
         class="st1"
         d="m -5371.6,-2139.8 c 0,0 -0.1,0 0,0 -0.8,0 -1.4,-0.7 -1.4,-1.4 l 0.9,-34.2 c 0,-0.8 0.6,-1.4 1.4,-1.4 0.8,0 1.4,0.7 1.4,1.4 l -0.9,34.2 c -0.1,0.7 -0.7,1.4 -1.4,1.4 z"
         id="path7014" />
    </g>
    <g
       transform="translate(5918.7071,2685.8958)"
       id="g7016">
      <path
         inkscape:connector-curvature="0"
         class="st1"
         d="m -5371.6,-2389.8 c 0,0 -0.1,-0.1 0,0 -0.8,0 -1.4,-0.7 -1.4,-1.4 l 0.9,-34.2 c 0,-0.8 0.6,-1.4 1.4,-1.4 0.8,0 1.4,0.7 1.4,1.4 l -0.9,34.2 c -0.1,0.7 -0.7,1.4 -1.4,1.4 z"
         id="path7018" />
    </g>
    <g
       transform="translate(5918.7071,2685.8958)"
       id="g7020">
      <path
         inkscape:connector-curvature="0"
         class="st1"
         d="m -5371.6,-2389.8 c 0,0 -0.1,-0.1 0,0 -0.8,0 -1.4,-0.7 -1.4,-1.4 l 0.9,-34.2 c 0,-0.8 0.6,-1.4 1.4,-1.4 0.8,0 1.4,0.7 1.4,1.4 l -0.9,34.2 c -0.1,0.7 -0.7,1.4 -1.4,1.4 z"
         id="path7022" />
    </g>
    <g
       transform="translate(5918.7071,2685.8958)"
       id="g7024">
      <path
         inkscape:connector-curvature="0"
         class="st1"
         d="m -5406.6,-2212.1 c 0,0 0,0 0,0 -0.9,0 -1.4,-0.7 -1.4,-1.5 0.8,-14.1 0.6,-28.3 -0.9,-42.4 -0.1,-0.8 0.5,-1.4 1.2,-1.5 0.8,-0.1 1.4,0.5 1.5,1.2 1.4,14.2 1.7,28.6 0.9,42.8 0.1,0.9 -0.5,1.4 -1.3,1.4 z"
         id="path7026" />
    </g>
    <g
       transform="translate(5918.7071,2685.8958)"
       id="g7028">
      <path
         inkscape:connector-curvature="0"
         class="st1"
         d="m -5363.3,-2368.6 c -0.8,0 -1.4,-0.6 -1.4,-1.4 l 0,-16.7 c 0,-0.8 0.6,-1.4 1.4,-1.4 0.8,0 1.4,0.6 1.4,1.4 l 0,16.7 c 0,0.7 -0.6,1.4 -1.4,1.4 z"
         id="path7030" />
    </g>
    <g
       transform="translate(5918.7071,2685.8958)"
       id="g7032">
      <path
         inkscape:connector-curvature="0"
         class="st1"
         d="m -5645.7,-2061.8 c -0.6,0 -1.2,-0.4 -1.4,-1.1 -5,-20.8 -7.6,-42.1 -7.8,-63.4 0,-0.8 0.6,-1.4 1.4,-1.4 0,0 0,0 0,0 0.8,0 1.4,0.6 1.4,1.4 0.1,21.1 2.7,42.3 7.7,62.8 0.2,0.7 -0.3,1.5 -1,1.7 -0.1,0 -0.2,0 -0.3,0 z"
         id="path7034" />
    </g>
    <g
       transform="translate(5918.7071,2685.8958)"
       id="g7036">
      <path
         inkscape:connector-curvature="0"
         class="st1"
         d="m -5633.2,-2064.8 c -0.6,0 -1.2,-0.4 -1.4,-1.1 -4.2,-18.1 -5.7,-36.8 -4.5,-55.3 0,-0.8 0.7,-1.4 1.5,-1.3 0.8,0 1.4,0.7 1.3,1.5 -1.2,18.3 0.3,36.7 4.5,54.5 0.2,0.7 -0.3,1.5 -1,1.7 -0.2,0 -0.3,0 -0.4,0 z"
         id="path7038" />
    </g>
    <g
       transform="translate(5918.7071,2685.8958)"
       id="g7040">
      <path
         inkscape:connector-curvature="0"
         class="st1"
         d="m -5603.7,-2054 c -0.7,0 -1.3,-0.6 -1.4,-1.3 l -3.5,-46.6 c -0.1,-0.8 0.5,-1.4 1.3,-1.5 0.8,-0.1 1.4,0.5 1.5,1.3 l 3.5,46.6 c 0.1,0.8 -0.5,1.4 -1.3,1.5 0,0 -0.1,0 -0.1,0 z"
         id="path7042" />
    </g>
    <g
       transform="translate(5918.7071,2685.8958)"
       id="g7044">
      <path
         inkscape:connector-curvature="0"
         class="st1"
         d="m -5596.7,-2116.9 c -0.7,0 -1.3,-0.5 -1.4,-1.3 l -3.6,-35.6 c -0.1,-0.8 0.5,-1.4 1.2,-1.5 0.8,-0.1 1.4,0.5 1.5,1.2 l 3.6,35.6 c 0.1,0.8 -0.5,1.4 -1.2,1.5 0,0.1 0,0.1 -0.1,0.1 z"
         id="path7046" />
    </g>
    <g
       transform="translate(5918.7071,2685.8958)"
       id="g7048">
      <path
         inkscape:connector-curvature="0"
         class="st1"
         d="m -5574,-2078.6 c -0.7,0 -1.3,-0.5 -1.4,-1.2 -2.3,-14.6 -2.8,-29.5 -1.5,-44.3 0.1,-0.8 0.7,-1.3 1.5,-1.3 0.8,0.1 1.3,0.7 1.3,1.5 -1.3,14.5 -0.8,29.2 1.5,43.6 0.1,0.8 -0.4,1.5 -1.2,1.6 0,0.1 -0.1,0.1 -0.2,0.1 z"
         id="path7050" />
    </g>
    <g
       transform="translate(5918.7071,2685.8958)"
       id="g7052">
      <path
         inkscape:connector-curvature="0"
         class="st1"
         d="m -5541.8,-2066.4 c -0.7,0 -1.4,-0.6 -1.4,-1.3 l -1.6,-47.9 c 0,-0.8 0.6,-1.4 1.3,-1.4 0.8,0 1.4,0.6 1.4,1.3 l 1.6,47.9 c 0.1,0.8 -0.5,1.4 -1.3,1.4 0,0 0,0 0,0 z"
         id="path7054" />
    </g>
    <g
       transform="translate(5918.7071,2685.8958)"
       id="g7056">
      <path
         inkscape:connector-curvature="0"
         class="st1"
         d="m -5428.1,-2070.8 c 0,0 0,0 0,0 -0.8,0 -1.4,-0.7 -1.4,-1.4 0.6,-16.6 0.9,-33.4 0.8,-50 0,-0.8 0.6,-1.4 1.4,-1.4 0.7,0 1.4,0.6 1.4,1.4 0,16.6 -0.2,33.5 -0.8,50.1 0,0.7 -0.7,1.3 -1.4,1.3 z"
         id="path7058" />
    </g>
    <g
       transform="translate(5918.7071,2685.8958)"
       id="g7060">
      <path
         inkscape:connector-curvature="0"
         class="st1"
         d="m -5445.2,-2090 c -0.1,0 -0.1,0 0,0 -0.8,0 -1.4,-0.6 -1.4,-1.4 0.2,-15.3 1.1,-30.8 2.7,-46 0.1,-0.8 0.8,-1.3 1.5,-1.2 0.8,0.1 1.3,0.8 1.2,1.5 -1.6,15.2 -2.5,30.6 -2.7,45.8 0,0.7 -0.6,1.3 -1.3,1.3 z"
         id="path7062" />
    </g>
    <g
       transform="translate(5918.7071,2685.8958)"
       id="g7064">
      <path
         inkscape:connector-curvature="0"
         class="st1"
         d="m -5462.6,-2085 c 0,0 0,0 0,0 -0.8,0 -1.4,-0.7 -1.4,-1.4 0.5,-18.6 1.5,-37.4 3.2,-56 0.1,-0.8 0.7,-1.3 1.5,-1.3 0.8,0.1 1.3,0.7 1.3,1.5 -1.6,18.5 -2.7,37.3 -3.1,55.8 -0.1,0.8 -0.7,1.4 -1.5,1.4 z"
         id="path7066" />
    </g>
    <g
       transform="translate(5918.7071,2685.8958)"
       id="g7068">
      <path
         inkscape:connector-curvature="0"
         class="st1"
         d="m -5521,-2048 c -0.8,0 -1.4,-0.6 -1.4,-1.4 -0.3,-13.6 -0.2,-27.4 0.2,-41 0,-0.8 0.7,-1.4 1.4,-1.3 0.8,0 1.4,0.7 1.3,1.4 -0.5,13.5 -0.6,27.3 -0.2,40.8 0.1,0.9 -0.5,1.5 -1.3,1.5 0,0 0,0 0,0 z"
         id="path7070" />
    </g>
    <g
       transform="translate(5918.7071,2685.8958)"
       id="g7072">
      <path
         inkscape:connector-curvature="0"
         class="st1"
         d="m -5503.9,-2046 c -0.8,0 -1.4,-0.6 -1.4,-1.4 l 0,-48.4 c 0,-0.8 0.6,-1.4 1.4,-1.4 0.8,0 1.4,0.6 1.4,1.4 l 0,48.4 c 0,0.8 -0.6,1.4 -1.4,1.4 z"
         id="path7074" />
    </g>
    <g
       transform="translate(5918.7071,2685.8958)"
       id="g7076">
      <path
         inkscape:connector-curvature="0"
         class="st1"
         d="m -5485.4,-2097.2 c 0,0 -0.1,0 -0.1,0 -0.8,-0.1 -1.3,-0.7 -1.3,-1.5 1.2,-13.3 0.6,-26.6 -1.6,-39.8 -0.1,-0.8 0.4,-1.5 1.1,-1.6 0.8,-0.1 1.5,0.4 1.6,1.1 2.3,13.4 2.8,27 1.6,40.5 0,0.8 -0.6,1.3 -1.3,1.3 z"
         id="path7078" />
    </g>
    <g
       transform="translate(5918.7071,2685.8958)"
       id="g7080">
      <path
         inkscape:connector-curvature="0"
         class="st1"
         d="m -5528.8,-2139.8 c -0.6,0 -1.1,-0.4 -1.3,-0.9 -1.6,-4.4 -2.2,-9.3 -1.7,-14 0.1,-0.8 0.8,-1.3 1.5,-1.2 0.8,0.1 1.3,0.8 1.2,1.5 -0.4,4.3 0.1,8.7 1.6,12.7 0.3,0.7 -0.1,1.5 -0.8,1.8 -0.2,0.1 -0.3,0.1 -0.5,0.1 z"
         id="path7082" />
    </g>
    <g
       transform="translate(5918.7071,2685.8958)"
       id="g7084">
      <path
         inkscape:connector-curvature="0"
         class="st1"
         d="m -5577.6,-2133.6 c -0.8,0 -1.4,-0.6 -1.4,-1.4 l 0,-20.9 c 0,-0.8 0.6,-1.4 1.4,-1.4 0.8,0 1.4,0.6 1.4,1.4 l 0,20.9 c 0,0.8 -0.6,1.4 -1.4,1.4 z"
         id="path7086" />
    </g>
    <g
       transform="translate(5918.7071,2685.8958)"
       id="g7088">
      <path
         inkscape:connector-curvature="0"
         class="st1"
         d="m -5528.8,-2139.8 c -0.6,0 -1.1,-0.4 -1.3,-0.9 -1.6,-4.4 -2.2,-9.3 -1.7,-14 0.1,-0.8 0.8,-1.3 1.5,-1.2 0.8,0.1 1.3,0.8 1.2,1.5 -0.4,4.3 0.1,8.7 1.6,12.7 0.3,0.7 -0.1,1.5 -0.8,1.8 -0.2,0.1 -0.3,0.1 -0.5,0.1 z"
         id="path7090" />
    </g>
    <g
       transform="translate(5918.7071,2685.8958)"
       id="g7092">
      <path
         inkscape:connector-curvature="0"
         class="st1"
         d="m -5678.1,-2070.8 c 0,0 0,0 0,0 -0.8,0 -1.4,-0.7 -1.4,-1.4 0.6,-16.6 0.9,-33.4 0.8,-50 0,-0.8 0.6,-1.4 1.4,-1.4 0.7,0 1.4,0.6 1.4,1.4 0,16.6 -0.2,33.5 -0.8,50.1 0,0.7 -0.7,1.3 -1.4,1.3 z"
         id="path7094" />
    </g>
    <g
       transform="translate(5918.7071,2685.8958)"
       id="g7096">
      <path
         inkscape:connector-curvature="0"
         class="st1"
         d="m -5695.2,-2090 c -0.1,0 -0.1,0 0,0 -0.8,0 -1.4,-0.6 -1.4,-1.4 0.2,-15.3 1.1,-30.8 2.7,-46 0.1,-0.8 0.8,-1.3 1.5,-1.2 0.8,0.1 1.3,0.8 1.2,1.5 -1.6,15.2 -2.5,30.6 -2.7,45.8 0,0.7 -0.6,1.3 -1.3,1.3 z"
         id="path7098" />
    </g>
    <g
       transform="translate(5918.7071,2685.8958)"
       id="g7100">
      <path
         inkscape:connector-curvature="0"
         class="st1"
         d="m -5712.6,-2085 c 0,0 0,0 0,0 -0.8,0 -1.4,-0.7 -1.4,-1.4 0.5,-18.6 1.5,-37.4 3.2,-56 0.1,-0.8 0.7,-1.3 1.5,-1.3 0.8,0.1 1.3,0.7 1.3,1.5 -1.6,18.5 -2.7,37.3 -3.1,55.8 -0.1,0.8 -0.7,1.4 -1.5,1.4 z"
         id="path7102" />
    </g>
    <g
       transform="translate(5918.7071,2685.8958)"
       id="g7104">
      <path
         inkscape:connector-curvature="0"
         class="st1"
         d="m -5529.9,-2090.5 c -0.8,0 -1.4,-0.6 -1.4,-1.4 l 0,-35.9 c 0,-0.8 0.6,-1.4 1.4,-1.4 0.8,0 1.4,0.6 1.4,1.4 l 0,35.9 c 0,0.8 -0.6,1.4 -1.4,1.4 z"
         id="path7106" />
    </g>
    <g
       transform="translate(5918.7071,2685.8958)"
       id="g7108">
      <path
         inkscape:connector-curvature="0"
         class="st1"
         d="m -5504.5,-2136.4 c 0,0 0,0 0,0 -0.8,0 -1.4,-0.7 -1.4,-1.4 0.3,-8 0.2,-16.1 -0.2,-24.1 0,-0.8 0.5,-1.4 1.3,-1.5 0.8,0 1.4,0.5 1.5,1.3 0.5,8.1 0.6,16.3 0.2,24.4 0,0.7 -0.7,1.3 -1.4,1.3 z"
         id="path7110" />
    </g>
    <g
       transform="translate(5918.7071,2685.8958)"
       id="g7112">
      <path
         inkscape:connector-curvature="0"
         class="st1"
         d="m -5557.2,-2106.9 c -0.7,0 -1.3,-0.5 -1.4,-1.2 -1.7,-11.9 -2.2,-24.1 -1.6,-36.1 0,-0.8 0.7,-1.4 1.5,-1.3 0.8,0 1.4,0.7 1.3,1.5 -0.6,11.9 0,23.8 1.6,35.6 0.1,0.8 -0.4,1.5 -1.2,1.6 -0.1,-0.1 -0.1,-0.1 -0.2,-0.1 z"
         id="path7114" />
    </g>
    <g
       transform="translate(5918.7071,2685.8958)"
       id="g7116">
      <path
         inkscape:connector-curvature="0"
         class="st1"
         d="m -5613.3,-2118.6 c -0.8,0 -1.4,-0.6 -1.4,-1.4 l 0,-16.7 c 0,-0.8 0.6,-1.4 1.4,-1.4 0.8,0 1.4,0.6 1.4,1.4 l 0,16.7 c 0,0.7 -0.6,1.4 -1.4,1.4 z"
         id="path7118" />
    </g>
    <g
       transform="translate(5918.7071,2685.8958)"
       id="g7120">
      <path
         inkscape:connector-curvature="0"
         class="st1"
         d="m -5395.7,-2061.8 c -0.6,0 -1.2,-0.4 -1.4,-1.1 -5,-20.8 -7.6,-42.1 -7.8,-63.4 0,-0.8 0.6,-1.4 1.4,-1.4 0,0 0,0 0,0 0.8,0 1.4,0.6 1.4,1.4 0.1,21.1 2.7,42.3 7.7,62.8 0.2,0.7 -0.3,1.5 -1,1.7 -0.1,0 -0.2,0 -0.3,0 z"
         id="path7122" />
    </g>
    <g
       transform="translate(5918.7071,2685.8958)"
       id="g7124">
      <path
         inkscape:connector-curvature="0"
         class="st1"
         d="m -5383.2,-2064.8 c -0.6,0 -1.2,-0.4 -1.4,-1.1 -4.2,-18.1 -5.7,-36.8 -4.5,-55.3 0,-0.8 0.7,-1.4 1.5,-1.3 0.8,0 1.4,0.7 1.3,1.5 -1.2,18.3 0.3,36.7 4.5,54.5 0.2,0.7 -0.3,1.5 -1,1.7 -0.2,0 -0.3,0 -0.4,0 z"
         id="path7126" />
    </g>
    <g
       transform="translate(5918.7071,2685.8958)"
       id="g7128">
      <path
         inkscape:connector-curvature="0"
         class="st1"
         d="m -5353.7,-2054 c -0.7,0 -1.3,-0.6 -1.4,-1.3 l -3.5,-46.6 c -0.1,-0.8 0.5,-1.4 1.3,-1.5 0.8,-0.1 1.4,0.5 1.5,1.3 l 3.5,46.6 c 0.1,0.8 -0.5,1.4 -1.3,1.5 0,0 -0.1,0 -0.1,0 z"
         id="path7130" />
    </g>
    <g
       transform="translate(5918.7071,2685.8958)"
       id="g7132">
      <path
         inkscape:connector-curvature="0"
         class="st1"
         d="m -5346.7,-2116.9 c -0.7,0 -1.3,-0.5 -1.4,-1.3 l -3.6,-35.6 c -0.1,-0.8 0.5,-1.4 1.2,-1.5 0.8,-0.1 1.4,0.5 1.5,1.2 l 3.6,35.6 c 0.1,0.8 -0.5,1.4 -1.2,1.5 0,0.1 0,0.1 -0.1,0.1 z"
         id="path7134" />
    </g>
    <g
       transform="translate(5918.7071,2685.8958)"
       id="g7136">
      <path
         inkscape:connector-curvature="0"
         class="st1"
         d="m -5363.3,-2118.6 c -0.8,0 -1.4,-0.6 -1.4,-1.4 l 0,-16.7 c 0,-0.8 0.6,-1.4 1.4,-1.4 0.8,0 1.4,0.6 1.4,1.4 l 0,16.7 c 0,0.7 -0.6,1.4 -1.4,1.4 z"
         id="path7138" />
    </g>
  </g>
</svg>
