<?xml version="1.0" encoding="UTF-8" standalone="no"?>
<!-- Created with Inkscape (http://www.inkscape.org/) -->

<svg
   xmlns:dc="http://purl.org/dc/elements/1.1/"
   xmlns:cc="http://creativecommons.org/ns#"
   xmlns:rdf="http://www.w3.org/1999/02/22-rdf-syntax-ns#"
   xmlns:svg="http://www.w3.org/2000/svg"
   xmlns="http://www.w3.org/2000/svg"
   xmlns:sodipodi="http://sodipodi.sourceforge.net/DTD/sodipodi-0.dtd"
   xmlns:inkscape="http://www.inkscape.org/namespaces/inkscape"
   width="141.53798mm"
   height="146.67885mm"
   viewBox="0 0 501.51253 519.72819"
   id="svg13041"
   version="1.1"
   inkscape:version="0.91 r13725">
  <defs
     id="defs13043" />
  <sodipodi:namedview
     id="base"
     pagecolor="#ffffff"
     bordercolor="#666666"
     borderopacity="1.0"
     inkscape:pageopacity="0.0"
     inkscape:pageshadow="2"
     inkscape:zoom="0.98994949"
     inkscape:cx="636.96749"
     inkscape:cy="216.90286"
     inkscape:document-units="px"
     inkscape:current-layer="layer1"
     showgrid="false"
     inkscape:window-width="1440"
     inkscape:window-height="855"
     inkscape:window-x="121"
     inkscape:window-y="94"
     inkscape:window-maximized="0"
     fit-margin-top="0"
     fit-margin-left="0"
     fit-margin-right="0"
     fit-margin-bottom="0" />
  <metadata
     id="metadata13046">
    <rdf:RDF>
      <cc:Work
         rdf:about="">
        <dc:format>image/svg+xml</dc:format>
        <dc:type
           rdf:resource="http://purl.org/dc/dcmitype/StillImage" />
        <dc:title></dc:title>
      </cc:Work>
    </rdf:RDF>
  </metadata>
  <g
     inkscape:label="Layer 1"
     inkscape:groupmode="layer"
     id="layer1"
     transform="translate(854.9536,-25.078026)">
    <path
       inkscape:connector-curvature="0"
       class="st1"
       d="m -604.48791,335.70625 c 0.2,0 0.4,-0.1 0.5,-0.2 0.5,-0.4 0.6,-1.1 0.2,-1.6 -5.2,-6.8 -11.3,-12.9 -18.3,-18 -0.9,-0.6 -1.7,-1.3 -2.1,-2.1 -0.3,-0.7 -0.2,-1.5 -0.1,-2.4 0,-0.2 0,-0.4 0,-0.7 0.3,-4.5 -1.7,-9.1 -5,-12.1 l -0.9,-0.8 -0.7,0.9 c -0.3,0.3 -0.5,0.6 -0.7,1 l -1.6,-3.1 -1.1,1.6 c -0.7,-1.4 -0.9,-3.1 -1.2,-4.9 -0.4,-2.3 -0.8,-4.8 -2.1,-6.8 -1.6,-2.5 -4.6,-4.2 -8.6,-5 -1.4,-0.3 -2.7,-0.4 -4.1,-0.6 -1.7,-0.2 -3.4,-0.4 -5.1,-0.8 -1.9,-0.5 -3.9,-1.4 -5.7,-2.2 -2.3,-1 -4.6,-2 -7.1,-2.6 -3.2,-0.6 -6.6,0 -9.1,1.6 -1.7,1.2 -2.9,2.8 -3.2,4.7 -0.5,2.6 0.5,5.6 2.8,7.9 2,2 4.5,3.2 6.7,4.3 l 19.4,9.6 c -0.4,0.7 -0.5,1.6 -0.1,2.5 0.7,1.4 2.3,1.9 3.4,2.2 4.2,1.2 8.2,2.8 11.8,4.5 2.1,1 4.3,2.2 7.1,3.9 5.2,3 11.1,6.8 15.9,11.8 3,3.1 5.6,6.7 8.1,10.3 0.2,0.3 0.5,0.5 0.9,0.5 0.2,0 0.5,-0.1 0.6,-0.2 0.5,-0.4 0.6,-1 0.2,-1.6 -0.1,-0.5 -0.4,-1 -0.8,-1.6 z m -44.9,-31.2 0.2,0.1 1,-2 -21.6,-10.7 c -2.2,-1.1 -4.4,-2.2 -6.1,-3.9 -1.4,-1.4 -2.7,-3.6 -2.2,-5.9 0.3,-1.3 1.1,-2.4 2.3,-3.2 1.9,-1.3 4.8,-1.8 7.4,-1.3 2.3,0.5 4.4,1.4 6.7,2.4 1.9,0.9 3.9,1.7 6,2.3 1.8,0.5 3.6,0.7 5.3,0.9 1.3,0.2 2.6,0.3 3.9,0.6 2.4,0.5 5.5,1.6 7.2,4 1.1,1.7 1.4,3.7 1.8,6 0.4,2.5 0.8,5.1 2.5,7.2 l 0.9,1.2 0.8,-1.2 5,9.6 -1.5,-7.5 c -0.1,-0.6 -0.1,-1.2 0.1,-1.8 2.3,2.5 3.5,6 3.3,9.4 0,0.2 0,0.4 0,0.6 -0.1,1.1 -0.2,2.2 0.3,3.4 0.3,0.8 0.9,1.5 1.5,2 -1.2,-0.7 -2.3,-1.4 -3.3,-2 -2.9,-1.7 -5.1,-2.9 -7.3,-4 -3.7,-1.8 -7.8,-3.4 -12.1,-4.7 -0.9,-0.3 -1.8,-0.6 -2.1,-1.1 -0.2,0 -0.2,-0.3 0,-0.4 z"
       id="path7554" />
    <path
       inkscape:connector-curvature="0"
       class="st1"
       d="m -575.78791,270.60625 c 0.5,0.5 0.8,1.3 1.1,2.1 0.1,0.2 0.1,0.4 0.2,0.6 1.6,4.2 5.2,7.7 9.5,9.1 l 1.1,0.4 0.3,-1.1 c 0.1,-0.4 0.2,-0.8 0.2,-1.2 l 2.7,2.2 0.4,-1.9 c 1.2,1 2.1,2.5 3.1,4 1.3,2 2.6,4 4.7,5.4 1.6,1 3.6,1.5 5.9,1.5 1.2,0 2.6,-0.2 3.9,-0.5 1.3,-0.3 2.7,-0.7 4,-1.1 1.6,-0.5 3.3,-1 5,-1.3 2,-0.3 4.1,-0.3 6.1,-0.3 2.5,0 5,0 7.5,-0.5 3.1,-0.7 6.1,-2.7 7.6,-5.1 1.1,-1.8 1.5,-3.7 1.1,-5.6 -0.6,-2.6 -2.8,-4.9 -5.8,-6.1 -2.6,-1 -5.4,-1.1 -7.9,-1.2 l -21.7,-0.9 c 0.1,-0.8 -0.2,-1.7 -0.9,-2.3 -1.3,-1 -2.9,-0.8 -4,-0.7 -4.4,0.6 -8.6,0.8 -12.6,0.6 -2.3,-0.1 -4.8,-0.3 -8.1,-0.7 -6,-0.7 -12.9,-1.7 -19.3,-4.3 -4,-1.6 -7.9,-3.9 -11.6,-6.1 -0.5,-0.3 -1.2,-0.1 -1.5,0.4 -0.2,0.3 -0.2,0.6 -0.1,0.8 0.1,0.3 0.3,0.5 0.5,0.7 0.6,0.3 1.1,0.7 1.7,1 -0.2,0.1 -0.3,0.2 -0.4,0.4 -0.3,0.5 -0.1,1.2 0.4,1.5 7.5,4.2 15.6,7.2 24,9 1.2,0.3 2.3,0.6 2.9,1.2 z m 50.7,1.6 c 2.4,0.1 4.9,0.2 7.2,1.1 1.8,0.7 3.9,2.2 4.4,4.5 0.3,1.3 0,2.6 -0.8,3.9 -1.2,2 -3.7,3.6 -6.2,4.2 -2.3,0.5 -4.6,0.5 -7.1,0.5 -2.1,0 -4.3,0 -6.5,0.3 -1.8,0.3 -3.6,0.8 -5.3,1.3 -1.2,0.4 -2.5,0.8 -3.8,1 -2.3,0.5 -5.7,0.8 -8.2,-0.8 -1.7,-1.1 -2.8,-2.8 -4.1,-4.7 -1.4,-2.1 -2.8,-4.3 -5.2,-5.6 l -1.3,-0.7 -0.3,1.4 -8.5,-6.8 4.4,6.3 c 0.3,0.5 0.6,1.1 0.6,1.7 -3.1,-1.4 -5.6,-4.1 -6.8,-7.2 -0.1,-0.2 -0.1,-0.4 -0.2,-0.6 -0.4,-1 -0.7,-2.1 -1.6,-3 -0.6,-0.6 -1.4,-1 -2.2,-1.3 1.3,0.2 2.6,0.3 3.9,0.5 3.3,0.4 5.9,0.6 8.3,0.7 4.2,0.1 8.5,-0.1 13,-0.7 1,-0.1 1.9,-0.2 2.3,0.2 0.1,0.1 0.1,0.3 0.1,0.5 l -0.2,0 -0.1,2.2 24.2,1.1 z"
       id="path7556" />
    <path
       inkscape:connector-curvature="0"
       class="st1"
       d="m -586.78791,162.80625 c 0.2,0 0.3,0 0.5,0 2.8,-0.1 5.4,-1.1 7.7,-2 l 20.2,-7.9 c 0.3,0.8 0.9,1.5 1.8,1.7 1.6,0.4 3,-0.4 3.9,-1 3.8,-2.3 7.6,-4.2 11.3,-5.7 2.2,-0.9 4.5,-1.7 7.7,-2.6 5.7,-1.8 12.5,-3.6 19.4,-3.8 4.4,-0.1 8.8,0.4 13.1,0.9 0.6,0.1 1.2,-0.4 1.2,-1 0.1,-0.6 -0.4,-1.2 -1,-1.2 -0.6,-0.1 -1.3,-0.2 -2,-0.2 0.1,-0.2 0.2,-0.3 0.2,-0.5 0,-0.3 -0.1,-0.6 -0.3,-0.8 -0.2,-0.2 -0.5,-0.4 -0.8,-0.4 -8.5,-0.8 -17.2,-0.3 -25.6,1.4 -1,0.2 -2.1,0.4 -3,0.1 -0.7,-0.3 -1.2,-0.9 -1.9,-1.5 -0.2,-0.2 -0.3,-0.3 -0.5,-0.5 -3.1,-3.2 -7.9,-4.9 -12.3,-4.5 l -1.1,0.1 0.2,1.1 c 0.1,0.4 0.2,0.8 0.3,1.2 l -3.4,-0.9 0.4,1.9 c -1.5,-0.5 -2.9,-1.4 -4.4,-2.4 -2,-1.3 -4,-2.6 -6.5,-3 -2.9,-0.4 -6.2,0.6 -9.5,3 -1.1,0.8 -2.2,1.7 -3.2,2.6 -1.3,1.1 -2.6,2.2 -4,3.1 -1.7,1.1 -3.6,1.9 -5.5,2.7 -2.3,1 -4.6,2 -6.7,3.5 -2.6,1.9 -4.5,4.9 -4.9,7.8 -0.3,2.1 0.1,4 1.3,5.5 1.7,2.1 4.4,3.3 7.4,3.3 z m 38.8,-24.9 10.5,2.8 -6.6,-4 c -0.5,-0.3 -0.9,-0.8 -1.2,-1.3 3.4,0 6.8,1.5 9.1,3.9 0.1,0.1 0.3,0.3 0.4,0.5 0.8,0.8 1.5,1.6 2.7,2.1 0.8,0.3 1.7,0.3 2.5,0.3 -1.3,0.4 -2.6,0.7 -3.7,1.1 -3.2,1 -5.6,1.8 -7.8,2.7 -3.9,1.5 -7.8,3.5 -11.6,5.8 -0.8,0.5 -1.6,0.9 -2.2,0.8 -0.1,0 -0.2,-0.2 -0.3,-0.4 l 0.2,-0.1 -0.8,-2 -22.4,8.7 c -2.3,0.9 -4.6,1.8 -7,1.9 -1.9,0.1 -4.5,-0.5 -5.8,-2.3 -0.8,-1.1 -1.1,-2.4 -0.8,-3.9 0.4,-2.3 1.9,-4.8 4,-6.3 1.9,-1.4 4,-2.3 6.3,-3.3 1.9,-0.8 3.9,-1.7 5.8,-2.9 1.5,-1 2.9,-2.2 4.3,-3.3 1,-0.8 2,-1.7 3,-2.5 1.7,-1.2 4.2,-2.6 6.8,-2.6 0.4,0 0.7,0 1,0.1 2,0.3 3.7,1.5 5.6,2.7 2.1,1.4 4.3,2.8 7,3.1 l 1.5,0.1 -0.5,-1.7 z"
       id="path7558" />
    <path
       inkscape:connector-curvature="0"
       class="st1"
       d="m -836.78792,162.80625 c 0.2,0 0.3,0 0.5,0 2.8,-0.1 5.4,-1.1 7.7,-2 l 20.20001,-7.9 c 0.3,0.8 0.9,1.5 1.8,1.7 1.6,0.4 3,-0.4 3.9,-1 3.8,-2.3 7.6,-4.2 11.3,-5.7 2.2,-0.9 4.5,-1.7 7.7,-2.6 5.7,-1.8 12.5,-3.6 19.4,-3.8 4.4,-0.1 8.8,0.4 13.1,0.9 0.6,0.1 1.2,-0.4 1.2,-1 0.1,-0.6 -0.4,-1.2 -1,-1.2 -0.6,-0.1 -1.3,-0.2 -2,-0.2 0.1,-0.2 0.2,-0.3 0.2,-0.5 0,-0.3 -0.1,-0.6 -0.3,-0.8 -0.2,-0.2 -0.5,-0.4 -0.8,-0.4 -8.5,-0.8 -17.2,-0.3 -25.6,1.4 -1,0.2 -2.1,0.4 -3,0.1 -0.7,-0.3 -1.2,-0.9 -1.9,-1.5 -0.2,-0.2 -0.3,-0.3 -0.5,-0.5 -3.1,-3.2 -7.9,-4.9 -12.3,-4.5 l -1.1,0.1 0.2,1.1 c 0.1,0.4 0.2,0.8 0.3,1.2 l -3.4,-0.9 0.4,1.9 c -1.5,-0.5 -2.9,-1.4 -4.4,-2.4 -2,-1.3 -4,-2.6 -6.5,-3 -2.9,-0.4 -6.20001,0.6 -9.50001,3 -1.1,0.8 -2.2,1.7 -3.2,2.6 -1.3,1.1 -2.6,2.2 -4,3.1 -1.7,1.1 -3.6,1.9 -5.5,2.7 -2.3,1 -4.6,2 -6.7,3.5 -2.6,1.9 -4.49999,4.9 -4.89999,7.8 -0.3,2.1 0.1,4 1.3,5.5 1.69999,2.1 4.39999,3.3 7.39999,3.3 z m 38.80001,-24.9 10.5,2.8 -6.6,-4 c -0.5,-0.3 -0.9,-0.8 -1.2,-1.3 3.4,0 6.8,1.5 9.1,3.9 0.1,0.1 0.3,0.3 0.4,0.5 0.8,0.8 1.5,1.6 2.7,2.1 0.8,0.3 1.7,0.3 2.5,0.3 -1.3,0.4 -2.6,0.7 -3.7,1.1 -3.2,1 -5.6,1.8 -7.8,2.7 -3.9,1.5 -7.8,3.5 -11.6,5.8 -0.8,0.5 -1.6,0.9 -2.2,0.8 -0.1,0 -0.2,-0.2 -0.3,-0.4 l 0.2,-0.1 -0.8,-2 -22.40001,8.7 c -2.3,0.9 -4.6,1.8 -7,1.9 -1.9,0.1 -4.5,-0.5 -5.8,-2.3 -0.8,-1.1 -1.1,-2.4 -0.8,-3.9 0.4,-2.3 1.9,-4.8 4,-6.3 1.9,-1.4 4,-2.3 6.3,-3.3 1.9,-0.8 3.9,-1.7 5.8,-2.9 1.5,-1 2.9,-2.2 4.3,-3.3 1,-0.8 2,-1.7 3,-2.5 1.7,-1.2 4.20001,-2.6 6.80001,-2.6 0.4,0 0.7,0 1,0.1 2,0.3 3.7,1.5 5.6,2.7 2.1,1.4 4.3,2.8 7,3.1 l 1.5,0.1 -0.5,-1.7 z"
       id="path7560" />
    <path
       inkscape:connector-curvature="0"
       class="st1"
       d="m -586.78791,412.80625 c 0.2,0 0.3,0 0.5,0 2.8,-0.1 5.4,-1.1 7.7,-2 l 20.2,-7.9 c 0.3,0.8 0.9,1.5 1.8,1.7 1.6,0.4 3,-0.4 3.9,-1 3.8,-2.3 7.6,-4.2 11.3,-5.7 2.2,-0.9 4.5,-1.7 7.7,-2.6 5.7,-1.8 12.5,-3.6 19.4,-3.8 4.4,-0.1 8.8,0.4 13.1,0.9 0.6,0.1 1.2,-0.4 1.2,-1 0.1,-0.6 -0.4,-1.2 -1,-1.2 -0.6,-0.1 -1.3,-0.2 -2,-0.2 0.1,-0.2 0.2,-0.3 0.2,-0.5 0,-0.3 -0.1,-0.6 -0.3,-0.8 -0.2,-0.2 -0.5,-0.4 -0.8,-0.4 -8.5,-0.8 -17.2,-0.3 -25.6,1.4 -1,0.2 -2.1,0.4 -3,0.1 -0.7,-0.3 -1.2,-0.9 -1.9,-1.5 -0.2,-0.2 -0.3,-0.3 -0.5,-0.5 -3.1,-3.2 -7.9,-4.9 -12.3,-4.5 l -1.1,0.1 0.2,1.1 c 0.1,0.4 0.2,0.8 0.3,1.2 l -3.4,-0.9 0.4,1.9 c -1.5,-0.5 -2.9,-1.4 -4.4,-2.4 -2,-1.3 -4,-2.6 -6.5,-3 -2.9,-0.4 -6.2,0.6 -9.5,3 -1.1,0.8 -2.2,1.7 -3.2,2.6 -1.3,1.1 -2.6,2.2 -4,3.1 -1.7,1.1 -3.6,1.9 -5.5,2.7 -2.3,1 -4.6,2 -6.7,3.5 -2.6,1.9 -4.5,4.9 -4.9,7.8 -0.3,2.1 0.1,4 1.3,5.5 1.7,2.1 4.4,3.3 7.4,3.3 z m 38.8,-24.9 10.5,2.8 -6.6,-4 c -0.5,-0.3 -0.9,-0.8 -1.2,-1.3 3.4,0 6.8,1.5 9.1,3.9 0.1,0.1 0.3,0.3 0.4,0.5 0.8,0.8 1.5,1.6 2.7,2.1 0.8,0.3 1.7,0.3 2.5,0.3 -1.3,0.4 -2.6,0.7 -3.7,1.1 -3.2,1 -5.6,1.8 -7.8,2.7 -3.9,1.5 -7.8,3.5 -11.6,5.8 -0.8,0.5 -1.6,0.9 -2.2,0.8 -0.1,0 -0.2,-0.2 -0.3,-0.4 l 0.2,-0.1 -0.8,-2 -22.4,8.7 c -2.3,0.9 -4.6,1.8 -7,1.9 -1.9,0.1 -4.5,-0.5 -5.8,-2.3 -0.8,-1.1 -1.1,-2.4 -0.8,-3.9 0.4,-2.3 1.9,-4.8 4,-6.3 1.9,-1.4 4,-2.3 6.3,-3.3 1.9,-0.8 3.9,-1.7 5.8,-2.9 1.5,-1 2.9,-2.2 4.3,-3.3 1,-0.8 2,-1.7 3,-2.5 1.7,-1.2 4.2,-2.6 6.8,-2.6 0.4,0 0.7,0 1,0.1 2,0.3 3.7,1.5 5.6,2.7 2.1,1.4 4.3,2.8 7,3.1 l 1.5,0.1 -0.5,-1.7 z"
       id="path7562" />
    <path
       inkscape:connector-curvature="0"
       class="st1"
       d="m -836.78792,412.80625 c 0.2,0 0.3,0 0.5,0 2.8,-0.1 5.4,-1.1 7.7,-2 l 20.20001,-7.9 c 0.3,0.8 0.9,1.5 1.8,1.7 1.6,0.4 3,-0.4 3.9,-1 3.8,-2.3 7.6,-4.2 11.3,-5.7 2.2,-0.9 4.5,-1.7 7.7,-2.6 5.7,-1.8 12.5,-3.6 19.4,-3.8 4.4,-0.1 8.8,0.4 13.1,0.9 0.6,0.1 1.2,-0.4 1.2,-1 0.1,-0.6 -0.4,-1.2 -1,-1.2 -0.6,-0.1 -1.3,-0.2 -2,-0.2 0.1,-0.2 0.2,-0.3 0.2,-0.5 0,-0.3 -0.1,-0.6 -0.3,-0.8 -0.2,-0.2 -0.5,-0.4 -0.8,-0.4 -8.5,-0.8 -17.2,-0.3 -25.6,1.4 -1,0.2 -2.1,0.4 -3,0.1 -0.7,-0.3 -1.2,-0.9 -1.9,-1.5 -0.2,-0.2 -0.3,-0.3 -0.5,-0.5 -3.1,-3.2 -7.9,-4.9 -12.3,-4.5 l -1.1,0.1 0.2,1.1 c 0.1,0.4 0.2,0.8 0.3,1.2 l -3.4,-0.9 0.4,1.9 c -1.5,-0.5 -2.9,-1.4 -4.4,-2.4 -2,-1.3 -4,-2.6 -6.5,-3 -2.9,-0.4 -6.20001,0.6 -9.50001,3 -1.1,0.8 -2.2,1.7 -3.2,2.6 -1.3,1.1 -2.6,2.2 -4,3.1 -1.7,1.1 -3.6,1.9 -5.5,2.7 -2.3,1 -4.6,2 -6.7,3.5 -2.6,1.9 -4.49999,4.9 -4.89999,7.8 -0.3,2.1 0.1,4 1.3,5.5 1.69999,2.1 4.39999,3.3 7.39999,3.3 z m 38.80001,-24.9 10.5,2.8 -6.6,-4 c -0.5,-0.3 -0.9,-0.8 -1.2,-1.3 3.4,0 6.8,1.5 9.1,3.9 0.1,0.1 0.3,0.3 0.4,0.5 0.8,0.8 1.5,1.6 2.7,2.1 0.8,0.3 1.7,0.3 2.5,0.3 -1.3,0.4 -2.6,0.7 -3.7,1.1 -3.2,1 -5.6,1.8 -7.8,2.7 -3.9,1.5 -7.8,3.5 -11.6,5.8 -0.8,0.5 -1.6,0.9 -2.2,0.8 -0.1,0 -0.2,-0.2 -0.3,-0.4 l 0.2,-0.1 -0.8,-2 -22.40001,8.7 c -2.3,0.9 -4.6,1.8 -7,1.9 -1.9,0.1 -4.5,-0.5 -5.8,-2.3 -0.8,-1.1 -1.1,-2.4 -0.8,-3.9 0.4,-2.3 1.9,-4.8 4,-6.3 1.9,-1.4 4,-2.3 6.3,-3.3 1.9,-0.8 3.9,-1.7 5.8,-2.9 1.5,-1 2.9,-2.2 4.3,-3.3 1,-0.8 2,-1.7 3,-2.5 1.7,-1.2 4.20001,-2.6 6.80001,-2.6 0.4,0 0.7,0 1,0.1 2,0.3 3.7,1.5 5.6,2.7 2.1,1.4 4.3,2.8 7,3.1 l 1.5,0.1 -0.5,-1.7 z"
       id="path7564" />
    <path
       inkscape:connector-curvature="0"
       class="st1"
       d="m -681.18791,220.30625 c 1.7,-0.5 2.8,-1.7 4,-3.1 4.4,-5.2 8.6,-10.9 9,-17.6 0.3,-4.3 -1.9,-9 -6,-9.4 -2.2,-0.2 -4.1,0.9 -5.9,2 -3.7,2.3 -7.3,4.8 -10.8,7.3 -1.4,1 -2.7,2 -3.6,3.4 -1.2,1.9 -1.4,4 -1.6,6 -0.1,1 -0.2,2 -0.4,2.9 -0.4,1.6 -1.1,3 -1.8,4.6 -0.9,1.8 -1.7,3.7 -2.1,5.8 -0.2,1.2 -0.2,2.5 -0.2,3.7 0,1.9 0,3.8 -0.8,5.2 -0.9,-1 -1.7,-2.1 -2.4,-3.2 l -1.1,-1.8 -0.8,1.9 c -0.4,0.9 -0.7,1.6 -1.3,2 -0.2,0.1 -0.5,0.1 -0.8,0.1 0,0 -0.1,-0.1 -0.1,-0.1 l -2.5,-8.9 0.3,9.2 c 0.1,2.8 0.2,6.5 2.5,9.3 0.1,0.2 0.3,0.3 0.4,0.5 0.3,0.4 0.7,0.8 0.8,1.1 0.2,0.7 -0.3,1.5 -0.8,2.4 -0.8,1.2 -1.6,2.5 -2.5,3.7 -0.4,0.5 -0.6,0.6 -0.6,0.6 -0.1,0 -0.2,-0.2 -0.3,-0.2 -0.2,-0.2 -0.4,-0.3 -0.6,-0.5 -0.6,-0.4 -1.4,-0.5 -2.2,-0.2 -0.9,0.3 -1.7,1.1 -2.1,1.9 -0.6,1.4 -0.3,2.8 -0.1,3.9 0.1,0.3 0.2,0.5 0.5,0.7 0.2,0.2 0.5,0.2 0.8,0.2 0.3,-0.1 0.5,-0.2 0.7,-0.5 0.2,-0.2 0.2,-0.5 0.2,-0.8 -0.2,-1.1 -0.3,-2 -0.1,-2.7 0.1,-0.3 0.4,-0.6 0.7,-0.7 0.1,0 0.3,-0.1 0.4,0 0.1,0.1 0.2,0.1 0.3,0.2 0.3,0.2 0.6,0.6 1.2,0.7 0.4,0.1 0.8,0.1 1.1,0 -0.2,0.4 -0.4,0.9 -0.4,1.4 l 0.1,1.5 1.3,-0.5 c 0.1,0.2 0.2,0.5 0.1,0.6 -0.3,0.5 -1,0.8 -1.7,1.1 -0.2,0.1 -0.4,0.2 -0.6,0.3 -2.1,1 -3.7,2.7 -5.1,4.5 0.6,-1 1.2,-1.9 1.7,-2.6 0.3,-0.5 0.2,-1.2 -0.3,-1.5 -0.5,-0.3 -1.2,-0.2 -1.5,0.3 -4.8,7 -18.3,32.3 -18.4,32.5 l -0.1,0.2 c -0.5,0.9 -1.2,1.9 -1.3,3.1 -0.2,1.4 0.5,3.2 2,3.7 l 1,0.3 0.4,-0.9 c 4.7,-10.8 10.3,-21.3 16.6,-31.2 1.7,-2.7 3.5,-5.2 6,-6.5 0.2,-0.1 0.4,-0.2 0.6,-0.3 1,-0.4 2,-0.9 2.7,-2 0.6,-0.9 0.4,-2.3 -0.3,-3.2 -0.1,-0.1 -0.2,-0.2 -0.3,-0.3 0.3,-0.1 0.6,-0.3 1.1,-0.5 0.6,-0.2 1.2,-0.5 1.7,-0.8 1.5,-1 2,-2.5 2.5,-4.1 0.4,-1.1 0.7,-2.1 1.3,-2.7 0.8,-0.8 2,-1.1 3.2,-1.4 1.5,-0.4 3.1,-0.9 4.2,-2.2 0.7,-0.9 1.1,-2.1 0.9,-3.2 -0.1,-0.9 -0.6,-1.7 -1.4,-2.1 l -0.6,-0.4 -0.6,0.5 c -0.6,0.5 -1.3,0.7 -1.4,0.7 0.1,-0.2 0.4,-0.6 0.9,-0.8 1.5,-0.7 3.2,-1 5,-1.3 0.4,-0.1 0.8,-0.1 1.3,-0.2 2.3,-0.4 4.8,-1.1 6.7,-2.9 1.9,-1.9 2.9,-5.2 1.1,-7.6 -0.1,-0.1 -0.2,-0.2 -0.3,-0.4 -0.1,-0.2 -0.4,-0.5 -0.4,-0.6 0.2,-0.1 0.5,-0.2 0.7,-0.2 0,0.2 0.1,0.2 0.2,0.1 z m -26.8,28.3 c 0.9,-1.2 1.8,-2.5 2.6,-3.8 0.8,-1.2 1.5,-2.7 1,-4.2 -0.2,-0.8 -0.8,-1.4 -1.2,-2 -0.1,-0.1 -0.2,-0.3 -0.3,-0.4 -1.3,-1.6 -1.7,-3.7 -1.8,-5.8 0.7,0.1 1.4,-0.1 1.9,-0.4 0.5,-0.3 0.9,-0.7 1.3,-1.2 0.8,1.1 1.6,2.1 2.5,3 l 0.8,0.8 0.8,-0.8 c 2,-2.1 2.1,-4.9 2.1,-7.6 0,-1.1 0,-2.3 0.2,-3.4 0.3,-1.8 1.1,-3.4 1.9,-5.2 0.8,-1.6 1.5,-3.2 1.9,-5 0.2,-1.1 0.4,-2.2 0.5,-3.2 0.2,-1.9 0.4,-3.7 1.3,-5.1 0.7,-1.1 1.8,-1.9 3,-2.8 3.5,-2.5 7.1,-4.9 10.7,-7.2 1.5,-1 3,-1.8 4.5,-1.7 2.8,0.3 4.2,3.8 4,7 -0.4,6 -4.3,11.4 -8.5,16.3 -0.9,1.1 -1.8,2.1 -2.9,2.4 -0.1,0 -0.2,0.1 -0.3,0.1 -0.8,0.2 -1.9,0.5 -2.3,1.7 -0.4,1.2 0.4,2.1 0.9,2.7 0.1,0.1 0.1,0.2 0.2,0.3 1,1.4 0.4,3.5 -0.8,4.7 -1.5,1.4 -3.7,2 -5.6,2.3 -0.4,0.1 -0.8,0.1 -1.2,0.2 -1.9,0.3 -3.8,0.6 -5.6,1.5 -0.8,0.4 -1.7,1.1 -2,2.1 -0.2,0.6 -0.1,1.2 0.1,1.7 0.3,0.6 0.8,0.9 1.4,1.1 0.9,0.2 1.8,-0.1 2.4,-0.4 0,0 0,0 0,0.1 0.1,0.5 -0.1,1 -0.4,1.4 -0.7,0.8 -1.9,1.2 -3.1,1.5 -1.4,0.4 -3.1,0.8 -4.2,2 -1,1 -1.4,2.3 -1.8,3.6 -0.4,1.2 -0.8,2.4 -1.6,2.9 -0.4,0.2 -0.9,0.4 -1.3,0.6 -0.6,0 -0.8,0.1 -1.1,0.2 0,0 0,0 0,0 z m -26,42.9 c 0,-0.1 0,-0.1 0,-0.2 0.1,-0.7 0.5,-1.5 1,-2.2 l 0.1,-0.2 c 0,0 0.1,-0.1 0.2,-0.3 -0.4,0.9 -0.8,1.9 -1.3,2.9 z"
       id="path7566" />
    <path
       inkscape:connector-curvature="0"
       class="st1"
       d="m -517.88791,202.60625 c 1.1,1.3 1.8,2.9 2.6,4.6 0.2,0.4 0.3,0.7 0.5,1.1 1,2.1 2.3,4.4 4.5,5.8 2.2,1.4 5.8,1.4 7.6,-0.9 0.1,-0.1 0.2,-0.2 0.3,-0.4 0.1,-0.2 0.3,-0.5 0.5,-0.6 0.1,0.1 0.3,0.5 0.4,0.7 0.1,0.1 0.1,0.2 0.2,0.3 0.9,1.5 2.4,2.3 4,3.1 6.1,2.9 12.7,5.5 19.3,4.2 0.9,-0.2 1.8,-0.5 2.6,-0.8 3.5,-1.6 5.4,-4.5 4.9,-7.4 -0.4,-2.2 -1.9,-3.7 -3.5,-5.2 -3.2,-2.9 -6.5,-5.8 -9.8,-8.5 -1.4,-1.1 -2.6,-2.1 -4.2,-2.6 -2.1,-0.7 -4.2,-0.3 -6.3,0 -1,0.2 -2,0.3 -2.9,0.4 -1.6,0.1 -3.2,-0.2 -4.9,-0.5 -2,-0.4 -4,-0.7 -6.1,-0.5 -1.2,0.1 -2.5,0.4 -3.6,0.7 -1.9,0.5 -3.6,0.9 -5.2,0.6 0.7,-1.1 1.6,-2.2 2.5,-3.1 l 1.5,-1.5 -2.1,-0.3 c -0.9,-0.1 -1.8,-0.3 -2.2,-0.7 -0.2,-0.2 -0.3,-0.5 -0.3,-0.7 0,-0.1 0,-0.1 0.1,-0.2 l 7.9,-4.7 -8.8,2.7 c -2.6,0.8 -6.2,1.9 -8.3,4.8 -0.1,0.2 -0.2,0.3 -0.3,0.5 -0.3,0.4 -0.6,0.8 -0.9,1 -0.6,0.4 -1.6,0.1 -2.5,-0.1 -1.4,-0.4 -2.8,-1 -4.2,-1.5 -0.5,-0.2 -0.7,-0.4 -0.8,-0.4 0,-0.1 0.1,-0.2 0.2,-0.3 0.1,-0.2 0.2,-0.4 0.3,-0.7 0.2,-0.7 0.1,-1.5 -0.4,-2.2 -0.5,-0.8 -1.5,-1.4 -2.4,-1.5 -1.5,-0.2 -2.8,0.4 -3.8,1 -0.3,0.1 -0.5,0.4 -0.6,0.6 -0.1,0.3 -0.1,0.6 0.1,0.8 0.1,0.3 0.4,0.5 0.6,0.6 0.3,0.1 0.6,0.1 0.8,-0.1 1,-0.5 1.8,-0.8 2.6,-0.7 0.3,0 0.7,0.3 0.8,0.5 0.1,0.1 0.1,0.2 0.1,0.3 0,0.1 -0.1,0.2 -0.2,0.3 -0.2,0.3 -0.4,0.8 -0.4,1.3 0,0.4 0.1,0.8 0.3,1.1 -0.4,-0.1 -0.9,-0.2 -1.5,0 l -1.4,0.4 0.8,1.1 c -0.1,0.2 -0.4,0.3 -0.6,0.2 -0.6,-0.2 -1,-0.7 -1.5,-1.4 -0.1,-0.2 -0.3,-0.4 -0.4,-0.5 -1.5,-1.7 -3.6,-2.9 -5.7,-3.7 1.1,0.3 2.1,0.7 2.9,0.9 0.3,0.1 0.6,0.1 0.8,0 0.3,-0.1 0.5,-0.4 0.6,-0.6 0.1,-0.3 0.1,-0.6 0,-0.8 -0.1,-0.3 -0.4,-0.5 -0.6,-0.6 -8,-2.8 -35.9,-9.4 -36.1,-9.4 l -0.2,0 c -1,-0.3 -2.1,-0.6 -3.3,-0.5 -1.4,0.2 -3,1.3 -3.1,2.9 l -0.1,1 1,0.2 c 11.6,1.8 23.2,4.5 34.4,8 3,1 5.9,2 7.8,4.2 0.1,0.2 0.3,0.3 0.4,0.5 0.7,0.8 1.4,1.7 2.6,2.1 1,0.3 2.3,-0.2 3,-1.1 0.1,-0.1 0.1,-0.2 0.2,-0.3 0.2,0.2 0.4,0.5 0.7,0.9 0.4,0.5 0.8,1 1.3,1.4 1.3,1.2 3,1.3 4.6,1.4 1.1,0.1 2.2,0.1 3,0.6 0.9,0.5 1.6,1.7 2.2,2.7 0.8,1.4 1.7,2.8 3.2,3.5 1,0.5 2.3,0.5 3.3,0.1 0.8,-0.4 1.5,-1 1.7,-1.9 l 0.2,-0.7 -0.6,-0.5 c -0.6,-0.5 -1,-1.1 -1,-1.2 0.2,-0.4 0.6,-0.2 0.9,0.2 z m -13.3,-6.5 c 1.4,0.4 3,0.8 4.3,-0.1 0.7,-0.4 1.2,-1.1 1.6,-1.7 0.1,-0.1 0.2,-0.3 0.3,-0.4 1.2,-1.7 3.2,-2.6 5.2,-3.3 0.1,0.7 0.4,1.3 0.9,1.7 0.4,0.4 0.9,0.7 1.5,0.9 -0.8,1 -1.6,2.1 -2.2,3.2 l -0.6,1 1,0.6 c 2.5,1.4 5.3,0.7 7.9,0.1 1.1,-0.3 2.2,-0.6 3.3,-0.7 1.8,-0.2 3.6,0.2 5.5,0.5 1.7,0.3 3.5,0.6 5.4,0.6 1.1,0 2.2,-0.2 3.2,-0.4 1.9,-0.3 3.6,-0.6 5.2,-0.1 1.2,0.4 2.3,1.2 3.5,2.2 3.3,2.7 6.6,5.6 9.7,8.4 1.3,1.2 2.5,2.4 2.8,3.9 0.5,2.7 -2.6,5.1 -5.7,5.7 -5.9,1.2 -12.1,-1.2 -17.9,-4 -1.3,-0.6 -2.5,-1.2 -3.1,-2.2 -0.1,-0.1 -0.1,-0.2 -0.2,-0.3 -0.4,-0.7 -1,-1.7 -2.2,-1.8 -0.4,0 -0.7,0.1 -1,0.2 -0.7,0.3 -1.1,0.9 -1.4,1.4 -0.1,0.1 -0.1,0.2 -0.2,0.3 -1.1,1.4 -3.3,1.3 -4.7,0.4 -1.8,-1.1 -2.8,-3 -3.7,-4.8 -0.2,-0.4 -0.3,-0.7 -0.5,-1.1 -0.8,-1.7 -1.6,-3.5 -2.9,-5 -0.6,-0.7 -1.5,-1.4 -2.6,-1.4 -0.6,0 -1.2,0.2 -1.6,0.6 -0.5,0.4 -0.7,1 -0.7,1.7 0,0.9 0.6,1.7 1,2.2 0,0 0,0 -0.1,0 -0.4,0.2 -1,0.2 -1.5,0 -0.9,-0.5 -1.6,-1.5 -2.2,-2.6 -0.7,-1.3 -1.6,-2.7 -3.1,-3.6 -1.2,-0.7 -2.6,-0.8 -3.9,-0.8 -1.3,-0.1 -2.5,-0.1 -3.2,-0.8 -0.3,-0.3 -0.6,-0.7 -1,-1.1 -0.2,-0.2 -0.4,-0.5 -0.6,-0.7 0,0 0,0 0,0 1.6,0.3 3.1,0.9 4.5,1.3 z m -52.4,-15.6 c 0.1,0 0.1,0 0.2,0 0.7,-0.1 1.6,0.1 2.4,0.4 l 0.2,0.1 c 0.1,0 0.2,0 0.4,0.1 -1.1,-0.2 -2.2,-0.4 -3.2,-0.6 z"
       id="path7568" />
    <path
       inkscape:connector-curvature="0"
       class="st1"
       d="m -718.88791,138.00625 c 1,0.6 2.1,1.2 3.1,1.7 0.1,0.3 0.4,0.4 0.7,0.5 l 0.6,0.1 c 5.5,2.8 11.4,5 17.4,6.6 l 0.4,0.1 c 2.6,0.7 5.4,1.4 7,3.3 1,1.2 2.1,2.5 3.5,2.6 0.6,0 1.2,-0.2 1.7,-0.6 0.4,-0.4 0.6,-0.9 0.8,-1.2 l 0.1,-0.2 c 0.4,-0.9 1.4,-1.5 2.5,-1.6 1.2,-0.1 2.2,0.3 2.8,1.1 0.3,0.4 0.6,1 0.9,1.6 0.7,1.5 1.6,3.3 3.7,3.3 2.3,0.1 3.2,-1.9 3.9,-3.5 0.3,-0.7 0.7,-1.4 1.1,-1.9 1.6,-1.9 5,-0.9 6.9,0.6 0.9,0.7 1.7,1.5 2.4,2.3 1.4,1.5 2.9,3 4.9,3.9 l 3,1.4 -1.6,-2.9 c 0,0 -0.1,-0.1 0.1,-0.3 0.2,-0.3 0.8,-0.6 1.1,-0.5 0.8,0.1 1.6,0.7 2.4,1.3 0.2,0.2 0.5,0.4 0.7,0.5 1.9,1.3 4.1,2.1 6.2,2.1 1.4,0 2.7,-0.3 3.8,-0.9 0.8,-0.4 1.6,-1 2.3,-1.6 1.1,-0.9 2.2,-1.7 3.3,-1.8 0.7,0 1.5,0.3 2.3,0.5 0.4,0.1 0.8,0.3 1.2,0.4 1.6,0.4 3.8,0.4 4.9,-1.3 0.3,-0.4 0.4,-0.8 0.5,-1.2 0.1,-0.2 0.1,-0.4 0.2,-0.6 0.2,-0.3 0.5,-0.5 0.9,-0.6 0.4,-0.1 0.8,0 1.1,0.1 l 1.2,0.8 0.5,-1.3 c 1.2,-3.1 2.2,-6.3 3.1,-9.4 l 0.6,-2 -2,0.6 c -8.6,2.7 -17.8,3.3 -26.7,3.9 l -14.6,1 c -4.5,0.3 -9.1,0.6 -13.7,0.4 -4.1,-0.2 -8.3,-0.8 -12.2,-1.4 -9.3,-1.5 -18.6,-3.4 -27.7,-5.7 -1.4,-0.7 -2.7,-1.4 -4,-2.2 -0.3,-0.1 -0.6,-0.2 -0.8,-0.1 -0.3,0.1 -0.5,0.3 -0.7,0.5 -0.1,0.3 -0.2,0.6 -0.1,0.8 -0.1,0.4 0.1,0.6 0.3,0.8 z m 45.1,15 c -0.6,0 -1,-0.6 -1.8,-2.1 -0.3,-0.6 -0.6,-1.3 -1.1,-1.9 -0.9,-1.2 -2.5,-2 -4.2,-2 -0.2,0 -0.4,0 -0.6,0 -1.9,0.2 -3.6,1.3 -4.3,2.9 0,0.1 -0.1,0.2 -0.1,0.3 -0.1,0.2 -0.2,0.4 -0.3,0.5 -0.2,0 -0.8,-0.3 -2,-1.8 -2,-2.5 -5.3,-3.3 -8.1,-4.1 l -0.4,-0.1 c -1.8,-0.5 -3.5,-1 -5.3,-1.5 5.1,1.1 10.3,2 15.4,2.9 3.9,0.6 8.2,1.2 12.4,1.4 1.3,0.1 2.7,0.1 4.2,0 -0.3,0.2 -0.6,0.5 -0.8,0.8 -0.6,0.7 -1,1.6 -1.4,2.4 -0.5,1.7 -0.9,2.4 -1.6,2.3 z m 44.6,-0.3 c -0.4,-0.1 -0.7,-0.2 -1.1,-0.4 -1,-0.4 -2,-0.7 -3.1,-0.7 -1.9,0.1 -3.3,1.2 -4.6,2.2 -0.7,0.5 -1.3,1 -2,1.4 -2.5,1.3 -5.7,0.4 -7.7,-1 -0.2,-0.1 -0.4,-0.3 -0.6,-0.5 -1,-0.8 -2,-1.6 -3.4,-1.7 -0.1,0 -0.2,0 -0.4,0 -1.1,0 -2.2,0.6 -2.9,1.5 -0.1,0.1 -0.1,0.2 -0.1,0.2 -1,-0.7 -1.9,-1.6 -2.8,-2.6 -0.8,-0.8 -1.7,-1.7 -2.6,-2.5 -0.7,-0.5 -1.4,-1 -2.2,-1.3 0.9,-0.1 1.9,-0.1 2.8,-0.2 l 14.6,-1 c 8.3,-0.6 17,-1.2 25.2,-3.5 -0.6,2.1 -1.3,4.2 -2.1,6.3 -0.5,-0.1 -1,-0.1 -1.6,0.1 -1,0.3 -1.8,0.9 -2.3,1.8 -0.2,0.3 -0.3,0.6 -0.4,0.9 -0.1,0.3 -0.2,0.5 -0.3,0.6 -0.3,0.6 -1.5,0.6 -2.4,0.4 z"
       id="path7570" />
    <path
       inkscape:connector-curvature="0"
       class="st1"
       d="m -718.88791,388.00625 c 1,0.6 2.1,1.2 3.1,1.7 0.1,0.3 0.4,0.4 0.7,0.5 l 0.6,0.1 c 5.5,2.8 11.4,5 17.4,6.6 l 0.4,0.1 c 2.6,0.7 5.4,1.4 7,3.3 1,1.2 2.1,2.5 3.5,2.6 0.6,0 1.2,-0.2 1.7,-0.6 0.4,-0.4 0.6,-0.9 0.8,-1.2 l 0.1,-0.2 c 0.4,-0.9 1.4,-1.5 2.5,-1.6 1.2,-0.1 2.2,0.3 2.8,1.1 0.3,0.4 0.6,1 0.9,1.6 0.7,1.5 1.6,3.3 3.7,3.3 2.3,0.1 3.2,-1.9 3.9,-3.5 0.3,-0.7 0.7,-1.4 1.1,-1.9 1.6,-1.9 5,-0.9 6.9,0.6 0.9,0.7 1.7,1.5 2.4,2.3 1.4,1.5 2.9,3 4.9,3.9 l 3,1.4 -1.6,-2.9 c 0,0 -0.1,-0.1 0.1,-0.3 0.2,-0.3 0.8,-0.6 1.1,-0.5 0.8,0.1 1.6,0.7 2.4,1.3 0.2,0.2 0.5,0.4 0.7,0.5 1.9,1.3 4.1,2.1 6.2,2.1 1.4,0 2.7,-0.3 3.8,-0.9 0.8,-0.4 1.6,-1 2.3,-1.6 1.1,-0.9 2.2,-1.7 3.3,-1.8 0.7,0 1.5,0.3 2.3,0.5 0.4,0.1 0.8,0.3 1.2,0.4 1.6,0.4 3.8,0.4 4.9,-1.3 0.3,-0.4 0.4,-0.8 0.5,-1.2 0.1,-0.2 0.1,-0.4 0.2,-0.6 0.2,-0.3 0.5,-0.5 0.9,-0.6 0.4,-0.1 0.8,0 1.1,0.1 l 1.2,0.8 0.5,-1.3 c 1.2,-3.1 2.2,-6.3 3.1,-9.4 l 0.6,-2 -2,0.6 c -8.6,2.7 -17.8,3.3 -26.7,3.9 l -14.6,1 c -4.5,0.3 -9.1,0.6 -13.7,0.4 -4.1,-0.2 -8.3,-0.8 -12.2,-1.4 -9.3,-1.5 -18.6,-3.4 -27.7,-5.7 -1.4,-0.7 -2.7,-1.4 -4,-2.2 -0.3,-0.1 -0.6,-0.2 -0.8,-0.1 -0.3,0.1 -0.5,0.3 -0.7,0.5 -0.1,0.3 -0.2,0.6 -0.1,0.8 -0.1,0.4 0.1,0.6 0.3,0.8 z m 45.1,15 c -0.6,0 -1,-0.6 -1.8,-2.1 -0.3,-0.6 -0.6,-1.3 -1.1,-1.9 -0.9,-1.2 -2.5,-2 -4.2,-2 -0.2,0 -0.4,0 -0.6,0 -1.9,0.2 -3.6,1.3 -4.3,2.9 0,0.1 -0.1,0.2 -0.1,0.3 -0.1,0.2 -0.2,0.4 -0.3,0.5 -0.2,0 -0.8,-0.3 -2,-1.8 -2,-2.5 -5.3,-3.3 -8.1,-4.1 l -0.4,-0.1 c -1.8,-0.5 -3.5,-1 -5.3,-1.5 5.1,1.1 10.3,2 15.4,2.9 3.9,0.6 8.2,1.2 12.4,1.4 1.3,0.1 2.7,0.1 4.2,0 -0.3,0.2 -0.6,0.5 -0.8,0.8 -0.6,0.7 -1,1.6 -1.4,2.4 -0.5,1.7 -0.9,2.4 -1.6,2.3 z m 44.6,-0.3 c -0.4,-0.1 -0.7,-0.2 -1.1,-0.4 -1,-0.4 -2,-0.7 -3.1,-0.7 -1.9,0.1 -3.3,1.2 -4.6,2.2 -0.7,0.5 -1.3,1 -2,1.4 -2.5,1.3 -5.7,0.4 -7.7,-1 -0.2,-0.1 -0.4,-0.3 -0.6,-0.5 -1,-0.8 -2,-1.6 -3.4,-1.7 -0.1,0 -0.2,0 -0.4,0 -1.1,0 -2.2,0.6 -2.9,1.5 -0.1,0.1 -0.1,0.2 -0.1,0.2 -1,-0.7 -1.9,-1.6 -2.8,-2.6 -0.8,-0.8 -1.7,-1.7 -2.6,-2.5 -0.7,-0.5 -1.4,-1 -2.2,-1.3 0.9,-0.1 1.9,-0.1 2.8,-0.2 l 14.6,-1 c 8.3,-0.6 17,-1.2 25.2,-3.5 -0.6,2.1 -1.3,4.2 -2.1,6.3 -0.5,-0.1 -1,-0.1 -1.6,0.1 -1,0.3 -1.8,0.9 -2.3,1.8 -0.2,0.3 -0.3,0.6 -0.4,0.9 -0.1,0.3 -0.2,0.5 -0.3,0.6 -0.3,0.6 -1.5,0.6 -2.4,0.4 z"
       id="path7572" />
    <path
       inkscape:connector-curvature="0"
       class="st1"
       d="m -494.28791,326.50625 c -1.2,0 -2.4,0 -3.5,0 -0.3,-0.1 -0.6,-0.2 -0.9,-0.1 l -0.6,0.2 c -6.2,0.3 -12.4,1.3 -18.4,3 l -0.4,0.1 c -2.6,0.7 -5.4,1.5 -7.7,0.6 -1.4,-0.6 -3.1,-1.1 -4.3,-0.5 -0.6,0.3 -1,0.7 -1.2,1.4 -0.2,0.5 -0.1,1.1 -0.1,1.4 l 0,0.2 c 0.1,1 -0.4,2 -1.4,2.6 -1,0.6 -2.1,0.9 -2.9,0.5 -0.5,-0.2 -1,-0.6 -1.5,-0.9 -1.3,-0.9 -3,-2 -4.8,-1.1 -2,1.1 -1.8,3.3 -1.6,5 0.1,0.8 0.1,1.6 0,2.2 -0.4,2.5 -3.9,3.3 -6.2,2.9 -1.1,-0.2 -2.2,-0.5 -3.3,-0.8 -2,-0.5 -4,-1.1 -6.2,-0.9 l -3.3,0.3 2.8,1.8 c 0,0 0.1,0.1 0.1,0.3 0,0.4 -0.4,0.9 -0.7,1 -0.8,0.3 -1.7,0.2 -2.7,0.1 -0.3,0 -0.6,-0.1 -0.9,-0.1 -3.9,-0.4 -7.5,1.2 -9.3,4 -0.5,0.8 -0.9,1.7 -1.2,2.5 -0.5,1.3 -1,2.6 -2,3.2 -0.6,0.4 -1.4,0.5 -2.3,0.7 -0.4,0.1 -0.9,0.2 -1.3,0.3 -1.6,0.4 -3.5,1.6 -3.6,3.6 0,0.5 0.1,0.9 0.1,1.3 0,0.2 0.1,0.4 0.1,0.6 0,0.3 -0.1,0.7 -0.4,1 -0.3,0.3 -0.6,0.4 -1,0.4 l -1.4,-0.1 0.2,1.4 c 0.5,3.3 1.2,6.5 2,9.7 l 0.5,2 1.4,-1.5 c 6.1,-6.6 13.8,-11.8 21.2,-16.7 l 12.2,-8.2 c 3.7,-2.5 7.6,-5.1 11.6,-7.2 3.7,-1.9 7.6,-3.5 11.2,-4.9 8.8,-3.3 17.8,-6.3 26.8,-8.9 1.5,-0.1 3.1,-0.1 4.6,-0.1 0.6,0 1.1,-0.5 1.1,-1.1 0.3,-0.7 -0.2,-1.2 -0.8,-1.2 z m -47.1,15 c 0.1,-0.9 0.1,-1.8 0,-2.8 -0.2,-1.7 -0.2,-2.5 0.5,-2.9 0.1,-0.1 0.3,-0.1 0.4,-0.1 0.5,0 1.3,0.5 2.2,1.1 0.6,0.4 1.2,0.8 1.9,1.1 1.6,0.7 3.6,0.4 5.1,-0.7 1.6,-1.1 2.4,-2.9 2.3,-4.6 0,-0.1 0,-0.2 0,-0.3 0,-0.2 -0.1,-0.4 0,-0.5 0.2,-0.1 0.8,-0.1 2.6,0.6 3,1.1 6.2,0.3 9.1,-0.5 l 0.4,-0.1 c 1.8,-0.5 3.5,-0.9 5.3,-1.3 -5,1.6 -9.9,3.4 -14.8,5.2 -3.7,1.4 -7.7,3 -11.5,5 -1.2,0.6 -2.4,1.3 -3.6,2 0,-0.5 0.1,-0.8 0.1,-1.2 z m -39.9,19.2 c -0.1,-0.3 -0.1,-0.5 -0.1,-0.7 0,-0.7 1,-1.3 1.9,-1.5 0.4,-0.1 0.7,-0.2 1.1,-0.2 1,-0.2 2.1,-0.4 3.1,-1 1.6,-1 2.3,-2.6 2.9,-4.2 0.3,-0.8 0.6,-1.5 1,-2.2 1.5,-2.4 4.7,-3.2 7.2,-3 0.3,0 0.5,0.1 0.8,0.1 1.3,0.2 2.6,0.3 3.9,-0.2 1.1,-0.5 2,-1.7 2.1,-2.9 0,-0.1 0,-0.2 0,-0.3 1.2,0.1 2.5,0.5 3.8,0.8 1.1,0.3 2.3,0.6 3.5,0.8 0.9,0.1 1.7,0.1 2.6,0 -0.8,0.5 -1.6,1.1 -2.4,1.6 l -12.2,8.2 c -6.9,4.7 -14.1,9.5 -20.2,15.6 -0.5,-2.2 -0.9,-4.3 -1.3,-6.5 0.5,-0.2 0.9,-0.5 1.3,-0.8 0.7,-0.7 1.1,-1.7 1.1,-2.7 0.1,-0.3 0,-0.6 -0.1,-0.9 z"
       id="path7574" />
    <path
       inkscape:connector-curvature="0"
       class="st1"
       d="m -825.78792,270.60625 c 0.5,0.5 0.8,1.3 1.1,2.1 0.1,0.2 0.1,0.4 0.2,0.6 1.6,4.2 5.2,7.7 9.50001,9.1 l 1.1,0.4 0.3,-1.1 c 0.1,-0.4 0.2,-0.8 0.2,-1.2 l 2.7,2.2 0.4,-1.9 c 1.2,1 2.1,2.5 3.1,4 1.3,2 2.6,4 4.7,5.4 1.6,1 3.6,1.5 5.9,1.5 1.2,0 2.6,-0.2 3.9,-0.5 1.3,-0.3 2.7,-0.7 4,-1.1 1.6,-0.5 3.3,-1 5,-1.3 2,-0.3 4.1,-0.3 6.1,-0.3 2.5,0 5,0 7.5,-0.5 3.1,-0.7 6.1,-2.7 7.6,-5.1 1.1,-1.8 1.5,-3.7 1.1,-5.6 -0.6,-2.6 -2.8,-4.9 -5.8,-6.1 -2.6,-1 -5.4,-1.1 -7.9,-1.2 l -21.7,-0.9 c 0.1,-0.8 -0.2,-1.7 -0.9,-2.3 -1.3,-1 -2.9,-0.8 -4,-0.7 -4.4,0.6 -8.6,0.8 -12.6,0.6 -2.30001,-0.1 -4.80001,-0.3 -8.10001,-0.7 -6,-0.7 -12.9,-1.7 -19.3,-4.3 -3.99999,-1.6 -7.89999,-3.9 -11.59999,-6.1 -0.5,-0.3 -1.2,-0.1 -1.5,0.4 -0.2,0.3 -0.2,0.6 -0.1,0.8 0.1,0.3 0.3,0.5 0.5,0.7 0.6,0.3 1.1,0.7 1.7,1 -0.2,0.1 -0.3,0.2 -0.4,0.4 -0.3,0.5 -0.1,1.2 0.4,1.5 7.5,4.2 15.59999,7.2 23.99999,9 1.2,0.3 2.3,0.6 2.9,1.2 z m 50.70001,1.6 c 2.4,0.1 4.9,0.2 7.2,1.1 1.8,0.7 3.9,2.2 4.4,4.5 0.3,1.3 0,2.6 -0.8,3.9 -1.2,2 -3.7,3.6 -6.2,4.2 -2.3,0.5 -4.6,0.5 -7.1,0.5 -2.1,0 -4.3,0 -6.5,0.3 -1.8,0.3 -3.6,0.8 -5.3,1.3 -1.2,0.4 -2.5,0.8 -3.8,1 -2.3,0.5 -5.7,0.8 -8.2,-0.8 -1.7,-1.1 -2.8,-2.8 -4.1,-4.7 -1.4,-2.1 -2.8,-4.3 -5.2,-5.6 l -1.3,-0.7 -0.3,1.4 -8.5,-6.8 4.4,6.3 c 0.29999,0.5 0.6,1.1 0.6,1.7 -3.1,-1.4 -5.6,-4.1 -6.80001,-7.2 -0.1,-0.2 -0.1,-0.4 -0.19999,-0.6 -0.4,-1 -0.7,-2.1 -1.6,-3 -0.60001,-0.6 -1.4,-1 -2.20001,-1.3 1.30001,0.2 2.60001,0.3 3.90001,0.5 3.3,0.4 5.9,0.6 8.3,0.7 4.2,0.1 8.5,-0.1 13,-0.7 1,-0.1 1.9,-0.2 2.3,0.2 0.1,0.1 0.1,0.3 0.1,0.5 l -0.2,0 -0.1,2.2 24.2,1.1 z"
       id="path7576" />
    <path
       inkscape:connector-curvature="0"
       class="st1"
       d="m -767.88791,202.60625 c 1.1,1.3 1.8,2.9 2.6,4.6 0.2,0.4 0.3,0.7 0.5,1.1 1,2.1 2.3,4.4 4.5,5.8 2.2,1.4 5.8,1.4 7.6,-0.9 0.1,-0.1 0.2,-0.2 0.3,-0.4 0.1,-0.2 0.3,-0.5 0.5,-0.6 0.1,0.1 0.3,0.5 0.4,0.7 0.1,0.1 0.1,0.2 0.2,0.3 0.9,1.5 2.4,2.3 4,3.1 6.1,2.9 12.7,5.5 19.3,4.2 0.9,-0.2 1.8,-0.5 2.6,-0.8 3.5,-1.6 5.4,-4.5 4.9,-7.4 -0.4,-2.2 -1.9,-3.7 -3.5,-5.2 -3.2,-2.9 -6.5,-5.8 -9.8,-8.5 -1.4,-1.1 -2.6,-2.1 -4.2,-2.6 -2.1,-0.7 -4.2,-0.3 -6.3,0 -1,0.2 -2,0.3 -2.9,0.4 -1.6,0.1 -3.2,-0.2 -4.9,-0.5 -2,-0.4 -4,-0.7 -6.1,-0.5 -1.2,0.1 -2.5,0.4 -3.6,0.7 -1.9,0.5 -3.6,0.9 -5.2,0.6 0.7,-1.1 1.6,-2.2 2.5,-3.1 l 1.5,-1.5 -2.1,-0.3 c -0.9,-0.1 -1.8,-0.3 -2.2,-0.7 -0.2,-0.2 -0.3,-0.5 -0.3,-0.7 0,-0.1 0,-0.1 0.1,-0.2 l 7.9,-4.7 -8.8,2.7 c -2.6,0.8 -6.2,1.9 -8.3,4.8 -0.1,0.2 -0.2,0.3 -0.3,0.5 -0.3,0.4 -0.6,0.8 -0.9,1 -0.6,0.4 -1.6,0.1 -2.5,-0.1 -1.4,-0.4 -2.8,-1 -4.2,-1.5 -0.5,-0.2 -0.7,-0.4 -0.8,-0.4 0,-0.1 0.1,-0.2 0.2,-0.3 0.1,-0.2 0.2,-0.4 0.3,-0.7 0.2,-0.7 0.1,-1.5 -0.4,-2.2 -0.5,-0.8 -1.5,-1.4 -2.4,-1.5 -1.5,-0.2 -2.8,0.4 -3.8,1 -0.3,0.1 -0.5,0.4 -0.6,0.6 -0.1,0.3 -0.1,0.6 0.1,0.8 0.1,0.3 0.4,0.5 0.6,0.6 0.3,0.1 0.6,0.1 0.8,-0.1 1,-0.5 1.8,-0.8 2.6,-0.7 0.3,0 0.7,0.3 0.8,0.5 0.1,0.1 0.1,0.2 0.1,0.3 0,0.1 -0.1,0.2 -0.2,0.3 -0.2,0.3 -0.4,0.8 -0.4,1.3 0,0.4 0.1,0.8 0.3,1.1 -0.4,-0.1 -0.9,-0.2 -1.5,0 l -1.4,0.4 0.8,1.1 c -0.1,0.2 -0.4,0.3 -0.6,0.2 -0.6,-0.2 -1,-0.7 -1.5,-1.4 -0.1,-0.2 -0.3,-0.4 -0.4,-0.5 -1.5,-1.7 -3.6,-2.9 -5.7,-3.7 1.1,0.3 2.1,0.7 2.9,0.9 0.3,0.1 0.6,0.1 0.8,0 0.3,-0.1 0.5,-0.4 0.6,-0.6 0.1,-0.3 0.1,-0.6 0,-0.8 -0.1,-0.2 -0.4,-0.5 -0.6,-0.6 -8,-2.8 -35.90001,-9.4 -36.10001,-9.4 l -0.2,0 c -1,-0.3 -2.1,-0.6 -3.3,-0.5 -1.4,0.2 -3,1.3 -3.1,2.9 l -0.1,1 1,0.2 c 11.6,1.8 23.20001,4.5 34.40001,8 3,1 5.9,2 7.8,4.2 0.1,0.2 0.3,0.3 0.4,0.5 0.7,0.8 1.4,1.7 2.6,2.1 1,0.3 2.3,-0.2 3,-1.1 0.1,-0.1 0.1,-0.2 0.2,-0.3 0.2,0.2 0.4,0.5 0.7,0.9 0.4,0.5 0.8,1 1.3,1.4 1.3,1.2 3,1.3 4.6,1.4 1.1,0.1 2.2,0.1 3,0.6 0.9,0.5 1.6,1.7 2.2,2.7 0.8,1.4 1.7,2.8 3.2,3.5 1,0.5 2.3,0.5 3.3,0.1 0.8,-0.4 1.5,-1 1.7,-1.9 l 0.2,-0.7 -0.6,-0.5 c -0.6,-0.5 -1,-1.1 -1,-1.2 0.2,-0.4 0.6,-0.2 0.9,0.2 z m -13.3,-6.5 c 1.4,0.4 3,0.8 4.3,-0.1 0.7,-0.4 1.2,-1.1 1.6,-1.7 0.1,-0.1 0.2,-0.3 0.3,-0.4 1.2,-1.7 3.2,-2.6 5.2,-3.3 0.1,0.7 0.4,1.3 0.9,1.7 0.4,0.4 0.9,0.7 1.5,0.9 -0.8,1 -1.6,2.1 -2.2,3.2 l -0.6,1 1,0.6 c 2.5,1.4 5.3,0.7 7.9,0.1 1.1,-0.3 2.2,-0.6 3.3,-0.7 1.8,-0.2 3.6,0.2 5.5,0.5 1.7,0.3 3.5,0.6 5.4,0.6 1.1,0 2.2,-0.2 3.2,-0.4 1.9,-0.3 3.6,-0.6 5.2,-0.1 1.2,0.4 2.3,1.2 3.5,2.2 3.3,2.7 6.6,5.6 9.7,8.4 1.3,1.2 2.5,2.4 2.8,3.9 0.5,2.7 -2.6,5.1 -5.7,5.7 -5.9,1.2 -12.1,-1.2 -17.9,-4 -1.3,-0.6 -2.5,-1.2 -3.1,-2.2 -0.1,-0.1 -0.1,-0.2 -0.2,-0.3 -0.4,-0.7 -1,-1.7 -2.2,-1.8 -0.4,0 -0.7,0.1 -1,0.2 -0.7,0.3 -1.1,0.9 -1.4,1.4 -0.1,0.1 -0.1,0.2 -0.2,0.3 -1.1,1.4 -3.3,1.3 -4.7,0.4 -1.8,-1.1 -2.8,-3 -3.7,-4.8 -0.2,-0.4 -0.3,-0.7 -0.5,-1.1 -0.8,-1.7 -1.6,-3.5 -2.9,-5 -0.6,-0.7 -1.5,-1.4 -2.6,-1.4 -0.6,0 -1.2,0.2 -1.6,0.6 -0.5,0.4 -0.7,1 -0.7,1.7 0,0.9 0.6,1.7 1,2.2 0,0 0,0 -0.1,0 -0.4,0.2 -1,0.2 -1.5,0 -0.9,-0.5 -1.6,-1.5 -2.2,-2.6 -0.7,-1.3 -1.6,-2.7 -3.1,-3.6 -1.2,-0.7 -2.6,-0.8 -3.9,-0.8 -1.3,-0.1 -2.5,-0.1 -3.2,-0.8 -0.3,-0.3 -0.6,-0.7 -1,-1.1 -0.2,-0.2 -0.4,-0.5 -0.6,-0.7 0,0 0,0 0,0 1.6,0.3 3.1,0.9 4.5,1.3 z m -52.40001,-15.6 c 0.1,0 0.1,0 0.2,0 0.7,-0.1 1.6,0.1 2.4,0.4 l 0.2,0.1 c 0.1,0 0.2,0 0.4,0.1 -1.1,-0.2 -2.2,-0.4 -3.2,-0.6 z"
       id="path7578" />
    <path
       inkscape:connector-curvature="0"
       class="st1"
       d="m -744.28791,326.50625 c -1.2,0 -2.4,0 -3.5,0 -0.3,-0.1 -0.6,-0.2 -0.9,-0.1 l -0.6,0.2 c -6.2,0.3 -12.4,1.3 -18.4,3 l -0.4,0.1 c -2.6,0.7 -5.4,1.5 -7.7,0.6 -1.4,-0.6 -3.1,-1.1 -4.3,-0.5 -0.6,0.3 -1,0.7 -1.2,1.4 -0.2,0.5 -0.1,1.1 -0.1,1.4 l 0,0.2 c 0.1,1 -0.4,2 -1.4,2.6 -1,0.6 -2.1,0.9 -2.9,0.5 -0.5,-0.2 -1,-0.6 -1.5,-0.9 -1.3,-0.9 -3,-2 -4.8,-1.1 -2,1.1 -1.8,3.3 -1.6,5 0.1,0.8 0.1,1.6 0,2.2 -0.4,2.5 -3.9,3.3 -6.2,2.9 -1.1,-0.2 -2.2,-0.5 -3.3,-0.8 -2,-0.5 -4,-1.1 -6.2,-0.9 l -3.3,0.3 2.8,1.8 c 0,0 0.1,0.1 0.1,0.3 0,0.4 -0.4,0.9 -0.7,1 -0.8,0.3 -1.7,0.2 -2.7,0.1 -0.3,0 -0.6,-0.1 -0.9,-0.1 -3.90001,-0.4 -7.50001,1.2 -9.30001,4 -0.5,0.8 -0.9,1.7 -1.2,2.5 -0.5,1.3 -1,2.6 -2,3.2 -0.6,0.4 -1.4,0.5 -2.3,0.7 -0.4,0.1 -0.9,0.2 -1.3,0.3 -1.6,0.4 -3.5,1.6 -3.6,3.6 0,0.5 0.1,0.9 0.1,1.3 0,0.2 0.1,0.4 0.1,0.6 0,0.3 -0.1,0.7 -0.4,1 -0.3,0.3 -0.6,0.4 -1,0.4 l -1.4,-0.1 0.2,1.4 c 0.5,3.3 1.2,6.5 2,9.7 l 0.5,2 1.4,-1.5 c 6.1,-6.6 13.8,-11.8 21.20001,-16.7 l 12.2,-8.2 c 3.7,-2.5 7.6,-5.1 11.6,-7.2 3.7,-1.9 7.6,-3.5 11.2,-4.9 8.8,-3.3 17.8,-6.3 26.8,-8.9 1.5,-0.1 3.1,-0.1 4.6,-0.1 0.6,0 1.1,-0.5 1.1,-1.1 0.3,-0.7 -0.2,-1.2 -0.8,-1.2 z m -47.1,15 c 0.1,-0.9 0.1,-1.8 0,-2.8 -0.2,-1.7 -0.2,-2.5 0.5,-2.9 0.1,-0.1 0.3,-0.1 0.4,-0.1 0.5,0 1.3,0.5 2.2,1.1 0.6,0.4 1.2,0.8 1.9,1.1 1.6,0.7 3.6,0.4 5.1,-0.7 1.6,-1.1 2.4,-2.9 2.3,-4.6 0,-0.1 0,-0.2 0,-0.3 0,-0.2 -0.1,-0.4 0,-0.5 0.2,-0.1 0.8,-0.1 2.6,0.6 3,1.1 6.2,0.3 9.1,-0.5 l 0.4,-0.1 c 1.8,-0.5 3.5,-0.9 5.3,-1.3 -5,1.6 -9.9,3.4 -14.8,5.2 -3.7,1.4 -7.7,3 -11.5,5 -1.2,0.6 -2.4,1.3 -3.6,2 0,-0.5 0.1,-0.8 0.1,-1.2 z m -39.90001,19.2 c -0.1,-0.3 -0.1,-0.5 -0.1,-0.7 0,-0.7 1,-1.3 1.9,-1.5 0.4,-0.1 0.7,-0.2 1.1,-0.2 1,-0.2 2.1,-0.4 3.1,-1 1.6,-1 2.3,-2.6 2.9,-4.2 0.3,-0.8 0.6,-1.5 1,-2.2 1.5,-2.4 4.7,-3.2 7.20001,-3 0.3,0 0.5,0.1 0.8,0.1 1.3,0.2 2.6,0.3 3.9,-0.2 1.1,-0.5 2,-1.7 2.1,-2.9 0,-0.1 0,-0.2 0,-0.3 1.2,0.1 2.5,0.5 3.8,0.8 1.1,0.3 2.3,0.6 3.5,0.8 0.9,0.1 1.7,0.1 2.6,0 -0.8,0.5 -1.6,1.1 -2.4,1.6 l -12.2,8.2 c -6.90001,4.7 -14.10001,9.5 -20.20001,15.6 -0.5,-2.2 -0.9,-4.3 -1.3,-6.5 0.5,-0.2 0.9,-0.5 1.3,-0.8 0.7,-0.7 1.1,-1.7 1.1,-2.7 0.1,-0.3 0,-0.6 -0.1,-0.9 z"
       id="path7580" />
    <path
       inkscape:connector-curvature="0"
       class="st1"
       d="m -636.68791,179.90625 c -0.1,0 -0.1,0 -0.2,0.1 -0.3,0.1 -0.4,0.4 -0.5,0.7 -0.1,0.3 0,0.6 0.1,0.8 3.1,5.4 6.2,11 10.7,15.7 0.2,0.2 0.4,0.4 0.6,0.6 1,1.1 2,2.1 2.6,3.2 0.1,0.1 0.1,0.3 0.2,0.5 0.4,0.8 0.8,1.8 1.8,2.4 0.5,0.3 1,0.4 1.4,0.5 0.2,0 0.4,0.1 0.5,0.1 1.3,0.4 2,1.9 2.3,2.7 0.2,0.6 0.4,1.2 0.5,1.9 0.2,0.8 0.4,1.7 0.7,2.5 0.5,1.3 1.3,2.4 2,3.4 0.8,1.2 1.6,2.4 2,3.6 0,0.1 0.1,0.2 0.1,0.4 0.2,0.6 0.3,1.4 0.9,2 0.4,0.5 0.9,0.7 1.4,1 l 0.3,0.1 c 1.6,0.8 2.7,2.2 3.8,3.7 0.6,0.8 1.3,1.6 2,2.4 1.7,1.7 4,3.2 7,4.5 1.3,0.6 3.1,1.2 4.9,1.2 0.7,0 1.4,-0.1 2,-0.3 2,-0.6 3.6,-2.3 4.1,-4.3 0.4,-2 -0.3,-4.1 -2,-5.4 -0.8,-0.6 -1.7,-1 -2.6,-1.4 -0.7,-0.3 -1.4,-0.6 -1.9,-1 -0.4,-0.3 -0.8,-0.7 -1.2,-1.1 -0.8,-0.8 -1.6,-1.7 -2.9,-2 -0.6,-0.2 -1.1,-0.2 -1.6,-0.2 -0.5,0 -1,-0.1 -1.4,-0.2 -0.6,-0.3 -0.8,-1 -1.2,-1.9 -0.4,-1 -0.8,-2.2 -2,-3 -0.6,-0.4 -1.3,-0.6 -1.9,-0.7 -0.2,-0.1 -0.4,-0.1 -0.7,-0.2 -1.5,-0.5 -2.7,-1.7 -3.7,-2.8 l -4.6,-4.8 c -0.1,-0.1 -0.2,-0.2 -0.2,-0.2 0.1,-0.1 0.2,-0.3 0.3,-0.4 0.4,-0.5 1,-1.2 0.8,-2.2 l -0.2,-0.9 -0.9,0 c -2.1,0 -4.3,-0.7 -5.9,-1.9 -1.4,-1 -2.4,-2.5 -3.4,-3.8 l -14.4,-19.7 c -0.4,-0.5 -1.1,-0.6 -1.5,-0.2 -0.5,0.4 -0.6,1.1 -0.2,1.5 l 2.1,3.1 z m 5.1,7.1 5.8,7.9 c -2.2,-2.5 -4.1,-5.2 -5.8,-7.9 z m 16.3,18.1 c 0.1,0.7 0.6,1.3 0.8,1.6 l 4.6,4.8 c 1.2,1.2 2.6,2.7 4.7,3.3 0.3,0.1 0.5,0.1 0.8,0.2 0.5,0.1 0.9,0.2 1.2,0.4 0.5,0.3 0.8,1.1 1.1,1.9 0.4,1.1 0.9,2.4 2.3,3.1 0.8,0.4 1.5,0.4 2.2,0.4 0.4,0 0.8,0 1.2,0.1 0.7,0.2 1.3,0.8 1.9,1.4 0.4,0.4 0.9,0.9 1.4,1.3 0.8,0.5 1.6,0.9 2.4,1.2 0.8,0.3 1.5,0.6 2.1,1.1 1,0.8 1.4,2 1.2,3.2 -0.3,1.2 -1.3,2.2 -2.5,2.6 -1.8,0.6 -3.9,-0.2 -5.4,-0.8 -2.8,-1.2 -4.8,-2.5 -6.3,-4 -0.7,-0.7 -1.3,-1.5 -1.9,-2.2 -1.3,-1.6 -2.6,-3.3 -4.5,-4.3 l -0.3,-0.2 c -0.3,-0.2 -0.6,-0.3 -0.8,-0.5 -0.2,-0.2 -0.3,-0.6 -0.4,-1.1 0,-0.1 -0.1,-0.3 -0.1,-0.4 -0.5,-1.6 -1.4,-3 -2.3,-4.3 -0.7,-1 -1.4,-2 -1.8,-3 -0.3,-0.7 -0.5,-1.4 -0.6,-2.2 -0.2,-0.7 -0.3,-1.4 -0.6,-2.1 -0.7,-2 -2,-3.5 -3.7,-4 -0.2,-0.1 -0.5,-0.1 -0.7,-0.2 -0.3,-0.1 -0.6,-0.1 -0.8,-0.3 -0.4,-0.2 -0.6,-0.8 -0.9,-1.4 0,0 0,0 0,-0.1 0.3,0.3 0.6,0.5 0.9,0.8 1.6,1.2 3.4,2 5.5,2.2 -0.5,0.4 -0.7,0.9 -0.7,1.5 z"
       id="path7582" />
    <path
       inkscape:connector-curvature="0"
       class="st1"
       d="m -681.18791,470.30625 c 1.7,-0.5 2.8,-1.7 4,-3.1 4.4,-5.2 8.6,-10.9 9,-17.6 0.3,-4.3 -1.9,-9 -6,-9.4 -2.2,-0.2 -4.1,0.9 -5.9,2 -3.7,2.3 -7.3,4.8 -10.8,7.3 -1.4,1 -2.7,2 -3.6,3.4 -1.2,1.9 -1.4,4 -1.6,6 -0.1,1 -0.2,2 -0.4,2.9 -0.4,1.6 -1.1,3 -1.8,4.6 -0.9,1.8 -1.7,3.7 -2.1,5.8 -0.2,1.2 -0.2,2.5 -0.2,3.7 0,1.9 0,3.8 -0.8,5.2 -0.9,-1 -1.7,-2.1 -2.4,-3.2 l -1.1,-1.8 -0.8,1.9 c -0.4,0.9 -0.7,1.6 -1.3,2 -0.2,0.1 -0.5,0.1 -0.8,0.1 0,0 -0.1,-0.1 -0.1,-0.1 l -2.5,-8.9 0.3,9.2 c 0.1,2.8 0.2,6.5 2.5,9.3 0.1,0.2 0.3,0.3 0.4,0.5 0.3,0.4 0.7,0.8 0.8,1.1 0.2,0.7 -0.3,1.5 -0.8,2.4 -0.8,1.2 -1.6,2.5 -2.5,3.7 -0.4,0.5 -0.6,0.6 -0.6,0.6 -0.1,0 -0.2,-0.2 -0.3,-0.2 -0.2,-0.2 -0.4,-0.3 -0.6,-0.5 -0.6,-0.4 -1.4,-0.5 -2.2,-0.2 -0.9,0.3 -1.7,1.1 -2.1,1.9 -0.6,1.4 -0.3,2.8 -0.1,3.9 0.1,0.3 0.2,0.5 0.5,0.7 0.2,0.2 0.5,0.2 0.8,0.2 0.3,-0.1 0.5,-0.2 0.7,-0.5 0.2,-0.2 0.2,-0.5 0.2,-0.8 -0.2,-1.1 -0.3,-2 -0.1,-2.7 0.1,-0.3 0.4,-0.6 0.7,-0.7 0.1,0 0.3,-0.1 0.4,0 0.1,0.1 0.2,0.1 0.3,0.2 0.3,0.2 0.6,0.6 1.2,0.7 0.4,0.1 0.8,0.1 1.1,0 -0.2,0.4 -0.4,0.9 -0.4,1.4 l 0.1,1.5 1.3,-0.5 c 0.1,0.2 0.2,0.5 0.1,0.6 -0.3,0.5 -1,0.8 -1.7,1.1 -0.2,0.1 -0.4,0.2 -0.6,0.3 -2.1,1 -3.7,2.7 -5.1,4.5 0.6,-1 1.2,-1.9 1.7,-2.6 0.3,-0.5 0.2,-1.2 -0.3,-1.5 -0.5,-0.3 -1.2,-0.2 -1.5,0.3 -4.8,7 -18.3,32.3 -18.4,32.5 l -0.1,0.2 c -0.5,0.9 -1.2,1.9 -1.3,3.1 -0.2,1.4 0.5,3.2 2,3.7 l 1,0.3 0.4,-0.9 c 4.7,-10.8 10.3,-21.3 16.6,-31.2 1.7,-2.7 3.5,-5.2 6,-6.5 0.2,-0.1 0.4,-0.2 0.6,-0.3 1,-0.4 2,-0.9 2.7,-2 0.6,-0.9 0.4,-2.3 -0.3,-3.2 -0.1,-0.1 -0.2,-0.2 -0.3,-0.3 0.3,-0.1 0.6,-0.3 1.1,-0.5 0.6,-0.2 1.2,-0.5 1.7,-0.8 1.5,-1 2,-2.5 2.5,-4.1 0.4,-1.1 0.7,-2.1 1.3,-2.7 0.8,-0.8 2,-1.1 3.2,-1.4 1.5,-0.4 3.1,-0.9 4.2,-2.2 0.7,-0.9 1.1,-2.1 0.9,-3.2 -0.1,-0.9 -0.6,-1.7 -1.4,-2.1 l -0.6,-0.4 -0.6,0.5 c -0.6,0.5 -1.3,0.7 -1.4,0.7 0.1,-0.2 0.4,-0.6 0.9,-0.8 1.5,-0.7 3.2,-1 5,-1.3 0.4,-0.1 0.8,-0.1 1.3,-0.2 2.3,-0.4 4.8,-1.1 6.7,-2.9 1.9,-1.9 2.9,-5.2 1.1,-7.6 -0.1,-0.1 -0.2,-0.2 -0.3,-0.4 -0.1,-0.2 -0.4,-0.5 -0.4,-0.6 0.2,-0.1 0.5,-0.2 0.7,-0.2 0,0.2 0.1,0.2 0.2,0.1 z m -26.8,28.3 c 0.9,-1.2 1.8,-2.5 2.6,-3.8 0.8,-1.2 1.5,-2.7 1,-4.2 -0.2,-0.8 -0.8,-1.4 -1.2,-2 -0.1,-0.1 -0.2,-0.3 -0.3,-0.4 -1.3,-1.6 -1.7,-3.7 -1.8,-5.8 0.7,0.1 1.4,-0.1 1.9,-0.4 0.5,-0.3 0.9,-0.7 1.3,-1.2 0.8,1.1 1.6,2.1 2.5,3 l 0.8,0.8 0.8,-0.8 c 2,-2.1 2.1,-4.9 2.1,-7.6 0,-1.1 0,-2.3 0.2,-3.4 0.3,-1.8 1.1,-3.4 1.9,-5.2 0.8,-1.6 1.5,-3.2 1.9,-5 0.2,-1.1 0.4,-2.2 0.5,-3.2 0.2,-1.9 0.4,-3.7 1.3,-5.1 0.7,-1.1 1.8,-1.9 3,-2.8 3.5,-2.5 7.1,-4.9 10.7,-7.2 1.5,-1 3,-1.8 4.5,-1.7 2.8,0.3 4.2,3.8 4,7 -0.4,6 -4.3,11.4 -8.5,16.3 -0.9,1.1 -1.8,2.1 -2.9,2.4 -0.1,0 -0.2,0.1 -0.3,0.1 -0.8,0.2 -1.9,0.5 -2.3,1.7 -0.4,1.2 0.4,2.1 0.9,2.7 0.1,0.1 0.1,0.2 0.2,0.3 1,1.4 0.4,3.5 -0.8,4.7 -1.5,1.4 -3.7,2 -5.6,2.3 -0.4,0.1 -0.8,0.1 -1.2,0.2 -1.9,0.3 -3.8,0.6 -5.6,1.5 -0.8,0.4 -1.7,1.1 -2,2.1 -0.2,0.6 -0.1,1.2 0.1,1.7 0.3,0.6 0.8,0.9 1.4,1.1 0.9,0.2 1.8,-0.1 2.4,-0.4 0,0 0,0 0,0.1 0.1,0.5 -0.1,1 -0.4,1.4 -0.7,0.8 -1.9,1.2 -3.1,1.5 -1.4,0.4 -3.1,0.8 -4.2,2 -1,1 -1.4,2.3 -1.8,3.6 -0.4,1.2 -0.8,2.4 -1.6,2.9 -0.4,0.2 -0.9,0.4 -1.3,0.6 -0.6,0 -0.8,0.1 -1.1,0.2 0,0 0,0 0,0 z m -26,42.9 c 0,-0.1 0,-0.1 0,-0.2 0.1,-0.7 0.5,-1.5 1,-2.2 l 0.1,-0.2 c 0,0 0.1,-0.1 0.2,-0.3 -0.4,0.9 -0.8,1.9 -1.3,2.9 z"
       id="path7584" />
    <path
       inkscape:connector-curvature="0"
       class="st1"
       d="m -517.88791,452.60625 c 1.1,1.3 1.8,2.9 2.6,4.6 0.2,0.4 0.3,0.7 0.5,1.1 1,2.1 2.3,4.4 4.5,5.8 2.2,1.4 5.8,1.4 7.6,-0.9 0.1,-0.1 0.2,-0.2 0.3,-0.4 0.1,-0.2 0.3,-0.5 0.5,-0.6 0.1,0.1 0.3,0.5 0.4,0.7 0.1,0.1 0.1,0.2 0.2,0.3 0.9,1.5 2.4,2.3 4,3.1 6.1,2.9 12.7,5.5 19.3,4.2 0.9,-0.2 1.8,-0.5 2.6,-0.8 3.5,-1.6 5.4,-4.5 4.9,-7.4 -0.4,-2.2 -1.9,-3.7 -3.5,-5.2 -3.2,-2.9 -6.5,-5.8 -9.8,-8.5 -1.4,-1.1 -2.6,-2.1 -4.2,-2.6 -2.1,-0.7 -4.2,-0.3 -6.3,0 -1,0.2 -2,0.3 -2.9,0.4 -1.6,0.1 -3.2,-0.2 -4.9,-0.5 -2,-0.4 -4,-0.7 -6.1,-0.5 -1.2,0.1 -2.5,0.4 -3.6,0.7 -1.9,0.5 -3.6,0.9 -5.2,0.6 0.7,-1.1 1.6,-2.2 2.5,-3.1 l 1.5,-1.5 -2.1,-0.3 c -0.9,-0.1 -1.8,-0.3 -2.2,-0.7 -0.2,-0.2 -0.3,-0.5 -0.3,-0.7 0,-0.1 0,-0.1 0.1,-0.2 l 7.9,-4.7 -8.8,2.7 c -2.6,0.8 -6.2,1.9 -8.3,4.8 -0.1,0.2 -0.2,0.3 -0.3,0.5 -0.3,0.4 -0.6,0.8 -0.9,1 -0.6,0.4 -1.6,0.1 -2.5,-0.1 -1.4,-0.4 -2.8,-1 -4.2,-1.5 -0.5,-0.2 -0.7,-0.4 -0.8,-0.4 0,-0.1 0.1,-0.2 0.2,-0.3 0.1,-0.2 0.2,-0.4 0.3,-0.7 0.2,-0.7 0.1,-1.5 -0.4,-2.2 -0.5,-0.8 -1.5,-1.4 -2.4,-1.5 -1.5,-0.2 -2.8,0.4 -3.8,1 -0.3,0.1 -0.5,0.4 -0.6,0.6 -0.1,0.3 -0.1,0.6 0.1,0.8 0.1,0.3 0.4,0.5 0.6,0.6 0.3,0.1 0.6,0.1 0.8,-0.1 1,-0.5 1.8,-0.8 2.6,-0.7 0.3,0 0.7,0.3 0.8,0.5 0.1,0.1 0.1,0.2 0.1,0.3 0,0.1 -0.1,0.2 -0.2,0.3 -0.2,0.3 -0.4,0.8 -0.4,1.3 0,0.4 0.1,0.8 0.3,1.1 -0.4,-0.1 -0.9,-0.2 -1.5,0 l -1.4,0.4 0.8,1.1 c -0.1,0.2 -0.4,0.3 -0.6,0.2 -0.6,-0.2 -1,-0.7 -1.5,-1.4 -0.1,-0.2 -0.3,-0.4 -0.4,-0.5 -1.5,-1.7 -3.6,-2.9 -5.7,-3.7 1.1,0.3 2.1,0.7 2.9,0.9 0.3,0.1 0.6,0.1 0.8,0 0.3,-0.1 0.5,-0.4 0.6,-0.6 0.1,-0.3 0.1,-0.6 0,-0.8 -0.1,-0.3 -0.4,-0.5 -0.6,-0.6 -8,-2.8 -35.9,-9.4 -36.1,-9.4 l -0.2,0 c -1,-0.3 -2.1,-0.6 -3.3,-0.5 -1.4,0.2 -3,1.3 -3.1,2.9 l -0.1,1 1,0.2 c 11.6,1.8 23.2,4.5 34.4,8 3,1 5.9,2 7.8,4.2 0.1,0.2 0.3,0.3 0.4,0.5 0.7,0.8 1.4,1.7 2.6,2.1 1,0.3 2.3,-0.2 3,-1.1 0.1,-0.1 0.1,-0.2 0.2,-0.3 0.2,0.2 0.4,0.5 0.7,0.9 0.4,0.5 0.8,1 1.3,1.4 1.3,1.2 3,1.3 4.6,1.4 1.1,0.1 2.2,0.1 3,0.6 0.9,0.5 1.6,1.7 2.2,2.7 0.8,1.4 1.7,2.8 3.2,3.5 1,0.5 2.3,0.5 3.3,0.1 0.8,-0.4 1.5,-1 1.7,-1.9 l 0.2,-0.7 -0.6,-0.5 c -0.6,-0.5 -1,-1.1 -1,-1.2 0.2,-0.4 0.6,-0.2 0.9,0.2 z m -13.3,-6.5 c 1.4,0.4 3,0.8 4.3,-0.1 0.7,-0.4 1.2,-1.1 1.6,-1.7 0.1,-0.1 0.2,-0.3 0.3,-0.4 1.2,-1.7 3.2,-2.6 5.2,-3.3 0.1,0.7 0.4,1.3 0.9,1.7 0.4,0.4 0.9,0.7 1.5,0.9 -0.8,1 -1.6,2.1 -2.2,3.2 l -0.6,1 1,0.6 c 2.5,1.4 5.3,0.7 7.9,0.1 1.1,-0.3 2.2,-0.6 3.3,-0.7 1.8,-0.2 3.6,0.2 5.5,0.5 1.7,0.3 3.5,0.6 5.4,0.6 1.1,0 2.2,-0.2 3.2,-0.4 1.9,-0.3 3.6,-0.6 5.2,-0.1 1.2,0.4 2.3,1.2 3.5,2.2 3.3,2.7 6.6,5.6 9.7,8.4 1.3,1.2 2.5,2.4 2.8,3.9 0.5,2.7 -2.6,5.1 -5.7,5.7 -5.9,1.2 -12.1,-1.2 -17.9,-4 -1.3,-0.6 -2.5,-1.2 -3.1,-2.2 -0.1,-0.1 -0.1,-0.2 -0.2,-0.3 -0.4,-0.7 -1,-1.7 -2.2,-1.8 -0.4,0 -0.7,0.1 -1,0.2 -0.7,0.3 -1.1,0.9 -1.4,1.4 -0.1,0.1 -0.1,0.2 -0.2,0.3 -1.1,1.4 -3.3,1.3 -4.7,0.4 -1.8,-1.1 -2.8,-3 -3.7,-4.8 -0.2,-0.4 -0.3,-0.7 -0.5,-1.1 -0.8,-1.7 -1.6,-3.5 -2.9,-5 -0.6,-0.7 -1.5,-1.4 -2.6,-1.4 -0.6,0 -1.2,0.2 -1.6,0.6 -0.5,0.4 -0.7,1 -0.7,1.7 0,0.9 0.6,1.7 1,2.2 0,0 0,0 -0.1,0 -0.4,0.2 -1,0.2 -1.5,0 -0.9,-0.5 -1.6,-1.5 -2.2,-2.6 -0.7,-1.3 -1.6,-2.7 -3.1,-3.6 -1.2,-0.7 -2.6,-0.8 -3.9,-0.8 -1.3,-0.1 -2.5,-0.1 -3.2,-0.8 -0.3,-0.3 -0.6,-0.7 -1,-1.1 -0.2,-0.2 -0.4,-0.5 -0.6,-0.7 0,0 0,0 0,0 1.6,0.3 3.1,0.9 4.5,1.3 z m -52.4,-15.6 c 0.1,0 0.1,0 0.2,0 0.7,-0.1 1.6,0.1 2.4,0.4 l 0.2,0.1 c 0.1,0 0.2,0 0.4,0.1 -1.1,-0.2 -2.2,-0.4 -3.2,-0.6 z"
       id="path7586" />
    <path
       inkscape:connector-curvature="0"
       class="st1"
       d="m -767.88791,452.60625 c 1.1,1.3 1.8,2.9 2.6,4.6 0.2,0.4 0.3,0.7 0.5,1.1 1,2.1 2.3,4.4 4.5,5.8 2.2,1.4 5.8,1.4 7.6,-0.9 0.1,-0.1 0.2,-0.2 0.3,-0.4 0.1,-0.2 0.3,-0.5 0.5,-0.6 0.1,0.1 0.3,0.5 0.4,0.7 0.1,0.1 0.1,0.2 0.2,0.3 0.9,1.5 2.4,2.3 4,3.1 6.1,2.9 12.7,5.5 19.3,4.2 0.9,-0.2 1.8,-0.5 2.6,-0.8 3.5,-1.6 5.4,-4.5 4.9,-7.4 -0.4,-2.2 -1.9,-3.7 -3.5,-5.2 -3.2,-2.9 -6.5,-5.8 -9.8,-8.5 -1.4,-1.1 -2.6,-2.1 -4.2,-2.6 -2.1,-0.7 -4.2,-0.3 -6.3,0 -1,0.2 -2,0.3 -2.9,0.4 -1.6,0.1 -3.2,-0.2 -4.9,-0.5 -2,-0.4 -4,-0.7 -6.1,-0.5 -1.2,0.1 -2.5,0.4 -3.6,0.7 -1.9,0.5 -3.6,0.9 -5.2,0.6 0.7,-1.1 1.6,-2.2 2.5,-3.1 l 1.5,-1.5 -2.1,-0.3 c -0.9,-0.1 -1.8,-0.3 -2.2,-0.7 -0.2,-0.2 -0.3,-0.5 -0.3,-0.7 0,-0.1 0,-0.1 0.1,-0.2 l 7.9,-4.7 -8.8,2.7 c -2.6,0.8 -6.2,1.9 -8.3,4.8 -0.1,0.2 -0.2,0.3 -0.3,0.5 -0.3,0.4 -0.6,0.8 -0.9,1 -0.6,0.4 -1.6,0.1 -2.5,-0.1 -1.4,-0.4 -2.8,-1 -4.2,-1.5 -0.5,-0.2 -0.7,-0.4 -0.8,-0.4 0,-0.1 0.1,-0.2 0.2,-0.3 0.1,-0.2 0.2,-0.4 0.3,-0.7 0.2,-0.7 0.1,-1.5 -0.4,-2.2 -0.5,-0.8 -1.5,-1.4 -2.4,-1.5 -1.5,-0.2 -2.8,0.4 -3.8,1 -0.3,0.1 -0.5,0.4 -0.6,0.6 -0.1,0.3 -0.1,0.6 0.1,0.8 0.1,0.3 0.4,0.5 0.6,0.6 0.3,0.1 0.6,0.1 0.8,-0.1 1,-0.5 1.8,-0.8 2.6,-0.7 0.3,0 0.7,0.3 0.8,0.5 0.1,0.1 0.1,0.2 0.1,0.3 0,0.1 -0.1,0.2 -0.2,0.3 -0.2,0.3 -0.4,0.8 -0.4,1.3 0,0.4 0.1,0.8 0.3,1.1 -0.4,-0.1 -0.9,-0.2 -1.5,0 l -1.4,0.4 0.8,1.1 c -0.1,0.2 -0.4,0.3 -0.6,0.2 -0.6,-0.2 -1,-0.7 -1.5,-1.4 -0.1,-0.2 -0.3,-0.4 -0.4,-0.5 -1.5,-1.7 -3.6,-2.9 -5.7,-3.7 1.1,0.3 2.1,0.7 2.9,0.9 0.3,0.1 0.6,0.1 0.8,0 0.3,-0.1 0.5,-0.4 0.6,-0.6 0.1,-0.3 0.1,-0.6 0,-0.8 -0.1,-0.3 -0.4,-0.5 -0.6,-0.6 -8,-2.8 -35.90001,-9.4 -36.10001,-9.4 l -0.2,0 c -1,-0.3 -2.1,-0.6 -3.3,-0.5 -1.4,0.2 -3,1.3 -3.1,2.9 l -0.1,1 1,0.2 c 11.6,1.8 23.20001,4.5 34.40001,8 3,1 5.9,2 7.8,4.2 0.1,0.2 0.3,0.3 0.4,0.5 0.7,0.8 1.4,1.7 2.6,2.1 1,0.3 2.3,-0.2 3,-1.1 0.1,-0.1 0.1,-0.2 0.2,-0.3 0.2,0.2 0.4,0.5 0.7,0.9 0.4,0.5 0.8,1 1.3,1.4 1.3,1.2 3,1.3 4.6,1.4 1.1,0.1 2.2,0.1 3,0.6 0.9,0.5 1.6,1.7 2.2,2.7 0.8,1.4 1.7,2.8 3.2,3.5 1,0.5 2.3,0.5 3.3,0.1 0.8,-0.4 1.5,-1 1.7,-1.9 l 0.2,-0.7 -0.6,-0.5 c -0.6,-0.5 -1,-1.1 -1,-1.2 0.2,-0.4 0.6,-0.2 0.9,0.2 z m -13.3,-6.5 c 1.4,0.4 3,0.8 4.3,-0.1 0.7,-0.4 1.2,-1.1 1.6,-1.7 0.1,-0.1 0.2,-0.3 0.3,-0.4 1.2,-1.7 3.2,-2.6 5.2,-3.3 0.1,0.7 0.4,1.3 0.9,1.7 0.4,0.4 0.9,0.7 1.5,0.9 -0.8,1 -1.6,2.1 -2.2,3.2 l -0.6,1 1,0.6 c 2.5,1.4 5.3,0.7 7.9,0.1 1.1,-0.3 2.2,-0.6 3.3,-0.7 1.8,-0.2 3.6,0.2 5.5,0.5 1.7,0.3 3.5,0.6 5.4,0.6 1.1,0 2.2,-0.2 3.2,-0.4 1.9,-0.3 3.6,-0.6 5.2,-0.1 1.2,0.4 2.3,1.2 3.5,2.2 3.3,2.7 6.6,5.6 9.7,8.4 1.3,1.2 2.5,2.4 2.8,3.9 0.5,2.7 -2.6,5.1 -5.7,5.7 -5.9,1.2 -12.1,-1.2 -17.9,-4 -1.3,-0.6 -2.5,-1.2 -3.1,-2.2 -0.1,-0.1 -0.1,-0.2 -0.2,-0.3 -0.4,-0.7 -1,-1.7 -2.2,-1.8 -0.4,0 -0.7,0.1 -1,0.2 -0.7,0.3 -1.1,0.9 -1.4,1.4 -0.1,0.1 -0.1,0.2 -0.2,0.3 -1.1,1.4 -3.3,1.3 -4.7,0.4 -1.8,-1.1 -2.8,-3 -3.7,-4.8 -0.2,-0.4 -0.3,-0.7 -0.5,-1.1 -0.8,-1.7 -1.6,-3.5 -2.9,-5 -0.6,-0.7 -1.5,-1.4 -2.6,-1.4 -0.6,0 -1.2,0.2 -1.6,0.6 -0.5,0.4 -0.7,1 -0.7,1.7 0,0.9 0.6,1.7 1,2.2 0,0 0,0 -0.1,0 -0.4,0.2 -1,0.2 -1.5,0 -0.9,-0.5 -1.6,-1.5 -2.2,-2.6 -0.7,-1.3 -1.6,-2.7 -3.1,-3.6 -1.2,-0.7 -2.6,-0.8 -3.9,-0.8 -1.3,-0.1 -2.5,-0.1 -3.2,-0.8 -0.3,-0.3 -0.6,-0.7 -1,-1.1 -0.2,-0.2 -0.4,-0.5 -0.6,-0.7 0,0 0,0 0,0 1.6,0.3 3.1,0.9 4.5,1.3 z m -52.40001,-15.6 c 0.1,0 0.1,0 0.2,0 0.7,-0.1 1.6,0.1 2.4,0.4 l 0.2,0.1 c 0.1,0 0.2,0 0.4,0.1 -1.1,-0.2 -2.2,-0.4 -3.2,-0.6 z"
       id="path7588" />
    <path
       inkscape:connector-curvature="0"
       class="st1"
       d="m -636.68791,429.90625 c -0.1,0 -0.1,0 -0.2,0.1 -0.3,0.1 -0.4,0.4 -0.5,0.7 -0.1,0.3 0,0.6 0.1,0.8 3.1,5.4 6.2,11 10.7,15.7 0.2,0.2 0.4,0.4 0.6,0.6 1,1.1 2,2.1 2.6,3.2 0.1,0.1 0.1,0.3 0.2,0.5 0.4,0.8 0.8,1.8 1.8,2.4 0.5,0.3 1,0.4 1.4,0.5 0.2,0 0.4,0.1 0.5,0.1 1.3,0.4 2,1.9 2.3,2.7 0.2,0.6 0.4,1.2 0.5,1.9 0.2,0.8 0.4,1.7 0.7,2.5 0.5,1.3 1.3,2.4 2,3.4 0.8,1.2 1.6,2.4 2,3.6 0,0.1 0.1,0.2 0.1,0.4 0.2,0.6 0.3,1.4 0.9,2 0.4,0.5 0.9,0.7 1.4,1 l 0.3,0.1 c 1.6,0.8 2.7,2.2 3.8,3.7 0.6,0.8 1.3,1.6 2,2.4 1.7,1.7 4,3.2 7,4.5 1.3,0.6 3.1,1.2 4.9,1.2 0.7,0 1.4,-0.1 2,-0.3 2,-0.6 3.6,-2.3 4.1,-4.3 0.4,-2 -0.3,-4.1 -2,-5.4 -0.8,-0.6 -1.7,-1 -2.6,-1.4 -0.7,-0.3 -1.4,-0.6 -1.9,-1 -0.4,-0.3 -0.8,-0.7 -1.2,-1.1 -0.8,-0.8 -1.6,-1.7 -2.9,-2 -0.6,-0.2 -1.1,-0.2 -1.6,-0.2 -0.5,0 -1,-0.1 -1.4,-0.2 -0.6,-0.3 -0.8,-1 -1.2,-1.9 -0.4,-1 -0.8,-2.2 -2,-3 -0.6,-0.4 -1.3,-0.6 -1.9,-0.7 -0.2,-0.1 -0.4,-0.1 -0.7,-0.2 -1.5,-0.5 -2.7,-1.7 -3.7,-2.8 l -4.6,-4.8 c -0.1,-0.1 -0.2,-0.2 -0.2,-0.2 0.1,-0.1 0.2,-0.3 0.3,-0.4 0.4,-0.5 1,-1.2 0.8,-2.2 l -0.2,-0.9 -0.9,0 c -2.1,0 -4.3,-0.7 -5.9,-1.9 -1.4,-1 -2.4,-2.5 -3.4,-3.8 l -14.4,-19.7 c -0.4,-0.5 -1.1,-0.6 -1.5,-0.2 -0.5,0.4 -0.6,1.1 -0.2,1.5 l 2.1,3.1 z m 5.1,7.1 5.8,7.9 c -2.2,-2.5 -4.1,-5.2 -5.8,-7.9 z m 16.3,18.1 c 0.1,0.7 0.6,1.3 0.8,1.6 l 4.6,4.8 c 1.2,1.2 2.6,2.7 4.7,3.3 0.3,0.1 0.5,0.1 0.8,0.2 0.5,0.1 0.9,0.2 1.2,0.4 0.5,0.3 0.8,1.1 1.1,1.9 0.4,1.1 0.9,2.4 2.3,3.1 0.8,0.4 1.5,0.4 2.2,0.4 0.4,0 0.8,0 1.2,0.1 0.7,0.2 1.3,0.8 1.9,1.4 0.4,0.4 0.9,0.9 1.4,1.3 0.8,0.5 1.6,0.9 2.4,1.2 0.8,0.3 1.5,0.6 2.1,1.1 1,0.8 1.4,2 1.2,3.2 -0.3,1.2 -1.3,2.2 -2.5,2.6 -1.8,0.6 -3.9,-0.2 -5.4,-0.8 -2.8,-1.2 -4.8,-2.5 -6.3,-4 -0.7,-0.7 -1.3,-1.5 -1.9,-2.2 -1.3,-1.6 -2.6,-3.3 -4.5,-4.3 l -0.3,-0.2 c -0.3,-0.2 -0.6,-0.3 -0.8,-0.5 -0.2,-0.2 -0.3,-0.6 -0.4,-1.1 0,-0.1 -0.1,-0.3 -0.1,-0.4 -0.5,-1.6 -1.4,-3 -2.3,-4.3 -0.7,-1 -1.4,-2 -1.8,-3 -0.3,-0.7 -0.5,-1.4 -0.6,-2.2 -0.2,-0.7 -0.3,-1.4 -0.6,-2.1 -0.7,-2 -2,-3.5 -3.7,-4 -0.2,-0.1 -0.5,-0.1 -0.7,-0.2 -0.3,-0.1 -0.6,-0.1 -0.8,-0.3 -0.4,-0.2 -0.6,-0.8 -0.9,-1.4 0,0 0,0 0,-0.1 0.3,0.3 0.6,0.5 0.9,0.8 1.6,1.2 3.4,2 5.5,2.2 -0.5,0.4 -0.7,0.9 -0.7,1.5 z"
       id="path7590" />
    <path
       inkscape:connector-curvature="0"
       class="st1"
       d="m -656.28791,323.90625 c -1.9,-1 -4.3,-0.8 -6.1,0.4 -0.9,0.6 -1.5,1.4 -2.2,2.2 -0.5,0.6 -1,1.2 -1.6,1.6 -0.4,0.3 -0.9,0.6 -1.5,0.9 -1.1,0.6 -2.2,1.1 -2.9,2.3 -0.3,0.5 -0.5,1 -0.7,1.6 -0.2,0.5 -0.3,1 -0.6,1.3 -0.5,0.5 -1.4,0.6 -2.4,0.7 -1.2,0.1 -2.6,0.2 -3.6,1.1 -0.6,0.5 -0.9,1.1 -1.3,1.7 -0.1,0.2 -0.2,0.4 -0.3,0.6 -0.9,1.3 -2.5,2.2 -4,2.9 l -6.3,3.2 c -0.1,0 -0.3,0.2 -0.4,0.2 -0.1,0 -0.3,-0.3 -0.4,-0.5 -0.4,-0.5 -1,-1.3 -2,-1.3 l -0.9,0 -0.2,0.9 c -0.6,2.1 -1.9,4 -3.7,5.3 -1.5,1.1 -3.3,1.7 -5.1,2.3 l -24.9,8.8 c -0.6,0.2 -0.9,0.8 -0.7,1.4 0.2,0.6 0.8,0.9 1.4,0.7 l 3.4,-1.2 c 0,0.1 0,0.2 0,0.2 0.1,0.6 0.7,0.9 1.3,0.8 l 0,0 c 6.6,-1.5 13.4,-3.1 19.7,-6.2 0.3,-0.1 0.5,-0.3 0.8,-0.4 l 0.1,-0.1 c 1.4,-0.7 2.7,-1.4 4.1,-1.6 0.2,0 0.4,-0.1 0.6,-0.1 0.9,-0.1 2.1,-0.3 3,-1.1 0.4,-0.4 0.7,-0.8 0.9,-1.3 0.1,-0.2 0.2,-0.3 0.3,-0.5 0.9,-1.2 2.6,-1.5 3.6,-1.5 0.7,0 1.4,0 2.2,0 0.9,0 1.9,0.1 2.9,0 1.5,-0.2 2.8,-0.6 4.2,-1 1.5,-0.5 3,-1 4.5,-1 0.1,0 0.2,0 0.4,0 0.7,0 1.5,0 2.3,-0.3 0.6,-0.3 1,-0.7 1.4,-1.1 l 0.2,-0.2 c 1.3,-1.3 3.2,-2 5.1,-2.8 1,-0.4 2.1,-0.8 3.1,-1.3 2.3,-1.2 4.5,-3.1 6.8,-5.7 1.4,-1.7 3.1,-4 2.9,-6.6 -0.2,-2.3 -1.5,-4.4 -3.4,-5.3 z m -47.3,30 c -3.7,1.8 -7.7,3.1 -11.7,4.1 l 11.7,-4.1 z m 28.9,-9 c -0.2,0 -0.3,0 -0.5,0 -1.8,0 -3.5,0.5 -5.2,1.1 -1.3,0.4 -2.5,0.8 -3.7,0.9 -0.8,0.1 -1.7,0.1 -2.6,0 -0.8,0 -1.6,-0.1 -2.4,0 -2.3,0.1 -4.2,1 -5.2,2.5 -0.2,0.2 -0.3,0.4 -0.4,0.7 -0.2,0.3 -0.3,0.6 -0.5,0.7 -0.4,0.3 -1,0.4 -1.8,0.5 -0.1,0 -0.2,0 -0.3,0.1 0.4,-0.2 0.8,-0.5 1.2,-0.7 1.8,-1.2 3.1,-2.9 4,-4.9 0.3,0.4 0.8,0.9 1.5,1 0.8,0.1 1.4,-0.2 1.8,-0.4 l 6.3,-3.2 c 1.6,-0.8 3.6,-1.8 4.8,-3.7 0.2,-0.2 0.3,-0.5 0.4,-0.7 0.2,-0.4 0.5,-0.8 0.8,-1.1 0.5,-0.4 1.4,-0.5 2.4,-0.6 1.3,-0.1 2.8,-0.2 3.8,-1.4 0.6,-0.6 0.9,-1.4 1.1,-2.1 0.1,-0.4 0.3,-0.8 0.5,-1.1 0.4,-0.7 1.2,-1.1 2.1,-1.5 0.6,-0.3 1.2,-0.6 1.8,-1.1 0.8,-0.6 1.4,-1.3 1.9,-2 0.6,-0.7 1.1,-1.3 1.7,-1.7 1.1,-0.8 2.7,-0.9 3.9,-0.3 1.2,0.6 2.1,1.9 2.1,3.3 0.1,1.9 -1.2,3.7 -2.4,5.1 -2,2.4 -4,4.1 -6.1,5.1 -0.9,0.5 -1.9,0.9 -2.9,1.3 -2,0.8 -4.2,1.6 -5.8,3.3 l -0.3,0.3 c -0.3,0.3 -0.5,0.5 -0.8,0.6 -0.2,0 -0.7,0 -1.2,0 z m -47.3,16.7 0,0 0,0 0,0 z"
       id="path7592" />
    <path
       inkscape:connector-curvature="0"
       class="st1"
       d="m -604.48791,85.706253 c 0.2,0 0.4,-0.1 0.5,-0.2 0.5,-0.4 0.6,-1.1 0.2,-1.6 -5.2,-6.8 -11.3,-12.9 -18.3,-18 -0.9,-0.6 -1.7,-1.3 -2.1,-2.1 -0.3,-0.7 -0.2,-1.5 -0.1,-2.4 0,-0.2 0,-0.4 0,-0.7 0.3,-4.5 -1.7,-9.1 -5,-12.1 l -0.9,-0.8 -0.7,0.9 c -0.3,0.3 -0.5,0.6 -0.7,1 l -1.6,-3.1 -1.1,1.6 c -0.7,-1.4 -0.9,-3.1 -1.2,-4.9 -0.4,-2.3 -0.8,-4.8 -2.1,-6.8 -1.6,-2.5 -4.6,-4.2 -8.6,-5 -1.4,-0.3 -2.7,-0.4 -4.1,-0.6 -1.7,-0.2 -3.4,-0.4 -5.1,-0.8 -1.9,-0.5 -3.9,-1.4 -5.7,-2.2 -2.3,-1 -4.6,-2 -7.1,-2.6 -3.2,-0.6 -6.6,0 -9.1,1.6 -1.7,1.2 -2.9,2.8 -3.2,4.7 -0.5,2.6 0.5,5.6 2.8,7.9 2,2 4.5,3.2 6.7,4.3 l 19.4,9.6 c -0.4,0.7 -0.5,1.6 -0.1,2.5 0.7,1.4 2.3,1.9 3.4,2.2 4.2,1.2 8.2,2.8 11.8,4.5 2.1,1 4.3,2.2 7.1,3.9 5.2,3 11.1,6.8 15.9,11.8 3,3.1 5.6,6.7 8.1,10.3 0.2,0.3 0.5,0.5 0.9,0.5 0.2,0 0.5,-0.1 0.6,-0.2 0.5,-0.4 0.6,-1 0.2,-1.6 -0.1,-0.5 -0.4,-1 -0.8,-1.6 z m -44.9,-31.2 0.2,0.1 1,-2 -21.6,-10.7 c -2.2,-1.1 -4.4,-2.2 -6.1,-3.9 -1.4,-1.4 -2.7,-3.6 -2.2,-5.9 0.3,-1.3 1.1,-2.4 2.3,-3.3 1.9,-1.3 4.8,-1.8 7.4,-1.3 2.3,0.5 4.4,1.4 6.7,2.4 1.9,0.9 3.9,1.7 6,2.3 1.8,0.5 3.6,0.7 5.3,0.9 1.3,0.2 2.6,0.3 3.9,0.6 2.4,0.5 5.5,1.6 7.2,4 1.1,1.7 1.4,3.7 1.8,6 0.4,2.5 0.8,5.1 2.5,7.2 l 0.9,1.2 0.8,-1.2 5,9.6 -1.5,-7.5 c -0.1,-0.6 -0.1,-1.2 0.1,-1.8 2.3,2.5 3.5,6 3.3,9.4 0,0.2 0,0.4 0,0.6 -0.1,1.1 -0.2,2.2 0.3,3.4 0.3,0.8 0.9,1.5 1.5,2 -1.2,-0.7 -2.3,-1.4 -3.3,-2 -2.9,-1.7 -5.1,-2.9 -7.3,-4 -3.7,-1.8 -7.8,-3.4 -12.1,-4.7 -0.9,-0.3 -1.8,-0.6 -2.1,-1.1 -0.2,0.1 -0.2,-0.2 0,-0.3 z"
       id="path7594" />
    <path
       inkscape:connector-curvature="0"
       class="st1"
       d="m -494.28791,76.506253 c -1.2,0 -2.4,0 -3.5,0 -0.3,-0.1 -0.6,-0.2 -0.9,-0.1 l -0.6,0.2 c -6.2,0.3 -12.4,1.3 -18.4,3 l -0.4,0.1 c -2.6,0.7 -5.4,1.5 -7.7,0.6 -1.4,-0.6 -3.1,-1.1 -4.3,-0.5 -0.6,0.3 -1,0.7 -1.2,1.4 -0.2,0.5 -0.1,1.1 -0.1,1.4 l 0,0.2 c 0.1,1 -0.4,2 -1.4,2.6 -0.9,0.7 -2.1,0.9 -2.9,0.5 -0.5,-0.2 -1,-0.6 -1.5,-0.9 -1.3,-0.9 -3,-2 -4.8,-1.1 -2,1.1 -1.8,3.3 -1.6,5 0.1,0.8 0.1,1.6 0,2.2 -0.4,2.5 -3.9,3.3 -6.2,2.9 -1.1,-0.2 -2.2,-0.5 -3.3,-0.8 -2,-0.6 -4,-1.1 -6.2,-0.9 l -3.3,0.3 2.8,1.8 c 0,0 0.1,0.1 0.1,0.3 0,0.4 -0.4,0.9 -0.7,1 -0.8,0.3 -1.7,0.2 -2.7,0.1 -0.3,0 -0.6,-0.1 -0.9,-0.1 -3.9,-0.4 -7.5,1.2 -9.3,4 -0.5,0.799997 -0.9,1.699997 -1.2,2.499997 -0.5,1.3 -1,2.6 -2,3.2 -0.6,0.4 -1.4,0.5 -2.3,0.7 -0.4,0.1 -0.9,0.2 -1.3,0.3 -1.6,0.4 -3.5,1.6 -3.6,3.6 0,0.5 0.1,0.9 0.1,1.3 0,0.2 0.1,0.4 0.1,0.6 0,0.3 -0.1,0.7 -0.4,1 -0.3,0.3 -0.6,0.4 -1,0.4 l -1.4,-0.1 0.2,1.4 c 0.5,3.3 1.2,6.5 2,9.7 l 0.5,2 1.4,-1.5 c 6.1,-6.6 13.8,-11.8 21.2,-16.7 l 12.2,-8.199997 c 3.7,-2.5 7.6,-5.1 11.6,-7.2 3.7,-1.9 7.6,-3.5 11.2,-4.9 8.8,-3.3 17.8,-6.3 26.8,-8.9 1.5,-0.1 3.1,-0.1 4.6,-0.1 0.6,0 1.1,-0.5 1.1,-1.1 0.3,-0.7 -0.2,-1.2 -0.8,-1.2 z m -47.1,15 c 0.1,-0.9 0.1,-1.8 0,-2.8 -0.2,-1.7 -0.2,-2.5 0.5,-2.9 0.1,-0.1 0.3,-0.1 0.4,-0.1 0.5,0 1.3,0.5 2.2,1.1 0.6,0.4 1.2,0.8 1.9,1.1 1.6,0.7 3.6,0.4 5.1,-0.7 1.6,-1.1 2.4,-2.9 2.3,-4.6 0,-0.1 0,-0.2 0,-0.3 0,-0.2 -0.1,-0.4 0,-0.5 0.2,-0.1 0.8,-0.1 2.6,0.6 3,1.1 6.2,0.3 9.1,-0.5 l 0.4,-0.1 c 1.8,-0.5 3.5,-0.9 5.3,-1.3 -5,1.6 -9.9,3.4 -14.8,5.2 -3.7,1.4 -7.7,3 -11.5,5 -1.2,0.6 -2.4,1.3 -3.6,2 0,-0.5 0.1,-0.8 0.1,-1.2 z m -39.9,19.199997 c -0.1,-0.3 -0.1,-0.5 -0.1,-0.7 0,-0.7 1,-1.3 1.9,-1.5 0.4,-0.1 0.7,-0.2 1.1,-0.2 1,-0.2 2.1,-0.4 3.1,-1 1.6,-1 2.3,-2.6 2.9,-4.2 0.3,-0.8 0.6,-1.5 1,-2.2 1.5,-2.399997 4.7,-3.199997 7.2,-2.999997 0.3,0 0.5,0.1 0.8,0.1 1.3,0.2 2.6,0.3 3.9,-0.2 1.1,-0.5 2,-1.7 2.1,-2.9 0,-0.1 0,-0.2 0,-0.3 1.2,0.1 2.5,0.5 3.8,0.8 1.1,0.3 2.3,0.6 3.5,0.8 0.9,0.1 1.7,0.1 2.6,0 -0.8,0.5 -1.6,1.1 -2.4,1.6 l -12.2,8.199997 c -6.9,4.7 -14.1,9.5 -20.2,15.6 -0.5,-2.2 -0.9,-4.3 -1.3,-6.5 0.5,-0.2 0.9,-0.5 1.3,-0.8 0.7,-0.7 1.1,-1.7 1.1,-2.7 0.1,-0.3 0,-0.6 -0.1,-0.9 z"
       id="path7596" />
    <path
       inkscape:connector-curvature="0"
       class="st1"
       d="m -744.38791,76.506253 c -1.2,0 -2.4,0 -3.5,0 -0.3,-0.1 -0.6,-0.2 -0.9,-0.1 l -0.6,0.2 c -6.2,0.3 -12.4,1.3 -18.4,3 l -0.4,0.1 c -2.6,0.7 -5.4,1.5 -7.7,0.6 -1.4,-0.6 -3.1,-1.1 -4.3,-0.5 -0.6,0.3 -1,0.7 -1.2,1.4 -0.2,0.5 -0.1,1.1 -0.1,1.4 l 0,0.2 c 0.1,1 -0.4,2 -1.4,2.6 -0.9,0.7 -2.1,0.9 -2.9,0.5 -0.5,-0.2 -1,-0.6 -1.5,-0.9 -1.3,-0.9 -3,-2 -4.8,-1.1 -2,1.1 -1.8,3.3 -1.6,5 0.1,0.8 0.1,1.6 0,2.2 -0.4,2.5 -3.9,3.3 -6.2,2.9 -1.1,-0.2 -2.2,-0.5 -3.3,-0.8 -2,-0.6 -4,-1.1 -6.2,-0.9 l -3.3,0.3 2.8,1.8 c 0,0 0.1,0.1 0.1,0.3 0,0.4 -0.4,0.9 -0.7,1 -0.8,0.3 -1.7,0.2 -2.7,0.1 -0.3,0 -0.6,-0.1 -0.9,-0.1 -3.90001,-0.4 -7.50001,1.2 -9.30001,4 -0.5,0.799997 -0.9,1.699997 -1.2,2.499997 -0.5,1.3 -1,2.6 -2,3.2 -0.6,0.4 -1.4,0.5 -2.3,0.7 -0.4,0.1 -0.9,0.2 -1.3,0.3 -1.6,0.4 -3.5,1.6 -3.6,3.6 0,0.5 0.1,0.9 0.1,1.3 0,0.2 0.1,0.4 0.1,0.6 0,0.3 -0.1,0.7 -0.4,1 -0.3,0.3 -0.6,0.4 -1,0.4 l -1.4,-0.1 0.2,1.4 c 0.5,3.3 1.2,6.5 2,9.7 l 0.5,2 1.4,-1.5 c 6.1,-6.6 13.8,-11.8 21.20001,-16.7 l 12.2,-8.199997 c 3.7,-2.5 7.6,-5.1 11.6,-7.2 3.7,-1.9 7.6,-3.5 11.2,-4.9 8.8,-3.3 17.8,-6.3 26.8,-8.9 1.5,-0.1 3.1,-0.1 4.6,-0.1 0.6,0 1.1,-0.5 1.1,-1.1 0.4,-0.7 -0.1,-1.2 -0.8,-1.2 z m -47,15 c 0.1,-0.9 0.1,-1.8 0,-2.8 -0.2,-1.7 -0.2,-2.5 0.5,-2.9 0.1,-0.1 0.3,-0.1 0.4,-0.1 0.5,0 1.3,0.5 2.2,1.1 0.6,0.4 1.2,0.8 1.9,1.1 1.6,0.7 3.6,0.4 5.1,-0.7 1.6,-1.1 2.4,-2.9 2.3,-4.6 0,-0.1 0,-0.2 0,-0.3 0,-0.2 -0.1,-0.4 0,-0.5 0.2,-0.1 0.8,-0.1 2.6,0.6 3,1.1 6.2,0.3 9.1,-0.5 l 0.4,-0.1 c 1.8,-0.5 3.5,-0.9 5.3,-1.3 -5,1.6 -9.9,3.4 -14.8,5.2 -3.7,1.4 -7.7,3 -11.5,5 -1.2,0.6 -2.4,1.3 -3.6,2 0,-0.5 0.1,-0.8 0.1,-1.2 z m -39.90001,19.199997 c -0.1,-0.3 -0.1,-0.5 -0.1,-0.7 0,-0.7 1,-1.3 1.9,-1.5 0.4,-0.1 0.7,-0.2 1.1,-0.2 1,-0.2 2.1,-0.4 3.1,-1 1.6,-1 2.3,-2.6 2.9,-4.2 0.3,-0.8 0.6,-1.5 1,-2.2 1.5,-2.399997 4.7,-3.199997 7.20001,-2.999997 0.3,0 0.5,0.1 0.8,0.1 1.3,0.2 2.6,0.3 3.9,-0.2 1.1,-0.5 2,-1.7 2.1,-2.9 0,-0.1 0,-0.2 0,-0.3 1.2,0.1 2.5,0.5 3.8,0.8 1.1,0.3 2.3,0.6 3.5,0.8 0.9,0.1 1.7,0.1 2.6,0 -0.8,0.5 -1.6,1.1 -2.4,1.6 l -12.2,8.199997 c -6.90001,4.7 -14.10001,9.5 -20.20001,15.6 -0.5,-2.2 -0.9,-4.3 -1.3,-6.5 0.5,-0.2 0.9,-0.5 1.3,-0.8 0.7,-0.7 1.1,-1.7 1.1,-2.7 0.1,-0.3 0,-0.6 -0.1,-0.9 z"
       id="path7598" />
    <path
       inkscape:connector-curvature="0"
       class="st1"
       d="m -656.28791,73.906253 c -1.9,-1 -4.3,-0.8 -6.1,0.4 -0.9,0.6 -1.5,1.4 -2.2,2.2 -0.5,0.6 -1,1.2 -1.6,1.6 -0.4,0.3 -0.9,0.6 -1.5,0.9 -1.1,0.6 -2.2,1.1 -2.9,2.3 -0.3,0.5 -0.5,1 -0.7,1.6 -0.2,0.5 -0.3,1 -0.6,1.3 -0.5,0.5 -1.4,0.6 -2.4,0.7 -1.2,0.1 -2.6,0.2 -3.6,1.1 -0.6,0.5 -0.9,1.1 -1.3,1.7 -0.1,0.2 -0.2,0.4 -0.3,0.6 -0.9,1.3 -2.5,2.2 -4,2.9 l -6.3,3.2 c -0.1,0 -0.3,0.2 -0.4,0.2 -0.1,0 -0.3,-0.3 -0.4,-0.5 -0.4,-0.5 -1,-1.3 -2,-1.3 l -0.9,0 -0.2,0.9 c -0.6,2.1 -1.9,4 -3.7,5.3 -1.5,1.099997 -3.3,1.699997 -5.1,2.299997 l -24.9,8.8 c -0.6,0.2 -0.9,0.8 -0.7,1.4 0.2,0.6 0.8,0.9 1.4,0.7 l 3.4,-1.2 c 0,0.1 0,0.2 0,0.2 0.1,0.6 0.7,0.9 1.3,0.8 l 0,0 c 6.6,-1.5 13.4,-3.1 19.7,-6.2 0.3,-0.1 0.5,-0.3 0.8,-0.4 l 0.1,-0.1 c 1.4,-0.7 2.7,-1.4 4.1,-1.6 0.2,0 0.4,-0.1 0.6,-0.1 0.9,-0.1 2.1,-0.3 3,-1.1 0.4,-0.4 0.7,-0.8 0.9,-1.3 0.1,-0.2 0.2,-0.3 0.3,-0.5 0.9,-1.199997 2.6,-1.499997 3.6,-1.499997 0.7,0 1.4,0 2.2,0 0.9,0 1.9,0.1 2.9,0 1.5,-0.2 2.8,-0.6 4.2,-1 1.5,-0.5 3,-1 4.5,-1 0.1,0 0.2,0 0.4,0 0.7,0 1.5,0 2.3,-0.3 0.6,-0.3 1,-0.7 1.4,-1.1 l 0.2,-0.2 c 1.3,-1.3 3.2,-2 5.1,-2.8 1,-0.4 2.1,-0.8 3.1,-1.3 2.3,-1.2 4.5,-3.1 6.8,-5.7 1.4,-1.7 3.1,-4 2.9,-6.6 -0.2,-2.3 -1.5,-4.4 -3.4,-5.3 z m -47.3,29.999997 c -3.7,1.8 -7.7,3.1 -11.7,4.1 l 11.7,-4.1 z m 28.9,-8.999997 c -0.2,0 -0.3,0 -0.5,0 -1.8,0 -3.5,0.5 -5.2,1.1 -1.3,0.4 -2.5,0.8 -3.7,0.9 -0.8,0.1 -1.7,0.1 -2.6,0 -0.8,0 -1.6,-0.1 -2.4,0 -2.3,0.1 -4.2,1 -5.2,2.5 -0.2,0.2 -0.3,0.4 -0.4,0.699997 -0.2,0.3 -0.3,0.6 -0.5,0.7 -0.4,0.3 -1,0.4 -1.8,0.5 -0.1,0 -0.2,0 -0.3,0.1 0.4,-0.2 0.8,-0.5 1.2,-0.7 1.8,-1.199997 3.1,-2.899997 4,-4.899997 0.3,0.4 0.8,0.9 1.5,1 0.8,0.1 1.4,-0.2 1.8,-0.4 l 6.3,-3.2 c 1.6,-0.8 3.6,-1.8 4.8,-3.7 0.2,-0.2 0.3,-0.5 0.4,-0.7 0.2,-0.4 0.5,-0.8 0.8,-1.1 0.5,-0.4 1.4,-0.5 2.4,-0.6 1.3,-0.1 2.8,-0.2 3.8,-1.4 0.6,-0.6 0.9,-1.4 1.1,-2.1 0.1,-0.4 0.3,-0.8 0.5,-1.1 0.4,-0.7 1.2,-1.1 2.1,-1.5 0.6,-0.3 1.2,-0.6 1.8,-1.1 0.8,-0.6 1.4,-1.3 1.9,-2 0.6,-0.7 1.1,-1.3 1.7,-1.7 1.1,-0.8 2.7,-0.9 3.9,-0.3 1.2,0.6 2.1,1.9 2.1,3.3 0.1,1.9 -1.2,3.7 -2.4,5.1 -2,2.4 -4,4.1 -6.1,5.1 -0.9,0.5 -1.9,0.9 -2.9,1.3 -2,0.8 -4.2,1.6 -5.8,3.3 l -0.3,0.3 c -0.3,0.3 -0.5,0.5 -0.8,0.6 -0.2,0 -0.7,0 -1.2,0 z m -47.3,16.699997 0,0 0,0 0,0 z"
       id="path7600" />
    <path
       inkscape:connector-curvature="0"
       class="st1"
       d="m -354.48791,335.70625 c 0.2,0 0.4,-0.1 0.5,-0.2 0.5,-0.4 0.6,-1.1 0.2,-1.6 -5.2,-6.8 -11.3,-12.9 -18.3,-18 -0.9,-0.6 -1.7,-1.3 -2.1,-2.1 -0.3,-0.7 -0.2,-1.5 -0.1,-2.4 0,-0.2 0,-0.4 0,-0.7 0.3,-4.5 -1.7,-9.1 -5,-12.1 l -0.9,-0.8 -0.7,0.9 c -0.3,0.3 -0.5,0.6 -0.7,1 l -1.6,-3.1 -1.1,1.6 c -0.7,-1.4 -0.9,-3.1 -1.2,-4.9 -0.4,-2.3 -0.8,-4.8 -2.1,-6.8 -1.6,-2.5 -4.6,-4.2 -8.6,-5 -1.4,-0.3 -2.7,-0.4 -4.1,-0.6 -1.7,-0.2 -3.4,-0.4 -5.1,-0.8 -1.9,-0.5 -3.9,-1.4 -5.7,-2.2 -2.3,-1 -4.6,-2 -7.1,-2.6 -3.2,-0.6 -6.6,0 -9.1,1.6 -1.7,1.2 -2.9,2.8 -3.2,4.7 -0.5,2.6 0.5,5.6 2.8,7.9 2,2 4.5,3.2 6.7,4.3 l 19.4,9.6 c -0.4,0.7 -0.5,1.6 -0.1,2.5 0.7,1.4 2.3,1.9 3.4,2.2 4.2,1.2 8.2,2.8 11.8,4.5 2.1,1 4.3,2.2 7.1,3.9 5.2,3 11.1,6.8 15.9,11.8 3,3.1 5.6,6.7 8.1,10.3 0.2,0.3 0.5,0.5 0.9,0.5 0.2,0 0.5,-0.1 0.6,-0.2 0.5,-0.4 0.6,-1 0.2,-1.6 0,-0.5 -0.4,-1 -0.8,-1.6 z m -44.9,-31.2 0.2,0.1 1,-2 -21.6,-10.7 c -2.2,-1.1 -4.4,-2.2 -6.1,-3.9 -1.4,-1.4 -2.7,-3.6 -2.2,-5.9 0.3,-1.3 1.1,-2.4 2.3,-3.2 1.9,-1.3 4.8,-1.8 7.4,-1.3 2.3,0.5 4.4,1.4 6.7,2.4 1.9,0.9 3.9,1.7 6,2.3 1.8,0.5 3.6,0.7 5.3,0.9 1.3,0.2 2.6,0.3 3.9,0.6 2.4,0.5 5.5,1.6 7.2,4 1.1,1.7 1.4,3.7 1.8,6 0.4,2.5 0.8,5.1 2.5,7.2 l 0.9,1.2 0.8,-1.2 5,9.6 -1.5,-7.5 c -0.1,-0.6 -0.1,-1.2 0.1,-1.8 2.3,2.5 3.5,6 3.3,9.4 0,0.2 0,0.4 0,0.6 -0.1,1.1 -0.2,2.2 0.3,3.4 0.3,0.8 0.9,1.5 1.5,2 -1.2,-0.7 -2.3,-1.4 -3.3,-2 -2.9,-1.7 -5.1,-2.9 -7.3,-4 -3.7,-1.8 -7.8,-3.4 -12.1,-4.7 -0.9,-0.3 -1.8,-0.6 -2.1,-1.1 -0.2,0 -0.2,-0.3 0,-0.4 z"
       id="path7602" />
    <path
       inkscape:connector-curvature="0"
       class="st1"
       d="m -431.18791,220.30625 c 1.7,-0.5 2.8,-1.7 4,-3.1 4.4,-5.2 8.6,-10.9 9,-17.6 0.3,-4.3 -1.9,-9 -6,-9.4 -2.2,-0.2 -4.1,0.9 -5.9,2 -3.7,2.3 -7.3,4.8 -10.8,7.3 -1.4,1 -2.7,2 -3.6,3.4 -1.2,1.9 -1.4,4 -1.6,6 -0.1,1 -0.2,2 -0.4,2.9 -0.4,1.6 -1.1,3 -1.8,4.6 -0.9,1.8 -1.7,3.7 -2.1,5.8 -0.2,1.2 -0.2,2.5 -0.2,3.7 0,1.9 0,3.8 -0.8,5.2 -0.9,-1 -1.7,-2.1 -2.4,-3.2 l -1.1,-1.8 -0.8,1.9 c -0.4,0.9 -0.7,1.6 -1.3,2 -0.2,0.1 -0.5,0.1 -0.8,0.1 0,0 -0.1,-0.1 -0.1,-0.1 l -2.5,-8.9 0.3,9.2 c 0.1,2.8 0.2,6.5 2.5,9.3 0.1,0.2 0.3,0.3 0.4,0.5 0.3,0.4 0.7,0.8 0.8,1.1 0.2,0.7 -0.3,1.5 -0.8,2.4 -0.8,1.2 -1.6,2.5 -2.5,3.7 -0.4,0.5 -0.6,0.6 -0.6,0.6 -0.1,0 -0.2,-0.2 -0.3,-0.2 -0.2,-0.2 -0.4,-0.3 -0.6,-0.5 -0.6,-0.4 -1.4,-0.5 -2.2,-0.2 -0.9,0.3 -1.7,1.1 -2.1,1.9 -0.6,1.4 -0.3,2.8 -0.1,3.9 0.1,0.3 0.2,0.5 0.5,0.7 0.2,0.2 0.5,0.2 0.8,0.2 0.3,-0.1 0.5,-0.2 0.7,-0.5 0.2,-0.2 0.2,-0.5 0.2,-0.8 -0.2,-1.1 -0.3,-2 -0.1,-2.7 0.1,-0.3 0.4,-0.6 0.7,-0.7 0.1,0 0.3,-0.1 0.4,0 0.1,0.1 0.2,0.1 0.3,0.2 0.3,0.2 0.6,0.6 1.2,0.7 0.4,0.1 0.8,0.1 1.1,0 -0.2,0.4 -0.4,0.9 -0.4,1.4 l 0.1,1.5 1.3,-0.5 c 0.1,0.2 0.2,0.5 0.1,0.6 -0.3,0.5 -1,0.8 -1.7,1.1 -0.2,0.1 -0.4,0.2 -0.6,0.3 -2.1,1 -3.7,2.7 -5.1,4.5 0.6,-1 1.2,-1.9 1.7,-2.6 0.3,-0.5 0.2,-1.2 -0.3,-1.5 -0.5,-0.3 -1.2,-0.2 -1.5,0.3 -4.8,7 -18.3,32.3 -18.4,32.5 l -0.1,0.2 c -0.5,0.9 -1.2,1.9 -1.3,3.1 -0.2,1.4 0.5,3.2 2,3.7 l 1,0.3 0.4,-0.9 c 4.7,-10.8 10.3,-21.3 16.6,-31.2 1.7,-2.7 3.5,-5.2 6,-6.5 0.2,-0.1 0.4,-0.2 0.6,-0.3 1,-0.4 2,-0.9 2.7,-2 0.6,-0.9 0.4,-2.3 -0.3,-3.2 -0.1,-0.1 -0.2,-0.2 -0.3,-0.3 0.3,-0.1 0.6,-0.3 1.1,-0.5 0.6,-0.2 1.2,-0.5 1.7,-0.8 1.5,-1 2,-2.5 2.5,-4.1 0.4,-1.1 0.7,-2.1 1.3,-2.7 0.8,-0.8 2,-1.1 3.2,-1.4 1.5,-0.4 3.1,-0.9 4.2,-2.2 0.7,-0.9 1.1,-2.1 0.9,-3.2 -0.1,-0.9 -0.6,-1.7 -1.4,-2.1 l -0.6,-0.4 -0.6,0.5 c -0.6,0.5 -1.3,0.7 -1.4,0.7 0.1,-0.2 0.4,-0.6 0.9,-0.8 1.5,-0.7 3.2,-1 5,-1.3 0.4,-0.1 0.8,-0.1 1.3,-0.2 2.3,-0.4 4.8,-1.1 6.7,-2.9 1.9,-1.9 2.9,-5.2 1.1,-7.6 -0.1,-0.1 -0.2,-0.2 -0.3,-0.4 -0.1,-0.2 -0.4,-0.5 -0.4,-0.6 0.2,-0.1 0.5,-0.2 0.7,-0.2 0,0.2 0.1,0.2 0.2,0.1 z m -26.8,28.3 c 0.9,-1.2 1.8,-2.5 2.6,-3.8 0.8,-1.2 1.5,-2.7 1,-4.2 -0.2,-0.8 -0.8,-1.4 -1.2,-2 -0.1,-0.1 -0.2,-0.3 -0.3,-0.4 -1.3,-1.6 -1.7,-3.7 -1.8,-5.8 0.7,0.1 1.4,-0.1 1.9,-0.4 0.5,-0.3 0.9,-0.7 1.3,-1.2 0.8,1.1 1.6,2.1 2.5,3 l 0.8,0.8 0.8,-0.8 c 2,-2.1 2.1,-4.9 2.1,-7.6 0,-1.1 0,-2.3 0.2,-3.4 0.3,-1.8 1.1,-3.4 1.9,-5.2 0.8,-1.6 1.5,-3.2 1.9,-5 0.2,-1.1 0.4,-2.2 0.5,-3.2 0.2,-1.9 0.4,-3.7 1.3,-5.1 0.7,-1.1 1.8,-1.9 3,-2.8 3.5,-2.5 7.1,-4.9 10.7,-7.2 1.5,-1 3,-1.8 4.5,-1.7 2.8,0.3 4.2,3.8 4,7 -0.4,6 -4.3,11.4 -8.5,16.3 -0.9,1.1 -1.8,2.1 -2.9,2.4 -0.1,0 -0.2,0.1 -0.3,0.1 -0.8,0.2 -1.9,0.5 -2.3,1.7 -0.4,1.2 0.4,2.1 0.9,2.7 0.1,0.1 0.1,0.2 0.2,0.3 1,1.4 0.4,3.5 -0.8,4.7 -1.5,1.4 -3.7,2 -5.6,2.3 -0.4,0.1 -0.8,0.1 -1.2,0.2 -1.9,0.3 -3.8,0.6 -5.6,1.5 -0.8,0.4 -1.7,1.1 -2,2.1 -0.2,0.6 -0.1,1.2 0.1,1.7 0.3,0.6 0.8,0.9 1.4,1.1 0.9,0.2 1.8,-0.1 2.4,-0.4 0,0 0,0 0,0.1 0.1,0.5 -0.1,1 -0.4,1.4 -0.7,0.8 -1.9,1.2 -3.1,1.5 -1.4,0.4 -3.1,0.8 -4.2,2 -1,1 -1.4,2.3 -1.8,3.6 -0.4,1.2 -0.8,2.4 -1.6,2.9 -0.4,0.2 -0.9,0.4 -1.3,0.6 -0.6,0 -0.8,0.1 -1.1,0.2 0,0 0,0 0,0 z m -26,42.9 c 0,-0.1 0,-0.1 0,-0.2 0.1,-0.7 0.5,-1.5 1,-2.2 l 0.1,-0.2 c 0,0 0.1,-0.1 0.2,-0.3 -0.4,0.9 -0.8,1.9 -1.3,2.9 z"
       id="path7604" />
    <path
       inkscape:connector-curvature="0"
       class="st1"
       d="m -468.88791,138.00625 c 1,0.6 2.1,1.2 3.1,1.7 0.1,0.3 0.4,0.4 0.7,0.5 l 0.6,0.1 c 5.5,2.8 11.4,5 17.4,6.6 l 0.4,0.1 c 2.6,0.7 5.4,1.4 7,3.3 1,1.2 2.1,2.5 3.5,2.6 0.6,0 1.2,-0.2 1.7,-0.6 0.4,-0.4 0.6,-0.9 0.8,-1.2 l 0.1,-0.2 c 0.4,-0.9 1.4,-1.5 2.5,-1.6 1.2,-0.1 2.2,0.3 2.8,1.1 0.3,0.4 0.6,1 0.9,1.6 0.7,1.5 1.6,3.3 3.7,3.3 2.3,0.1 3.2,-1.9 3.9,-3.5 0.3,-0.7 0.7,-1.4 1.1,-1.9 1.6,-1.9 5,-0.9 6.9,0.6 0.9,0.7 1.7,1.5 2.4,2.3 1.4,1.5 2.9,3 4.9,3.9 l 3,1.4 -1.6,-2.9 c 0,0 -0.1,-0.1 0.1,-0.3 0.2,-0.3 0.8,-0.6 1.1,-0.5 0.8,0.1 1.6,0.7 2.4,1.3 0.2,0.2 0.5,0.4 0.7,0.5 1.9,1.3 4.1,2.1 6.2,2.1 1.4,0 2.7,-0.3 3.8,-0.9 0.8,-0.4 1.6,-1 2.3,-1.6 1.1,-0.9 2.2,-1.7 3.3,-1.8 0.7,0 1.5,0.3 2.3,0.5 0.4,0.1 0.8,0.3 1.2,0.4 1.6,0.4 3.8,0.4 4.9,-1.3 0.3,-0.4 0.4,-0.8 0.5,-1.2 0.1,-0.2 0.1,-0.4 0.2,-0.6 0.2,-0.3 0.5,-0.5 0.9,-0.6 0.4,-0.1 0.8,0 1.1,0.1 l 1.2,0.8 0.5,-1.3 c 1.2,-3.1 2.2,-6.3 3.1,-9.4 l 0.6,-2 -2,0.6 c -8.6,2.7 -17.8,3.3 -26.7,3.9 l -14.6,1 c -4.5,0.3 -9.1,0.6 -13.7,0.4 -4.1,-0.2 -8.3,-0.8 -12.2,-1.4 -9.3,-1.5 -18.6,-3.4 -27.7,-5.7 -1.4,-0.7 -2.7,-1.4 -4,-2.2 -0.3,-0.1 -0.6,-0.2 -0.8,-0.1 -0.3,0.1 -0.5,0.3 -0.7,0.5 -0.1,0.3 -0.2,0.6 -0.1,0.8 -0.1,0.4 0.1,0.6 0.3,0.8 z m 45.1,15 c -0.6,0 -1,-0.6 -1.8,-2.1 -0.3,-0.6 -0.6,-1.3 -1.1,-1.9 -0.9,-1.2 -2.5,-2 -4.2,-2 -0.2,0 -0.4,0 -0.6,0 -1.9,0.2 -3.6,1.3 -4.3,2.9 0,0.1 -0.1,0.2 -0.1,0.3 -0.1,0.2 -0.2,0.4 -0.3,0.5 -0.2,0 -0.8,-0.3 -2,-1.8 -2,-2.5 -5.3,-3.3 -8.1,-4.1 l -0.4,-0.1 c -1.8,-0.5 -3.5,-1 -5.3,-1.5 5.1,1.1 10.3,2 15.4,2.9 3.9,0.6 8.2,1.2 12.4,1.4 1.3,0.1 2.7,0.1 4.2,0 -0.3,0.2 -0.6,0.5 -0.8,0.8 -0.6,0.7 -1,1.6 -1.4,2.4 -0.5,1.7 -0.9,2.4 -1.6,2.3 z m 44.6,-0.3 c -0.4,-0.1 -0.7,-0.2 -1.1,-0.4 -1,-0.4 -2,-0.7 -3.1,-0.7 -1.9,0.1 -3.3,1.2 -4.6,2.2 -0.7,0.5 -1.3,1 -2,1.4 -2.5,1.3 -5.7,0.4 -7.7,-1 -0.2,-0.1 -0.4,-0.3 -0.6,-0.5 -1,-0.8 -2,-1.6 -3.4,-1.7 -0.1,0 -0.2,0 -0.4,0 -1.1,0 -2.2,0.6 -2.9,1.5 -0.1,0.1 -0.1,0.2 -0.1,0.2 -1,-0.7 -1.9,-1.6 -2.8,-2.6 -0.8,-0.8 -1.7,-1.7 -2.6,-2.5 -0.7,-0.5 -1.4,-1 -2.2,-1.3 0.9,-0.1 1.9,-0.1 2.8,-0.2 l 14.6,-1 c 8.3,-0.6 17,-1.2 25.2,-3.5 -0.6,2.1 -1.3,4.2 -2.1,6.3 -0.5,-0.1 -1,-0.1 -1.6,0.1 -1,0.3 -1.8,0.9 -2.3,1.8 -0.2,0.3 -0.3,0.6 -0.4,0.9 -0.1,0.3 -0.2,0.5 -0.3,0.6 -0.3,0.6 -1.5,0.6 -2.4,0.4 z"
       id="path7606" />
    <path
       inkscape:connector-curvature="0"
       class="st1"
       d="m -468.88791,388.00625 c 1,0.6 2.1,1.2 3.1,1.7 0.1,0.3 0.4,0.4 0.7,0.5 l 0.6,0.1 c 5.5,2.8 11.4,5 17.4,6.6 l 0.4,0.1 c 2.6,0.7 5.4,1.4 7,3.3 1,1.2 2.1,2.5 3.5,2.6 0.6,0 1.2,-0.2 1.7,-0.6 0.4,-0.4 0.6,-0.9 0.8,-1.2 l 0.1,-0.2 c 0.4,-0.9 1.4,-1.5 2.5,-1.6 1.2,-0.1 2.2,0.3 2.8,1.1 0.3,0.4 0.6,1 0.9,1.6 0.7,1.5 1.6,3.3 3.7,3.3 2.3,0.1 3.2,-1.9 3.9,-3.5 0.3,-0.7 0.7,-1.4 1.1,-1.9 1.6,-1.9 5,-0.9 6.9,0.6 0.9,0.7 1.7,1.5 2.4,2.3 1.4,1.5 2.9,3 4.9,3.9 l 3,1.4 -1.6,-2.9 c 0,0 -0.1,-0.1 0.1,-0.3 0.2,-0.3 0.8,-0.6 1.1,-0.5 0.8,0.1 1.6,0.7 2.4,1.3 0.2,0.2 0.5,0.4 0.7,0.5 1.9,1.3 4.1,2.1 6.2,2.1 1.4,0 2.7,-0.3 3.8,-0.9 0.8,-0.4 1.6,-1 2.3,-1.6 1.1,-0.9 2.2,-1.7 3.3,-1.8 0.7,0 1.5,0.3 2.3,0.5 0.4,0.1 0.8,0.3 1.2,0.4 1.6,0.4 3.8,0.4 4.9,-1.3 0.3,-0.4 0.4,-0.8 0.5,-1.2 0.1,-0.2 0.1,-0.4 0.2,-0.6 0.2,-0.3 0.5,-0.5 0.9,-0.6 0.4,-0.1 0.8,0 1.1,0.1 l 1.2,0.8 0.5,-1.3 c 1.2,-3.1 2.2,-6.3 3.1,-9.4 l 0.6,-2 -2,0.6 c -8.6,2.7 -17.8,3.3 -26.7,3.9 l -14.6,1 c -4.5,0.3 -9.1,0.6 -13.7,0.4 -4.1,-0.2 -8.3,-0.8 -12.2,-1.4 -9.3,-1.5 -18.6,-3.4 -27.7,-5.7 -1.4,-0.7 -2.7,-1.4 -4,-2.2 -0.3,-0.1 -0.6,-0.2 -0.8,-0.1 -0.3,0.1 -0.5,0.3 -0.7,0.5 -0.1,0.3 -0.2,0.6 -0.1,0.8 -0.1,0.4 0.1,0.6 0.3,0.8 z m 45.1,15 c -0.6,0 -1,-0.6 -1.8,-2.1 -0.3,-0.6 -0.6,-1.3 -1.1,-1.9 -0.9,-1.2 -2.5,-2 -4.2,-2 -0.2,0 -0.4,0 -0.6,0 -1.9,0.2 -3.6,1.3 -4.3,2.9 0,0.1 -0.1,0.2 -0.1,0.3 -0.1,0.2 -0.2,0.4 -0.3,0.5 -0.2,0 -0.8,-0.3 -2,-1.8 -2,-2.5 -5.3,-3.3 -8.1,-4.1 l -0.4,-0.1 c -1.8,-0.5 -3.5,-1 -5.3,-1.5 5.1,1.1 10.3,2 15.4,2.9 3.9,0.6 8.2,1.2 12.4,1.4 1.3,0.1 2.7,0.1 4.2,0 -0.3,0.2 -0.6,0.5 -0.8,0.8 -0.6,0.7 -1,1.6 -1.4,2.4 -0.5,1.7 -0.9,2.4 -1.6,2.3 z m 44.6,-0.3 c -0.4,-0.1 -0.7,-0.2 -1.1,-0.4 -1,-0.4 -2,-0.7 -3.1,-0.7 -1.9,0.1 -3.3,1.2 -4.6,2.2 -0.7,0.5 -1.3,1 -2,1.4 -2.5,1.3 -5.7,0.4 -7.7,-1 -0.2,-0.1 -0.4,-0.3 -0.6,-0.5 -1,-0.8 -2,-1.6 -3.4,-1.7 -0.1,0 -0.2,0 -0.4,0 -1.1,0 -2.2,0.6 -2.9,1.5 -0.1,0.1 -0.1,0.2 -0.1,0.2 -1,-0.7 -1.9,-1.6 -2.8,-2.6 -0.8,-0.8 -1.7,-1.7 -2.6,-2.5 -0.7,-0.5 -1.4,-1 -2.2,-1.3 0.9,-0.1 1.9,-0.1 2.8,-0.2 l 14.6,-1 c 8.3,-0.6 17,-1.2 25.2,-3.5 -0.6,2.1 -1.3,4.2 -2.1,6.3 -0.5,-0.1 -1,-0.1 -1.6,0.1 -1,0.3 -1.8,0.9 -2.3,1.8 -0.2,0.3 -0.3,0.6 -0.4,0.9 -0.1,0.3 -0.2,0.5 -0.3,0.6 -0.3,0.6 -1.5,0.6 -2.4,0.4 z"
       id="path7608" />
    <path
       inkscape:connector-curvature="0"
       class="st1"
       d="m -431.18791,470.30625 c 1.7,-0.5 2.8,-1.7 4,-3.1 4.4,-5.2 8.6,-10.9 9,-17.6 0.3,-4.3 -1.9,-9 -6,-9.4 -2.2,-0.2 -4.1,0.9 -5.9,2 -3.7,2.3 -7.3,4.8 -10.8,7.3 -1.4,1 -2.7,2 -3.6,3.4 -1.2,1.9 -1.4,4 -1.6,6 -0.1,1 -0.2,2 -0.4,2.9 -0.4,1.6 -1.1,3 -1.8,4.6 -0.9,1.8 -1.7,3.7 -2.1,5.8 -0.2,1.2 -0.2,2.5 -0.2,3.7 0,1.9 0,3.8 -0.8,5.2 -0.9,-1 -1.7,-2.1 -2.4,-3.2 l -1.1,-1.8 -0.8,1.9 c -0.4,0.9 -0.7,1.6 -1.3,2 -0.2,0.1 -0.5,0.1 -0.8,0.1 0,0 -0.1,-0.1 -0.1,-0.1 l -2.5,-8.9 0.3,9.2 c 0.1,2.8 0.2,6.5 2.5,9.3 0.1,0.2 0.3,0.3 0.4,0.5 0.3,0.4 0.7,0.8 0.8,1.1 0.2,0.7 -0.3,1.5 -0.8,2.4 -0.8,1.2 -1.6,2.5 -2.5,3.7 -0.4,0.5 -0.6,0.6 -0.6,0.6 -0.1,0 -0.2,-0.2 -0.3,-0.2 -0.2,-0.2 -0.4,-0.3 -0.6,-0.5 -0.6,-0.4 -1.4,-0.5 -2.2,-0.2 -0.9,0.3 -1.7,1.1 -2.1,1.9 -0.6,1.4 -0.3,2.8 -0.1,3.9 0.1,0.3 0.2,0.5 0.5,0.7 0.2,0.2 0.5,0.2 0.8,0.2 0.3,-0.1 0.5,-0.2 0.7,-0.5 0.2,-0.2 0.2,-0.5 0.2,-0.8 -0.2,-1.1 -0.3,-2 -0.1,-2.7 0.1,-0.3 0.4,-0.6 0.7,-0.7 0.1,0 0.3,-0.1 0.4,0 0.1,0.1 0.2,0.1 0.3,0.2 0.3,0.2 0.6,0.6 1.2,0.7 0.4,0.1 0.8,0.1 1.1,0 -0.2,0.4 -0.4,0.9 -0.4,1.4 l 0.1,1.5 1.3,-0.5 c 0.1,0.2 0.2,0.5 0.1,0.6 -0.3,0.5 -1,0.8 -1.7,1.1 -0.2,0.1 -0.4,0.2 -0.6,0.3 -2.1,1 -3.7,2.7 -5.1,4.5 0.6,-1 1.2,-1.9 1.7,-2.6 0.3,-0.5 0.2,-1.2 -0.3,-1.5 -0.5,-0.3 -1.2,-0.2 -1.5,0.3 -4.8,7 -18.3,32.3 -18.4,32.5 l -0.1,0.2 c -0.5,0.9 -1.2,1.9 -1.3,3.1 -0.2,1.4 0.5,3.2 2,3.7 l 1,0.3 0.4,-0.9 c 4.7,-10.8 10.3,-21.3 16.6,-31.2 1.7,-2.7 3.5,-5.2 6,-6.5 0.2,-0.1 0.4,-0.2 0.6,-0.3 1,-0.4 2,-0.9 2.7,-2 0.6,-0.9 0.4,-2.3 -0.3,-3.2 -0.1,-0.1 -0.2,-0.2 -0.3,-0.3 0.3,-0.1 0.6,-0.3 1.1,-0.5 0.6,-0.2 1.2,-0.5 1.7,-0.8 1.5,-1 2,-2.5 2.5,-4.1 0.4,-1.1 0.7,-2.1 1.3,-2.7 0.8,-0.8 2,-1.1 3.2,-1.4 1.5,-0.4 3.1,-0.9 4.2,-2.2 0.7,-0.9 1.1,-2.1 0.9,-3.2 -0.1,-0.9 -0.6,-1.7 -1.4,-2.1 l -0.6,-0.4 -0.6,0.5 c -0.6,0.5 -1.3,0.7 -1.4,0.7 0.1,-0.2 0.4,-0.6 0.9,-0.8 1.5,-0.7 3.2,-1 5,-1.3 0.4,-0.1 0.8,-0.1 1.3,-0.2 2.3,-0.4 4.8,-1.1 6.7,-2.9 1.9,-1.9 2.9,-5.2 1.1,-7.6 -0.1,-0.1 -0.2,-0.2 -0.3,-0.4 -0.1,-0.2 -0.4,-0.5 -0.4,-0.6 0.2,-0.1 0.5,-0.2 0.7,-0.2 0,0.2 0.1,0.2 0.2,0.1 z m -26.8,28.3 c 0.9,-1.2 1.8,-2.5 2.6,-3.8 0.8,-1.2 1.5,-2.7 1,-4.2 -0.2,-0.8 -0.8,-1.4 -1.2,-2 -0.1,-0.1 -0.2,-0.3 -0.3,-0.4 -1.3,-1.6 -1.7,-3.7 -1.8,-5.8 0.7,0.1 1.4,-0.1 1.9,-0.4 0.5,-0.3 0.9,-0.7 1.3,-1.2 0.8,1.1 1.6,2.1 2.5,3 l 0.8,0.8 0.8,-0.8 c 2,-2.1 2.1,-4.9 2.1,-7.6 0,-1.1 0,-2.3 0.2,-3.4 0.3,-1.8 1.1,-3.4 1.9,-5.2 0.8,-1.6 1.5,-3.2 1.9,-5 0.2,-1.1 0.4,-2.2 0.5,-3.2 0.2,-1.9 0.4,-3.7 1.3,-5.1 0.7,-1.1 1.8,-1.9 3,-2.8 3.5,-2.5 7.1,-4.9 10.7,-7.2 1.5,-1 3,-1.8 4.5,-1.7 2.8,0.3 4.2,3.8 4,7 -0.4,6 -4.3,11.4 -8.5,16.3 -0.9,1.1 -1.8,2.1 -2.9,2.4 -0.1,0 -0.2,0.1 -0.3,0.1 -0.8,0.2 -1.9,0.5 -2.3,1.7 -0.4,1.2 0.4,2.1 0.9,2.7 0.1,0.1 0.1,0.2 0.2,0.3 1,1.4 0.4,3.5 -0.8,4.7 -1.5,1.4 -3.7,2 -5.6,2.3 -0.4,0.1 -0.8,0.1 -1.2,0.2 -1.9,0.3 -3.8,0.6 -5.6,1.5 -0.8,0.4 -1.7,1.1 -2,2.1 -0.2,0.6 -0.1,1.2 0.1,1.7 0.3,0.6 0.8,0.9 1.4,1.1 0.9,0.2 1.8,-0.1 2.4,-0.4 0,0 0,0 0,0.1 0.1,0.5 -0.1,1 -0.4,1.4 -0.7,0.8 -1.9,1.2 -3.1,1.5 -1.4,0.4 -3.1,0.8 -4.2,2 -1,1 -1.4,2.3 -1.8,3.6 -0.4,1.2 -0.8,2.4 -1.6,2.9 -0.4,0.2 -0.9,0.4 -1.3,0.6 -0.6,0 -0.8,0.1 -1.1,0.2 0,0 0,0 0,0 z m -26,42.9 c 0,-0.1 0,-0.1 0,-0.2 0.1,-0.7 0.5,-1.5 1,-2.2 l 0.1,-0.2 c 0,0 0.1,-0.1 0.2,-0.3 -0.4,0.9 -0.8,1.9 -1.3,2.9 z"
       id="path7610" />
    <path
       inkscape:connector-curvature="0"
       class="st1"
       d="m -406.28791,323.90625 c -1.9,-1 -4.3,-0.8 -6.1,0.4 -0.9,0.6 -1.5,1.4 -2.2,2.2 -0.5,0.6 -1,1.2 -1.6,1.6 -0.4,0.3 -0.9,0.6 -1.5,0.9 -1.1,0.6 -2.2,1.1 -2.9,2.3 -0.3,0.5 -0.5,1 -0.7,1.6 -0.2,0.5 -0.3,1 -0.6,1.3 -0.5,0.5 -1.4,0.6 -2.4,0.7 -1.2,0.1 -2.6,0.2 -3.6,1.1 -0.6,0.5 -0.9,1.1 -1.3,1.7 -0.1,0.2 -0.2,0.4 -0.3,0.6 -0.9,1.3 -2.5,2.2 -4,2.9 l -6.3,3.2 c -0.1,0 -0.3,0.2 -0.4,0.2 -0.1,0 -0.3,-0.3 -0.4,-0.5 -0.4,-0.5 -1,-1.3 -2,-1.3 l -0.9,0 -0.2,0.9 c -0.6,2.1 -1.9,4 -3.7,5.3 -1.5,1.1 -3.3,1.7 -5.1,2.3 l -24.9,8.8 c -0.6,0.2 -0.9,0.8 -0.7,1.4 0.2,0.6 0.8,0.9 1.4,0.7 l 3.4,-1.2 c 0,0.1 0,0.2 0,0.2 0.1,0.6 0.7,0.9 1.3,0.8 l 0,0 c 6.6,-1.5 13.4,-3.1 19.7,-6.2 0.3,-0.1 0.5,-0.3 0.8,-0.4 l 0.1,-0.1 c 1.4,-0.7 2.7,-1.4 4.1,-1.6 0.2,0 0.4,-0.1 0.6,-0.1 0.9,-0.1 2.1,-0.3 3,-1.1 0.4,-0.4 0.7,-0.8 0.9,-1.3 0.1,-0.2 0.2,-0.3 0.3,-0.5 0.9,-1.2 2.6,-1.5 3.6,-1.5 0.7,0 1.4,0 2.2,0 0.9,0 1.9,0.1 2.9,0 1.5,-0.2 2.8,-0.6 4.2,-1 1.5,-0.5 3,-1 4.5,-1 0.1,0 0.2,0 0.4,0 0.7,0 1.5,0 2.3,-0.3 0.6,-0.3 1,-0.7 1.4,-1.1 l 0.2,-0.2 c 1.3,-1.3 3.2,-2 5.1,-2.8 1,-0.4 2.1,-0.8 3.1,-1.3 2.3,-1.2 4.5,-3.1 6.8,-5.7 1.4,-1.7 3.1,-4 2.9,-6.6 -0.2,-2.3 -1.5,-4.4 -3.4,-5.3 z m -47.3,30 c -3.7,1.8 -7.7,3.1 -11.7,4.1 l 11.7,-4.1 z m 28.9,-9 c -0.2,0 -0.3,0 -0.5,0 -1.8,0 -3.5,0.5 -5.2,1.1 -1.3,0.4 -2.5,0.8 -3.7,0.9 -0.8,0.1 -1.7,0.1 -2.6,0 -0.8,0 -1.6,-0.1 -2.4,0 -2.3,0.1 -4.2,1 -5.2,2.5 -0.2,0.2 -0.3,0.4 -0.4,0.7 -0.2,0.3 -0.3,0.6 -0.5,0.7 -0.4,0.3 -1,0.4 -1.8,0.5 -0.1,0 -0.2,0 -0.3,0.1 0.4,-0.2 0.8,-0.5 1.2,-0.7 1.8,-1.2 3.1,-2.9 4,-4.9 0.3,0.4 0.8,0.9 1.5,1 0.8,0.1 1.4,-0.2 1.8,-0.4 l 6.3,-3.2 c 1.6,-0.8 3.6,-1.8 4.8,-3.7 0.2,-0.2 0.3,-0.5 0.4,-0.7 0.2,-0.4 0.5,-0.8 0.8,-1.1 0.5,-0.4 1.4,-0.5 2.4,-0.6 1.3,-0.1 2.8,-0.2 3.8,-1.4 0.6,-0.6 0.9,-1.4 1.1,-2.1 0.1,-0.4 0.3,-0.8 0.5,-1.1 0.4,-0.7 1.2,-1.1 2.1,-1.5 0.6,-0.3 1.2,-0.6 1.8,-1.1 0.8,-0.6 1.4,-1.3 1.9,-2 0.6,-0.7 1.1,-1.3 1.7,-1.7 1.1,-0.8 2.7,-0.9 3.9,-0.3 1.2,0.6 2.1,1.9 2.1,3.3 0.1,1.9 -1.2,3.7 -2.4,5.1 -2,2.4 -4,4.1 -6.1,5.1 -0.9,0.5 -1.9,0.9 -2.9,1.3 -2,0.8 -4.2,1.6 -5.8,3.3 l -0.3,0.3 c -0.3,0.3 -0.5,0.5 -0.8,0.6 -0.2,0 -0.7,0 -1.2,0 z m -47.3,16.7 0,0 0,0 0,0 z"
       id="path7612" />
    <path
       inkscape:connector-curvature="0"
       class="st1"
       d="m -406.28791,73.906253 c -1.9,-1 -4.3,-0.8 -6.1,0.4 -0.9,0.6 -1.5,1.4 -2.2,2.2 -0.5,0.6 -1,1.2 -1.6,1.6 -0.4,0.3 -0.9,0.6 -1.5,0.9 -1.1,0.6 -2.2,1.1 -2.9,2.3 -0.3,0.5 -0.5,1 -0.7,1.6 -0.2,0.5 -0.3,1 -0.6,1.3 -0.5,0.5 -1.4,0.6 -2.4,0.7 -1.2,0.1 -2.6,0.2 -3.6,1.1 -0.6,0.5 -0.9,1.1 -1.3,1.7 -0.1,0.2 -0.2,0.4 -0.3,0.6 -0.9,1.3 -2.5,2.2 -4,2.9 l -6.3,3.2 c -0.1,0 -0.3,0.2 -0.4,0.2 -0.1,0 -0.3,-0.3 -0.4,-0.5 -0.4,-0.5 -1,-1.3 -2,-1.3 l -0.9,0 -0.2,0.9 c -0.6,2.1 -1.9,4 -3.7,5.3 -1.5,1.099997 -3.3,1.699997 -5.1,2.299997 l -24.9,8.8 c -0.6,0.2 -0.9,0.8 -0.7,1.4 0.2,0.6 0.8,0.9 1.4,0.7 l 3.4,-1.2 c 0,0.1 0,0.2 0,0.2 0.1,0.6 0.7,0.9 1.3,0.8 l 0,0 c 6.6,-1.5 13.4,-3.1 19.7,-6.2 0.3,-0.1 0.5,-0.3 0.8,-0.4 l 0.1,-0.1 c 1.4,-0.7 2.7,-1.4 4.1,-1.6 0.2,0 0.4,-0.1 0.6,-0.1 0.9,-0.1 2.1,-0.3 3,-1.1 0.4,-0.4 0.7,-0.8 0.9,-1.3 0.1,-0.2 0.2,-0.3 0.3,-0.5 0.9,-1.199997 2.6,-1.499997 3.6,-1.499997 0.7,0 1.4,0 2.2,0 0.9,0 1.9,0.1 2.9,0 1.5,-0.2 2.8,-0.6 4.2,-1 1.5,-0.5 3,-1 4.5,-1 0.1,0 0.2,0 0.4,0 0.7,0 1.5,0 2.3,-0.3 0.6,-0.3 1,-0.7 1.4,-1.1 l 0.2,-0.2 c 1.3,-1.3 3.2,-2 5.1,-2.8 1,-0.4 2.1,-0.8 3.1,-1.3 2.3,-1.2 4.5,-3.1 6.8,-5.7 1.4,-1.7 3.1,-4 2.9,-6.6 -0.2,-2.3 -1.5,-4.4 -3.4,-5.3 z m -47.3,29.999997 c -3.7,1.8 -7.7,3.1 -11.7,4.1 l 11.7,-4.1 z m 28.9,-8.999997 c -0.2,0 -0.3,0 -0.5,0 -1.8,0 -3.5,0.5 -5.2,1.1 -1.3,0.4 -2.5,0.8 -3.7,0.9 -0.8,0.1 -1.7,0.1 -2.6,0 -0.8,0 -1.6,-0.1 -2.4,0 -2.3,0.1 -4.2,1 -5.2,2.5 -0.2,0.2 -0.3,0.4 -0.4,0.699997 -0.2,0.3 -0.3,0.6 -0.5,0.7 -0.4,0.3 -1,0.4 -1.8,0.5 -0.1,0 -0.2,0 -0.3,0.1 0.4,-0.2 0.8,-0.5 1.2,-0.7 1.8,-1.199997 3.1,-2.899997 4,-4.899997 0.3,0.4 0.8,0.9 1.5,1 0.8,0.1 1.4,-0.2 1.8,-0.4 l 6.3,-3.2 c 1.6,-0.8 3.6,-1.8 4.8,-3.7 0.2,-0.2 0.3,-0.5 0.4,-0.7 0.2,-0.4 0.5,-0.8 0.8,-1.1 0.5,-0.4 1.4,-0.5 2.4,-0.6 1.3,-0.1 2.8,-0.2 3.8,-1.4 0.6,-0.6 0.9,-1.4 1.1,-2.1 0.1,-0.4 0.3,-0.8 0.5,-1.1 0.4,-0.7 1.2,-1.1 2.1,-1.5 0.6,-0.3 1.2,-0.6 1.8,-1.1 0.8,-0.6 1.4,-1.3 1.9,-2 0.6,-0.7 1.1,-1.3 1.7,-1.7 1.1,-0.8 2.7,-0.9 3.9,-0.3 1.2,0.6 2.1,1.9 2.1,3.3 0.1,1.9 -1.2,3.7 -2.4,5.1 -2,2.4 -4,4.1 -6.1,5.1 -0.9,0.5 -1.9,0.9 -2.9,1.3 -2,0.8 -4.2,1.6 -5.8,3.3 l -0.3,0.3 c -0.3,0.3 -0.5,0.5 -0.8,0.6 -0.2,0 -0.7,0 -1.2,0 z m -47.3,16.699997 0,0 0,0 0,0 z"
       id="path7614" />
    <path
       inkscape:connector-curvature="0"
       class="st1"
       d="m -494.28791,76.506253 c -1.2,0 -2.4,0 -3.5,0 -0.3,-0.1 -0.6,-0.2 -0.9,-0.1 l -0.6,0.2 c -6.2,0.3 -12.4,1.3 -18.4,3 l -0.4,0.1 c -2.6,0.7 -5.4,1.5 -7.7,0.6 -1.4,-0.6 -3.1,-1.1 -4.3,-0.5 -0.6,0.3 -1,0.7 -1.2,1.4 -0.2,0.5 -0.1,1.1 -0.1,1.4 l 0,0.2 c 0.1,1 -0.4,2 -1.4,2.6 -1,0.6 -2.1,0.9 -2.9,0.5 -0.5,-0.2 -1,-0.6 -1.5,-0.9 -1.3,-0.9 -3,-2 -4.8,-1.1 -2,1.1 -1.8,3.3 -1.6,5 0.1,0.8 0.1,1.6 0,2.2 -0.4,2.5 -3.9,3.3 -6.2,2.9 -1.1,-0.2 -2.2,-0.5 -3.3,-0.8 -2,-0.5 -4,-1.1 -6.2,-0.9 l -3.3,0.3 2.8,1.8 c 0,0 0.1,0.1 0.1,0.3 0,0.4 -0.4,0.9 -0.7,1 -0.8,0.3 -1.7,0.2 -2.7,0.1 -0.3,0 -0.6,-0.1 -0.9,-0.1 -3.9,-0.4 -7.5,1.2 -9.3,4 -0.5,0.799997 -0.9,1.699997 -1.2,2.499997 -0.5,1.3 -1,2.6 -2,3.2 -0.6,0.4 -1.4,0.5 -2.3,0.7 -0.4,0.1 -0.9,0.2 -1.3,0.3 -1.6,0.4 -3.5,1.6 -3.6,3.6 0,0.5 0.1,0.9 0.1,1.3 0,0.2 0.1,0.4 0.1,0.6 0,0.3 -0.1,0.7 -0.4,1 -0.3,0.3 -0.6,0.4 -1,0.4 l -1.4,-0.1 0.2,1.4 c 0.5,3.3 1.2,6.5 2,9.7 l 0.5,2 1.4,-1.5 c 6.1,-6.6 13.8,-11.8 21.2,-16.7 l 12.2,-8.199997 c 3.7,-2.5 7.6,-5.1 11.6,-7.2 3.7,-1.9 7.6,-3.5 11.2,-4.9 8.8,-3.3 17.8,-6.3 26.8,-8.9 1.5,-0.1 3.1,-0.1 4.6,-0.1 0.6,0 1.1,-0.5 1.1,-1.1 0.3,-0.7 -0.2,-1.2 -0.8,-1.2 z m -47.1,15 c 0.1,-0.9 0.1,-1.8 0,-2.8 -0.2,-1.7 -0.2,-2.5 0.5,-2.9 0.1,-0.1 0.3,-0.1 0.4,-0.1 0.5,0 1.3,0.5 2.2,1.1 0.6,0.4 1.2,0.8 1.9,1.1 1.6,0.7 3.6,0.4 5.1,-0.7 1.6,-1.1 2.4,-2.9 2.3,-4.6 0,-0.1 0,-0.2 0,-0.3 0,-0.2 -0.1,-0.4 0,-0.5 0.2,-0.1 0.8,-0.1 2.6,0.6 3,1.1 6.2,0.3 9.1,-0.5 l 0.4,-0.1 c 1.8,-0.5 3.5,-0.9 5.3,-1.3 -5,1.6 -9.9,3.4 -14.8,5.2 -3.7,1.4 -7.7,3 -11.5,5 -1.2,0.6 -2.4,1.3 -3.6,2 0,-0.5 0.1,-0.8 0.1,-1.2 z m -39.9,19.199997 c -0.1,-0.3 -0.1,-0.5 -0.1,-0.7 0,-0.7 1,-1.3 1.9,-1.5 0.4,-0.1 0.7,-0.2 1.1,-0.2 1,-0.2 2.1,-0.4 3.1,-1 1.6,-1 2.3,-2.6 2.9,-4.2 0.3,-0.8 0.6,-1.5 1,-2.2 1.5,-2.399997 4.7,-3.199997 7.2,-2.999997 0.3,0 0.5,0.1 0.8,0.1 1.3,0.2 2.6,0.3 3.9,-0.2 1.1,-0.5 2,-1.7 2.1,-2.9 0,-0.1 0,-0.2 0,-0.3 1.2,0.1 2.5,0.5 3.8,0.8 1.1,0.3 2.3,0.6 3.5,0.8 0.9,0.1 1.7,0.1 2.6,0 -0.8,0.5 -1.6,1.1 -2.4,1.6 l -12.2,8.199997 c -6.9,4.7 -14.1,9.5 -20.2,15.6 -0.5,-2.2 -0.9,-4.3 -1.3,-6.5 0.5,-0.2 0.9,-0.5 1.3,-0.8 0.7,-0.7 1.1,-1.7 1.1,-2.7 0.1,-0.3 0,-0.6 -0.1,-0.9 z"
       id="path7616" />
  </g>
</svg>
