<?xml version="1.0" encoding="UTF-8" standalone="no"?>
<!-- Created with Inkscape (http://www.inkscape.org/) -->

<svg
   xmlns:dc="http://purl.org/dc/elements/1.1/"
   xmlns:cc="http://creativecommons.org/ns#"
   xmlns:rdf="http://www.w3.org/1999/02/22-rdf-syntax-ns#"
   xmlns:svg="http://www.w3.org/2000/svg"
   xmlns="http://www.w3.org/2000/svg"
   xmlns:sodipodi="http://sodipodi.sourceforge.net/DTD/sodipodi-0.dtd"
   xmlns:inkscape="http://www.inkscape.org/namespaces/inkscape"
   width="113.90489mm"
   height="113.84844mm"
   viewBox="0 0 403.60002 403.39999"
   id="svg13041"
   version="1.1"
   inkscape:version="0.91 r13725">
  <defs
     id="defs13043" />
  <sodipodi:namedview
     id="base"
     pagecolor="#ffffff"
     bordercolor="#666666"
     borderopacity="1.0"
     inkscape:pageopacity="0.0"
     inkscape:pageshadow="2"
     inkscape:zoom="0.49497475"
     inkscape:cx="74.88461"
     inkscape:cy="284.76202"
     inkscape:document-units="px"
     inkscape:current-layer="layer1"
     showgrid="false"
     inkscape:window-width="1440"
     inkscape:window-height="855"
     inkscape:window-x="121"
     inkscape:window-y="94"
     inkscape:window-maximized="0"
     fit-margin-top="0"
     fit-margin-left="0"
     fit-margin-right="0"
     fit-margin-bottom="0" />
  <metadata
     id="metadata13046">
    <rdf:RDF>
      <cc:Work
         rdf:about="">
        <dc:format>image/svg+xml</dc:format>
        <dc:type
           rdf:resource="http://purl.org/dc/dcmitype/StillImage" />
        <dc:title></dc:title>
      </cc:Work>
    </rdf:RDF>
  </metadata>
  <g
     inkscape:label="Layer 1"
     inkscape:groupmode="layer"
     id="layer1"
     transform="translate(-192.0025,-209.2654)">
    <rect
       x="192.10237"
       y="209.26543"
       class="st0"
       width="403.29999"
       height="403.29999"
       id="rect5885"
       style="fill:none" />
    <g
       id="g9369"
       transform="translate(7141.0025,2682.7654)">
      <g
         id="g9371">
        <path
           class="st1"
           d="m -6675.7,-2344.4 c -0.8,0 -1.6,-0.1 -2.4,-0.1 -7.5,-0.8 -14.8,-3.4 -21.2,-7.5 -2.1,-1.4 -4.1,-3 -6.1,-4.5 -5.5,-4.3 -10.7,-8.3 -17.2,-8.7 -7.1,-0.4 -13.1,3.7 -19.4,8 -2.8,1.9 -5.7,3.9 -8.8,5.5 -7.3,3.8 -15.1,4.6 -21.4,2.3 -3.1,-1.1 -5.8,-3 -8.5,-4.8 -3.6,-2.4 -6.9,-4.7 -10.9,-5.2 -6.1,-0.8 -11.5,2.6 -17.2,6.2 -3.8,2.4 -7.8,5 -12.1,6.2 -8.5,2.5 -18.5,-0.6 -24.1,-7.5 -0.4,-0.5 -0.3,-1.2 0.2,-1.6 0.5,-0.4 1.2,-0.3 1.6,0.2 5.1,6.2 14,9 21.7,6.7 4,-1.2 7.8,-3.6 11.5,-6 5.8,-3.7 11.8,-7.5 18.7,-6.6 4.5,0.6 8.2,3.1 11.9,5.6 2.5,1.7 5.2,3.5 8,4.5 5.7,2.1 12.8,1.3 19.5,-2.1 2.9,-1.5 5.8,-3.5 8.5,-5.4 6.4,-4.4 13,-8.9 20.8,-8.4 7.1,0.4 12.9,4.9 18.4,9.2 1.9,1.5 4,3.1 6,4.4 6,4 13,6.5 20.1,7.2 1.3,0.1 2.8,0.2 4.2,-0.1 2.6,-0.5 4.7,-2.3 6.9,-4.1 l 1.1,-1 c 4.4,-3.8 8.9,-7.7 14.5,-9.3 0.6,-0.2 1.2,0.2 1.4,0.8 0.2,0.6 -0.2,1.2 -0.8,1.4 -5.2,1.5 -9.5,5.2 -13.7,8.8 l -1.1,1 c -2.3,2 -4.9,4 -8,4.6 -0.5,0.2 -1.3,0.3 -2.1,0.3 z"
           id="path9373"
           inkscape:connector-curvature="0"
           style="fill:#031c72" />
      </g>
      <path
         class="st1"
         d="m -6642.5,-2359.1 c 5.2,1.5 9.5,5.2 13.7,8.8 l 1.1,1 c 2.3,2 4.9,4 8,4.6 0.8,0.2 1.7,0.2 2.5,0.2 0.8,0 1.6,-0.1 2.4,-0.1 7.5,-0.8 14.8,-3.4 21.2,-7.5 2.1,-1.4 4.1,-3 6.1,-4.5 5.5,-4.3 10.7,-8.3 17.2,-8.7 7.1,-0.4 13.1,3.7 19.4,8 1.8,1.2 3.6,2.4 5.4,3.6 l 0,-2.7 c -1.4,-0.9 -2.8,-1.9 -4.2,-2.8 -6.4,-4.4 -13,-8.9 -20.8,-8.4 -7.1,0.4 -12.9,4.9 -18.4,9.2 -1.9,1.5 -4,3.1 -6,4.4 -6,4 -13,6.5 -20.1,7.2 -1.3,0.1 -2.8,0.2 -4.2,-0.1 -2.6,-0.5 -4.7,-2.3 -6.9,-4.1 l -1.1,-1 c -4.4,-3.8 -8.9,-7.7 -14.5,-9.3 -0.6,-0.2 -1.2,0.2 -1.4,0.8 -0.4,0.6 0,1.2 0.6,1.4 z"
         id="path9375"
         inkscape:connector-curvature="0"
         style="fill:#031c72" />
      <path
         class="st1"
         d="m -6853.3,-2355.9 c -5.1,6.2 -14,9 -21.7,6.7 -4,-1.2 -7.8,-3.6 -11.5,-6 -5.8,-3.7 -11.8,-7.5 -18.7,-6.6 -4.5,0.6 -8.2,3.1 -11.9,5.6 -2.5,1.7 -5.2,3.5 -8,4.5 -5.7,2.1 -12.8,1.3 -19.5,-2.1 -1.5,-0.8 -2.9,-1.6 -4.4,-2.6 l 0,2.7 c 1.1,0.7 2.2,1.3 3.3,1.9 7.3,3.8 15.1,4.6 21.4,2.3 3.1,-1.1 5.8,-3 8.5,-4.8 3.6,-2.4 6.9,-4.7 10.9,-5.2 6.1,-0.8 11.5,2.6 17.2,6.2 3.8,2.4 7.8,5 12.1,6.2 8.5,2.5 18.5,-0.6 24.1,-7.5 0.4,-0.5 0.3,-1.2 -0.2,-1.6 -0.4,-0.3 -1.2,-0.2 -1.6,0.3 z"
         id="path9377"
         inkscape:connector-curvature="0"
         style="fill:#031c72" />
    </g>
    <g
       id="g9379"
       transform="translate(7141.0025,2682.7654)">
      <g
         id="g9381">
        <path
           class="st1"
           d="m -6675.7,-2331.4 c -0.8,0 -1.6,-0.1 -2.4,-0.1 -7.5,-0.8 -14.8,-3.4 -21.2,-7.5 -2.1,-1.4 -4.1,-3 -6.1,-4.5 -5.5,-4.3 -10.7,-8.3 -17.2,-8.7 -7.1,-0.4 -13.1,3.7 -19.4,8 -2.8,1.9 -5.7,3.9 -8.8,5.5 -7.3,3.8 -15.1,4.6 -21.4,2.3 -3.1,-1.1 -5.8,-3 -8.5,-4.8 -3.6,-2.4 -6.9,-4.7 -10.9,-5.2 -6.1,-0.8 -11.5,2.6 -17.2,6.2 -3.8,2.4 -7.8,5 -12.1,6.2 -8.5,2.5 -18.5,-0.6 -24.1,-7.5 -0.4,-0.5 -0.3,-1.2 0.2,-1.6 0.5,-0.4 1.2,-0.3 1.6,0.2 5.1,6.2 14,9 21.7,6.7 4,-1.2 7.8,-3.6 11.5,-6 5.8,-3.7 11.8,-7.5 18.7,-6.6 4.5,0.6 8.2,3.1 11.9,5.6 2.5,1.7 5.2,3.5 8,4.5 5.7,2.1 12.8,1.3 19.5,-2.1 2.9,-1.5 5.8,-3.5 8.5,-5.4 6.4,-4.4 13,-8.9 20.8,-8.4 7.1,0.4 12.9,4.9 18.4,9.2 1.9,1.5 4,3.1 6,4.4 6,4 13,6.5 20.1,7.2 1.3,0.1 2.8,0.2 4.2,-0.1 2.6,-0.5 4.7,-2.3 6.9,-4.1 l 1.1,-1 c 4.4,-3.8 8.9,-7.7 14.5,-9.3 0.6,-0.2 1.2,0.2 1.4,0.8 0.2,0.6 -0.2,1.2 -0.8,1.4 -5.2,1.5 -9.5,5.2 -13.7,8.8 l -1.1,1 c -2.3,2 -4.9,4 -8,4.6 -0.5,0.2 -1.3,0.3 -2.1,0.3 z"
           id="path9383"
           inkscape:connector-curvature="0"
           style="fill:#031c72" />
      </g>
      <path
         class="st1"
         d="m -6642.5,-2346.1 c 5.2,1.5 9.5,5.2 13.7,8.8 l 1.1,1 c 2.3,2 4.9,4 8,4.6 0.8,0.2 1.7,0.2 2.5,0.2 0.8,0 1.6,-0.1 2.4,-0.1 7.5,-0.8 14.8,-3.4 21.2,-7.5 2.1,-1.4 4.1,-3 6.1,-4.5 5.5,-4.3 10.7,-8.3 17.2,-8.7 7.1,-0.4 13.1,3.7 19.4,8 1.8,1.2 3.6,2.4 5.4,3.6 l 0,-2.7 c -1.4,-0.9 -2.8,-1.9 -4.2,-2.8 -6.4,-4.4 -13,-8.9 -20.8,-8.4 -7.1,0.4 -12.9,4.9 -18.4,9.2 -1.9,1.5 -4,3.1 -6,4.4 -6,4 -13,6.5 -20.1,7.2 -1.3,0.1 -2.8,0.2 -4.2,-0.1 -2.6,-0.5 -4.7,-2.3 -6.9,-4.1 l -1.1,-1 c -4.4,-3.8 -8.9,-7.7 -14.5,-9.3 -0.6,-0.2 -1.2,0.2 -1.4,0.8 -0.4,0.6 0,1.2 0.6,1.4 z"
         id="path9385"
         inkscape:connector-curvature="0"
         style="fill:#031c72" />
      <path
         class="st1"
         d="m -6853.3,-2342.9 c -5.1,6.2 -14,9 -21.7,6.7 -4,-1.2 -7.8,-3.6 -11.5,-6 -5.8,-3.7 -11.8,-7.5 -18.7,-6.6 -4.5,0.6 -8.2,3.1 -11.9,5.6 -2.5,1.7 -5.2,3.5 -8,4.5 -5.7,2.1 -12.8,1.3 -19.5,-2.1 -1.5,-0.8 -2.9,-1.6 -4.4,-2.6 l 0,2.7 c 1.1,0.7 2.2,1.3 3.3,1.9 7.3,3.8 15.1,4.6 21.4,2.3 3.1,-1.1 5.8,-3 8.5,-4.8 3.6,-2.4 6.9,-4.7 10.9,-5.2 6.1,-0.8 11.5,2.6 17.2,6.2 3.8,2.4 7.8,5 12.1,6.2 8.5,2.5 18.5,-0.6 24.1,-7.5 0.4,-0.5 0.3,-1.2 -0.2,-1.6 -0.4,-0.3 -1.2,-0.2 -1.6,0.3 z"
         id="path9387"
         inkscape:connector-curvature="0"
         style="fill:#031c72" />
    </g>
    <g
       id="g9389"
       transform="translate(7141.0025,2682.7654)">
      <g
         id="g9391">
        <path
           class="st1"
           d="m -6675.7,-2318.4 c -0.8,0 -1.6,-0.1 -2.4,-0.1 -7.5,-0.8 -14.8,-3.4 -21.2,-7.5 -2.1,-1.4 -4.1,-3 -6.1,-4.5 -5.5,-4.3 -10.7,-8.3 -17.2,-8.7 -7.1,-0.4 -13.1,3.7 -19.4,8 -2.8,1.9 -5.7,3.9 -8.8,5.5 -7.3,3.8 -15.1,4.6 -21.4,2.3 -3.1,-1.1 -5.8,-3 -8.5,-4.8 -3.6,-2.4 -6.9,-4.7 -10.9,-5.2 -6.1,-0.8 -11.5,2.6 -17.2,6.2 -3.8,2.4 -7.8,5 -12.1,6.2 -8.5,2.5 -18.5,-0.6 -24.1,-7.5 -0.4,-0.5 -0.3,-1.2 0.2,-1.6 0.5,-0.4 1.2,-0.3 1.6,0.2 5.1,6.2 14,9 21.7,6.7 4,-1.2 7.8,-3.6 11.5,-6 5.8,-3.7 11.8,-7.5 18.7,-6.6 4.5,0.6 8.2,3.1 11.9,5.6 2.5,1.7 5.2,3.5 8,4.5 5.7,2.1 12.8,1.3 19.5,-2.1 2.9,-1.5 5.8,-3.5 8.5,-5.4 6.4,-4.4 13,-8.9 20.8,-8.4 7.1,0.4 12.9,4.9 18.4,9.2 1.9,1.5 4,3.1 6,4.4 6,4 13,6.5 20.1,7.2 1.3,0.1 2.8,0.2 4.2,-0.1 2.6,-0.5 4.7,-2.3 6.9,-4.1 l 1.1,-1 c 4.4,-3.8 8.9,-7.7 14.5,-9.3 0.6,-0.2 1.2,0.2 1.4,0.8 0.2,0.6 -0.2,1.2 -0.8,1.4 -5.2,1.5 -9.5,5.2 -13.7,8.8 l -1.1,1 c -2.3,2 -4.9,4 -8,4.6 -0.5,0.2 -1.3,0.3 -2.1,0.3 z"
           id="path9393"
           inkscape:connector-curvature="0"
           style="fill:#031c72" />
      </g>
      <path
         class="st1"
         d="m -6642.5,-2333.1 c 5.2,1.5 9.5,5.2 13.7,8.8 l 1.1,1 c 2.3,2 4.9,4 8,4.6 0.8,0.2 1.7,0.2 2.5,0.2 0.8,0 1.6,-0.1 2.4,-0.1 7.5,-0.8 14.8,-3.4 21.2,-7.5 2.1,-1.4 4.1,-3 6.1,-4.5 5.5,-4.3 10.7,-8.3 17.2,-8.7 7.1,-0.4 13.1,3.7 19.4,8 1.8,1.2 3.6,2.4 5.4,3.6 l 0,-2.7 c -1.4,-0.9 -2.8,-1.9 -4.2,-2.8 -6.4,-4.4 -13,-8.9 -20.8,-8.4 -7.1,0.4 -12.9,4.9 -18.4,9.2 -1.9,1.5 -4,3.1 -6,4.4 -6,4 -13,6.5 -20.1,7.2 -1.3,0.1 -2.8,0.2 -4.2,-0.1 -2.6,-0.5 -4.7,-2.3 -6.9,-4.1 l -1.1,-1 c -4.4,-3.8 -8.9,-7.7 -14.5,-9.3 -0.6,-0.2 -1.2,0.2 -1.4,0.8 -0.4,0.6 0,1.2 0.6,1.4 z"
         id="path9395"
         inkscape:connector-curvature="0"
         style="fill:#031c72" />
      <path
         class="st1"
         d="m -6853.3,-2329.9 c -5.1,6.2 -14,9 -21.7,6.7 -4,-1.2 -7.8,-3.6 -11.5,-6 -5.8,-3.7 -11.8,-7.5 -18.7,-6.6 -4.5,0.6 -8.2,3.1 -11.9,5.6 -2.5,1.7 -5.2,3.5 -8,4.5 -5.7,2.1 -12.8,1.3 -19.5,-2.1 -1.5,-0.8 -2.9,-1.6 -4.4,-2.6 l 0,2.7 c 1.1,0.7 2.2,1.3 3.3,1.9 7.3,3.8 15.1,4.6 21.4,2.3 3.1,-1.1 5.8,-3 8.5,-4.8 3.6,-2.4 6.9,-4.7 10.9,-5.2 6.1,-0.8 11.5,2.6 17.2,6.2 3.8,2.4 7.8,5 12.1,6.2 8.5,2.5 18.5,-0.6 24.1,-7.5 0.4,-0.5 0.3,-1.2 -0.2,-1.6 -0.4,-0.3 -1.2,-0.2 -1.6,0.3 z"
         id="path9397"
         inkscape:connector-curvature="0"
         style="fill:#031c72" />
    </g>
    <g
       id="g9399"
       transform="translate(7141.0025,2682.7654)">
      <g
         id="g9401">
        <path
           class="st1"
           d="m -6675.7,-2292.4 c -0.8,0 -1.6,-0.1 -2.4,-0.1 -7.5,-0.8 -14.8,-3.4 -21.2,-7.5 -2.1,-1.4 -4.1,-3 -6.1,-4.5 -5.5,-4.3 -10.7,-8.3 -17.2,-8.7 -7.1,-0.4 -13.1,3.7 -19.4,8 -2.8,1.9 -5.7,3.9 -8.8,5.5 -7.3,3.8 -15.1,4.6 -21.4,2.3 -3.1,-1.1 -5.8,-3 -8.5,-4.8 -3.6,-2.4 -6.9,-4.7 -10.9,-5.2 -6.1,-0.8 -11.5,2.6 -17.2,6.2 -3.8,2.4 -7.8,5 -12.1,6.2 -8.5,2.5 -18.5,-0.6 -24.1,-7.5 -0.4,-0.5 -0.3,-1.2 0.2,-1.6 0.5,-0.4 1.2,-0.3 1.6,0.2 5.1,6.2 14,9 21.7,6.7 4,-1.2 7.8,-3.6 11.5,-6 5.8,-3.7 11.8,-7.5 18.7,-6.6 4.5,0.6 8.2,3.1 11.9,5.6 2.5,1.7 5.2,3.5 8,4.5 5.7,2.1 12.8,1.3 19.5,-2.1 2.9,-1.5 5.8,-3.5 8.5,-5.4 6.4,-4.4 13,-8.9 20.8,-8.4 7.1,0.4 12.9,4.9 18.4,9.2 1.9,1.5 4,3.1 6,4.4 6,4 13,6.5 20.1,7.2 1.3,0.1 2.8,0.2 4.2,-0.1 2.6,-0.5 4.7,-2.3 6.9,-4.1 l 1.1,-1 c 4.4,-3.8 8.9,-7.7 14.5,-9.3 0.6,-0.2 1.2,0.2 1.4,0.8 0.2,0.6 -0.2,1.2 -0.8,1.4 -5.2,1.5 -9.5,5.2 -13.7,8.8 l -1.1,1 c -2.3,2 -4.9,4 -8,4.6 -0.5,0.3 -1.3,0.3 -2.1,0.3 z"
           id="path9403"
           inkscape:connector-curvature="0"
           style="fill:#031c72" />
      </g>
      <path
         class="st1"
         d="m -6545.6,-2304.3 c -1.4,-0.9 -2.8,-1.9 -4.2,-2.8 -6.4,-4.4 -13,-8.9 -20.8,-8.4 -7.1,0.4 -12.9,4.9 -18.4,9.2 -1.9,1.5 -4,3.1 -6,4.4 -6,4 -13,6.5 -20.1,7.2 -1.3,0.1 -2.8,0.2 -4.2,-0.1 -2.6,-0.5 -4.7,-2.3 -6.9,-4.1 l -1.1,-1 c -4.4,-3.8 -8.9,-7.7 -14.5,-9.3 -0.6,-0.2 -1.2,0.2 -1.4,0.8 -0.2,0.6 0.2,1.2 0.8,1.4 5.2,1.5 9.5,5.2 13.7,8.8 l 1.1,1 c 2.3,2 4.9,4 8,4.6 0.8,0.2 1.7,0.2 2.5,0.2 0.8,0 1.6,-0.1 2.4,-0.1 7.5,-0.8 14.8,-3.4 21.2,-7.5 2.1,-1.4 4.1,-3 6.1,-4.5 5.5,-4.3 10.7,-8.3 17.2,-8.7 7.1,-0.4 13.1,3.7 19.4,8 1.8,1.2 3.6,2.4 5.4,3.6 l 0,-2.7 z"
         id="path9405"
         inkscape:connector-curvature="0"
         style="fill:#031c72" />
      <path
         class="st1"
         d="m -6853.3,-2303.9 c -5.1,6.2 -14,9 -21.7,6.7 -4,-1.2 -7.8,-3.6 -11.5,-6 -5.8,-3.7 -11.8,-7.5 -18.7,-6.6 -4.5,0.6 -8.2,3.1 -11.9,5.6 -2.5,1.7 -5.2,3.5 -8,4.5 -5.7,2.1 -12.8,1.3 -19.5,-2.1 -1.5,-0.8 -2.9,-1.6 -4.4,-2.6 l 0,2.7 c 1.1,0.7 2.2,1.3 3.3,1.9 7.3,3.8 15.1,4.6 21.4,2.3 3.1,-1.1 5.8,-3 8.5,-4.8 3.6,-2.4 6.9,-4.7 10.9,-5.2 6.1,-0.8 11.5,2.6 17.2,6.2 3.8,2.4 7.8,5 12.1,6.2 8.5,2.5 18.5,-0.6 24.1,-7.5 0.4,-0.5 0.3,-1.2 -0.2,-1.6 -0.4,-0.2 -1.2,-0.2 -1.6,0.3 z"
         id="path9407"
         inkscape:connector-curvature="0"
         style="fill:#031c72" />
    </g>
    <g
       id="g9409"
       transform="translate(7141.0025,2682.7654)">
      <g
         id="g9411">
        <path
           class="st1"
           d="m -6675.7,-2357.4 c -0.8,0 -1.6,-0.1 -2.4,-0.1 -7.5,-0.8 -14.8,-3.4 -21.2,-7.5 -2.1,-1.4 -4.1,-3 -6.1,-4.5 -5.5,-4.3 -10.7,-8.3 -17.2,-8.7 -7.1,-0.4 -13.1,3.7 -19.4,8 -2.8,1.9 -5.7,3.9 -8.8,5.5 -7.3,3.8 -15.1,4.6 -21.4,2.3 -3.1,-1.1 -5.8,-3 -8.5,-4.8 -3.6,-2.4 -6.9,-4.7 -10.9,-5.2 -6.1,-0.8 -11.5,2.6 -17.2,6.2 -3.8,2.4 -7.8,5 -12.1,6.2 -8.5,2.5 -18.5,-0.6 -24.1,-7.5 -0.4,-0.5 -0.3,-1.2 0.2,-1.6 0.5,-0.4 1.2,-0.3 1.6,0.2 5.1,6.2 14,9 21.7,6.7 4,-1.2 7.8,-3.6 11.5,-6 5.8,-3.7 11.8,-7.5 18.7,-6.6 4.5,0.6 8.2,3.1 11.9,5.6 2.5,1.7 5.2,3.5 8,4.5 5.7,2.1 12.8,1.3 19.5,-2.1 2.9,-1.5 5.8,-3.5 8.5,-5.4 6.4,-4.4 13,-8.9 20.8,-8.4 7.1,0.4 12.9,4.9 18.4,9.2 1.9,1.5 4,3.1 6,4.4 6,4 13,6.5 20.1,7.2 1.3,0.1 2.8,0.2 4.2,-0.1 2.6,-0.5 4.7,-2.3 6.9,-4.1 l 1.1,-1 c 4.4,-3.8 8.9,-7.7 14.5,-9.3 0.6,-0.2 1.2,0.2 1.4,0.8 0.2,0.6 -0.2,1.2 -0.8,1.4 -5.2,1.5 -9.5,5.2 -13.7,8.8 l -1.1,1 c -2.3,2 -4.9,4 -8,4.6 -0.5,0.2 -1.3,0.3 -2.1,0.3 z"
           id="path9413"
           inkscape:connector-curvature="0"
           style="fill:#031c72" />
      </g>
      <path
         class="st1"
         d="m -6642.5,-2372.1 c 5.2,1.5 9.5,5.2 13.7,8.8 l 1.1,1 c 2.3,2 4.9,4 8,4.6 0.8,0.2 1.7,0.2 2.5,0.2 0.8,0 1.6,-0.1 2.4,-0.1 7.5,-0.8 14.8,-3.4 21.2,-7.5 2.1,-1.4 4.1,-3 6.1,-4.5 5.5,-4.3 10.7,-8.3 17.2,-8.7 7.1,-0.4 13.1,3.7 19.4,8 1.8,1.2 3.6,2.4 5.4,3.6 l 0,-2.7 c -1.4,-0.9 -2.8,-1.9 -4.2,-2.8 -6.4,-4.4 -13,-8.9 -20.8,-8.4 -7.1,0.4 -12.9,4.9 -18.4,9.2 -1.9,1.5 -4,3.1 -6,4.4 -6,4 -13,6.5 -20.1,7.2 -1.3,0.1 -2.8,0.2 -4.2,-0.1 -2.6,-0.5 -4.7,-2.3 -6.9,-4.1 l -1.1,-1 c -4.4,-3.8 -8.9,-7.7 -14.5,-9.3 -0.6,-0.2 -1.2,0.2 -1.4,0.8 -0.4,0.6 0,1.2 0.6,1.4 z"
         id="path9415"
         inkscape:connector-curvature="0"
         style="fill:#031c72" />
      <path
         class="st1"
         d="m -6853.3,-2368.9 c -5.1,6.2 -14,9 -21.7,6.7 -4,-1.2 -7.8,-3.6 -11.5,-6 -5.8,-3.7 -11.8,-7.5 -18.7,-6.6 -4.5,0.6 -8.2,3.1 -11.9,5.6 -2.5,1.7 -5.2,3.5 -8,4.5 -5.7,2.1 -12.8,1.3 -19.5,-2.1 -1.5,-0.8 -2.9,-1.6 -4.4,-2.6 l 0,2.7 c 1.1,0.7 2.2,1.3 3.3,1.9 7.3,3.8 15.1,4.6 21.4,2.3 3.1,-1.1 5.8,-3 8.5,-4.8 3.6,-2.4 6.9,-4.7 10.9,-5.2 6.1,-0.8 11.5,2.6 17.2,6.2 3.8,2.4 7.8,5 12.1,6.2 8.5,2.5 18.5,-0.6 24.1,-7.5 0.4,-0.5 0.3,-1.2 -0.2,-1.6 -0.4,-0.3 -1.2,-0.2 -1.6,0.3 z"
         id="path9417"
         inkscape:connector-curvature="0"
         style="fill:#031c72" />
    </g>
    <g
       id="g9419"
       transform="translate(7141.0025,2682.7654)">
      <g
         id="g9421">
        <path
           class="st1"
           d="m -6675.7,-2305.4 c -0.8,0 -1.6,-0.1 -2.4,-0.1 -7.5,-0.8 -14.8,-3.4 -21.2,-7.5 -2.1,-1.4 -4.1,-3 -6.1,-4.5 -5.5,-4.3 -10.7,-8.3 -17.2,-8.7 -7.1,-0.4 -13.1,3.7 -19.4,8 -2.8,1.9 -5.7,3.9 -8.8,5.5 -7.3,3.8 -15.1,4.6 -21.4,2.3 -3.1,-1.1 -5.8,-3 -8.5,-4.8 -3.6,-2.4 -6.9,-4.7 -10.9,-5.2 -6.1,-0.8 -11.5,2.6 -17.2,6.2 -3.8,2.4 -7.8,5 -12.1,6.2 -8.5,2.5 -18.5,-0.6 -24.1,-7.5 -0.4,-0.5 -0.3,-1.2 0.2,-1.6 0.5,-0.4 1.2,-0.3 1.6,0.2 5.1,6.2 14,9 21.7,6.7 4,-1.2 7.8,-3.6 11.5,-6 5.8,-3.7 11.8,-7.5 18.7,-6.6 4.5,0.6 8.2,3.1 11.9,5.6 2.5,1.7 5.2,3.5 8,4.5 5.7,2.1 12.8,1.3 19.5,-2.1 2.9,-1.5 5.8,-3.5 8.5,-5.4 6.4,-4.4 13,-8.9 20.8,-8.4 7.1,0.4 12.9,4.9 18.4,9.2 1.9,1.5 4,3.1 6,4.4 6,4 13,6.5 20.1,7.2 1.3,0.1 2.8,0.2 4.2,-0.1 2.6,-0.5 4.7,-2.3 6.9,-4.1 l 1.1,-1 c 4.4,-3.8 8.9,-7.7 14.5,-9.3 0.6,-0.2 1.2,0.2 1.4,0.8 0.2,0.6 -0.2,1.2 -0.8,1.4 -5.2,1.5 -9.5,5.2 -13.7,8.8 l -1.1,1 c -2.3,2 -4.9,4 -8,4.6 -0.5,0.2 -1.3,0.3 -2.1,0.3 z"
           id="path9423"
           inkscape:connector-curvature="0"
           style="fill:#031c72" />
      </g>
      <path
         class="st1"
         d="m -6642.5,-2320.1 c 5.2,1.5 9.5,5.2 13.7,8.8 l 1.1,1 c 2.3,2 4.9,4 8,4.6 0.8,0.2 1.7,0.2 2.5,0.2 0.8,0 1.6,-0.1 2.4,-0.1 7.5,-0.8 14.8,-3.4 21.2,-7.5 2.1,-1.4 4.1,-3 6.1,-4.5 5.5,-4.3 10.7,-8.3 17.2,-8.7 7.1,-0.4 13.1,3.7 19.4,8 1.8,1.2 3.6,2.4 5.4,3.6 l 0,-2.7 c -1.4,-0.9 -2.8,-1.9 -4.2,-2.8 -6.4,-4.4 -13,-8.9 -20.8,-8.4 -7.1,0.4 -12.9,4.9 -18.4,9.2 -1.9,1.5 -4,3.1 -6,4.4 -6,4 -13,6.5 -20.1,7.2 -1.3,0.1 -2.8,0.2 -4.2,-0.1 -2.6,-0.5 -4.7,-2.3 -6.9,-4.1 l -1.1,-1 c -4.4,-3.8 -8.9,-7.7 -14.5,-9.3 -0.6,-0.2 -1.2,0.2 -1.4,0.8 -0.4,0.6 0,1.3 0.6,1.4 z"
         id="path9425"
         inkscape:connector-curvature="0"
         style="fill:#031c72" />
      <path
         class="st1"
         d="m -6853.3,-2316.9 c -5.1,6.2 -14,9 -21.7,6.7 -4,-1.2 -7.8,-3.6 -11.5,-6 -5.8,-3.7 -11.8,-7.5 -18.7,-6.6 -4.5,0.6 -8.2,3.1 -11.9,5.6 -2.5,1.7 -5.2,3.5 -8,4.5 -5.7,2.1 -12.8,1.3 -19.5,-2.1 -1.5,-0.8 -2.9,-1.6 -4.4,-2.6 l 0,2.7 c 1.1,0.7 2.2,1.3 3.3,1.9 7.3,3.8 15.1,4.6 21.4,2.3 3.1,-1.1 5.8,-3 8.5,-4.8 3.6,-2.4 6.9,-4.7 10.9,-5.2 6.1,-0.8 11.5,2.6 17.2,6.2 3.8,2.4 7.8,5 12.1,6.2 8.5,2.5 18.5,-0.6 24.1,-7.5 0.4,-0.5 0.3,-1.2 -0.2,-1.6 -0.4,-0.3 -1.2,-0.2 -1.6,0.3 z"
         id="path9427"
         inkscape:connector-curvature="0"
         style="fill:#031c72" />
    </g>
    <g
       id="g9429"
       transform="translate(7141.0025,2682.7654)">
      <g
         id="g9431">
        <path
           class="st1"
           d="m -6675.7,-2435.5 c -0.8,0 -1.6,-0.1 -2.4,-0.1 -7.5,-0.8 -14.8,-3.4 -21.2,-7.5 -2.1,-1.4 -4.1,-3 -6.1,-4.5 -5.5,-4.3 -10.7,-8.3 -17.2,-8.7 -7.1,-0.4 -13.1,3.7 -19.4,8 -2.8,1.9 -5.7,3.9 -8.8,5.5 -7.3,3.8 -15.1,4.6 -21.4,2.3 -3.1,-1.1 -5.8,-3 -8.5,-4.8 -3.6,-2.4 -6.9,-4.7 -10.9,-5.2 -6.1,-0.8 -11.5,2.6 -17.2,6.2 -3.8,2.4 -7.8,5 -12.1,6.2 -8.5,2.5 -18.5,-0.6 -24.1,-7.5 -0.4,-0.5 -0.3,-1.2 0.2,-1.6 0.5,-0.4 1.2,-0.3 1.6,0.2 5.1,6.2 14,9 21.7,6.7 4,-1.2 7.8,-3.6 11.5,-6 5.8,-3.7 11.8,-7.5 18.7,-6.6 4.5,0.6 8.2,3.1 11.9,5.6 2.5,1.7 5.2,3.5 8,4.5 5.7,2.1 12.8,1.3 19.5,-2.1 2.9,-1.5 5.8,-3.5 8.5,-5.4 6.4,-4.4 13,-8.9 20.8,-8.4 7.1,0.4 12.9,4.9 18.4,9.2 1.9,1.5 4,3.1 6,4.4 6,4 13,6.5 20.1,7.2 1.3,0.1 2.8,0.2 4.2,-0.1 2.6,-0.5 4.7,-2.3 6.9,-4.1 l 1.1,-1 c 4.4,-3.8 8.9,-7.7 14.5,-9.3 0.6,-0.2 1.2,0.2 1.4,0.8 0.2,0.6 -0.2,1.2 -0.8,1.4 -5.2,1.5 -9.5,5.2 -13.7,8.8 l -1.1,1 c -2.3,2 -4.9,4 -8,4.6 -0.5,0.2 -1.3,0.3 -2.1,0.3 z"
           id="path9433"
           inkscape:connector-curvature="0"
           style="fill:#031c72" />
      </g>
      <path
         class="st1"
         d="m -6642.5,-2450.2 c 5.2,1.5 9.5,5.2 13.7,8.8 l 1.1,1 c 2.3,2 4.9,4 8,4.6 0.8,0.2 1.7,0.2 2.5,0.2 0.8,0 1.6,-0.1 2.4,-0.1 7.5,-0.8 14.8,-3.4 21.2,-7.5 2.1,-1.4 4.1,-3 6.1,-4.5 5.5,-4.3 10.7,-8.3 17.2,-8.7 7.1,-0.4 13.1,3.7 19.4,8 1.8,1.2 3.6,2.4 5.4,3.6 l 0,-2.7 c -1.4,-0.9 -2.8,-1.9 -4.2,-2.8 -6.4,-4.4 -13,-8.9 -20.8,-8.4 -7.1,0.4 -12.9,4.9 -18.4,9.2 -1.9,1.5 -4,3.1 -6,4.4 -6,4 -13,6.5 -20.1,7.2 -1.3,0.1 -2.8,0.2 -4.2,-0.1 -2.6,-0.5 -4.7,-2.3 -6.9,-4.1 l -1.1,-1 c -4.4,-3.8 -8.9,-7.7 -14.5,-9.3 -0.6,-0.2 -1.2,0.2 -1.4,0.8 -0.4,0.6 0,1.2 0.6,1.4 z"
         id="path9435"
         inkscape:connector-curvature="0"
         style="fill:#031c72" />
      <path
         class="st1"
         d="m -6853.3,-2447 c -5.1,6.2 -14,9 -21.7,6.7 -4,-1.2 -7.8,-3.6 -11.5,-6 -5.8,-3.7 -11.8,-7.5 -18.7,-6.6 -4.5,0.6 -8.2,3.1 -11.9,5.6 -2.5,1.7 -5.2,3.5 -8,4.5 -5.7,2.1 -12.8,1.3 -19.5,-2.1 -1.5,-0.8 -2.9,-1.6 -4.4,-2.6 l 0,2.7 c 1.1,0.7 2.2,1.3 3.3,1.9 7.3,3.8 15.1,4.6 21.4,2.3 3.1,-1.1 5.8,-3 8.5,-4.8 3.6,-2.4 6.9,-4.7 10.9,-5.2 6.1,-0.8 11.5,2.6 17.2,6.2 3.8,2.4 7.8,5 12.1,6.2 8.5,2.5 18.5,-0.6 24.1,-7.5 0.4,-0.5 0.3,-1.2 -0.2,-1.6 -0.4,-0.3 -1.2,-0.2 -1.6,0.3 z"
         id="path9437"
         inkscape:connector-curvature="0"
         style="fill:#031c72" />
    </g>
    <g
       id="g9439"
       transform="translate(7141.0025,2682.7654)">
      <g
         id="g9441">
        <path
           class="st1"
           d="m -6675.7,-2422.5 c -0.8,0 -1.6,-0.1 -2.4,-0.1 -7.5,-0.8 -14.8,-3.4 -21.2,-7.5 -2.1,-1.4 -4.1,-3 -6.1,-4.5 -5.5,-4.3 -10.7,-8.3 -17.2,-8.7 -7.1,-0.4 -13.1,3.7 -19.4,8 -2.8,1.9 -5.7,3.9 -8.8,5.5 -7.3,3.8 -15.1,4.6 -21.4,2.3 -3.1,-1.1 -5.8,-3 -8.5,-4.8 -3.6,-2.4 -6.9,-4.7 -10.9,-5.2 -6.1,-0.8 -11.5,2.6 -17.2,6.2 -3.8,2.4 -7.8,5 -12.1,6.2 -8.5,2.5 -18.5,-0.6 -24.1,-7.5 -0.4,-0.5 -0.3,-1.2 0.2,-1.6 0.5,-0.4 1.2,-0.3 1.6,0.2 5.1,6.2 14,9 21.7,6.7 4,-1.2 7.8,-3.6 11.5,-6 5.8,-3.7 11.8,-7.5 18.7,-6.6 4.5,0.6 8.2,3.1 11.9,5.6 2.5,1.7 5.2,3.5 8,4.5 5.7,2.1 12.8,1.3 19.5,-2.1 2.9,-1.5 5.8,-3.5 8.5,-5.4 6.4,-4.4 13,-8.9 20.8,-8.4 7.1,0.4 12.9,4.9 18.4,9.2 1.9,1.5 4,3.1 6,4.4 6,4 13,6.5 20.1,7.2 1.3,0.1 2.8,0.2 4.2,-0.1 2.6,-0.5 4.7,-2.3 6.9,-4.1 l 1.1,-1 c 4.4,-3.8 8.9,-7.7 14.5,-9.3 0.6,-0.2 1.2,0.2 1.4,0.8 0.2,0.6 -0.2,1.2 -0.8,1.4 -5.2,1.5 -9.5,5.2 -13.7,8.8 l -1.1,1 c -2.3,2 -4.9,4 -8,4.6 -0.5,0.2 -1.3,0.3 -2.1,0.3 z"
           id="path9443"
           inkscape:connector-curvature="0"
           style="fill:#031c72" />
      </g>
      <path
         class="st1"
         d="m -6642.5,-2437.2 c 5.2,1.5 9.5,5.2 13.7,8.8 l 1.1,1 c 2.3,2 4.9,4 8,4.6 0.8,0.2 1.7,0.2 2.5,0.2 0.8,0 1.6,-0.1 2.4,-0.1 7.5,-0.8 14.8,-3.4 21.2,-7.5 2.1,-1.4 4.1,-3 6.1,-4.5 5.5,-4.3 10.7,-8.3 17.2,-8.7 7.1,-0.4 13.1,3.7 19.4,8 1.8,1.2 3.6,2.4 5.4,3.6 l 0,-2.7 c -1.4,-0.9 -2.8,-1.9 -4.2,-2.8 -6.4,-4.4 -13,-8.9 -20.8,-8.4 -7.1,0.4 -12.9,4.9 -18.4,9.2 -1.9,1.5 -4,3.1 -6,4.4 -6,4 -13,6.5 -20.1,7.2 -1.3,0.1 -2.8,0.2 -4.2,-0.1 -2.6,-0.5 -4.7,-2.3 -6.9,-4.1 l -1.1,-1 c -4.4,-3.8 -8.9,-7.7 -14.5,-9.3 -0.6,-0.2 -1.2,0.2 -1.4,0.8 -0.4,0.6 0,1.2 0.6,1.4 z"
         id="path9445"
         inkscape:connector-curvature="0"
         style="fill:#031c72" />
      <path
         class="st1"
         d="m -6853.3,-2434 c -5.1,6.2 -14,9 -21.7,6.7 -4,-1.2 -7.8,-3.6 -11.5,-6 -5.8,-3.7 -11.8,-7.5 -18.7,-6.6 -4.5,0.6 -8.2,3.1 -11.9,5.6 -2.5,1.7 -5.2,3.5 -8,4.5 -5.7,2.1 -12.8,1.3 -19.5,-2.1 -1.5,-0.8 -2.9,-1.6 -4.4,-2.6 l 0,2.7 c 1.1,0.7 2.2,1.3 3.3,1.9 7.3,3.8 15.1,4.6 21.4,2.3 3.1,-1.1 5.8,-3 8.5,-4.8 3.6,-2.4 6.9,-4.7 10.9,-5.2 6.1,-0.8 11.5,2.6 17.2,6.2 3.8,2.4 7.8,5 12.1,6.2 8.5,2.5 18.5,-0.6 24.1,-7.5 0.4,-0.5 0.3,-1.2 -0.2,-1.6 -0.4,-0.3 -1.2,-0.2 -1.6,0.3 z"
         id="path9447"
         inkscape:connector-curvature="0"
         style="fill:#031c72" />
    </g>
    <g
       id="g9449"
       transform="translate(7141.0025,2682.7654)">
      <g
         id="g9451">
        <path
           class="st1"
           d="m -6675.7,-2448.5 c -0.8,0 -1.6,-0.1 -2.4,-0.1 -7.5,-0.8 -14.8,-3.4 -21.2,-7.5 -2.1,-1.4 -4.1,-3 -6.1,-4.5 -5.5,-4.3 -10.7,-8.3 -17.2,-8.7 -7.1,-0.4 -13.1,3.7 -19.4,8 -2.8,1.9 -5.7,3.9 -8.8,5.5 -7.3,3.8 -15.1,4.6 -21.4,2.3 -3.1,-1.1 -5.8,-3 -8.5,-4.8 -3.6,-2.4 -6.9,-4.7 -10.9,-5.2 -6.1,-0.8 -11.5,2.6 -17.2,6.2 -3.8,2.4 -7.8,5 -12.1,6.2 -8.5,2.5 -18.5,-0.6 -24.1,-7.5 -0.4,-0.5 -0.3,-1.2 0.2,-1.6 0.5,-0.4 1.2,-0.3 1.6,0.2 5.1,6.2 14,9 21.7,6.7 4,-1.2 7.8,-3.6 11.5,-6 5.8,-3.7 11.8,-7.5 18.7,-6.6 4.5,0.6 8.2,3.1 11.9,5.6 2.5,1.7 5.2,3.5 8,4.5 5.7,2.1 12.8,1.3 19.5,-2.1 2.9,-1.5 5.8,-3.5 8.5,-5.4 6.4,-4.4 13,-8.9 20.8,-8.4 7.1,0.4 12.9,4.9 18.4,9.2 1.9,1.5 4,3.1 6,4.4 6,4 13,6.5 20.1,7.2 1.3,0.1 2.8,0.2 4.2,-0.1 2.6,-0.5 4.7,-2.3 6.9,-4.1 l 1.1,-1 c 4.4,-3.8 8.9,-7.7 14.5,-9.3 0.6,-0.2 1.2,0.2 1.4,0.8 0.2,0.6 -0.2,1.2 -0.8,1.4 -5.2,1.5 -9.5,5.2 -13.7,8.8 l -1.1,1 c -2.3,2 -4.9,4 -8,4.6 -0.5,0.2 -1.3,0.3 -2.1,0.3 z"
           id="path9453"
           inkscape:connector-curvature="0"
           style="fill:#031c72" />
      </g>
      <path
         class="st1"
         d="m -6642.5,-2463.2 c 5.2,1.5 9.5,5.2 13.7,8.8 l 1.1,1 c 2.3,2 4.9,4 8,4.6 0.8,0.2 1.7,0.2 2.5,0.2 0.8,0 1.6,-0.1 2.4,-0.1 7.5,-0.8 14.8,-3.4 21.2,-7.5 2.1,-1.4 4.1,-3 6.1,-4.5 5.5,-4.3 10.7,-8.3 17.2,-8.7 7.1,-0.4 13.1,3.7 19.4,8 1.8,1.2 3.6,2.4 5.4,3.6 l 0,-2.7 c -1.4,-0.9 -2.8,-1.9 -4.2,-2.8 -6.4,-4.4 -13,-8.9 -20.8,-8.4 -7.1,0.4 -12.9,4.9 -18.4,9.2 -1.9,1.5 -4,3.1 -6,4.4 -6,4 -13,6.5 -20.1,7.2 -1.3,0.1 -2.8,0.2 -4.2,-0.1 -2.6,-0.5 -4.7,-2.3 -6.9,-4.1 l -1.1,-1 c -4.4,-3.8 -8.9,-7.7 -14.5,-9.3 -0.6,-0.2 -1.2,0.2 -1.4,0.8 -0.4,0.6 0,1.2 0.6,1.4 z"
         id="path9455"
         inkscape:connector-curvature="0"
         style="fill:#031c72" />
      <path
         class="st1"
         d="m -6853.3,-2460 c -5.1,6.2 -14,9 -21.7,6.7 -4,-1.2 -7.8,-3.6 -11.5,-6 -5.8,-3.7 -11.8,-7.5 -18.7,-6.6 -4.5,0.6 -8.2,3.1 -11.9,5.6 -2.5,1.7 -5.2,3.5 -8,4.5 -5.7,2.1 -12.8,1.3 -19.5,-2.1 -1.5,-0.8 -2.9,-1.6 -4.4,-2.6 l 0,2.7 c 1.1,0.7 2.2,1.3 3.3,1.9 7.3,3.8 15.1,4.6 21.4,2.3 3.1,-1.1 5.8,-3 8.5,-4.8 3.6,-2.4 6.9,-4.7 10.9,-5.2 6.1,-0.8 11.5,2.6 17.2,6.2 3.8,2.4 7.8,5 12.1,6.2 8.5,2.5 18.5,-0.6 24.1,-7.5 0.4,-0.5 0.3,-1.2 -0.2,-1.6 -0.4,-0.3 -1.2,-0.2 -1.6,0.3 z"
         id="path9457"
         inkscape:connector-curvature="0"
         style="fill:#031c72" />
    </g>
    <g
       id="g9459"
       transform="translate(7141.0025,2682.7654)">
      <g
         id="g9461">
        <path
           class="st1"
           d="m -6675.7,-2370.5 c -0.8,0 -1.6,-0.1 -2.4,-0.1 -7.5,-0.8 -14.8,-3.4 -21.2,-7.5 -2.1,-1.4 -4.1,-3 -6.1,-4.5 -5.5,-4.3 -10.7,-8.3 -17.2,-8.7 -7.1,-0.4 -13.1,3.7 -19.4,8 -2.8,1.9 -5.7,3.9 -8.8,5.5 -7.3,3.8 -15.1,4.6 -21.4,2.3 -3.1,-1.1 -5.8,-3 -8.5,-4.8 -3.6,-2.4 -6.9,-4.7 -10.9,-5.2 -6.1,-0.8 -11.5,2.6 -17.2,6.2 -3.8,2.4 -7.8,5 -12.1,6.2 -8.5,2.5 -18.5,-0.6 -24.1,-7.5 -0.4,-0.5 -0.3,-1.2 0.2,-1.6 0.5,-0.4 1.2,-0.3 1.6,0.2 5.1,6.2 14,9 21.7,6.7 4,-1.2 7.8,-3.6 11.5,-6 5.8,-3.7 11.8,-7.5 18.7,-6.6 4.5,0.6 8.2,3.1 11.9,5.6 2.5,1.7 5.2,3.5 8,4.5 5.7,2.1 12.8,1.3 19.5,-2.1 2.9,-1.5 5.8,-3.5 8.5,-5.4 6.4,-4.4 13,-8.9 20.8,-8.4 7.1,0.4 12.9,4.9 18.4,9.2 1.9,1.5 4,3.1 6,4.4 6,4 13,6.5 20.1,7.2 1.3,0.1 2.8,0.2 4.2,-0.1 2.6,-0.5 4.7,-2.3 6.9,-4.1 l 1.1,-1 c 4.4,-3.8 8.9,-7.7 14.5,-9.3 0.6,-0.2 1.2,0.2 1.4,0.8 0.2,0.6 -0.2,1.2 -0.8,1.4 -5.2,1.5 -9.5,5.2 -13.7,8.8 l -1.1,1 c -2.3,2 -4.9,4 -8,4.6 -0.5,0.3 -1.3,0.3 -2.1,0.3 z"
           id="path9463"
           inkscape:connector-curvature="0"
           style="fill:#031c72" />
      </g>
      <path
         class="st1"
         d="m -6642.5,-2385.1 c 5.2,1.5 9.5,5.2 13.7,8.8 l 1.1,1 c 2.3,2 4.9,4 8,4.6 0.8,0.2 1.7,0.2 2.5,0.2 0.8,0 1.6,-0.1 2.4,-0.1 7.5,-0.8 14.8,-3.4 21.2,-7.5 2.1,-1.4 4.1,-3 6.1,-4.5 5.5,-4.3 10.7,-8.3 17.2,-8.7 7.1,-0.4 13.1,3.7 19.4,8 1.8,1.2 3.6,2.4 5.4,3.6 l 0,-2.7 c -1.4,-0.9 -2.8,-1.9 -4.2,-2.8 -6.4,-4.4 -13,-8.9 -20.8,-8.4 -7.1,0.4 -12.9,4.9 -18.4,9.2 -1.9,1.5 -4,3.1 -6,4.4 -6,4 -13,6.5 -20.1,7.2 -1.3,0.1 -2.8,0.2 -4.2,-0.1 -2.6,-0.5 -4.7,-2.3 -6.9,-4.1 l -1.1,-1 c -4.4,-3.8 -8.9,-7.7 -14.5,-9.3 -0.6,-0.2 -1.2,0.2 -1.4,0.8 -0.4,0.6 0,1.2 0.6,1.4 z"
         id="path9465"
         inkscape:connector-curvature="0"
         style="fill:#031c72" />
      <path
         class="st1"
         d="m -6853.3,-2382 c -5.1,6.2 -14,9 -21.7,6.7 -4,-1.2 -7.8,-3.6 -11.5,-6 -5.8,-3.7 -11.8,-7.5 -18.7,-6.6 -4.5,0.6 -8.2,3.1 -11.9,5.6 -2.5,1.7 -5.2,3.5 -8,4.5 -5.7,2.1 -12.8,1.3 -19.5,-2.1 -1.5,-0.8 -2.9,-1.6 -4.4,-2.6 l 0,2.7 c 1.1,0.7 2.2,1.3 3.3,1.9 7.3,3.8 15.1,4.6 21.4,2.3 3.1,-1.1 5.8,-3 8.5,-4.8 3.6,-2.4 6.9,-4.7 10.9,-5.2 6.1,-0.8 11.5,2.6 17.2,6.2 3.8,2.4 7.8,5 12.1,6.2 8.5,2.5 18.5,-0.6 24.1,-7.5 0.4,-0.5 0.3,-1.2 -0.2,-1.6 -0.4,-0.2 -1.2,-0.1 -1.6,0.3 z"
         id="path9467"
         inkscape:connector-curvature="0"
         style="fill:#031c72" />
    </g>
    <g
       id="g9469"
       transform="translate(7141.0025,2682.7654)">
      <g
         id="g9471">
        <path
           class="st1"
           d="m -6675.7,-2409.5 c -0.8,0 -1.6,-0.1 -2.4,-0.1 -7.5,-0.8 -14.8,-3.4 -21.2,-7.5 -2.1,-1.4 -4.1,-3 -6.1,-4.5 -5.5,-4.3 -10.7,-8.3 -17.2,-8.7 -7.1,-0.4 -13.1,3.7 -19.4,8 -2.8,1.9 -5.7,3.9 -8.8,5.5 -7.3,3.8 -15.1,4.6 -21.4,2.3 -3.1,-1.1 -5.8,-3 -8.5,-4.8 -3.6,-2.4 -6.9,-4.7 -10.9,-5.2 -6.1,-0.8 -11.5,2.6 -17.2,6.2 -3.8,2.4 -7.8,5 -12.1,6.2 -8.5,2.5 -18.5,-0.6 -24.1,-7.5 -0.4,-0.5 -0.3,-1.2 0.2,-1.6 0.5,-0.4 1.2,-0.3 1.6,0.2 5.1,6.2 14,9 21.7,6.7 4,-1.2 7.8,-3.6 11.5,-6 5.8,-3.7 11.8,-7.5 18.7,-6.6 4.5,0.6 8.2,3.1 11.9,5.6 2.5,1.7 5.2,3.5 8,4.5 5.7,2.1 12.8,1.3 19.5,-2.1 2.9,-1.5 5.8,-3.5 8.5,-5.4 6.4,-4.4 13,-8.9 20.8,-8.4 7.1,0.4 12.9,4.9 18.4,9.2 1.9,1.5 4,3.1 6,4.4 6,4 13,6.5 20.1,7.2 1.3,0.1 2.8,0.2 4.2,-0.1 2.6,-0.5 4.7,-2.3 6.9,-4.1 l 1.1,-1 c 4.4,-3.8 8.9,-7.7 14.5,-9.3 0.6,-0.2 1.2,0.2 1.4,0.8 0.2,0.6 -0.2,1.2 -0.8,1.4 -5.2,1.5 -9.5,5.2 -13.7,8.8 l -1.1,1 c -2.3,2 -4.9,4 -8,4.6 -0.5,0.2 -1.3,0.3 -2.1,0.3 z"
           id="path9473"
           inkscape:connector-curvature="0"
           style="fill:#031c72" />
      </g>
      <path
         class="st1"
         d="m -6642.5,-2424.2 c 5.2,1.5 9.5,5.2 13.7,8.8 l 1.1,1 c 2.3,2 4.9,4 8,4.6 0.8,0.2 1.7,0.2 2.5,0.2 0.8,0 1.6,-0.1 2.4,-0.1 7.5,-0.8 14.8,-3.4 21.2,-7.5 2.1,-1.4 4.1,-3 6.1,-4.5 5.5,-4.3 10.7,-8.3 17.2,-8.7 7.1,-0.4 13.1,3.7 19.4,8 1.8,1.2 3.6,2.4 5.4,3.6 l 0,-2.7 c -1.4,-0.9 -2.8,-1.9 -4.2,-2.8 -6.4,-4.4 -13,-8.9 -20.8,-8.4 -7.1,0.4 -12.9,4.9 -18.4,9.2 -1.9,1.5 -4,3.1 -6,4.4 -6,4 -13,6.5 -20.1,7.2 -1.3,0.1 -2.8,0.2 -4.2,-0.1 -2.6,-0.5 -4.7,-2.3 -6.9,-4.1 l -1.1,-1 c -4.4,-3.8 -8.9,-7.7 -14.5,-9.3 -0.6,-0.2 -1.2,0.2 -1.4,0.8 -0.4,0.6 0,1.3 0.6,1.4 z"
         id="path9475"
         inkscape:connector-curvature="0"
         style="fill:#031c72" />
      <path
         class="st1"
         d="m -6853.3,-2421 c -5.1,6.2 -14,9 -21.7,6.7 -4,-1.2 -7.8,-3.6 -11.5,-6 -5.8,-3.7 -11.8,-7.5 -18.7,-6.6 -4.5,0.6 -8.2,3.1 -11.9,5.6 -2.5,1.7 -5.2,3.5 -8,4.5 -5.7,2.1 -12.8,1.3 -19.5,-2.1 -1.5,-0.8 -2.9,-1.6 -4.4,-2.6 l 0,2.7 c 1.1,0.7 2.2,1.3 3.3,1.9 7.3,3.8 15.1,4.6 21.4,2.3 3.1,-1.1 5.8,-3 8.5,-4.8 3.6,-2.4 6.9,-4.7 10.9,-5.2 6.1,-0.8 11.5,2.6 17.2,6.2 3.8,2.4 7.8,5 12.1,6.2 8.5,2.5 18.5,-0.6 24.1,-7.5 0.4,-0.5 0.3,-1.2 -0.2,-1.6 -0.4,-0.2 -1.2,-0.2 -1.6,0.3 z"
         id="path9477"
         inkscape:connector-curvature="0"
         style="fill:#031c72" />
    </g>
    <g
       id="g9479"
       transform="translate(7141.0025,2682.7654)">
      <g
         id="g9481">
        <path
           class="st1"
           d="m -6675.7,-2396.5 c -0.8,0 -1.6,-0.1 -2.4,-0.1 -7.5,-0.8 -14.8,-3.4 -21.2,-7.5 -2.1,-1.4 -4.1,-3 -6.1,-4.5 -5.5,-4.3 -10.7,-8.3 -17.2,-8.7 -7.1,-0.4 -13.1,3.7 -19.4,8 -2.8,1.9 -5.7,3.9 -8.8,5.5 -7.3,3.8 -15.1,4.6 -21.4,2.3 -3.1,-1.1 -5.8,-3 -8.5,-4.8 -3.6,-2.4 -6.9,-4.7 -10.9,-5.2 -6.1,-0.8 -11.5,2.6 -17.2,6.2 -3.8,2.4 -7.8,5 -12.1,6.2 -8.5,2.5 -18.5,-0.6 -24.1,-7.5 -0.4,-0.5 -0.3,-1.2 0.2,-1.6 0.5,-0.4 1.2,-0.3 1.6,0.2 5.1,6.2 14,9 21.7,6.7 4,-1.2 7.8,-3.6 11.5,-6 5.8,-3.7 11.8,-7.5 18.7,-6.6 4.5,0.6 8.2,3.1 11.9,5.6 2.5,1.7 5.2,3.5 8,4.5 5.7,2.1 12.8,1.3 19.5,-2.1 2.9,-1.5 5.8,-3.5 8.5,-5.4 6.4,-4.4 13,-8.9 20.8,-8.4 7.1,0.4 12.9,4.9 18.4,9.2 1.9,1.5 4,3.1 6,4.4 6,4 13,6.5 20.1,7.2 1.3,0.1 2.8,0.2 4.2,-0.1 2.6,-0.5 4.7,-2.3 6.9,-4.1 l 1.1,-1 c 4.4,-3.8 8.9,-7.7 14.5,-9.3 0.6,-0.2 1.2,0.2 1.4,0.8 0.2,0.6 -0.2,1.2 -0.8,1.4 -5.2,1.5 -9.5,5.2 -13.7,8.8 l -1.1,1 c -2.3,2 -4.9,4 -8,4.6 -0.5,0.3 -1.3,0.3 -2.1,0.3 z"
           id="path9483"
           inkscape:connector-curvature="0"
           style="fill:#031c72" />
      </g>
      <path
         class="st1"
         d="m -6642.5,-2411.2 c 5.2,1.5 9.5,5.2 13.7,8.8 l 1.1,1 c 2.3,2 4.9,4 8,4.6 0.8,0.2 1.7,0.2 2.5,0.2 0.8,0 1.6,-0.1 2.4,-0.1 7.5,-0.8 14.8,-3.4 21.2,-7.5 2.1,-1.4 4.1,-3 6.1,-4.5 5.5,-4.3 10.7,-8.3 17.2,-8.7 7.1,-0.4 13.1,3.7 19.4,8 1.8,1.2 3.6,2.4 5.4,3.6 l 0,-2.7 c -1.4,-0.9 -2.8,-1.9 -4.2,-2.8 -6.4,-4.4 -13,-8.9 -20.8,-8.4 -7.1,0.4 -12.9,4.9 -18.4,9.2 -1.9,1.5 -4,3.1 -6,4.4 -6,4 -13,6.5 -20.1,7.2 -1.3,0.1 -2.8,0.2 -4.2,-0.1 -2.6,-0.5 -4.7,-2.3 -6.9,-4.1 l -1.1,-1 c -4.4,-3.8 -8.9,-7.7 -14.5,-9.3 -0.6,-0.2 -1.2,0.2 -1.4,0.8 -0.4,0.6 0,1.3 0.6,1.4 z"
         id="path9485"
         inkscape:connector-curvature="0"
         style="fill:#031c72" />
      <path
         class="st1"
         d="m -6853.3,-2408 c -5.1,6.2 -14,9 -21.7,6.7 -4,-1.2 -7.8,-3.6 -11.5,-6 -5.8,-3.7 -11.8,-7.5 -18.7,-6.6 -4.5,0.6 -8.2,3.1 -11.9,5.6 -2.5,1.7 -5.2,3.5 -8,4.5 -5.7,2.1 -12.8,1.3 -19.5,-2.1 -1.5,-0.8 -2.9,-1.6 -4.4,-2.6 l 0,2.7 c 1.1,0.7 2.2,1.3 3.3,1.9 7.3,3.8 15.1,4.6 21.4,2.3 3.1,-1.1 5.8,-3 8.5,-4.8 3.6,-2.4 6.9,-4.7 10.9,-5.2 6.1,-0.8 11.5,2.6 17.2,6.2 3.8,2.4 7.8,5 12.1,6.2 8.5,2.5 18.5,-0.6 24.1,-7.5 0.4,-0.5 0.3,-1.2 -0.2,-1.6 -0.4,-0.2 -1.2,-0.2 -1.6,0.3 z"
         id="path9487"
         inkscape:connector-curvature="0"
         style="fill:#031c72" />
    </g>
    <g
       id="g9489"
       transform="translate(7141.0025,2682.7654)">
      <g
         id="g9491">
        <path
           class="st1"
           d="m -6675.7,-2383.5 c -0.8,0 -1.6,-0.1 -2.4,-0.1 -7.5,-0.8 -14.8,-3.4 -21.2,-7.5 -2.1,-1.4 -4.1,-3 -6.1,-4.5 -5.5,-4.3 -10.7,-8.3 -17.2,-8.7 -7.1,-0.4 -13.1,3.7 -19.4,8 -2.8,1.9 -5.7,3.9 -8.8,5.5 -7.3,3.8 -15.1,4.6 -21.4,2.3 -3.1,-1.1 -5.8,-3 -8.5,-4.8 -3.6,-2.4 -6.9,-4.7 -10.9,-5.2 -6.1,-0.8 -11.5,2.6 -17.2,6.2 -3.8,2.4 -7.8,5 -12.1,6.2 -8.5,2.5 -18.5,-0.6 -24.1,-7.5 -0.4,-0.5 -0.3,-1.2 0.2,-1.6 0.5,-0.4 1.2,-0.3 1.6,0.2 5.1,6.2 14,9 21.7,6.7 4,-1.2 7.8,-3.6 11.5,-6 5.8,-3.7 11.8,-7.5 18.7,-6.6 4.5,0.6 8.2,3.1 11.9,5.6 2.5,1.7 5.2,3.5 8,4.5 5.7,2.1 12.8,1.3 19.5,-2.1 2.9,-1.5 5.8,-3.5 8.5,-5.4 6.4,-4.4 13,-8.9 20.8,-8.4 7.1,0.4 12.9,4.9 18.4,9.2 1.9,1.5 4,3.1 6,4.4 6,4 13,6.5 20.1,7.2 1.3,0.1 2.8,0.2 4.2,-0.1 2.6,-0.5 4.7,-2.3 6.9,-4.1 l 1.1,-1 c 4.4,-3.8 8.9,-7.7 14.5,-9.3 0.6,-0.2 1.2,0.2 1.4,0.8 0.2,0.6 -0.2,1.2 -0.8,1.4 -5.2,1.5 -9.5,5.2 -13.7,8.8 l -1.1,1 c -2.3,2 -4.9,4 -8,4.6 -0.5,0.3 -1.3,0.3 -2.1,0.3 z"
           id="path9493"
           inkscape:connector-curvature="0"
           style="fill:#031c72" />
      </g>
      <path
         class="st1"
         d="m -6642.5,-2398.1 c 5.2,1.5 9.5,5.2 13.7,8.8 l 1.1,1 c 2.3,2 4.9,4 8,4.6 0.8,0.2 1.7,0.2 2.5,0.2 0.8,0 1.6,-0.1 2.4,-0.1 7.5,-0.8 14.8,-3.4 21.2,-7.5 2.1,-1.4 4.1,-3 6.1,-4.5 5.5,-4.3 10.7,-8.3 17.2,-8.7 7.1,-0.4 13.1,3.7 19.4,8 1.8,1.2 3.6,2.4 5.4,3.6 l 0,-2.7 c -1.4,-0.9 -2.8,-1.9 -4.2,-2.8 -6.4,-4.4 -13,-8.9 -20.8,-8.4 -7.1,0.4 -12.9,4.9 -18.4,9.2 -1.9,1.5 -4,3.1 -6,4.4 -6,4 -13,6.5 -20.1,7.2 -1.3,0.1 -2.8,0.2 -4.2,-0.1 -2.6,-0.5 -4.7,-2.3 -6.9,-4.1 l -1.1,-1 c -4.4,-3.8 -8.9,-7.7 -14.5,-9.3 -0.6,-0.2 -1.2,0.2 -1.4,0.8 -0.4,0.6 0,1.2 0.6,1.4 z"
         id="path9495"
         inkscape:connector-curvature="0"
         style="fill:#031c72" />
      <path
         class="st1"
         d="m -6853.3,-2395 c -5.1,6.2 -14,9 -21.7,6.7 -4,-1.2 -7.8,-3.6 -11.5,-6 -5.8,-3.7 -11.8,-7.5 -18.7,-6.6 -4.5,0.6 -8.2,3.1 -11.9,5.6 -2.5,1.7 -5.2,3.5 -8,4.5 -5.7,2.1 -12.8,1.3 -19.5,-2.1 -1.5,-0.8 -2.9,-1.6 -4.4,-2.6 l 0,2.7 c 1.1,0.7 2.2,1.3 3.3,1.9 7.3,3.8 15.1,4.6 21.4,2.3 3.1,-1.1 5.8,-3 8.5,-4.8 3.6,-2.4 6.9,-4.7 10.9,-5.2 6.1,-0.8 11.5,2.6 17.2,6.2 3.8,2.4 7.8,5 12.1,6.2 8.5,2.5 18.5,-0.6 24.1,-7.5 0.4,-0.5 0.3,-1.2 -0.2,-1.6 -0.4,-0.2 -1.2,-0.2 -1.6,0.3 z"
         id="path9497"
         inkscape:connector-curvature="0"
         style="fill:#031c72" />
    </g>
    <g
       id="g9499"
       transform="translate(7141.0025,2682.7654)">
      <g
         id="g9501">
        <path
           class="st1"
           d="m -6675.7,-2162.3 c -0.8,0 -1.6,-0.1 -2.4,-0.1 -7.5,-0.8 -14.8,-3.4 -21.2,-7.5 -2.1,-1.4 -4.1,-3 -6.1,-4.5 -5.5,-4.3 -10.7,-8.3 -17.2,-8.7 -7.1,-0.4 -13.1,3.7 -19.4,8 -2.8,1.9 -5.7,3.9 -8.8,5.5 -7.3,3.8 -15.1,4.6 -21.4,2.3 -3.1,-1.1 -5.8,-3 -8.5,-4.8 -3.6,-2.4 -6.9,-4.7 -10.9,-5.2 -6.1,-0.8 -11.5,2.6 -17.2,6.2 -3.8,2.4 -7.8,5 -12.1,6.2 -8.5,2.5 -18.5,-0.6 -24.1,-7.5 -0.4,-0.5 -0.3,-1.2 0.2,-1.6 0.5,-0.4 1.2,-0.3 1.6,0.2 5.1,6.2 14,9 21.7,6.7 4,-1.2 7.8,-3.6 11.5,-6 5.8,-3.7 11.8,-7.5 18.7,-6.6 4.5,0.6 8.2,3.1 11.9,5.6 2.5,1.7 5.2,3.5 8,4.5 5.7,2.1 12.8,1.3 19.5,-2.1 2.9,-1.5 5.8,-3.5 8.5,-5.4 6.4,-4.4 13,-8.9 20.8,-8.4 7.1,0.4 12.9,4.9 18.4,9.2 1.9,1.5 4,3.1 6,4.4 6,4 13,6.5 20.1,7.2 1.3,0.1 2.8,0.2 4.2,-0.1 2.6,-0.5 4.7,-2.3 6.9,-4.1 l 1.1,-1 c 4.4,-3.8 8.9,-7.7 14.5,-9.3 0.6,-0.2 1.2,0.2 1.4,0.8 0.2,0.6 -0.2,1.2 -0.8,1.4 -5.2,1.5 -9.5,5.2 -13.7,8.8 l -1.1,1 c -2.3,2 -4.9,4 -8,4.6 -0.5,0.3 -1.3,0.3 -2.1,0.3 z"
           id="path9503"
           inkscape:connector-curvature="0"
           style="fill:#031c72" />
      </g>
      <path
         class="st1"
         d="m -6642.5,-2176.9 c 5.2,1.5 9.5,5.2 13.7,8.8 l 1.1,1 c 2.3,2 4.9,4 8,4.6 0.8,0.2 1.7,0.2 2.5,0.2 0.8,0 1.6,-0.1 2.4,-0.1 7.5,-0.8 14.8,-3.4 21.2,-7.5 2.1,-1.4 4.1,-3 6.1,-4.5 5.5,-4.3 10.7,-8.3 17.2,-8.7 7.1,-0.4 13.1,3.7 19.4,8 1.8,1.2 3.6,2.4 5.4,3.6 l 0,-2.7 c -1.4,-0.9 -2.8,-1.9 -4.2,-2.8 -6.4,-4.4 -13,-8.9 -20.8,-8.4 -7.1,0.4 -12.9,4.9 -18.4,9.2 -1.9,1.5 -4,3.1 -6,4.4 -6,4 -13,6.5 -20.1,7.2 -1.3,0.1 -2.8,0.2 -4.2,-0.1 -2.6,-0.5 -4.7,-2.3 -6.9,-4.1 l -1.1,-1 c -4.4,-3.8 -8.9,-7.7 -14.5,-9.3 -0.6,-0.2 -1.2,0.2 -1.4,0.8 -0.4,0.5 0,1.2 0.6,1.4 z"
         id="path9505"
         inkscape:connector-curvature="0"
         style="fill:#031c72" />
      <path
         class="st1"
         d="m -6853.3,-2173.8 c -5.1,6.2 -14,9 -21.7,6.7 -4,-1.2 -7.8,-3.6 -11.5,-6 -5.8,-3.7 -11.8,-7.5 -18.7,-6.6 -4.5,0.6 -8.2,3.1 -11.9,5.6 -2.5,1.7 -5.2,3.5 -8,4.5 -5.7,2.1 -12.8,1.3 -19.5,-2.1 -1.5,-0.8 -2.9,-1.6 -4.4,-2.6 l 0,2.7 c 1.1,0.7 2.2,1.3 3.3,1.9 7.3,3.8 15.1,4.6 21.4,2.3 3.1,-1.1 5.8,-3 8.5,-4.8 3.6,-2.4 6.9,-4.7 10.9,-5.2 6.1,-0.8 11.5,2.6 17.2,6.2 3.8,2.4 7.8,5 12.1,6.2 8.5,2.5 18.5,-0.6 24.1,-7.5 0.4,-0.5 0.3,-1.2 -0.2,-1.6 -0.4,-0.2 -1.2,-0.2 -1.6,0.3 z"
         id="path9507"
         inkscape:connector-curvature="0"
         style="fill:#031c72" />
    </g>
    <g
       id="g9509"
       transform="translate(7141.0025,2682.7654)">
      <g
         id="g9511">
        <path
           class="st1"
           d="m -6675.7,-2149.3 c -0.8,0 -1.6,-0.1 -2.4,-0.1 -7.5,-0.8 -14.8,-3.4 -21.2,-7.5 -2.1,-1.4 -4.1,-3 -6.1,-4.5 -5.5,-4.3 -10.7,-8.3 -17.2,-8.7 -7.1,-0.4 -13.1,3.7 -19.4,8 -2.8,1.9 -5.7,3.9 -8.8,5.5 -7.3,3.8 -15.1,4.6 -21.4,2.3 -3.1,-1.1 -5.8,-3 -8.5,-4.8 -3.6,-2.4 -6.9,-4.7 -10.9,-5.2 -6.1,-0.8 -11.5,2.6 -17.2,6.2 -3.8,2.4 -7.8,5 -12.1,6.2 -8.5,2.5 -18.5,-0.6 -24.1,-7.5 -0.4,-0.5 -0.3,-1.2 0.2,-1.6 0.5,-0.4 1.2,-0.3 1.6,0.2 5.1,6.2 14,9 21.7,6.7 4,-1.2 7.8,-3.6 11.5,-6 5.8,-3.7 11.8,-7.5 18.7,-6.6 4.5,0.6 8.2,3.1 11.9,5.6 2.5,1.7 5.2,3.5 8,4.5 5.7,2.1 12.8,1.3 19.5,-2.1 2.9,-1.5 5.8,-3.5 8.5,-5.4 6.4,-4.4 13,-8.9 20.8,-8.4 7.1,0.4 12.9,4.9 18.4,9.2 1.9,1.5 4,3.1 6,4.4 6,4 13,6.5 20.1,7.2 1.3,0.1 2.8,0.2 4.2,-0.1 2.6,-0.5 4.7,-2.3 6.9,-4.1 l 1.1,-1 c 4.4,-3.8 8.9,-7.7 14.5,-9.3 0.6,-0.2 1.2,0.2 1.4,0.8 0.2,0.6 -0.2,1.2 -0.8,1.4 -5.2,1.5 -9.5,5.2 -13.7,8.8 l -1.1,1 c -2.3,2 -4.9,4 -8,4.6 -0.5,0.3 -1.3,0.3 -2.1,0.3 z"
           id="path9513"
           inkscape:connector-curvature="0"
           style="fill:#031c72" />
      </g>
      <path
         class="st1"
         d="m -6642.5,-2163.9 c 5.2,1.5 9.5,5.2 13.7,8.8 l 1.1,1 c 2.3,2 4.9,4 8,4.6 0.8,0.2 1.7,0.2 2.5,0.2 0.8,0 1.6,-0.1 2.4,-0.1 7.5,-0.8 14.8,-3.4 21.2,-7.5 2.1,-1.4 4.1,-3 6.1,-4.5 5.5,-4.3 10.7,-8.3 17.2,-8.7 7.1,-0.4 13.1,3.7 19.4,8 1.8,1.2 3.6,2.4 5.4,3.6 l 0,-2.7 c -1.4,-0.9 -2.8,-1.9 -4.2,-2.8 -6.4,-4.4 -13,-8.9 -20.8,-8.4 -7.1,0.4 -12.9,4.9 -18.4,9.2 -1.9,1.5 -4,3.1 -6,4.4 -6,4 -13,6.5 -20.1,7.2 -1.3,0.1 -2.8,0.2 -4.2,-0.1 -2.6,-0.5 -4.7,-2.3 -6.9,-4.1 l -1.1,-1 c -4.4,-3.8 -8.9,-7.7 -14.5,-9.3 -0.6,-0.2 -1.2,0.2 -1.4,0.8 -0.4,0.6 0,1.2 0.6,1.4 z"
         id="path9515"
         inkscape:connector-curvature="0"
         style="fill:#031c72" />
      <path
         class="st1"
         d="m -6853.3,-2160.8 c -5.1,6.2 -14,9 -21.7,6.7 -4,-1.2 -7.8,-3.6 -11.5,-6 -5.8,-3.7 -11.8,-7.5 -18.7,-6.6 -4.5,0.6 -8.2,3.1 -11.9,5.6 -2.5,1.7 -5.2,3.5 -8,4.5 -5.7,2.1 -12.8,1.3 -19.5,-2.1 -1.5,-0.8 -2.9,-1.6 -4.4,-2.6 l 0,2.7 c 1.1,0.7 2.2,1.3 3.3,1.9 7.3,3.8 15.1,4.6 21.4,2.3 3.1,-1.1 5.8,-3 8.5,-4.8 3.6,-2.4 6.9,-4.7 10.9,-5.2 6.1,-0.8 11.5,2.6 17.2,6.2 3.8,2.4 7.8,5 12.1,6.2 8.5,2.5 18.5,-0.6 24.1,-7.5 0.4,-0.5 0.3,-1.2 -0.2,-1.6 -0.4,-0.2 -1.2,-0.1 -1.6,0.3 z"
         id="path9517"
         inkscape:connector-curvature="0"
         style="fill:#031c72" />
    </g>
    <g
       id="g9519"
       transform="translate(7141.0025,2682.7654)">
      <g
         id="g9521">
        <path
           class="st1"
           d="m -6675.7,-2136.3 c -0.8,0 -1.6,-0.1 -2.4,-0.1 -7.5,-0.8 -14.8,-3.4 -21.2,-7.5 -2.1,-1.4 -4.1,-3 -6.1,-4.5 -5.5,-4.3 -10.7,-8.3 -17.2,-8.7 -7.1,-0.4 -13.1,3.7 -19.4,8 -2.8,1.9 -5.7,3.9 -8.8,5.5 -7.3,3.8 -15.1,4.6 -21.4,2.3 -3.1,-1.1 -5.8,-3 -8.5,-4.8 -3.6,-2.4 -6.9,-4.7 -10.9,-5.2 -6.1,-0.8 -11.5,2.6 -17.2,6.2 -3.8,2.4 -7.8,5 -12.1,6.2 -8.5,2.5 -18.5,-0.6 -24.1,-7.5 -0.4,-0.5 -0.3,-1.2 0.2,-1.6 0.5,-0.4 1.2,-0.3 1.6,0.2 5.1,6.2 14,9 21.7,6.7 4,-1.2 7.8,-3.6 11.5,-6 5.8,-3.7 11.8,-7.5 18.7,-6.6 4.5,0.6 8.2,3.1 11.9,5.6 2.5,1.7 5.2,3.5 8,4.5 5.7,2.1 12.8,1.3 19.5,-2.1 2.9,-1.5 5.8,-3.5 8.5,-5.4 6.4,-4.4 13,-8.9 20.8,-8.4 7.1,0.4 12.9,4.9 18.4,9.2 1.9,1.5 4,3.1 6,4.4 6,4 13,6.5 20.1,7.2 1.3,0.1 2.8,0.2 4.2,-0.1 2.6,-0.5 4.7,-2.3 6.9,-4.1 l 1.1,-1 c 4.4,-3.8 8.9,-7.7 14.5,-9.3 0.6,-0.2 1.2,0.2 1.4,0.8 0.2,0.6 -0.2,1.2 -0.8,1.4 -5.2,1.5 -9.5,5.2 -13.7,8.8 l -1.1,1 c -2.3,2 -4.9,4 -8,4.6 -0.5,0.3 -1.3,0.3 -2.1,0.3 z"
           id="path9523"
           inkscape:connector-curvature="0"
           style="fill:#031c72" />
      </g>
      <path
         class="st1"
         d="m -6642.5,-2150.9 c 5.2,1.5 9.5,5.2 13.7,8.8 l 1.1,1 c 2.3,2 4.9,4 8,4.6 0.8,0.2 1.7,0.2 2.5,0.2 0.8,0 1.6,-0.1 2.4,-0.1 7.5,-0.8 14.8,-3.4 21.2,-7.5 2.1,-1.4 4.1,-3 6.1,-4.5 5.5,-4.3 10.7,-8.3 17.2,-8.7 7.1,-0.4 13.1,3.7 19.4,8 1.8,1.2 3.6,2.4 5.4,3.6 l 0,-2.7 c -1.4,-0.9 -2.8,-1.9 -4.2,-2.8 -6.4,-4.4 -13,-8.9 -20.8,-8.4 -7.1,0.4 -12.9,4.9 -18.4,9.2 -1.9,1.5 -4,3.1 -6,4.4 -6,4 -13,6.5 -20.1,7.2 -1.3,0.1 -2.8,0.2 -4.2,-0.1 -2.6,-0.5 -4.7,-2.3 -6.9,-4.1 l -1.1,-1 c -4.4,-3.8 -8.9,-7.7 -14.5,-9.3 -0.6,-0.2 -1.2,0.2 -1.4,0.8 -0.4,0.6 0,1.2 0.6,1.4 z"
         id="path9525"
         inkscape:connector-curvature="0"
         style="fill:#031c72" />
      <path
         class="st1"
         d="m -6853.3,-2147.8 c -5.1,6.2 -14,9 -21.7,6.7 -4,-1.2 -7.8,-3.6 -11.5,-6 -5.8,-3.7 -11.8,-7.5 -18.7,-6.6 -4.5,0.6 -8.2,3.1 -11.9,5.6 -2.5,1.7 -5.2,3.5 -8,4.5 -5.7,2.1 -12.8,1.3 -19.5,-2.1 -1.5,-0.8 -2.9,-1.6 -4.4,-2.6 l 0,2.7 c 1.1,0.7 2.2,1.3 3.3,1.9 7.3,3.8 15.1,4.6 21.4,2.3 3.1,-1.1 5.8,-3 8.5,-4.8 3.6,-2.4 6.9,-4.7 10.9,-5.2 6.1,-0.8 11.5,2.6 17.2,6.2 3.8,2.4 7.8,5 12.1,6.2 8.5,2.5 18.5,-0.6 24.1,-7.5 0.4,-0.5 0.3,-1.2 -0.2,-1.6 -0.4,-0.2 -1.2,-0.1 -1.6,0.3 z"
         id="path9527"
         inkscape:connector-curvature="0"
         style="fill:#031c72" />
    </g>
    <g
       id="g9529"
       transform="translate(7141.0025,2682.7654)">
      <g
         id="g9531">
        <path
           class="st1"
           d="m -6675.7,-2110.2 c -0.8,0 -1.6,-0.1 -2.4,-0.1 -7.5,-0.8 -14.8,-3.4 -21.2,-7.5 -2.1,-1.4 -4.1,-3 -6.1,-4.5 -5.5,-4.3 -10.7,-8.3 -17.2,-8.7 -7.1,-0.4 -13.1,3.7 -19.4,8 -2.8,1.9 -5.7,3.9 -8.8,5.5 -7.3,3.8 -15.1,4.6 -21.4,2.3 -3.1,-1.1 -5.8,-3 -8.5,-4.8 -3.6,-2.4 -6.9,-4.7 -10.9,-5.2 -6.1,-0.8 -11.5,2.6 -17.2,6.2 -3.8,2.4 -7.8,5 -12.1,6.2 -8.5,2.5 -18.5,-0.6 -24.1,-7.5 -0.4,-0.5 -0.3,-1.2 0.2,-1.6 0.5,-0.4 1.2,-0.3 1.6,0.2 5.1,6.2 14,9 21.7,6.7 4,-1.2 7.8,-3.6 11.5,-6 5.8,-3.7 11.8,-7.5 18.7,-6.6 4.5,0.6 8.2,3.1 11.9,5.6 2.5,1.7 5.2,3.5 8,4.5 5.7,2.1 12.8,1.3 19.5,-2.1 2.9,-1.5 5.8,-3.5 8.5,-5.4 6.4,-4.4 13,-8.9 20.8,-8.4 7.1,0.4 12.9,4.9 18.4,9.2 1.9,1.5 4,3.1 6,4.4 6,4 13,6.5 20.1,7.2 1.3,0.1 2.8,0.2 4.2,-0.1 2.6,-0.5 4.7,-2.3 6.9,-4.1 l 1.1,-1 c 4.4,-3.8 8.9,-7.7 14.5,-9.3 0.6,-0.2 1.2,0.2 1.4,0.8 0.2,0.6 -0.2,1.2 -0.8,1.4 -5.2,1.5 -9.5,5.2 -13.7,8.8 l -1.1,1 c -2.3,2 -4.9,4 -8,4.6 -0.5,0.2 -1.3,0.3 -2.1,0.3 z"
           id="path9533"
           inkscape:connector-curvature="0"
           style="fill:#031c72" />
      </g>
      <path
         class="st1"
         d="m -6545.6,-2122.2 c -1.4,-0.9 -2.8,-1.9 -4.2,-2.8 -6.4,-4.4 -13,-8.9 -20.8,-8.4 -7.1,0.4 -12.9,4.9 -18.4,9.2 -1.9,1.5 -4,3.1 -6,4.4 -6,4 -13,6.5 -20.1,7.2 -1.3,0.1 -2.8,0.2 -4.2,-0.1 -2.6,-0.5 -4.7,-2.3 -6.9,-4.1 l -1.1,-1 c -4.4,-3.8 -8.9,-7.7 -14.5,-9.3 -0.6,-0.2 -1.2,0.2 -1.4,0.8 -0.2,0.6 0.2,1.2 0.8,1.4 5.2,1.5 9.5,5.2 13.7,8.8 l 1.1,1 c 2.3,2 4.9,4 8,4.6 0.8,0.2 1.7,0.2 2.5,0.2 0.8,0 1.6,-0.1 2.4,-0.1 7.5,-0.8 14.8,-3.4 21.2,-7.5 2.1,-1.4 4.1,-3 6.1,-4.5 5.5,-4.3 10.7,-8.3 17.2,-8.7 7.1,-0.4 13.1,3.7 19.4,8 1.8,1.2 3.6,2.4 5.4,3.6 l 0,-2.7 z"
         id="path9535"
         inkscape:connector-curvature="0"
         style="fill:#031c72" />
      <path
         class="st1"
         d="m -6853.3,-2121.7 c -5.1,6.2 -14,9 -21.7,6.7 -4,-1.2 -7.8,-3.6 -11.5,-6 -5.8,-3.7 -11.8,-7.5 -18.7,-6.6 -4.5,0.6 -8.2,3.1 -11.9,5.6 -2.5,1.7 -5.2,3.5 -8,4.5 -5.7,2.1 -12.8,1.3 -19.5,-2.1 -1.5,-0.8 -2.9,-1.6 -4.4,-2.6 l 0,2.7 c 1.1,0.7 2.2,1.3 3.3,1.9 7.3,3.8 15.1,4.6 21.4,2.3 3.1,-1.1 5.8,-3 8.5,-4.8 3.6,-2.4 6.9,-4.7 10.9,-5.2 6.1,-0.8 11.5,2.6 17.2,6.2 3.8,2.4 7.8,5 12.1,6.2 8.5,2.5 18.5,-0.6 24.1,-7.5 0.4,-0.5 0.3,-1.2 -0.2,-1.6 -0.4,-0.3 -1.2,-0.2 -1.6,0.3 z"
         id="path9537"
         inkscape:connector-curvature="0"
         style="fill:#031c72" />
    </g>
    <g
       id="g9539"
       transform="translate(7141.0025,2682.7654)">
      <g
         id="g9541">
        <path
           class="st1"
           d="m -6675.7,-2279.4 c -0.8,0 -1.6,-0.1 -2.4,-0.1 -7.5,-0.8 -14.8,-3.4 -21.2,-7.5 -2.1,-1.4 -4.1,-3 -6.1,-4.5 -5.5,-4.3 -10.7,-8.3 -17.2,-8.7 -7.1,-0.4 -13.1,3.7 -19.4,8 -2.8,1.9 -5.7,3.9 -8.8,5.5 -7.3,3.8 -15.1,4.6 -21.4,2.3 -3.1,-1.1 -5.8,-3 -8.5,-4.8 -3.6,-2.4 -6.9,-4.7 -10.9,-5.2 -6.1,-0.8 -11.5,2.6 -17.2,6.2 -3.8,2.4 -7.8,5 -12.1,6.2 -8.5,2.5 -18.5,-0.6 -24.1,-7.5 -0.4,-0.5 -0.3,-1.2 0.2,-1.6 0.5,-0.4 1.2,-0.3 1.6,0.2 5.1,6.2 14,9 21.7,6.7 4,-1.2 7.8,-3.6 11.5,-6 5.8,-3.7 11.8,-7.5 18.7,-6.6 4.5,0.6 8.2,3.1 11.9,5.6 2.5,1.7 5.2,3.5 8,4.5 5.7,2.1 12.8,1.3 19.5,-2.1 2.9,-1.5 5.8,-3.5 8.5,-5.4 6.4,-4.4 13,-8.9 20.8,-8.4 7.1,0.4 12.9,4.9 18.4,9.2 1.9,1.5 4,3.1 6,4.4 6,4 13,6.5 20.1,7.2 1.4,0.1 2.8,0.2 4.2,-0.1 2.6,-0.5 4.7,-2.3 6.9,-4.1 l 1.1,-1 c 4.4,-3.8 8.9,-7.7 14.5,-9.3 0.6,-0.2 1.2,0.2 1.4,0.8 0.2,0.6 -0.2,1.2 -0.8,1.4 -5.2,1.5 -9.5,5.2 -13.7,8.8 l -1.1,1 c -2.3,2 -4.9,4 -8,4.6 -0.5,0.3 -1.3,0.3 -2.1,0.3 z"
           id="path9543"
           inkscape:connector-curvature="0"
           style="fill:#031c72" />
      </g>
      <path
         class="st1"
         d="m -6642.5,-2294.1 c 5.2,1.5 9.5,5.2 13.7,8.8 l 1.1,1 c 2.3,2 4.9,4 8,4.6 0.8,0.2 1.7,0.2 2.5,0.2 0.8,0 1.6,-0.1 2.4,-0.1 7.5,-0.8 14.8,-3.4 21.2,-7.5 2.1,-1.4 4.1,-3 6.1,-4.5 5.5,-4.3 10.7,-8.3 17.2,-8.7 7.1,-0.4 13.1,3.7 19.4,8 1.8,1.2 3.6,2.4 5.4,3.6 l 0,-2.7 c -1.4,-0.9 -2.8,-1.9 -4.2,-2.8 -6.4,-4.4 -13,-8.9 -20.8,-8.4 -7.1,0.4 -12.9,4.9 -18.4,9.2 -1.9,1.5 -4,3.1 -6,4.4 -6,4 -13,6.5 -20.1,7.2 -1.4,0.1 -2.8,0.2 -4.2,-0.1 -2.6,-0.5 -4.7,-2.3 -6.9,-4.1 l -1.1,-1 c -4.4,-3.8 -8.9,-7.7 -14.5,-9.3 -0.6,-0.2 -1.2,0.2 -1.4,0.8 -0.2,0.6 0,1.3 0.6,1.4 z"
         id="path9545"
         inkscape:connector-curvature="0"
         style="fill:#031c72" />
      <path
         class="st1"
         d="m -6948.9,-2288.6 c 1.1,0.7 2.2,1.3 3.3,1.9 7.3,3.8 15.1,4.6 21.4,2.3 3.1,-1.1 5.8,-3 8.5,-4.8 3.6,-2.4 6.9,-4.7 10.9,-5.2 6.1,-0.8 11.5,2.6 17.2,6.2 3.8,2.4 7.8,5 12.1,6.2 8.5,2.5 18.5,-0.6 24.1,-7.5 0.4,-0.5 0.3,-1.2 -0.2,-1.6 -0.5,-0.4 -1.2,-0.3 -1.6,0.2 -5.1,6.2 -14,9 -21.7,6.7 -4,-1.2 -7.8,-3.6 -11.5,-6 -5.8,-3.7 -11.8,-7.5 -18.7,-6.6 -4.5,0.6 -8.2,3.1 -11.9,5.6 -2.5,1.7 -5.2,3.5 -8,4.5 -5.7,2.1 -12.8,1.3 -19.5,-2.1 -1.5,-0.8 -2.9,-1.6 -4.4,-2.6 l 0,2.8 z"
         id="path9547"
         inkscape:connector-curvature="0"
         style="fill:#031c72" />
    </g>
    <g
       id="g9549"
       transform="translate(7141.0025,2682.7654)">
      <g
         id="g9551">
        <path
           class="st1"
           d="m -6675.7,-2175.3 c -0.8,0 -1.6,-0.1 -2.4,-0.1 -7.5,-0.8 -14.8,-3.4 -21.2,-7.5 -2.1,-1.4 -4.1,-3 -6.1,-4.5 -5.5,-4.3 -10.7,-8.3 -17.2,-8.7 -7.1,-0.4 -13.1,3.7 -19.4,8 -2.8,1.9 -5.7,3.9 -8.8,5.5 -7.3,3.8 -15.1,4.6 -21.4,2.3 -3.1,-1.1 -5.8,-3 -8.5,-4.8 -3.6,-2.4 -6.9,-4.7 -10.9,-5.2 -6.1,-0.8 -11.5,2.6 -17.2,6.2 -3.8,2.4 -7.8,5 -12.1,6.2 -8.5,2.5 -18.5,-0.6 -24.1,-7.5 -0.4,-0.5 -0.3,-1.2 0.2,-1.6 0.5,-0.4 1.2,-0.3 1.6,0.2 5.1,6.2 14,9 21.7,6.7 4,-1.2 7.8,-3.6 11.5,-6 5.8,-3.7 11.8,-7.5 18.7,-6.6 4.5,0.6 8.2,3.1 11.9,5.6 2.5,1.7 5.2,3.5 8,4.5 5.7,2.1 12.8,1.3 19.5,-2.1 2.9,-1.5 5.8,-3.5 8.5,-5.4 6.4,-4.4 13,-8.9 20.8,-8.4 7.1,0.4 12.9,4.9 18.4,9.2 1.9,1.5 4,3.1 6,4.4 6,4 13,6.5 20.1,7.2 1.3,0.1 2.8,0.2 4.2,-0.1 2.6,-0.5 4.7,-2.3 6.9,-4.1 l 1.1,-1 c 4.4,-3.8 8.9,-7.7 14.5,-9.3 0.6,-0.2 1.2,0.2 1.4,0.8 0.2,0.6 -0.2,1.2 -0.8,1.4 -5.2,1.5 -9.5,5.2 -13.7,8.8 l -1.1,1 c -2.3,2 -4.9,4 -8,4.6 -0.5,0.3 -1.3,0.3 -2.1,0.3 z"
           id="path9553"
           inkscape:connector-curvature="0"
           style="fill:#031c72" />
      </g>
      <path
         class="st1"
         d="m -6642.5,-2190 c 5.2,1.5 9.5,5.2 13.7,8.8 l 1.1,1 c 2.3,2 4.9,4 8,4.6 0.8,0.2 1.7,0.2 2.5,0.2 0.8,0 1.6,-0.1 2.4,-0.1 7.5,-0.8 14.8,-3.4 21.2,-7.5 2.1,-1.4 4.1,-3 6.1,-4.5 5.5,-4.3 10.7,-8.3 17.2,-8.7 7.1,-0.4 13.1,3.7 19.4,8 1.8,1.2 3.6,2.4 5.4,3.6 l 0,-2.7 c -1.4,-0.9 -2.8,-1.9 -4.2,-2.8 -6.4,-4.4 -13,-8.9 -20.8,-8.4 -7.1,0.4 -12.9,4.9 -18.4,9.2 -1.9,1.5 -4,3.1 -6,4.4 -6,4 -13,6.5 -20.1,7.2 -1.3,0.1 -2.8,0.2 -4.2,-0.1 -2.6,-0.5 -4.7,-2.3 -6.9,-4.1 l -1.1,-1 c -4.4,-3.8 -8.9,-7.7 -14.5,-9.3 -0.6,-0.2 -1.2,0.2 -1.4,0.8 -0.4,0.6 0,1.3 0.6,1.4 z"
         id="path9555"
         inkscape:connector-curvature="0"
         style="fill:#031c72" />
      <path
         class="st1"
         d="m -6853.3,-2186.8 c -5.1,6.2 -14,9 -21.7,6.7 -4,-1.2 -7.8,-3.6 -11.5,-6 -5.8,-3.7 -11.8,-7.5 -18.7,-6.6 -4.5,0.6 -8.2,3.1 -11.9,5.6 -2.5,1.7 -5.2,3.5 -8,4.5 -5.7,2.1 -12.8,1.3 -19.5,-2.1 -1.5,-0.8 -2.9,-1.6 -4.4,-2.6 l 0,2.7 c 1.1,0.7 2.2,1.3 3.3,1.9 7.3,3.8 15.1,4.6 21.4,2.3 3.1,-1.1 5.8,-3 8.5,-4.8 3.6,-2.4 6.9,-4.7 10.9,-5.2 6.1,-0.8 11.5,2.6 17.2,6.2 3.8,2.4 7.8,5 12.1,6.2 8.5,2.5 18.5,-0.6 24.1,-7.5 0.4,-0.5 0.3,-1.2 -0.2,-1.6 -0.4,-0.2 -1.2,-0.2 -1.6,0.3 z"
         id="path9557"
         inkscape:connector-curvature="0"
         style="fill:#031c72" />
    </g>
    <g
       id="g9559"
       transform="translate(7141.0025,2682.7654)">
      <g
         id="g9561">
        <path
           class="st1"
           d="m -6675.7,-2123.2 c -0.8,0 -1.6,-0.1 -2.4,-0.1 -7.5,-0.8 -14.8,-3.4 -21.2,-7.5 -2.1,-1.4 -4.1,-3 -6.1,-4.5 -5.5,-4.3 -10.7,-8.3 -17.2,-8.7 -7.1,-0.4 -13.1,3.7 -19.4,8 -2.8,1.9 -5.7,3.9 -8.8,5.5 -7.3,3.8 -15.1,4.6 -21.4,2.3 -3.1,-1.1 -5.8,-3 -8.5,-4.8 -3.6,-2.4 -6.9,-4.7 -10.9,-5.2 -6.1,-0.8 -11.5,2.6 -17.2,6.2 -3.8,2.4 -7.8,5 -12.1,6.2 -8.5,2.5 -18.5,-0.6 -24.1,-7.5 -0.4,-0.5 -0.3,-1.2 0.2,-1.6 0.5,-0.4 1.2,-0.3 1.6,0.2 5.1,6.2 14,9 21.7,6.7 4,-1.2 7.8,-3.6 11.5,-6 5.8,-3.7 11.8,-7.5 18.7,-6.6 4.5,0.6 8.2,3.1 11.9,5.6 2.5,1.7 5.2,3.5 8,4.5 5.7,2.1 12.8,1.3 19.5,-2.1 2.9,-1.5 5.8,-3.5 8.5,-5.4 6.4,-4.4 13,-8.9 20.8,-8.4 7.1,0.4 12.9,4.9 18.4,9.2 1.9,1.5 4,3.1 6,4.4 6,4 13,6.5 20.1,7.2 1.3,0.1 2.8,0.2 4.2,-0.1 2.6,-0.5 4.7,-2.3 6.9,-4.1 l 1.1,-1 c 4.4,-3.8 8.9,-7.7 14.5,-9.3 0.6,-0.2 1.2,0.2 1.4,0.8 0.2,0.6 -0.2,1.2 -0.8,1.4 -5.2,1.5 -9.5,5.2 -13.7,8.8 l -1.1,1 c -2.3,2 -4.9,4 -8,4.6 -0.5,0.2 -1.3,0.3 -2.1,0.3 z"
           id="path9563"
           inkscape:connector-curvature="0"
           style="fill:#031c72" />
      </g>
      <path
         class="st1"
         d="m -6642.5,-2137.9 c 5.2,1.5 9.5,5.2 13.7,8.8 l 1.1,1 c 2.3,2 4.9,4 8,4.6 0.8,0.2 1.7,0.2 2.5,0.2 0.8,0 1.6,-0.1 2.4,-0.1 7.5,-0.8 14.8,-3.4 21.2,-7.5 2.1,-1.4 4.1,-3 6.1,-4.5 5.5,-4.3 10.7,-8.3 17.2,-8.7 7.1,-0.4 13.1,3.7 19.4,8 1.8,1.2 3.6,2.4 5.4,3.6 l 0,-2.7 c -1.4,-0.9 -2.8,-1.9 -4.2,-2.8 -6.4,-4.4 -13,-8.9 -20.8,-8.4 -7.1,0.4 -12.9,4.9 -18.4,9.2 -1.9,1.5 -4,3.1 -6,4.4 -6,4 -13,6.5 -20.1,7.2 -1.3,0.1 -2.8,0.2 -4.2,-0.1 -2.6,-0.5 -4.7,-2.3 -6.9,-4.1 l -1.1,-1 c -4.4,-3.8 -8.9,-7.7 -14.5,-9.3 -0.6,-0.2 -1.2,0.2 -1.4,0.8 -0.4,0.6 0,1.2 0.6,1.4 z"
         id="path9565"
         inkscape:connector-curvature="0"
         style="fill:#031c72" />
      <path
         class="st1"
         d="m -6853.3,-2134.7 c -5.1,6.2 -14,9 -21.7,6.7 -4,-1.2 -7.8,-3.6 -11.5,-6 -5.8,-3.7 -11.8,-7.5 -18.7,-6.6 -4.5,0.6 -8.2,3.1 -11.9,5.6 -2.5,1.7 -5.2,3.5 -8,4.5 -5.7,2.1 -12.8,1.3 -19.5,-2.1 -1.5,-0.8 -2.9,-1.6 -4.4,-2.6 l 0,2.7 c 1.1,0.7 2.2,1.3 3.3,1.9 7.3,3.8 15.1,4.6 21.4,2.3 3.1,-1.1 5.8,-3 8.5,-4.8 3.6,-2.4 6.9,-4.7 10.9,-5.2 6.1,-0.8 11.5,2.6 17.2,6.2 3.8,2.4 7.8,5 12.1,6.2 8.5,2.5 18.5,-0.6 24.1,-7.5 0.4,-0.5 0.3,-1.2 -0.2,-1.6 -0.4,-0.3 -1.2,-0.2 -1.6,0.3 z"
         id="path9567"
         inkscape:connector-curvature="0"
         style="fill:#031c72" />
    </g>
    <g
       id="g9569"
       transform="translate(7141.0025,2682.7654)">
      <g
         id="g9571">
        <path
           class="st1"
           d="m -6675.7,-2097.2 c -0.8,0 -1.6,-0.1 -2.4,-0.1 -7.5,-0.8 -14.8,-3.4 -21.2,-7.5 -2.1,-1.4 -4.1,-3 -6.1,-4.5 -5.5,-4.3 -10.7,-8.3 -17.2,-8.7 -7.1,-0.4 -13.1,3.7 -19.4,8 -2.8,1.9 -5.7,3.9 -8.8,5.5 -7.3,3.8 -15.1,4.6 -21.4,2.3 -3.1,-1.1 -5.8,-3 -8.5,-4.8 -3.6,-2.4 -6.9,-4.7 -10.9,-5.2 -6.1,-0.8 -11.5,2.6 -17.2,6.2 -3.8,2.4 -7.8,5 -12.1,6.2 -8.5,2.5 -18.5,-0.6 -24.1,-7.5 -0.4,-0.5 -0.3,-1.2 0.2,-1.6 0.5,-0.4 1.2,-0.3 1.6,0.2 5.1,6.2 14,9 21.7,6.7 4,-1.2 7.8,-3.6 11.5,-6 5.8,-3.7 11.8,-7.5 18.7,-6.6 4.5,0.6 8.2,3.1 11.9,5.6 2.5,1.7 5.2,3.5 8,4.5 5.7,2.1 12.8,1.3 19.5,-2.1 2.9,-1.5 5.8,-3.5 8.5,-5.4 6.4,-4.4 13,-8.9 20.8,-8.4 7.1,0.4 12.9,4.9 18.4,9.2 1.9,1.5 4,3.1 6,4.4 6,4 13,6.5 20.1,7.2 1.3,0.1 2.8,0.2 4.2,-0.1 2.6,-0.5 4.7,-2.3 6.9,-4.1 l 1.1,-1 c 4.4,-3.8 8.9,-7.7 14.5,-9.3 0.6,-0.2 1.2,0.2 1.4,0.8 0.2,0.6 -0.2,1.2 -0.8,1.4 -5.2,1.5 -9.5,5.2 -13.7,8.8 l -1.1,1 c -2.3,2 -4.9,4 -8,4.6 -0.5,0.2 -1.3,0.3 -2.1,0.3 z"
           id="path9573"
           inkscape:connector-curvature="0"
           style="fill:#031c72" />
      </g>
      <path
         class="st1"
         d="m -6642.5,-2111.9 c 5.2,1.5 9.5,5.2 13.7,8.8 l 1.1,1 c 2.3,2 4.9,4 8,4.6 0.8,0.2 1.7,0.2 2.5,0.2 0.8,0 1.6,-0.1 2.4,-0.1 7.5,-0.8 14.8,-3.4 21.2,-7.5 2.1,-1.4 4.1,-3 6.1,-4.5 5.5,-4.3 10.7,-8.3 17.2,-8.7 7.1,-0.4 13.1,3.7 19.4,8 1.8,1.2 3.6,2.4 5.4,3.6 l 0,-2.7 c -1.4,-0.9 -2.8,-1.9 -4.2,-2.8 -6.4,-4.4 -13,-8.9 -20.8,-8.4 -7.1,0.4 -12.9,4.9 -18.4,9.2 -1.9,1.5 -4,3.1 -6,4.4 -6,4 -13,6.5 -20.1,7.2 -1.3,0.1 -2.8,0.2 -4.2,-0.1 -2.6,-0.5 -4.7,-2.3 -6.9,-4.1 l -1.1,-1 c -4.4,-3.8 -8.9,-7.7 -14.5,-9.3 -0.6,-0.2 -1.2,0.2 -1.4,0.8 -0.4,0.6 0,1.2 0.6,1.4 z"
         id="path9575"
         inkscape:connector-curvature="0"
         style="fill:#031c72" />
      <path
         class="st1"
         d="m -6853.3,-2108.7 c -5.1,6.2 -14,9 -21.7,6.7 -4,-1.2 -7.8,-3.6 -11.5,-6 -5.8,-3.7 -11.8,-7.5 -18.7,-6.6 -4.5,0.6 -8.2,3.1 -11.9,5.6 -2.5,1.7 -5.2,3.5 -8,4.5 -5.7,2.1 -12.8,1.3 -19.5,-2.1 -1.5,-0.8 -2.9,-1.6 -4.4,-2.6 l 0,2.7 c 1.1,0.7 2.2,1.3 3.3,1.9 7.3,3.8 15.1,4.6 21.4,2.3 3.1,-1.1 5.8,-3 8.5,-4.8 3.6,-2.4 6.9,-4.7 10.9,-5.2 6.1,-0.8 11.5,2.6 17.2,6.2 3.8,2.4 7.8,5 12.1,6.2 8.5,2.5 18.5,-0.6 24.1,-7.5 0.4,-0.5 0.3,-1.2 -0.2,-1.6 -0.4,-0.3 -1.2,-0.2 -1.6,0.3 z"
         id="path9577"
         inkscape:connector-curvature="0"
         style="fill:#031c72" />
    </g>
    <g
       id="g9579"
       transform="translate(7141.0025,2682.7654)">
      <g
         id="g9581">
        <path
           class="st1"
           d="m -6675.7,-2084.2 c -0.8,0 -1.6,-0.1 -2.4,-0.1 -7.5,-0.8 -14.8,-3.4 -21.2,-7.5 -2.1,-1.4 -4.1,-3 -6.1,-4.5 -5.5,-4.3 -10.7,-8.3 -17.2,-8.7 -7.1,-0.4 -13.1,3.7 -19.4,8 -2.8,1.9 -5.7,3.9 -8.8,5.5 -7.3,3.8 -15.1,4.6 -21.4,2.3 -3.1,-1.1 -5.8,-3 -8.5,-4.8 -3.6,-2.4 -6.9,-4.7 -10.9,-5.2 -6.1,-0.8 -11.5,2.6 -17.2,6.2 -3.8,2.4 -7.8,5 -12.1,6.2 -8.5,2.5 -18.5,-0.6 -24.1,-7.5 -0.4,-0.5 -0.3,-1.2 0.2,-1.6 0.5,-0.4 1.2,-0.3 1.6,0.2 5.1,6.2 14,9 21.7,6.7 4,-1.2 7.8,-3.6 11.5,-6 5.8,-3.7 11.8,-7.5 18.7,-6.6 4.5,0.6 8.2,3.1 11.9,5.6 2.5,1.7 5.2,3.5 8,4.5 5.7,2.1 12.8,1.3 19.5,-2.1 2.9,-1.5 5.8,-3.5 8.5,-5.4 6.4,-4.4 13,-8.9 20.8,-8.4 7.1,0.4 12.9,4.9 18.4,9.2 1.9,1.5 4,3.1 6,4.4 6,4 13,6.5 20.1,7.2 1.3,0.1 2.8,0.2 4.2,-0.1 2.6,-0.5 4.7,-2.3 6.9,-4.1 l 1.1,-1 c 4.4,-3.8 8.9,-7.7 14.5,-9.3 0.6,-0.2 1.2,0.2 1.4,0.8 0.2,0.6 -0.2,1.2 -0.8,1.4 -5.2,1.5 -9.5,5.2 -13.7,8.8 l -1.1,1 c -2.3,2 -4.9,4 -8,4.6 -0.5,0.2 -1.3,0.3 -2.1,0.3 z"
           id="path9583"
           inkscape:connector-curvature="0"
           style="fill:#031c72" />
      </g>
      <path
         class="st1"
         d="m -6642.5,-2098.9 c 5.2,1.5 9.5,5.2 13.7,8.8 l 1.1,1 c 2.3,2 4.9,4 8,4.6 0.8,0.2 1.7,0.2 2.5,0.2 0.8,0 1.6,-0.1 2.4,-0.1 7.5,-0.8 14.8,-3.4 21.2,-7.5 2.1,-1.4 4.1,-3 6.1,-4.5 5.5,-4.3 10.7,-8.3 17.2,-8.7 7.1,-0.4 13.1,3.7 19.4,8 1.8,1.2 3.6,2.4 5.4,3.6 l 0,-2.7 c -1.4,-0.9 -2.8,-1.9 -4.2,-2.8 -6.4,-4.4 -13,-8.9 -20.8,-8.4 -7.1,0.4 -12.9,4.9 -18.4,9.2 -1.9,1.5 -4,3.1 -6,4.4 -6,4 -13,6.5 -20.1,7.2 -1.3,0.1 -2.8,0.2 -4.2,-0.1 -2.6,-0.5 -4.7,-2.3 -6.9,-4.1 l -1.1,-1 c -4.4,-3.8 -8.9,-7.7 -14.5,-9.3 -0.6,-0.2 -1.2,0.2 -1.4,0.8 -0.4,0.6 0,1.2 0.6,1.4 z"
         id="path9585"
         inkscape:connector-curvature="0"
         style="fill:#031c72" />
      <path
         class="st1"
         d="m -6853.3,-2095.7 c -5.1,6.2 -14,9 -21.7,6.7 -4,-1.2 -7.8,-3.6 -11.5,-6 -5.8,-3.7 -11.8,-7.5 -18.7,-6.6 -4.5,0.6 -8.2,3.1 -11.9,5.6 -2.5,1.7 -5.2,3.5 -8,4.5 -5.7,2.1 -12.8,1.3 -19.5,-2.1 -1.5,-0.8 -2.9,-1.6 -4.4,-2.6 l 0,2.7 c 1.1,0.7 2.2,1.3 3.3,1.9 7.3,3.8 15.1,4.6 21.4,2.3 3.1,-1.1 5.8,-3 8.5,-4.8 3.6,-2.4 6.9,-4.7 10.9,-5.2 6.1,-0.8 11.5,2.6 17.2,6.2 3.8,2.4 7.8,5 12.1,6.2 8.5,2.5 18.5,-0.6 24.1,-7.5 0.4,-0.5 0.3,-1.2 -0.2,-1.6 -0.4,-0.3 -1.2,-0.2 -1.6,0.3 z"
         id="path9587"
         inkscape:connector-curvature="0"
         style="fill:#031c72" />
    </g>
    <g
       id="g9589"
       transform="translate(7141.0025,2682.7654)">
      <g
         id="g9591">
        <path
           class="st1"
           d="m -6675.7,-2071.2 c -0.8,0 -1.6,-0.1 -2.4,-0.1 -7.5,-0.8 -14.8,-3.4 -21.2,-7.5 -2.1,-1.4 -4.1,-3 -6.1,-4.5 -5.5,-4.3 -10.7,-8.3 -17.2,-8.7 -7.1,-0.4 -13.1,3.7 -19.4,8 -2.8,1.9 -5.7,3.9 -8.8,5.5 -7.3,3.8 -15.1,4.6 -21.4,2.3 -3.1,-1.1 -5.8,-3 -8.5,-4.8 -3.6,-2.4 -6.9,-4.7 -10.9,-5.2 -6.1,-0.8 -11.5,2.6 -17.2,6.2 -3.8,2.4 -7.8,5 -12.1,6.2 -8.5,2.5 -18.5,-0.6 -24.1,-7.5 -0.4,-0.5 -0.3,-1.2 0.2,-1.6 0.5,-0.4 1.2,-0.3 1.6,0.2 5.1,6.2 14,9 21.7,6.7 4,-1.2 7.8,-3.6 11.5,-6 5.8,-3.7 11.8,-7.5 18.7,-6.6 4.5,0.6 8.2,3.1 11.9,5.6 2.5,1.7 5.2,3.5 8,4.5 5.7,2.1 12.8,1.3 19.5,-2.1 2.9,-1.5 5.8,-3.5 8.5,-5.4 6.4,-4.4 13,-8.9 20.8,-8.4 7.1,0.4 12.9,4.9 18.4,9.2 1.9,1.5 4,3.1 6,4.4 6,4 13,6.5 20.1,7.2 1.3,0.1 2.8,0.2 4.2,-0.1 2.6,-0.5 4.7,-2.3 6.9,-4.1 l 1.1,-1 c 4.4,-3.8 8.9,-7.7 14.5,-9.3 0.6,-0.2 1.2,0.2 1.4,0.8 0.2,0.6 -0.2,1.2 -0.8,1.4 -5.2,1.5 -9.5,5.2 -13.7,8.8 l -1.1,1 c -2.3,2 -4.9,4 -8,4.6 -0.5,0.2 -1.3,0.3 -2.1,0.3 z"
           id="path9593"
           inkscape:connector-curvature="0"
           style="fill:#031c72" />
      </g>
      <path
         class="st1"
         d="m -6642.5,-2085.9 c 5.2,1.5 9.5,5.2 13.7,8.8 l 1.1,1 c 2.3,2 4.9,4 8,4.6 0.8,0.2 1.7,0.2 2.5,0.2 0.8,0 1.6,-0.1 2.4,-0.1 7.5,-0.8 14.8,-3.4 21.2,-7.5 2.1,-1.4 4.1,-3 6.1,-4.5 5.5,-4.3 10.7,-8.3 17.2,-8.7 7.1,-0.4 13.1,3.7 19.4,8 1.8,1.2 3.6,2.4 5.4,3.6 l 0,-2.7 c -1.4,-0.9 -2.8,-1.9 -4.2,-2.8 -6.4,-4.4 -13,-8.9 -20.8,-8.4 -7.1,0.4 -12.9,4.9 -18.4,9.2 -1.9,1.5 -4,3.1 -6,4.4 -6,4 -13,6.5 -20.1,7.2 -1.3,0.1 -2.8,0.2 -4.2,-0.1 -2.6,-0.5 -4.7,-2.3 -6.9,-4.1 l -1.1,-1 c -4.4,-3.8 -8.9,-7.7 -14.5,-9.3 -0.6,-0.2 -1.2,0.2 -1.4,0.8 -0.4,0.6 0,1.3 0.6,1.4 z"
         id="path9595"
         inkscape:connector-curvature="0"
         style="fill:#031c72" />
      <path
         class="st1"
         d="m -6853.3,-2082.7 c -5.1,6.2 -14,9 -21.7,6.7 -4,-1.2 -7.8,-3.6 -11.5,-6 -5.8,-3.7 -11.8,-7.5 -18.7,-6.6 -4.5,0.6 -8.2,3.1 -11.9,5.6 -2.5,1.7 -5.2,3.5 -8,4.5 -5.7,2.1 -12.8,1.3 -19.5,-2.1 -1.5,-0.8 -2.9,-1.6 -4.4,-2.6 l 0,2.7 c 1.1,0.7 2.2,1.3 3.3,1.9 7.3,3.8 15.1,4.6 21.4,2.3 3.1,-1.1 5.8,-3 8.5,-4.8 3.6,-2.4 6.9,-4.7 10.9,-5.2 6.1,-0.8 11.5,2.6 17.2,6.2 3.8,2.4 7.8,5 12.1,6.2 8.5,2.5 18.5,-0.6 24.1,-7.5 0.4,-0.5 0.3,-1.2 -0.2,-1.6 -0.4,-0.3 -1.2,-0.2 -1.6,0.3 z"
         id="path9597"
         inkscape:connector-curvature="0"
         style="fill:#031c72" />
    </g>
    <g
       id="g9599"
       transform="translate(7141.0025,2682.7654)">
      <g
         id="g9601">
        <path
           class="st1"
           d="m -6675.7,-2253.4 c -0.8,0 -1.6,-0.1 -2.4,-0.1 -7.5,-0.8 -14.8,-3.4 -21.2,-7.5 -2.1,-1.4 -4.1,-3 -6.1,-4.5 -5.5,-4.3 -10.7,-8.3 -17.2,-8.7 -7.1,-0.4 -13.1,3.7 -19.4,8 -2.8,1.9 -5.7,3.9 -8.8,5.5 -7.3,3.8 -15.1,4.6 -21.4,2.3 -3.1,-1.1 -5.8,-3 -8.5,-4.8 -3.6,-2.4 -6.9,-4.7 -10.9,-5.2 -6.1,-0.8 -11.5,2.6 -17.2,6.2 -3.8,2.4 -7.8,5 -12.1,6.2 -8.5,2.5 -18.5,-0.6 -24.1,-7.5 -0.4,-0.5 -0.3,-1.2 0.2,-1.6 0.5,-0.4 1.2,-0.3 1.6,0.2 5.1,6.2 14,9 21.7,6.7 4,-1.2 7.8,-3.6 11.5,-6 5.8,-3.7 11.8,-7.5 18.7,-6.6 4.5,0.6 8.2,3.1 11.9,5.6 2.5,1.7 5.2,3.5 8,4.5 5.7,2.1 12.8,1.3 19.5,-2.1 2.9,-1.5 5.8,-3.5 8.5,-5.4 6.4,-4.4 13,-8.9 20.8,-8.4 7.1,0.4 12.9,4.9 18.4,9.2 1.9,1.5 4,3.1 6,4.4 6,4 13,6.5 20.1,7.2 1.3,0.1 2.8,0.2 4.2,-0.1 2.6,-0.5 4.7,-2.3 6.9,-4.1 l 1.1,-1 c 4.4,-3.8 8.9,-7.7 14.5,-9.3 0.6,-0.2 1.2,0.2 1.4,0.8 0.2,0.6 -0.2,1.2 -0.8,1.4 -5.2,1.5 -9.5,5.2 -13.7,8.8 l -1.1,1 c -2.3,2 -4.9,4 -8,4.6 -0.5,0.3 -1.3,0.3 -2.1,0.3 z"
           id="path9603"
           inkscape:connector-curvature="0"
           style="fill:#031c72" />
      </g>
      <path
         class="st1"
         d="m -6642.5,-2268 c 5.2,1.5 9.5,5.2 13.7,8.8 l 1.1,1 c 2.3,2 4.9,4 8,4.6 0.8,0.2 1.7,0.2 2.5,0.2 0.8,0 1.6,-0.1 2.4,-0.1 7.5,-0.8 14.8,-3.4 21.2,-7.5 2.1,-1.4 4.1,-3 6.1,-4.5 5.5,-4.3 10.7,-8.3 17.2,-8.7 7.1,-0.4 13.1,3.7 19.4,8 1.8,1.2 3.6,2.4 5.4,3.6 l 0,-2.7 c -1.4,-0.9 -2.8,-1.9 -4.2,-2.8 -6.4,-4.4 -13,-8.9 -20.8,-8.4 -7.1,0.4 -12.9,4.9 -18.4,9.2 -1.9,1.5 -4,3.1 -6,4.4 -6,4 -13,6.5 -20.1,7.2 -1.3,0.1 -2.8,0.2 -4.2,-0.1 -2.6,-0.5 -4.7,-2.3 -6.9,-4.1 l -1.1,-1 c -4.4,-3.8 -8.9,-7.7 -14.5,-9.3 -0.6,-0.2 -1.2,0.2 -1.4,0.8 -0.4,0.6 0,1.2 0.6,1.4 z"
         id="path9605"
         inkscape:connector-curvature="0"
         style="fill:#031c72" />
      <path
         class="st1"
         d="m -6853.3,-2264.9 c -5.1,6.2 -14,9 -21.7,6.7 -4,-1.2 -7.8,-3.6 -11.5,-6 -5.8,-3.7 -11.8,-7.5 -18.7,-6.6 -4.5,0.6 -8.2,3.1 -11.9,5.6 -2.5,1.7 -5.2,3.5 -8,4.5 -5.7,2.1 -12.8,1.3 -19.5,-2.1 -1.5,-0.8 -2.9,-1.6 -4.4,-2.6 l 0,2.7 c 1.1,0.7 2.2,1.3 3.3,1.9 7.3,3.8 15.1,4.6 21.4,2.3 3.1,-1.1 5.8,-3 8.5,-4.8 3.6,-2.4 6.9,-4.7 10.9,-5.2 6.1,-0.8 11.5,2.6 17.2,6.2 3.8,2.4 7.8,5 12.1,6.2 8.5,2.5 18.5,-0.6 24.1,-7.5 0.4,-0.5 0.3,-1.2 -0.2,-1.6 -0.4,-0.2 -1.2,-0.1 -1.6,0.3 z"
         id="path9607"
         inkscape:connector-curvature="0"
         style="fill:#031c72" />
    </g>
    <g
       id="g9609"
       transform="translate(7141.0025,2682.7654)">
      <g
         id="g9611">
        <path
           class="st1"
           d="m -6675.7,-2240.3 c -0.8,0 -1.6,-0.1 -2.4,-0.1 -7.5,-0.8 -14.8,-3.4 -21.2,-7.5 -2.1,-1.4 -4.1,-3 -6.1,-4.5 -5.5,-4.3 -10.7,-8.3 -17.2,-8.7 -7.1,-0.4 -13.1,3.7 -19.4,8 -2.8,1.9 -5.7,3.9 -8.8,5.5 -7.3,3.8 -15.1,4.6 -21.4,2.3 -3.1,-1.1 -5.8,-3 -8.5,-4.8 -3.6,-2.4 -6.9,-4.7 -10.9,-5.2 -6.1,-0.8 -11.5,2.6 -17.2,6.2 -3.8,2.4 -7.8,5 -12.1,6.2 -8.5,2.5 -18.5,-0.6 -24.1,-7.5 -0.4,-0.5 -0.3,-1.2 0.2,-1.6 0.5,-0.4 1.2,-0.3 1.6,0.2 5.1,6.2 14,9 21.7,6.7 4,-1.2 7.8,-3.6 11.5,-6 5.8,-3.7 11.8,-7.5 18.7,-6.6 4.5,0.6 8.2,3.1 11.9,5.6 2.5,1.7 5.2,3.5 8,4.5 5.7,2.1 12.8,1.3 19.5,-2.1 2.9,-1.5 5.8,-3.5 8.5,-5.4 6.4,-4.4 13,-8.9 20.8,-8.4 7.1,0.4 12.9,4.9 18.4,9.2 1.9,1.5 4,3.1 6,4.4 6,4 13,6.5 20.1,7.2 1.3,0.1 2.8,0.2 4.2,-0.1 2.6,-0.5 4.7,-2.3 6.9,-4.1 l 1.1,-1 c 4.4,-3.8 8.9,-7.7 14.5,-9.3 0.6,-0.2 1.2,0.2 1.4,0.8 0.2,0.6 -0.2,1.2 -0.8,1.4 -5.2,1.5 -9.5,5.2 -13.7,8.8 l -1.1,1 c -2.3,2 -4.9,4 -8,4.6 -0.5,0.2 -1.3,0.3 -2.1,0.3 z"
           id="path9613"
           inkscape:connector-curvature="0"
           style="fill:#031c72" />
      </g>
      <path
         class="st1"
         d="m -6642.5,-2255 c 5.2,1.5 9.5,5.2 13.7,8.8 l 1.1,1 c 2.3,2 4.9,4 8,4.6 0.8,0.2 1.7,0.2 2.5,0.2 0.8,0 1.6,-0.1 2.4,-0.1 7.5,-0.8 14.8,-3.4 21.2,-7.5 2.1,-1.4 4.1,-3 6.1,-4.5 5.5,-4.3 10.7,-8.3 17.2,-8.7 7.1,-0.4 13.1,3.7 19.4,8 1.8,1.2 3.6,2.4 5.4,3.6 l 0,-2.7 c -1.4,-0.9 -2.8,-1.9 -4.2,-2.8 -6.4,-4.4 -13,-8.9 -20.8,-8.4 -7.1,0.4 -12.9,4.9 -18.4,9.2 -1.9,1.5 -4,3.1 -6,4.4 -6,4 -13,6.5 -20.1,7.2 -1.3,0.1 -2.8,0.2 -4.2,-0.1 -2.6,-0.5 -4.7,-2.3 -6.9,-4.1 l -1.1,-1 c -4.4,-3.8 -8.9,-7.7 -14.5,-9.3 -0.6,-0.2 -1.2,0.2 -1.4,0.8 -0.4,0.6 0,1.2 0.6,1.4 z"
         id="path9615"
         inkscape:connector-curvature="0"
         style="fill:#031c72" />
      <path
         class="st1"
         d="m -6853.3,-2251.8 c -5.1,6.2 -14,9 -21.7,6.7 -4,-1.2 -7.8,-3.6 -11.5,-6 -5.8,-3.7 -11.8,-7.5 -18.7,-6.6 -4.5,0.6 -8.2,3.1 -11.9,5.6 -2.5,1.7 -5.2,3.5 -8,4.5 -5.7,2.1 -12.8,1.3 -19.5,-2.1 -1.5,-0.8 -2.9,-1.6 -4.4,-2.6 l 0,2.7 c 1.1,0.7 2.2,1.3 3.3,1.9 7.3,3.8 15.1,4.6 21.4,2.3 3.1,-1.1 5.8,-3 8.5,-4.8 3.6,-2.4 6.9,-4.7 10.9,-5.2 6.1,-0.8 11.5,2.6 17.2,6.2 3.8,2.4 7.8,5 12.1,6.2 8.5,2.5 18.5,-0.6 24.1,-7.5 0.4,-0.5 0.3,-1.2 -0.2,-1.6 -0.4,-0.3 -1.2,-0.2 -1.6,0.3 z"
         id="path9617"
         inkscape:connector-curvature="0"
         style="fill:#031c72" />
    </g>
    <g
       id="g9619"
       transform="translate(7141.0025,2682.7654)">
      <g
         id="g9621">
        <path
           class="st1"
           d="m -6675.7,-2266.4 c -0.8,0 -1.6,-0.1 -2.4,-0.1 -7.5,-0.8 -14.8,-3.4 -21.2,-7.5 -2.1,-1.4 -4.1,-3 -6.1,-4.5 -5.5,-4.3 -10.7,-8.3 -17.2,-8.7 -7.1,-0.4 -13.1,3.7 -19.4,8 -2.8,1.9 -5.7,3.9 -8.8,5.5 -7.3,3.8 -15.1,4.6 -21.4,2.3 -3.1,-1.1 -5.8,-3 -8.5,-4.8 -3.6,-2.4 -6.9,-4.7 -10.9,-5.2 -6.1,-0.8 -11.5,2.6 -17.2,6.2 -3.8,2.4 -7.8,5 -12.1,6.2 -8.5,2.5 -18.5,-0.6 -24.1,-7.5 -0.4,-0.5 -0.3,-1.2 0.2,-1.6 0.5,-0.4 1.2,-0.3 1.6,0.2 5.1,6.2 14,9 21.7,6.7 4,-1.2 7.8,-3.6 11.5,-6 5.8,-3.7 11.8,-7.5 18.7,-6.6 4.5,0.6 8.2,3.1 11.9,5.6 2.5,1.7 5.2,3.5 8,4.5 5.7,2.1 12.8,1.3 19.5,-2.1 2.9,-1.5 5.8,-3.5 8.5,-5.4 6.4,-4.4 13,-8.9 20.8,-8.4 7.1,0.4 12.9,4.9 18.4,9.2 1.9,1.5 4,3.1 6,4.4 6,4 13,6.5 20.1,7.2 1.3,0.1 2.8,0.2 4.2,-0.1 2.6,-0.5 4.7,-2.3 6.9,-4.1 l 1.1,-1 c 4.4,-3.8 8.9,-7.7 14.5,-9.3 0.6,-0.2 1.2,0.2 1.4,0.8 0.2,0.6 -0.2,1.2 -0.8,1.4 -5.2,1.5 -9.5,5.2 -13.7,8.8 l -1.1,1 c -2.3,2 -4.9,4 -8,4.6 -0.5,0.3 -1.3,0.3 -2.1,0.3 z"
           id="path9623"
           inkscape:connector-curvature="0"
           style="fill:#031c72" />
      </g>
      <path
         class="st1"
         d="m -6642.5,-2281 c 5.2,1.5 9.5,5.2 13.7,8.8 l 1.1,1 c 2.3,2 4.9,4 8,4.6 0.8,0.2 1.7,0.2 2.5,0.2 0.8,0 1.6,-0.1 2.4,-0.1 7.5,-0.8 14.8,-3.4 21.2,-7.5 2.1,-1.4 4.1,-3 6.1,-4.5 5.5,-4.3 10.7,-8.3 17.2,-8.7 7.1,-0.4 13.1,3.7 19.4,8 1.8,1.2 3.6,2.4 5.4,3.6 l 0,-2.7 c -1.4,-0.9 -2.8,-1.9 -4.2,-2.8 -6.4,-4.4 -13,-8.9 -20.8,-8.4 -7.1,0.4 -12.9,4.9 -18.4,9.2 -1.9,1.5 -4,3.1 -6,4.4 -6,4 -13,6.5 -20.1,7.2 -1.3,0.1 -2.8,0.2 -4.2,-0.1 -2.6,-0.5 -4.7,-2.3 -6.9,-4.1 l -1.1,-1 c -4.4,-3.8 -8.9,-7.7 -14.5,-9.3 -0.6,-0.2 -1.2,0.2 -1.4,0.8 -0.4,0.6 0,1.2 0.6,1.4 z"
         id="path9625"
         inkscape:connector-curvature="0"
         style="fill:#031c72" />
      <path
         class="st1"
         d="m -6853.3,-2277.9 c -5.1,6.2 -14,9 -21.7,6.7 -4,-1.2 -7.8,-3.6 -11.5,-6 -5.8,-3.7 -11.8,-7.5 -18.7,-6.6 -4.5,0.6 -8.2,3.1 -11.9,5.6 -2.5,1.7 -5.2,3.5 -8,4.5 -5.7,2.1 -12.8,1.3 -19.5,-2.1 -1.5,-0.8 -2.9,-1.6 -4.4,-2.6 l 0,2.7 c 1.1,0.7 2.2,1.3 3.3,1.9 7.3,3.8 15.1,4.6 21.4,2.3 3.1,-1.1 5.8,-3 8.5,-4.8 3.6,-2.4 6.9,-4.7 10.9,-5.2 6.1,-0.8 11.5,2.6 17.2,6.2 3.8,2.4 7.8,5 12.1,6.2 8.5,2.5 18.5,-0.6 24.1,-7.5 0.4,-0.5 0.3,-1.2 -0.2,-1.6 -0.4,-0.2 -1.2,-0.2 -1.6,0.3 z"
         id="path9627"
         inkscape:connector-curvature="0"
         style="fill:#031c72" />
    </g>
    <g
       id="g9629"
       transform="translate(7141.0025,2682.7654)">
      <g
         id="g9631">
        <path
           class="st1"
           d="m -6675.7,-2188.3 c -0.8,0 -1.6,-0.1 -2.4,-0.1 -7.5,-0.8 -14.8,-3.4 -21.2,-7.5 -2.1,-1.4 -4.1,-3 -6.1,-4.5 -5.5,-4.3 -10.7,-8.3 -17.2,-8.7 -7.1,-0.4 -13.1,3.7 -19.4,8 -2.8,1.9 -5.7,3.9 -8.8,5.5 -7.3,3.8 -15.1,4.6 -21.4,2.3 -3.1,-1.1 -5.8,-3 -8.5,-4.8 -3.6,-2.4 -6.9,-4.7 -10.9,-5.2 -6.1,-0.8 -11.5,2.6 -17.2,6.2 -3.8,2.4 -7.8,5 -12.1,6.2 -8.5,2.5 -18.5,-0.6 -24.1,-7.5 -0.4,-0.5 -0.3,-1.2 0.2,-1.6 0.5,-0.4 1.2,-0.3 1.6,0.2 5.1,6.2 14,9 21.7,6.7 4,-1.2 7.8,-3.6 11.5,-6 5.8,-3.7 11.8,-7.5 18.7,-6.6 4.5,0.6 8.2,3.1 11.9,5.6 2.5,1.7 5.2,3.5 8,4.5 5.7,2.1 12.8,1.3 19.5,-2.1 2.9,-1.5 5.8,-3.5 8.5,-5.4 6.4,-4.4 13,-8.9 20.8,-8.4 7.1,0.4 12.9,4.9 18.4,9.2 1.9,1.5 4,3.1 6,4.4 6,4 13,6.5 20.1,7.2 1.3,0.1 2.8,0.2 4.2,-0.1 2.6,-0.5 4.7,-2.3 6.9,-4.1 l 1.1,-1 c 4.4,-3.8 8.9,-7.7 14.5,-9.3 0.6,-0.2 1.2,0.2 1.4,0.8 0.2,0.6 -0.2,1.2 -0.8,1.4 -5.2,1.5 -9.5,5.2 -13.7,8.8 l -1.1,1 c -2.3,2 -4.9,4 -8,4.6 -0.5,0.2 -1.3,0.3 -2.1,0.3 z"
           id="path9633"
           inkscape:connector-curvature="0"
           style="fill:#031c72" />
      </g>
      <path
         class="st1"
         d="m -6642.5,-2203 c 5.2,1.5 9.5,5.2 13.7,8.8 l 1.1,1 c 2.3,2 4.9,4 8,4.6 0.8,0.2 1.7,0.2 2.5,0.2 0.8,0 1.6,-0.1 2.4,-0.1 7.5,-0.8 14.8,-3.4 21.2,-7.5 2.1,-1.4 4.1,-3 6.1,-4.5 5.5,-4.3 10.7,-8.3 17.2,-8.7 7.1,-0.4 13.1,3.7 19.4,8 1.8,1.2 3.6,2.4 5.4,3.6 l 0,-2.7 c -1.4,-0.9 -2.8,-1.9 -4.2,-2.8 -6.4,-4.4 -13,-8.9 -20.8,-8.4 -7.1,0.4 -12.9,4.9 -18.4,9.2 -1.9,1.5 -4,3.1 -6,4.4 -6,4 -13,6.5 -20.1,7.2 -1.3,0.1 -2.8,0.2 -4.2,-0.1 -2.6,-0.5 -4.7,-2.3 -6.9,-4.1 l -1.1,-1 c -4.4,-3.8 -8.9,-7.7 -14.5,-9.3 -0.6,-0.2 -1.2,0.2 -1.4,0.8 -0.4,0.6 0,1.3 0.6,1.4 z"
         id="path9635"
         inkscape:connector-curvature="0"
         style="fill:#031c72" />
      <path
         class="st1"
         d="m -6853.3,-2199.8 c -5.1,6.2 -14,9 -21.7,6.7 -4,-1.2 -7.8,-3.6 -11.5,-6 -5.8,-3.7 -11.8,-7.5 -18.7,-6.6 -4.5,0.6 -8.2,3.1 -11.9,5.6 -2.5,1.7 -5.2,3.5 -8,4.5 -5.7,2.1 -12.8,1.3 -19.5,-2.1 -1.5,-0.8 -2.9,-1.6 -4.4,-2.6 l 0,2.7 c 1.1,0.7 2.2,1.3 3.3,1.9 7.3,3.8 15.1,4.6 21.4,2.3 3.1,-1.1 5.8,-3 8.5,-4.8 3.6,-2.4 6.9,-4.7 10.9,-5.2 6.1,-0.8 11.5,2.6 17.2,6.2 3.8,2.4 7.8,5 12.1,6.2 8.5,2.5 18.5,-0.6 24.1,-7.5 0.4,-0.5 0.3,-1.2 -0.2,-1.6 -0.4,-0.3 -1.2,-0.2 -1.6,0.3 z"
         id="path9637"
         inkscape:connector-curvature="0"
         style="fill:#031c72" />
    </g>
    <g
       id="g9639"
       transform="translate(7141.0025,2682.7654)">
      <g
         id="g9641">
        <path
           class="st1"
           d="m -6675.7,-2227.3 c -0.8,0 -1.6,-0.1 -2.4,-0.1 -7.5,-0.8 -14.8,-3.4 -21.2,-7.5 -2.1,-1.4 -4.1,-3 -6.1,-4.5 -5.5,-4.3 -10.7,-8.3 -17.2,-8.7 -7.1,-0.4 -13.1,3.7 -19.4,8 -2.8,1.9 -5.7,3.9 -8.8,5.5 -7.3,3.8 -15.1,4.6 -21.4,2.3 -3.1,-1.1 -5.8,-3 -8.5,-4.8 -3.6,-2.4 -6.9,-4.7 -10.9,-5.2 -6.1,-0.8 -11.5,2.6 -17.2,6.2 -3.8,2.4 -7.8,5 -12.1,6.2 -8.5,2.5 -18.5,-0.6 -24.1,-7.5 -0.4,-0.5 -0.3,-1.2 0.2,-1.6 0.5,-0.4 1.2,-0.3 1.6,0.2 5.1,6.2 14,9 21.7,6.7 4,-1.2 7.8,-3.6 11.5,-6 5.8,-3.7 11.8,-7.5 18.7,-6.6 4.5,0.6 8.2,3.1 11.9,5.6 2.5,1.7 5.2,3.5 8,4.5 5.7,2.1 12.8,1.3 19.5,-2.1 2.9,-1.5 5.8,-3.5 8.5,-5.4 6.4,-4.4 13,-8.9 20.8,-8.4 7.1,0.4 12.9,4.9 18.4,9.2 1.9,1.5 4,3.1 6,4.4 6,4 13,6.5 20.1,7.2 1.3,0.1 2.8,0.2 4.2,-0.1 2.6,-0.5 4.7,-2.3 6.9,-4.1 l 1.1,-1 c 4.4,-3.8 8.9,-7.7 14.5,-9.3 0.6,-0.2 1.2,0.2 1.4,0.8 0.2,0.6 -0.2,1.2 -0.8,1.4 -5.2,1.5 -9.5,5.2 -13.7,8.8 l -1.1,1 c -2.3,2 -4.9,4 -8,4.6 -0.5,0.2 -1.3,0.3 -2.1,0.3 z"
           id="path9643"
           inkscape:connector-curvature="0"
           style="fill:#031c72" />
      </g>
      <path
         class="st1"
         d="m -6642.5,-2242 c 5.2,1.5 9.5,5.2 13.7,8.8 l 1.1,1 c 2.3,2 4.9,4 8,4.6 0.8,0.2 1.7,0.2 2.5,0.2 0.8,0 1.6,-0.1 2.4,-0.1 7.5,-0.8 14.8,-3.4 21.2,-7.5 2.1,-1.4 4.1,-3 6.1,-4.5 5.5,-4.3 10.7,-8.3 17.2,-8.7 7.1,-0.4 13.1,3.7 19.4,8 1.8,1.2 3.6,2.4 5.4,3.6 l 0,-2.7 c -1.4,-0.9 -2.8,-1.9 -4.2,-2.8 -6.4,-4.4 -13,-8.9 -20.8,-8.4 -7.1,0.4 -12.9,4.9 -18.4,9.2 -1.9,1.5 -4,3.1 -6,4.4 -6,4 -13,6.5 -20.1,7.2 -1.3,0.1 -2.8,0.2 -4.2,-0.1 -2.6,-0.5 -4.7,-2.3 -6.9,-4.1 l -1.1,-1 c -4.4,-3.8 -8.9,-7.7 -14.5,-9.3 -0.6,-0.2 -1.2,0.2 -1.4,0.8 -0.4,0.6 0,1.2 0.6,1.4 z"
         id="path9645"
         inkscape:connector-curvature="0"
         style="fill:#031c72" />
      <path
         class="st1"
         d="m -6853.3,-2238.8 c -5.1,6.2 -14,9 -21.7,6.7 -4,-1.2 -7.8,-3.6 -11.5,-6 -5.8,-3.7 -11.8,-7.5 -18.7,-6.6 -4.5,0.6 -8.2,3.1 -11.9,5.6 -2.5,1.7 -5.2,3.5 -8,4.5 -5.7,2.1 -12.8,1.3 -19.5,-2.1 -1.5,-0.8 -2.9,-1.6 -4.4,-2.6 l 0,2.7 c 1.1,0.7 2.2,1.3 3.3,1.9 7.3,3.8 15.1,4.6 21.4,2.3 3.1,-1.1 5.8,-3 8.5,-4.8 3.6,-2.4 6.9,-4.7 10.9,-5.2 6.1,-0.8 11.5,2.6 17.2,6.2 3.8,2.4 7.8,5 12.1,6.2 8.5,2.5 18.5,-0.6 24.1,-7.5 0.4,-0.5 0.3,-1.2 -0.2,-1.6 -0.4,-0.3 -1.2,-0.2 -1.6,0.3 z"
         id="path9647"
         inkscape:connector-curvature="0"
         style="fill:#031c72" />
    </g>
    <g
       id="g9649"
       transform="translate(7141.0025,2682.7654)">
      <g
         id="g9651">
        <path
           class="st1"
           d="m -6675.7,-2214.3 c -0.8,0 -1.6,-0.1 -2.4,-0.1 -7.5,-0.8 -14.8,-3.4 -21.2,-7.5 -2.1,-1.4 -4.1,-3 -6.1,-4.5 -5.5,-4.3 -10.7,-8.3 -17.2,-8.7 -7.1,-0.4 -13.1,3.7 -19.4,8 -2.8,1.9 -5.7,3.9 -8.8,5.5 -7.3,3.8 -15.1,4.6 -21.4,2.3 -3.1,-1.1 -5.8,-3 -8.5,-4.8 -3.6,-2.4 -6.9,-4.7 -10.9,-5.2 -6.1,-0.8 -11.5,2.6 -17.2,6.2 -3.8,2.4 -7.8,5 -12.1,6.2 -8.5,2.5 -18.5,-0.6 -24.1,-7.5 -0.4,-0.5 -0.3,-1.2 0.2,-1.6 0.5,-0.4 1.2,-0.3 1.6,0.2 5.1,6.2 14,9 21.7,6.7 4,-1.2 7.8,-3.6 11.5,-6 5.8,-3.7 11.8,-7.5 18.7,-6.6 4.5,0.6 8.2,3.1 11.9,5.6 2.5,1.7 5.2,3.5 8,4.5 5.7,2.1 12.8,1.3 19.5,-2.1 2.9,-1.5 5.8,-3.5 8.5,-5.4 6.4,-4.4 13,-8.9 20.8,-8.4 7.1,0.4 12.9,4.9 18.4,9.2 1.9,1.5 4,3.1 6,4.4 6,4 13,6.5 20.1,7.2 1.3,0.1 2.8,0.2 4.2,-0.1 2.6,-0.5 4.7,-2.3 6.9,-4.1 l 1.1,-1 c 4.4,-3.8 8.9,-7.7 14.5,-9.3 0.6,-0.2 1.2,0.2 1.4,0.8 0.2,0.6 -0.2,1.2 -0.8,1.4 -5.2,1.5 -9.5,5.2 -13.7,8.8 l -1.1,1 c -2.3,2 -4.9,4 -8,4.6 -0.5,0.2 -1.3,0.3 -2.1,0.3 z"
           id="path9653"
           inkscape:connector-curvature="0"
           style="fill:#031c72" />
      </g>
      <path
         class="st1"
         d="m -6642.5,-2229 c 5.2,1.5 9.5,5.2 13.7,8.8 l 1.1,1 c 2.3,2 4.9,4 8,4.6 0.8,0.2 1.7,0.2 2.5,0.2 0.8,0 1.6,-0.1 2.4,-0.1 7.5,-0.8 14.8,-3.4 21.2,-7.5 2.1,-1.4 4.1,-3 6.1,-4.5 5.5,-4.3 10.7,-8.3 17.2,-8.7 7.1,-0.4 13.1,3.7 19.4,8 1.8,1.2 3.6,2.4 5.4,3.6 l 0,-2.7 c -1.4,-0.9 -2.8,-1.9 -4.2,-2.8 -6.4,-4.4 -13,-8.9 -20.8,-8.4 -7.1,0.4 -12.9,4.9 -18.4,9.2 -1.9,1.5 -4,3.1 -6,4.4 -6,4 -13,6.5 -20.1,7.2 -1.3,0.1 -2.8,0.2 -4.2,-0.1 -2.6,-0.5 -4.7,-2.3 -6.9,-4.1 l -1.1,-1 c -4.4,-3.8 -8.9,-7.7 -14.5,-9.3 -0.6,-0.2 -1.2,0.2 -1.4,0.8 -0.4,0.6 0,1.2 0.6,1.4 z"
         id="path9655"
         inkscape:connector-curvature="0"
         style="fill:#031c72" />
      <path
         class="st1"
         d="m -6853.3,-2225.8 c -5.1,6.2 -14,9 -21.7,6.7 -4,-1.2 -7.8,-3.6 -11.5,-6 -5.8,-3.7 -11.8,-7.5 -18.7,-6.6 -4.5,0.6 -8.2,3.1 -11.9,5.6 -2.5,1.7 -5.2,3.5 -8,4.5 -5.7,2.1 -12.8,1.3 -19.5,-2.1 -1.5,-0.8 -2.9,-1.6 -4.4,-2.6 l 0,2.7 c 1.1,0.7 2.2,1.3 3.3,1.9 7.3,3.8 15.1,4.6 21.4,2.3 3.1,-1.1 5.8,-3 8.5,-4.8 3.6,-2.4 6.9,-4.7 10.9,-5.2 6.1,-0.8 11.5,2.6 17.2,6.2 3.8,2.4 7.8,5 12.1,6.2 8.5,2.5 18.5,-0.6 24.1,-7.5 0.4,-0.5 0.3,-1.2 -0.2,-1.6 -0.4,-0.3 -1.2,-0.2 -1.6,0.3 z"
         id="path9657"
         inkscape:connector-curvature="0"
         style="fill:#031c72" />
    </g>
    <g
       id="g9659"
       transform="translate(7141.0025,2682.7654)">
      <g
         id="g9661">
        <path
           class="st1"
           d="m -6675.7,-2201.3 c -0.8,0 -1.6,-0.1 -2.4,-0.1 -7.5,-0.8 -14.8,-3.4 -21.2,-7.5 -2.1,-1.4 -4.1,-3 -6.1,-4.5 -5.5,-4.3 -10.7,-8.3 -17.2,-8.7 -7.1,-0.4 -13.1,3.7 -19.4,8 -2.8,1.9 -5.7,3.9 -8.8,5.5 -7.3,3.8 -15.1,4.6 -21.4,2.3 -3.1,-1.1 -5.8,-3 -8.5,-4.8 -3.6,-2.4 -6.9,-4.7 -10.9,-5.2 -6.1,-0.8 -11.5,2.6 -17.2,6.2 -3.8,2.4 -7.8,5 -12.1,6.2 -8.5,2.5 -18.5,-0.6 -24.1,-7.5 -0.4,-0.5 -0.3,-1.2 0.2,-1.6 0.5,-0.4 1.2,-0.3 1.6,0.2 5.1,6.2 14,9 21.7,6.7 4,-1.2 7.8,-3.6 11.5,-6 5.8,-3.7 11.8,-7.5 18.7,-6.6 4.5,0.6 8.2,3.1 11.9,5.6 2.5,1.7 5.2,3.5 8,4.5 5.7,2.1 12.8,1.3 19.5,-2.1 2.9,-1.5 5.8,-3.5 8.5,-5.4 6.4,-4.4 13,-8.9 20.8,-8.4 7.1,0.4 12.9,4.9 18.4,9.2 1.9,1.5 4,3.1 6,4.4 6,4 13,6.5 20.1,7.2 1.3,0.1 2.8,0.2 4.2,-0.1 2.6,-0.5 4.7,-2.3 6.9,-4.1 l 1.1,-1 c 4.4,-3.8 8.9,-7.7 14.5,-9.3 0.6,-0.2 1.2,0.2 1.4,0.8 0.2,0.6 -0.2,1.2 -0.8,1.4 -5.2,1.5 -9.5,5.2 -13.7,8.8 l -1.1,1 c -2.3,2 -4.9,4 -8,4.6 -0.5,0.2 -1.3,0.3 -2.1,0.3 z"
           id="path9663"
           inkscape:connector-curvature="0"
           style="fill:#031c72" />
      </g>
      <path
         class="st1"
         d="m -6642.5,-2216 c 5.2,1.5 9.5,5.2 13.7,8.8 l 1.1,1 c 2.3,2 4.9,4 8,4.6 0.8,0.2 1.7,0.2 2.5,0.2 0.8,0 1.6,-0.1 2.4,-0.1 7.5,-0.8 14.8,-3.4 21.2,-7.5 2.1,-1.4 4.1,-3 6.1,-4.5 5.5,-4.3 10.7,-8.3 17.2,-8.7 7.1,-0.4 13.1,3.7 19.4,8 1.8,1.2 3.6,2.4 5.4,3.6 l 0,-2.7 c -1.4,-0.9 -2.8,-1.9 -4.2,-2.8 -6.4,-4.4 -13,-8.9 -20.8,-8.4 -7.1,0.4 -12.9,4.9 -18.4,9.2 -1.9,1.5 -4,3.1 -6,4.4 -6,4 -13,6.5 -20.1,7.2 -1.3,0.1 -2.8,0.2 -4.2,-0.1 -2.6,-0.5 -4.7,-2.3 -6.9,-4.1 l -1.1,-1 c -4.4,-3.8 -8.9,-7.7 -14.5,-9.3 -0.6,-0.2 -1.2,0.2 -1.4,0.8 -0.4,0.6 0,1.2 0.6,1.4 z"
         id="path9665"
         inkscape:connector-curvature="0"
         style="fill:#031c72" />
      <path
         class="st1"
         d="m -6853.3,-2212.8 c -5.1,6.2 -14,9 -21.7,6.7 -4,-1.2 -7.8,-3.6 -11.5,-6 -5.8,-3.7 -11.8,-7.5 -18.7,-6.6 -4.5,0.6 -8.2,3.1 -11.9,5.6 -2.5,1.7 -5.2,3.5 -8,4.5 -5.7,2.1 -12.8,1.3 -19.5,-2.1 -1.5,-0.8 -2.9,-1.6 -4.4,-2.6 l 0,2.7 c 1.1,0.7 2.2,1.3 3.3,1.9 7.3,3.8 15.1,4.6 21.4,2.3 3.1,-1.1 5.8,-3 8.5,-4.8 3.6,-2.4 6.9,-4.7 10.9,-5.2 6.1,-0.8 11.5,2.6 17.2,6.2 3.8,2.4 7.8,5 12.1,6.2 8.5,2.5 18.5,-0.6 24.1,-7.5 0.4,-0.5 0.3,-1.2 -0.2,-1.6 -0.4,-0.3 -1.2,-0.2 -1.6,0.3 z"
         id="path9667"
         inkscape:connector-curvature="0"
         style="fill:#031c72" />
    </g>
    <g
       id="g9669"
       transform="translate(7141.0025,2682.7654)">
      <path
         class="st1"
         d="m -6656.3,-2070.1 c 1.9,-1.2 3.8,-2.1 5.9,-2.7 0.6,-0.2 1,-0.8 0.8,-1.4 -0.2,-0.6 -0.8,-1 -1.4,-0.8 -3.4,1 -6.4,2.8 -9.2,4.9 l 3.9,0 z"
         id="path9671"
         inkscape:connector-curvature="0"
         style="fill:#031c72" />
      <g
         id="g9673">
        <path
           class="st1"
           d="m -6642.5,-2072.9 c 2.1,0.6 4,1.6 5.9,2.7 l 4,0 c -2.8,-2.1 -5.8,-3.9 -9.2,-4.9 -0.6,-0.2 -1.2,0.2 -1.4,0.8 -0.3,0.6 0.1,1.3 0.7,1.4 z"
           id="path9675"
           inkscape:connector-curvature="0"
           style="fill:#031c72" />
        <path
           class="st1"
           d="m -6587.9,-2070.1 c 0.1,-0.1 0.2,-0.2 0.3,-0.2 5.5,-4.3 10.7,-8.3 17.2,-8.7 7.1,-0.4 13.1,3.7 19.4,8 0.4,0.3 0.9,0.6 1.3,0.9 l 4.1,0 c -1.4,-0.9 -2.8,-1.9 -4.2,-2.8 -6.4,-4.4 -13,-8.9 -20.8,-8.4 -7.1,0.4 -12.9,4.9 -18.4,9.2 -0.9,0.7 -1.8,1.4 -2.7,2 l 3.8,0 z"
           id="path9677"
           inkscape:connector-curvature="0"
           style="fill:#031c72" />
      </g>
      <path
         class="st1"
         d="m -6912.6,-2070.1 c 2.5,-1.5 4.9,-2.8 7.7,-3.1 4.3,-0.6 8.2,0.9 12.1,3.1 l 4.4,0 c -5.2,-3.3 -10.7,-6.2 -16.9,-5.4 -4.4,0.6 -8,3 -11.6,5.4 l 4.3,0 z"
         id="path9679"
         inkscape:connector-curvature="0"
         style="fill:#031c72" />
      <path
         class="st1"
         d="m -6743.2,-2070.1 c 0.4,-0.3 0.9,-0.6 1.3,-0.9 6.3,-4.3 12.3,-8.4 19.4,-8 6.4,0.4 11.6,4.4 17.2,8.7 0.1,0.1 0.2,0.2 0.3,0.2 l 3.8,0 c -0.9,-0.7 -1.8,-1.4 -2.7,-2 -5.6,-4.3 -11.3,-8.7 -18.4,-9.2 -7.8,-0.5 -14.4,4.1 -20.8,8.4 -1.4,0.9 -2.8,1.9 -4.2,2.8 l 4.1,0 z"
         id="path9681"
         inkscape:connector-curvature="0"
         style="fill:#031c72" />
      <path
         class="st1"
         d="m -6803.5,-2070.1 c 3.9,-2.2 7.8,-3.7 12.1,-3.1 2.8,0.4 5.2,1.6 7.7,3.1 l 4.2,0 c -3.5,-2.4 -7.2,-4.8 -11.6,-5.4 -6.2,-0.9 -11.7,2.1 -16.9,5.4 l 4.5,0 z"
         id="path9683"
         inkscape:connector-curvature="0"
         style="fill:#031c72" />
    </g>
    <g
       id="g9685"
       transform="translate(7141.0025,2682.7654)">
      <path
         class="st1"
         d="m -6808,-2473.5 c -0.6,0.4 -1.2,0.8 -1.9,1.2 -3.7,2.4 -7.5,4.8 -11.5,6 -7.7,2.2 -16.6,-0.5 -21.7,-6.7 -0.4,-0.5 -1.1,-0.6 -1.6,-0.2 -0.5,0.4 -0.6,1.1 -0.2,1.6 5.6,6.9 15.6,10 24.1,7.5 4.3,-1.3 8.3,-3.8 12.1,-6.2 1.7,-1.1 3.4,-2.2 5.1,-3.1 l -4.4,0 z"
         id="path9687"
         inkscape:connector-curvature="0"
         style="fill:#031c72" />
      <path
         class="st1"
         d="m -6916.8,-2473.5 c -0.1,0.1 -0.2,0.1 -0.3,0.2 -2.5,1.7 -5.2,3.5 -8,4.5 -5.7,2.1 -12.8,1.3 -19.5,-2.1 -1.5,-0.8 -2.9,-1.6 -4.4,-2.6 l 0,2.7 c 1.1,0.7 2.2,1.3 3.3,1.9 7.3,3.8 15.1,4.6 21.4,2.3 3.1,-1.1 5.8,-3 8.5,-4.8 1.1,-0.7 2.1,-1.4 3.2,-2.1 l -4.2,0 z"
         id="path9689"
         inkscape:connector-curvature="0"
         style="fill:#031c72" />
      <path
         class="st1"
         d="m -6747.4,-2473.5 c -1.4,0.9 -2.9,1.8 -4.4,2.6 -6.7,3.5 -13.8,4.3 -19.5,2.1 -2.8,-1 -5.4,-2.8 -8,-4.5 -0.1,-0.1 -0.2,-0.1 -0.3,-0.2 l -4.2,0 c 1.1,0.7 2.1,1.4 3.2,2.1 2.7,1.8 5.4,3.6 8.5,4.8 6.3,2.3 14.1,1.5 21.4,-2.3 2.6,-1.3 5,-3 7.4,-4.6 l -4.1,0 z"
         id="path9691"
         inkscape:connector-curvature="0"
         style="fill:#031c72" />
      <path
         class="st1"
         d="m -6853.3,-2473 c -5.1,6.2 -14,9 -21.7,6.7 -4,-1.2 -7.8,-3.6 -11.5,-6 -0.6,-0.4 -1.2,-0.8 -1.9,-1.2 l -4.4,0 c 1.7,0.9 3.4,2 5.1,3.1 3.8,2.4 7.8,5 12.1,6.2 8.5,2.5 18.5,-0.6 24.1,-7.5 0.4,-0.5 0.3,-1.2 -0.2,-1.6 -0.4,-0.3 -1.2,-0.2 -1.6,0.3 z"
         id="path9693"
         inkscape:connector-curvature="0"
         style="fill:#031c72" />
      <path
         class="st1"
         d="m -6660.3,-2473.5 c -1.8,1.4 -3.6,2.9 -5.3,4.4 l -1.1,1 c -2.2,1.9 -4.4,3.6 -6.9,4.1 -1.4,0.3 -2.9,0.2 -4.2,0.1 -7.2,-0.7 -14.1,-3.2 -20.1,-7.2 -1.1,-0.7 -2.2,-1.5 -3.3,-2.4 l -3.8,0 c 1.9,1.5 3.8,2.9 5.8,4.3 6.3,4.2 13.6,6.8 21.2,7.5 0.7,0.1 1.5,0.1 2.4,0.1 0.8,0 1.7,-0.1 2.5,-0.2 3.1,-0.6 5.6,-2.6 8,-4.6 l 1.1,-1 c 2.5,-2.2 5.1,-4.4 7.8,-6.1 l -4.1,0 z"
         id="path9695"
         inkscape:connector-curvature="0"
         style="fill:#031c72" />
      <path
         class="st1"
         d="m -6545.6,-2470.8 0,-2.7 -4.1,0 c 1.3,1 2.7,1.9 4.1,2.7 z"
         id="path9697"
         inkscape:connector-curvature="0"
         style="fill:#031c72" />
      <path
         class="st1"
         d="m -6591.7,-2473.5 c -1.1,0.8 -2.2,1.6 -3.3,2.4 -6,4 -13,6.5 -20.1,7.2 -1.3,0.1 -2.8,0.2 -4.2,-0.1 -2.6,-0.5 -4.7,-2.3 -6.9,-4.1 l -1.1,-1 c -1.7,-1.5 -3.5,-3 -5.3,-4.4 l -4,0 c 2.8,1.7 5.3,3.9 7.8,6.1 l 1.1,1 c 2.3,2 4.9,4 8,4.6 0.8,0.2 1.7,0.2 2.5,0.2 0.8,0 1.6,-0.1 2.4,-0.1 7.5,-0.8 14.8,-3.4 21.2,-7.5 2,-1.3 3.9,-2.8 5.8,-4.3 l -3.9,0 z"
         id="path9699"
         inkscape:connector-curvature="0"
         style="fill:#031c72" />
    </g>
  </g>
</svg>
