<?xml version="1.0" encoding="UTF-8" standalone="no"?>
<!-- Created with Inkscape (http://www.inkscape.org/) -->
<svg id="svg4640" xmlns:rdf="http://www.w3.org/1999/02/22-rdf-syntax-ns#" xmlns="http://www.w3.org/2000/svg" height="52.961mm" width="56.128mm" version="1.1" xmlns:cc="http://creativecommons.org/ns#" xmlns:dc="http://purl.org/dc/elements/1.1/" viewBox="0 0 198.87863 187.65562">
 <defs id="defs4642">
  <clipPath id="clipPath4528" clipPathUnits="userSpaceOnUse">
   <path id="path4530" d="m341.39 295.93h159.1v150.12h-159.1v-150.12z"/>
  </clipPath>
  <clipPath id="clipPath4500" clipPathUnits="userSpaceOnUse">
   <path id="path4502" d="m341.39 295.93h159.1v150.12h-159.1v-150.12z"/>
  </clipPath>
 </defs>
 <metadata id="metadata4645">
  <rdf:RDF>
   <cc:Work rdf:about="">
    <dc:format>image/svg+xml</dc:format>
    <dc:type rdf:resource="http://purl.org/dc/dcmitype/StillImage"/>
    <dc:title/>
   </cc:Work>
  </rdf:RDF>
 </metadata>
 <g id="layer1" transform="translate(-37.704 -418.53)">
  <g id="g4488" transform="matrix(1.25 0 0 -1.25 53.919 418.54)">
   <path id="path4490" d="m0 0v-29.873h-6.388v29.873h-6.584v-66.822h6.584v31.052h6.388v-31.052h6.485v66.822h-6.485z"/>
  </g>
  <g id="g4492" transform="matrix(1.25 0 0 -1.25 81.565 418.54)">
   <path id="path4494" d="m0 0v-66.822h15.625v5.797h-9.04v25.059h6.19v5.799h-6.19v24.37h9.04v5.797h-15.625z"/>
  </g>
  <g id="g4496" transform="matrix(1.25 0 0 -1.25 -389.04 976.1)">
   <g id="g4498" clip-path="url(#clipPath4500)">
    <g id="g4504" transform="translate(418.15 436.72)">
     <path id="path4506" d="m0 0c0 2.162-1.376 3.537-3.242 3.537h-3.047v-25.452h3.047c1.866 0 3.242 1.377 3.242 3.538v18.377zm1.474-57.488-5.307 29.775h-2.456v-29.775h-6.584v66.823h9.631c6.977 0 9.728-3.931 9.728-10.613v-16.706c0-4.127-1.573-6.584-4.422-8.156l6.19-31.348h-6.78z"/>
    </g>
    <g id="g4508" transform="translate(453.32 406.55)">
     <path id="path4510" d="m0 0c0 2.162-1.376 3.538-3.341 3.538h-2.948v-25.059h3.047c1.866 0 3.242 1.474 3.242 3.538v17.983zm-0.197 30.169c0 2.26-1.277 3.537-3.242 3.537h-2.85v-24.37h3.243c1.769 0 2.849 1.474 2.849 3.537v17.296zm-12.676-57.488v66.823h9.434c6.977 0 9.827-4.422 9.827-10.908v-14.838c0-3.636-1.278-5.7-3.833-7.272 2.948-1.671 3.931-4.226 3.931-8.157v-16.116c0-5.896-3.734-9.532-9.728-9.532h-9.631z"/>
    </g>
    <g id="g4512" transform="translate(486.99 420.7)">
     <path id="path4514" d="m0 0c2.43 3.595 3.984 5.149 3.984 10.88v4.857c0 2.235-1.263 3.692-3.109 3.692-1.943 0-3.109-1.457-3.109-3.692v-4.566c0-3.594 0.971-7.285 1.361-8.548l0.873-2.623zm-2.816-11.268c-1.749-2.72-2.137-4.371-2.137-9.228v-12.239c0-2.332 1.262-3.594 3.01-3.594 2.721 0 4.664 2.914 4.664 5.536 0 1.263-0.486 2.429-0.777 3.594l-4.76 15.931zm9.228-30.211-1.458 4.76c-2.039-3.593-3.788-5.536-7.77-5.536-5.635 0-8.549 3.982-8.549 10.199v10.88c0 7.092 0.777 8.936 6.119 16.514l-1.164 3.788c-1.652 5.537-2.332 7.771-2.332 11.754v4.857c0 5.731 3.982 9.617 10.006 9.617 5.731 0 9.131-3.497 9.131-12.142 0-10.589-5.149-15.154-8.451-19.429l3.594-12.239 1.651 9.909h6.216l-4.371-19.332 4.469-13.6h-7.091z"/>
    </g>
    <g id="g4516" transform="translate(354.27 324.03)">
     <path id="path4518" d="m0 0c0 2.162-1.376 3.538-3.341 3.538h-2.948v-25.059h3.047c1.866 0 3.242 1.474 3.242 3.538v17.983zm-0.197 30.169c0 2.26-1.277 3.537-3.242 3.537h-2.85v-24.37h3.243c1.769 0 2.849 1.474 2.849 3.537v17.296zm-12.676-57.488v66.823h9.434c6.977 0 9.827-4.422 9.827-10.908v-14.838c0-3.636-1.278-5.7-3.833-7.272 2.948-1.671 3.931-4.226 3.931-8.157v-16.116c0-5.896-3.734-9.532-9.728-9.532h-9.631z"/>
    </g>
   </g>
  </g>
  <g id="g4520" transform="matrix(1.25 0 0 -1.25 81.565 605.21)">
   <path id="path4522" d="m0 0v66.823h6.584v-61.025h9.042v-5.798h-15.626z"/>
  </g>
  <g id="g4524" transform="matrix(1.25 0 0 -1.25 -389.04 976.1)">
   <g id="g4526" clip-path="url(#clipPath4528)">
    <g id="g4532" transform="translate(418.24 354.89)">
     <path id="path4534" d="m0 0c0 2.063-1.376 3.439-3.242 3.439-1.868 0-3.145-1.376-3.145-3.439v-49.528c0-2.064 1.277-3.439 3.145-3.439 1.866 0 3.242 1.375 3.242 3.439v49.528zm-12.972-0.099c0 5.7 4.029 9.532 9.73 9.532 5.601 0 9.728-3.832 9.728-9.532v-49.331c0-5.7-4.127-9.532-9.728-9.532-5.701 0-9.73 3.832-9.73 9.532v49.331z"/>
    </g>
    <g id="g4536" transform="translate(453.42 354.89)">
     <path id="path4538" d="m0 0c0 2.063-1.376 3.439-3.242 3.439-1.868 0-3.145-1.376-3.145-3.439v-49.528c0-2.064 1.277-3.439 3.145-3.439 1.866 0 3.242 1.375 3.242 3.439v49.528zm-12.972-0.099c0 5.7 4.029 9.532 9.73 9.532 5.601 0 9.728-3.832 9.728-9.532v-49.331c0-5.7-4.127-9.532-9.728-9.532-5.701 0-9.73 3.832-9.73 9.532v49.331z"/>
    </g>
    <g id="g4540" transform="translate(491.65 296.72)">
     <path id="path4542" d="m0 0v46.973h-0.099l-4.815-20.931-4.717 20.931h-0.099v-46.973h-6.289v66.823h6.388l4.717-23.29 5.012 23.29h6.092v-66.823h-6.19z"/>
    </g>
   </g>
  </g>
 </g>
</svg>