<?xml version="1.0" encoding="utf-8"?>
<!-- Generator: Adobe Illustrator 21.0.2, SVG Export Plug-In . SVG Version: 6.00 Build 0)  -->
<svg version="1.1" id="Layer_1" xmlns="http://www.w3.org/2000/svg" xmlns:xlink="http://www.w3.org/1999/xlink" x="0px" y="0px"
	 viewBox="0 0 474.5 457.7" style="enable-background:new 0 0 474.5 457.7;" xml:space="preserve">
<style type="text/css">
	.st0{fill:#FFFFFF;}
</style>
<g>
	<path class="st0" d="M92.5,210.9v-67.5H78.6v67.5H64.3V65.7h14.3v64.9h13.9V65.7h14.1v145.2H92.5z"/>
	<path class="st0" d="M140.6,210.9V65.7h34v12.6h-19.6v53h13.5v12.6h-13.5v54.5h19.6v12.6H140.6z"/>
	<path class="st0" d="M234.4,210.9l-11.5-64.7h-5.3v64.7h-14.3V65.7h20.9c15.2,0,21.1,8.5,21.1,23.1v36.3c0,9-3.4,14.3-9.6,17.7
		l13.5,68.1H234.4z M231.2,86c0-4.7-3-7.7-7-7.7h-6.6v55.3h6.6c4.1,0,7-3,7-7.7V86z"/>
	<path class="st0" d="M279.6,210.9V65.7h20.5c15.2,0,21.4,9.6,21.4,23.7v32.2c0,7.9-2.8,12.4-8.3,15.8c6.4,3.6,8.5,9.2,8.5,17.7v35
		c0,12.8-8.1,20.7-21.1,20.7H279.6z M307.2,86c0-4.9-2.8-7.7-7-7.7h-6.2v53h7c3.8,0,6.2-3.2,6.2-7.7V86z M307.6,151.6
		c0-4.7-3-7.7-7.3-7.7h-6.4v54.5h6.6c4.1,0,7-3.2,7-7.7V151.6z"/>
	<path class="st0" d="M394.7,211l-3.2-10.3c-4.4,7.8-8.2,12-16.9,12c-12.2,0-18.6-8.7-18.6-22.2v-23.6c0-15.4,1.7-19.4,13.3-35.9
		l-2.5-8.2c-3.6-12-5.1-16.9-5.1-25.5V86.6c0-12.5,8.7-20.9,21.7-20.9c12.5,0,19.8,7.6,19.8,26.4c0,23-11.2,32.9-18.4,42.2l7.8,26.6
		l3.6-21.5h13.5l-9.5,42l9.7,29.6H394.7z M374.7,145.3c-3.8,5.9-4.6,9.5-4.6,20.1V192c0,5.1,2.7,7.8,6.5,7.8c5.9,0,10.1-6.3,10.1-12
		c0-2.7-1.1-5.3-1.7-7.8L374.7,145.3z M380.8,120.8c5.3-7.8,8.7-11.2,8.7-23.6V86.6c0-4.9-2.7-8-6.8-8c-4.2,0-6.8,3.2-6.8,8v9.9
		c0,7.8,2.1,15.8,3,18.6L380.8,120.8z"/>
	<path class="st0" d="M64.3,390.3V245h20.5c15.2,0,21.4,9.6,21.4,23.7V301c0,7.9-2.8,12.4-8.3,15.8c6.4,3.6,8.5,9.2,8.5,17.7v35
		c0,12.8-8.1,20.7-21.1,20.7H64.3z M91.9,265.3c0-4.9-2.8-7.7-7-7.7h-6.2v53h7c3.8,0,6.2-3.2,6.2-7.7V265.3z M92.3,330.9
		c0-4.7-3-7.7-7.3-7.7h-6.4v54.5h6.6c4.1,0,7-3.2,7-7.7V330.9z"/>
	<path class="st0" d="M140.6,390.3V245h14.3v132.6h19.7v12.6H140.6z"/>
	<path class="st0" d="M203.2,264.1c0-12.4,8.8-20.7,21.1-20.7c12.2,0,21.1,8.3,21.1,20.7v107.2c0,12.4-9,20.7-21.1,20.7
		c-12.4,0-21.1-8.3-21.1-20.7V264.1z M231.4,263.8c0-4.5-3-7.5-7-7.5c-4.1,0-6.8,3-6.8,7.5v107.6c0,4.5,2.8,7.5,6.8,7.5
		c4.1,0,7-3,7-7.5V263.8z"/>
	<path class="st0" d="M279.6,264.1c0-12.4,8.8-20.7,21.1-20.7c12.2,0,21.1,8.3,21.1,20.7v107.2c0,12.4-9,20.7-21.1,20.7
		c-12.4,0-21.1-8.3-21.1-20.7V264.1z M307.8,263.8c0-4.5-3-7.5-7-7.5c-4.1,0-6.8,3-6.8,7.5v107.6c0,4.5,2.8,7.5,6.8,7.5
		c4.1,0,7-3,7-7.5V263.8z"/>
	<path class="st0" d="M390.9,390.3V288.2h-0.2l-10.5,45.5L370,288.2h-0.2v102.1h-13.7V245H370l10.3,50.6l10.9-50.6h13.2v145.2H390.9
		z"/>
</g>
</svg>
