<?xml version="1.0" encoding="utf-8"?>
<!-- Generator: Adobe Illustrator 21.0.2, SVG Export Plug-In . SVG Version: 6.00 Build 0)  -->
<svg version="1.1" id="Layer_1" xmlns="http://www.w3.org/2000/svg" xmlns:xlink="http://www.w3.org/1999/xlink" x="0px" y="0px"
	 viewBox="0 0 474.5 457.7" style="enable-background:new 0 0 474.5 457.7;" xml:space="preserve">
<style type="text/css">
	.st0{fill:#EFECE1;}
	.st1{fill:#031C72;}
</style>
<rect class="st0" width="474.5" height="457.7"/>
<g>
	<path class="st1" d="M92.5,211.3v-67.5H78.6v67.5H64.3V66h14.3V131h13.9V66h14.1v145.2H92.5z"/>
	<path class="st1" d="M140.6,211.3V66h34v12.6h-19.6v53h13.5v12.6h-13.5v54.5h19.6v12.6H140.6z"/>
	<path class="st1" d="M234.4,211.3l-11.5-64.7h-5.3v64.7h-14.3V66h20.9c15.2,0,21.1,8.5,21.1,23.1v36.3c0,9-3.4,14.3-9.6,17.7
		l13.5,68.1H234.4z M231.2,86.3c0-4.7-3-7.7-7-7.7h-6.6v55.3h6.6c4.1,0,7-3,7-7.7V86.3z"/>
	<path class="st1" d="M279.6,211.3V66h20.5c15.2,0,21.4,9.6,21.4,23.7V122c0,7.9-2.8,12.4-8.3,15.8c6.4,3.6,8.5,9.2,8.5,17.7v35
		c0,12.8-8.1,20.7-21.1,20.7H279.6z M307.2,86.3c0-4.9-2.8-7.7-7-7.7h-6.2v53h7c3.8,0,6.2-3.2,6.2-7.7V86.3z M307.6,151.9
		c0-4.7-3-7.7-7.3-7.7h-6.4v54.5h6.6c4.1,0,7-3.2,7-7.7V151.9z"/>
	<path class="st1" d="M394.7,211.3l-3.2-10.3c-4.4,7.8-8.2,12-16.9,12c-12.2,0-18.6-8.7-18.6-22.2v-23.6c0-15.4,1.7-19.4,13.3-35.9
		l-2.5-8.2c-3.6-12-5.1-16.9-5.1-25.5V86.9c0-12.5,8.7-20.9,21.7-20.9c12.5,0,19.8,7.6,19.8,26.4c0,23-11.2,32.9-18.4,42.2l7.8,26.6
		l3.6-21.5h13.5l-9.5,42l9.7,29.6H394.7z M374.7,145.6c-3.8,5.9-4.6,9.5-4.6,20.1v26.6c0,5.1,2.7,7.8,6.5,7.8
		c5.9,0,10.1-6.3,10.1-12c0-2.7-1.1-5.3-1.7-7.8L374.7,145.6z M380.8,121.1c5.3-7.8,8.7-11.2,8.7-23.6V86.9c0-4.9-2.7-8-6.8-8
		c-4.2,0-6.8,3.2-6.8,8v9.9c0,7.8,2.1,15.8,3,18.6L380.8,121.1z"/>
	<path class="st1" d="M64.3,390.6V245.4h20.5c15.2,0,21.4,9.6,21.4,23.7v32.2c0,7.9-2.8,12.4-8.3,15.8c6.4,3.6,8.5,9.2,8.5,17.7v35
		c0,12.8-8.1,20.7-21.1,20.7H64.3z M91.9,265.7c0-4.9-2.8-7.7-7-7.7h-6.2v53h7c3.8,0,6.2-3.2,6.2-7.7V265.7z M92.3,331.2
		c0-4.7-3-7.7-7.3-7.7h-6.4V378h6.6c4.1,0,7-3.2,7-7.7V331.2z"/>
	<path class="st1" d="M140.6,390.6V245.4h14.3V378h19.7v12.6H140.6z"/>
	<path class="st1" d="M203.2,264.4c0-12.4,8.8-20.7,21.1-20.7c12.2,0,21.1,8.3,21.1,20.7v107.2c0,12.4-9,20.7-21.1,20.7
		c-12.4,0-21.1-8.3-21.1-20.7V264.4z M231.4,264.2c0-4.5-3-7.5-7-7.5c-4.1,0-6.8,3-6.8,7.5v107.6c0,4.5,2.8,7.5,6.8,7.5
		c4.1,0,7-3,7-7.5V264.2z"/>
	<path class="st1" d="M279.6,264.4c0-12.4,8.8-20.7,21.1-20.7c12.2,0,21.1,8.3,21.1,20.7v107.2c0,12.4-9,20.7-21.1,20.7
		c-12.4,0-21.1-8.3-21.1-20.7V264.4z M307.8,264.2c0-4.5-3-7.5-7-7.5c-4.1,0-6.8,3-6.8,7.5v107.6c0,4.5,2.8,7.5,6.8,7.5
		c4.1,0,7-3,7-7.5V264.2z"/>
	<path class="st1" d="M390.9,390.6V288.5h-0.2L380.2,334L370,288.5h-0.2v102.1h-13.7V245.4H370l10.3,50.6l10.9-50.6h13.2v145.2
		H390.9z"/>
</g>
</svg>
